<svg width="612" height="504" viewBox="0 0 612 504" fill="none" xmlns="http://www.w3.org/2000/svg">
<circle cx="332.375" cy="252.359" r="250" fill="url(#paint0_linear_2706_22434)"/>
<path d="M594.766 275.725C592.931 276.643 590.112 278.806 588.342 280.706C584.606 284.967 578.708 296.699 574.382 308.825L571.236 317.608L565.992 322.327C560.486 327.243 554.784 331.962 553.276 332.814C552.752 333.142 553.866 331.306 555.702 328.75C560.224 322.589 564.681 314.068 565.861 309.284C567.893 301.68 566.713 293.881 563.305 291.652C560.617 289.883 555.833 290.341 552.293 292.57C544.887 297.223 542.331 305.613 540.561 331.175L539.774 342.58L535.449 345.267C528.697 349.593 514.278 357.655 510.214 359.359C509.886 359.49 512.443 356.541 515.982 352.805C526.272 341.924 530.86 333.928 530.86 326.915C530.86 320.361 527.452 317.083 521.225 317.608C514.802 318.132 510.149 323.507 506.74 334.256C504.577 341.203 501.3 353.919 500.055 360.473L499.268 364.537L494.549 366.307C491.993 367.29 489.043 368.47 487.929 368.929C481.637 371.616 456.534 378.367 455.747 377.58C455.616 377.449 458.041 375.286 461.122 372.796C474.296 362.243 483.013 350.445 482.161 344.35C481.702 340.81 480.129 338.582 477.311 337.336C473.116 335.632 468.659 337.205 463.219 342.252C457.713 347.43 453.387 356.475 449.914 370.239L447.816 378.76L444.605 379.219C435.297 380.464 421.337 379.285 413.34 376.532C406.851 374.303 400.756 370.633 397.151 366.897C393.546 363.095 393.415 363.03 391.907 364.013C391.121 364.472 391.186 364.799 392.235 366.11C401.542 377.318 420.353 382.824 443.556 381.12L452.798 380.464L460.532 388.198C465.185 392.852 470.494 397.375 473.837 399.538C487.274 408.452 497.499 407.862 497.433 398.292C497.367 393.049 492.976 387.084 486.815 383.938C483.407 382.234 475.869 380.071 470.888 379.35C465.382 378.629 465.579 378.105 472.002 376.466C475.345 375.614 480.916 373.975 484.324 372.861L490.616 370.764L492.517 372.337C495.86 375.024 504.905 380.268 509.69 382.365C518.276 385.97 523.716 387.15 531.516 386.822C540.037 386.56 544.035 384.921 546.132 380.792C547.378 378.432 547.378 378.039 546.525 375.614C545.936 373.844 544.625 372.206 542.789 370.764C537.808 366.962 530.664 365.782 514.474 366.11C507.986 366.241 502.677 366.176 502.742 365.979C502.742 365.782 506.478 363.882 511.001 361.719C515.589 359.556 523.061 355.492 527.714 352.739L536.235 347.758L538.595 348.741C542.265 350.249 552.818 353.329 559.044 354.64C562.715 355.427 567.368 355.82 572.809 355.754C579.887 355.754 581.526 355.558 584.934 354.181C592.472 351.232 594.635 346.25 590.44 341.466C584.803 334.977 571.629 334.78 550.851 340.745C547.705 341.662 545.018 342.318 544.952 342.252C544.821 342.121 548.754 339.041 553.67 335.37C558.651 331.634 565.468 326.128 568.876 323.113C574.119 318.46 575.889 317.28 580.018 315.772C598.961 309.021 610.3 298.534 611.283 286.802C611.545 283.787 611.283 282.542 610.038 280.182C608.006 276.249 605.712 274.742 601.517 274.414C598.83 274.218 597.256 274.545 594.766 275.725ZM604.139 277.495C606.367 278.871 608.202 282.214 608.202 284.967C608.202 285.819 607.612 288.506 606.891 290.866C604.597 298.141 597.125 305.023 585.327 310.66C582.706 311.905 580.412 312.889 580.346 312.757C580.215 312.626 582.312 309.939 585 306.727C587.687 303.516 589.85 300.632 589.85 300.304C589.85 300.042 589.129 299.78 588.277 299.78C587.163 299.78 585.655 301.091 582.706 304.761C580.412 307.514 578.445 309.546 578.249 309.415C577.724 308.89 582.444 297.486 585.917 290.866C589.981 283 592.603 279.854 596.667 277.822C600.599 275.856 601.386 275.791 604.139 277.495ZM561.797 294.602C562.78 295.913 563.043 297.355 563.043 301.353C563.043 304.106 562.715 307.579 562.256 309.152C560.552 315.641 553.604 327.112 546.591 335.173L544.035 338.123L543.969 334.452C543.969 330.258 545.673 313.085 546.591 308.169C547.836 301.615 550.917 296.634 555.439 293.815C557.996 292.177 560.224 292.439 561.797 294.602ZM526.403 322.13C529.681 326.456 527.059 334.649 519.456 344.022C513.753 351.166 503.987 360.736 503.987 359.228C503.987 357.458 509.624 335.894 511.263 331.569C514.081 323.9 518.079 319.902 522.602 320.229C524.437 320.361 525.486 320.885 526.403 322.13ZM584.475 339.893C589.195 342.121 590.571 346.709 587.359 349.79C581.526 355.361 565.795 355.099 546.657 349.2C543.379 348.151 540.692 347.102 540.692 346.84C540.692 346.316 550.327 343.17 558.389 341.072C571.498 337.664 579.035 337.336 584.475 339.893ZM476.918 340.81C478.36 342.252 478.556 342.908 478.294 345.595C477.901 349.528 475.804 353.919 472.133 358.442C469.38 361.784 455.878 373.91 453.322 375.286C452.208 375.876 452.142 375.745 452.535 373.713C453.519 369.125 457.648 357.786 460.27 352.412C465.71 341.203 472.526 336.484 476.918 340.81ZM530.795 369.322C538.857 370.698 543.314 373.844 543.314 378.17C543.314 382.431 537.939 384.725 528.894 384.135C522.34 383.742 516.375 381.972 508.248 378.105C501.497 374.828 494.549 370.567 495.073 370.043C496.45 368.732 524.044 368.208 530.795 369.322ZM470.167 381.12C484.259 382.955 493.042 389.116 494.025 397.833C494.418 401.569 493.042 403.339 489.568 403.339C486.553 403.339 478.229 399.341 472.526 395.146C468.2 391.935 457.451 381.382 457.451 380.333C457.451 379.743 461.122 379.94 470.167 381.12Z" fill="#1EC474"/>
<path d="M394.894 133.309H401.294C404.689 133.309 407.944 134.657 410.345 137.058C412.745 139.458 414.094 142.714 414.094 146.109C414.094 149.503 412.745 152.759 410.345 155.16C407.944 157.56 404.689 158.909 401.294 158.909V164.509C393.294 161.309 382.094 156.509 382.094 146.109C382.094 142.714 383.442 139.458 385.843 137.058C388.243 134.657 391.499 133.309 394.894 133.309Z" fill="white"/>
<rect x="399.427" y="122.641" width="46.6667" height="21.3333" rx="10.6667" fill="#FE5430"/>
<path d="M409.311 128.751C409.945 128.751 410.528 128.895 411.062 129.181C411.6 129.463 412.039 129.941 412.377 130.613C412.72 131.282 412.892 132.163 412.892 133.257C412.892 134.346 412.742 135.279 412.443 136.056C412.147 136.833 411.722 137.425 411.166 137.833C410.615 138.237 409.962 138.439 409.207 138.439C408.638 138.439 408.126 138.33 407.67 138.113C407.219 137.892 406.85 137.586 406.564 137.195C406.281 136.8 406.104 136.347 406.03 135.835H407.449C407.549 136.247 407.751 136.577 408.054 136.824C408.363 137.067 408.747 137.189 409.207 137.189C409.689 137.189 410.101 137.054 410.444 136.785C410.791 136.512 411.056 136.119 411.238 135.607C411.425 135.09 411.52 134.476 411.525 133.764H411.407C411.151 134.164 410.811 134.476 410.385 134.702C409.964 134.928 409.502 135.04 408.999 135.04C408.439 135.04 407.926 134.908 407.462 134.643C406.998 134.378 406.629 134.01 406.355 133.536C406.086 133.063 405.952 132.532 405.952 131.941C405.952 131.347 406.091 130.806 406.368 130.32C406.65 129.834 407.045 129.452 407.553 129.174C408.065 128.892 408.651 128.751 409.311 128.751ZM409.337 129.949C408.964 129.949 408.625 130.038 408.321 130.216C408.018 130.39 407.779 130.628 407.605 130.932C407.432 131.232 407.345 131.559 407.345 131.915C407.345 132.276 407.429 132.605 407.599 132.905C407.768 133.204 408.002 133.441 408.302 133.615C408.601 133.784 408.938 133.868 409.311 133.868C409.68 133.868 410.018 133.777 410.327 133.595C410.635 133.413 410.878 133.172 411.056 132.872C411.238 132.569 411.329 132.245 411.329 131.902C411.329 131.564 411.242 131.245 411.069 130.945C410.9 130.646 410.661 130.405 410.353 130.223C410.049 130.04 409.71 129.949 409.337 129.949ZM418.152 128.751C418.785 128.751 419.369 128.895 419.903 129.181C420.441 129.463 420.879 129.941 421.218 130.613C421.561 131.282 421.732 132.163 421.732 133.257C421.732 134.346 421.583 135.279 421.283 136.056C420.988 136.833 420.563 137.425 420.007 137.833C419.456 138.237 418.803 138.439 418.047 138.439C417.479 138.439 416.967 138.33 416.511 138.113C416.06 137.892 415.691 137.586 415.404 137.195C415.122 136.8 414.944 136.347 414.87 135.835H416.29C416.389 136.247 416.591 136.577 416.895 136.824C417.203 137.067 417.587 137.189 418.047 137.189C418.529 137.189 418.942 137.054 419.284 136.785C419.632 136.512 419.896 136.119 420.079 135.607C420.265 135.09 420.361 134.476 420.365 133.764H420.248C419.992 134.164 419.651 134.476 419.226 134.702C418.805 134.928 418.343 135.04 417.839 135.04C417.279 135.04 416.767 134.908 416.303 134.643C415.838 134.378 415.469 134.01 415.196 133.536C414.927 133.063 414.792 132.532 414.792 131.941C414.792 131.347 414.931 130.806 415.209 130.32C415.491 129.834 415.886 129.452 416.394 129.174C416.906 128.892 417.492 128.751 418.152 128.751ZM418.178 129.949C417.804 129.949 417.466 130.038 417.162 130.216C416.858 130.39 416.62 130.628 416.446 130.932C416.272 131.232 416.185 131.559 416.185 131.915C416.185 132.276 416.27 132.605 416.439 132.905C416.609 133.204 416.843 133.441 417.143 133.615C417.442 133.784 417.778 133.868 418.152 133.868C418.521 133.868 418.859 133.777 419.167 133.595C419.475 133.413 419.718 133.172 419.896 132.872C420.079 132.569 420.17 132.245 420.17 131.902C420.17 131.564 420.083 131.245 419.909 130.945C419.74 130.646 419.501 130.405 419.193 130.223C418.889 130.04 418.551 129.949 418.178 129.949ZM426.992 128.751C427.626 128.751 428.21 128.895 428.744 129.181C429.282 129.463 429.72 129.941 430.059 130.613C430.402 131.282 430.573 132.163 430.573 133.257C430.573 134.346 430.423 135.279 430.124 136.056C429.829 136.833 429.403 137.425 428.848 137.833C428.297 138.237 427.643 138.439 426.888 138.439C426.32 138.439 425.807 138.33 425.352 138.113C424.9 137.892 424.531 137.586 424.245 137.195C423.963 136.8 423.785 136.347 423.711 135.835H425.13C425.23 136.247 425.432 136.577 425.736 136.824C426.044 137.067 426.428 137.189 426.888 137.189C427.37 137.189 427.782 137.054 428.125 136.785C428.472 136.512 428.737 136.119 428.919 135.607C429.106 135.09 429.201 134.476 429.206 133.764H429.089C428.833 134.164 428.492 134.476 428.066 134.702C427.645 134.928 427.183 135.04 426.68 135.04C426.12 135.04 425.608 134.908 425.143 134.643C424.679 134.378 424.31 134.01 424.037 133.536C423.767 133.063 423.633 132.532 423.633 131.941C423.633 131.347 423.772 130.806 424.05 130.32C424.332 129.834 424.727 129.452 425.234 129.174C425.747 128.892 426.333 128.751 426.992 128.751ZM427.018 129.949C426.645 129.949 426.306 130.038 426.003 130.216C425.699 130.39 425.46 130.628 425.287 130.932C425.113 131.232 425.026 131.559 425.026 131.915C425.026 132.276 425.111 132.605 425.28 132.905C425.449 133.204 425.684 133.441 425.983 133.615C426.283 133.784 426.619 133.868 426.992 133.868C427.361 133.868 427.7 133.777 428.008 133.595C428.316 133.413 428.559 133.172 428.737 132.872C428.919 132.569 429.01 132.245 429.01 131.902C429.01 131.564 428.924 131.245 428.75 130.945C428.581 130.646 428.342 130.405 428.034 130.223C427.73 130.04 427.392 129.949 427.018 129.949ZM435.39 134.233H432.903V132.983H435.39V130.496H436.64V132.983H439.14V134.233H436.64V136.72H435.39V134.233Z" fill="white"/>
<rect x="382.094" y="172.508" width="174" height="40" rx="12" fill="#CEEAFA"/>
<path d="M407.688 192.555H405.133V191.32H407.688V192.555ZM405.516 199.82H404.039V185.828H405.516V199.82ZM396.625 195.875H395.148V187.195H396.625V195.875ZM396.297 195.078C397.396 195.078 398.482 195.029 399.555 194.93C400.628 194.831 401.716 194.667 402.82 194.438L403 195.688C401.88 195.917 400.771 196.078 399.672 196.172C398.578 196.266 397.453 196.312 396.297 196.312H395.148V195.078H396.297ZM417.211 189.961C417.211 190.966 417.036 191.951 416.688 192.914C416.339 193.872 415.859 194.727 415.25 195.477C414.641 196.221 413.951 196.781 413.18 197.156L412.305 195.992C412.997 195.659 413.625 195.172 414.188 194.531C414.75 193.885 415.19 193.164 415.508 192.367C415.831 191.565 415.992 190.763 415.992 189.961V187.883H417.211V189.961ZM417.492 189.961C417.492 190.732 417.648 191.497 417.961 192.258C418.279 193.018 418.719 193.695 419.281 194.289C419.849 194.883 420.487 195.333 421.195 195.641L420.375 196.805C419.583 196.451 418.878 195.924 418.258 195.227C417.643 194.529 417.164 193.724 416.82 192.812C416.482 191.901 416.312 190.951 416.312 189.961V187.883H417.492V189.961ZM420.695 188.469H412.797V187.25H420.695V188.469ZM423.945 199.828H422.453V185.828H423.945V199.828ZM436.828 187.758H427.773V186.547H436.828V187.758ZM438.984 192.867H426.172V191.656H438.984V192.867ZM437.359 187.617C437.359 188.424 437.333 189.156 437.281 189.812C437.229 190.469 437.107 191.219 436.914 192.062L435.43 191.992C435.576 191.409 435.68 190.862 435.742 190.352C435.805 189.836 435.844 189.385 435.859 189C435.875 188.609 435.883 188.148 435.883 187.617V186.547H437.359V187.617ZM437.383 199.656H427.727V194.648H437.383V199.656ZM429.195 198.453H435.914V195.812H429.195V198.453ZM451.008 194.938H449.555V192.836H451.008V194.938ZM456.656 193.094H443.93V191.977H456.656V193.094ZM451.008 187.469H449.547V185.773H451.008V187.469ZM450.766 187.812C450.766 188.505 450.518 189.109 450.023 189.625C449.529 190.141 448.846 190.547 447.977 190.844C447.107 191.141 446.102 191.333 444.961 191.422L444.547 190.305C445.521 190.247 446.38 190.109 447.125 189.891C447.87 189.667 448.445 189.378 448.852 189.023C449.258 188.664 449.461 188.26 449.461 187.812V187.578H450.766V187.812ZM451.102 187.812C451.102 188.26 451.305 188.664 451.711 189.023C452.117 189.378 452.693 189.667 453.438 189.891C454.188 190.109 455.049 190.247 456.023 190.305L455.586 191.422C454.456 191.333 453.456 191.141 452.586 190.844C451.721 190.547 451.039 190.141 450.539 189.625C450.044 189.109 449.797 188.505 449.797 187.812V187.578H451.102V187.812ZM455.398 188.148H445.195V187.016H455.398V188.148ZM455.055 197.414H446.914V199.008H445.453V196.383H453.602V195.352H445.43V194.258H455.055V197.414ZM455.461 199.695H445.453V198.578H455.461V199.695ZM468.328 187.859H459.336V186.656H468.328V187.859ZM470.547 193.414H457.734V192.188H470.547V193.414ZM468.922 187.781C468.922 188.672 468.896 189.484 468.844 190.219C468.792 190.948 468.667 191.771 468.469 192.688L467.008 192.562C467.143 191.922 467.242 191.323 467.305 190.766C467.367 190.208 467.406 189.719 467.422 189.297C467.438 188.875 467.445 188.37 467.445 187.781V186.656H468.922V187.781ZM469.336 199.531H459.414V198.312H469.336V199.531ZM460.883 198.477H459.414V194.867H460.883V198.477ZM482.469 199.828H481V185.828H482.469V199.828ZM484.727 192.734H482.133V191.508H484.727V192.734ZM479.781 189.234H471.484V188.023H479.781V189.234ZM475.695 190.273C476.362 190.273 476.958 190.411 477.484 190.688C478.016 190.964 478.43 191.349 478.727 191.844C479.029 192.339 479.18 192.898 479.18 193.523C479.18 194.154 479.029 194.716 478.727 195.211C478.43 195.706 478.016 196.091 477.484 196.367C476.958 196.643 476.362 196.781 475.695 196.781C475.023 196.781 474.424 196.643 473.898 196.367C473.372 196.091 472.958 195.706 472.656 195.211C472.359 194.716 472.211 194.154 472.211 193.523C472.211 192.898 472.359 192.339 472.656 191.844C472.958 191.349 473.372 190.964 473.898 190.688C474.424 190.411 475.023 190.273 475.695 190.273ZM475.695 191.5C475.299 191.5 474.945 191.586 474.633 191.758C474.32 191.924 474.073 192.161 473.891 192.469C473.714 192.776 473.625 193.128 473.625 193.523C473.625 193.924 473.714 194.276 473.891 194.578C474.073 194.88 474.32 195.117 474.633 195.289C474.945 195.456 475.299 195.539 475.695 195.539C476.091 195.539 476.445 195.456 476.758 195.289C477.07 195.117 477.315 194.88 477.492 194.578C477.669 194.276 477.758 193.924 477.758 193.523C477.758 193.128 477.669 192.776 477.492 192.469C477.315 192.161 477.07 191.924 476.758 191.758C476.445 191.586 476.091 191.5 475.695 191.5ZM476.422 188.539H474.945V186.016H476.422V188.539ZM495.789 188.383H486.734V187.18H495.789V188.383ZM498.156 197.938H485.391V196.719H498.156V197.938ZM491.711 197.352H490.25V191.781H491.711V197.352ZM496.719 188.555C496.719 189.383 496.708 190.078 496.688 190.641C496.667 191.198 496.62 191.859 496.547 192.625C496.474 193.385 496.357 194.208 496.195 195.094L494.688 194.93C494.859 194.091 494.984 193.299 495.062 192.555C495.141 191.81 495.188 191.151 495.203 190.578C495.224 190 495.234 189.326 495.234 188.555V187.18H496.719V188.555ZM507.703 195.094C507.703 195.74 507.578 196.365 507.328 196.969C507.083 197.568 506.721 198.099 506.242 198.562C505.768 199.026 505.193 199.383 504.516 199.633L503.773 198.547C504.357 198.333 504.854 198.044 505.266 197.68C505.682 197.31 506 196.901 506.219 196.453C506.438 196.005 506.547 195.552 506.547 195.094V194.422H507.703V195.094ZM507.984 195.094C507.984 195.562 508.078 196.029 508.266 196.492C508.453 196.951 508.734 197.367 509.109 197.742C509.484 198.117 509.948 198.417 510.5 198.641L509.891 199.75C509.219 199.495 508.659 199.125 508.211 198.641C507.768 198.156 507.44 197.609 507.227 197C507.018 196.391 506.914 195.755 506.914 195.094V194.422H507.984V195.094ZM512.844 195.094C512.844 195.698 512.734 196.307 512.516 196.922C512.302 197.531 511.974 198.086 511.531 198.586C511.089 199.091 510.542 199.479 509.891 199.75L509.266 198.641C509.802 198.396 510.258 198.076 510.633 197.68C511.013 197.279 511.294 196.852 511.477 196.398C511.664 195.945 511.758 195.51 511.758 195.094V194.422H512.844V195.094ZM513.219 195.094C513.219 195.583 513.326 196.055 513.539 196.508C513.753 196.956 514.068 197.359 514.484 197.719C514.906 198.078 515.409 198.354 515.992 198.547L515.266 199.633C514.578 199.393 513.995 199.047 513.516 198.594C513.036 198.141 512.674 197.615 512.43 197.016C512.185 196.411 512.062 195.771 512.062 195.094V194.422H513.219V195.094ZM514.734 193.812H513.258V185.844H514.734V193.812ZM507.141 186.625C507.849 186.625 508.484 186.766 509.047 187.047C509.615 187.323 510.06 187.714 510.383 188.219C510.706 188.719 510.867 189.292 510.867 189.938C510.867 190.568 510.706 191.133 510.383 191.633C510.06 192.133 509.615 192.521 509.047 192.797C508.484 193.073 507.849 193.211 507.141 193.211C506.432 193.211 505.794 193.073 505.227 192.797C504.664 192.521 504.221 192.133 503.898 191.633C503.576 191.133 503.414 190.568 503.414 189.938C503.414 189.292 503.576 188.719 503.898 188.219C504.221 187.714 504.664 187.323 505.227 187.047C505.794 186.766 506.432 186.625 507.141 186.625ZM507.141 187.883C506.703 187.872 506.31 187.953 505.961 188.125C505.617 188.297 505.349 188.542 505.156 188.859C504.964 189.172 504.867 189.531 504.867 189.938C504.867 190.328 504.964 190.68 505.156 190.992C505.349 191.299 505.617 191.539 505.961 191.711C506.31 191.883 506.703 191.974 507.141 191.984C507.578 191.974 507.966 191.883 508.305 191.711C508.648 191.539 508.917 191.299 509.109 190.992C509.307 190.68 509.406 190.328 509.406 189.938C509.406 189.531 509.31 189.172 509.117 188.859C508.924 188.542 508.656 188.297 508.312 188.125C507.969 187.953 507.578 187.872 507.141 187.883ZM520.75 186.883C521.438 186.883 522.047 187.086 522.578 187.492C523.115 187.898 523.534 188.471 523.836 189.211C524.138 189.951 524.289 190.812 524.289 191.797C524.289 192.786 524.138 193.651 523.836 194.391C523.534 195.13 523.115 195.703 522.578 196.109C522.047 196.51 521.438 196.711 520.75 196.711C520.062 196.711 519.448 196.51 518.906 196.109C518.37 195.708 517.951 195.138 517.648 194.398C517.346 193.654 517.195 192.786 517.195 191.797C517.195 190.812 517.346 189.951 517.648 189.211C517.951 188.471 518.37 187.898 518.906 187.492C519.448 187.086 520.062 186.883 520.75 186.883ZM520.75 188.211C520.333 188.211 519.961 188.357 519.633 188.648C519.305 188.94 519.052 189.357 518.875 189.898C518.703 190.435 518.617 191.068 518.617 191.797C518.617 192.521 518.703 193.154 518.875 193.695C519.052 194.237 519.305 194.654 519.633 194.945C519.961 195.232 520.333 195.375 520.75 195.375C521.167 195.375 521.539 195.232 521.867 194.945C522.195 194.654 522.448 194.237 522.625 193.695C522.802 193.154 522.891 192.521 522.891 191.797C522.891 191.068 522.799 190.435 522.617 189.898C522.44 189.357 522.19 188.94 521.867 188.648C521.549 188.357 521.177 188.211 520.75 188.211ZM528.633 199.867H527.156V185.828H528.633V199.867ZM527.805 192.297H523.82V191.086H527.805V192.297ZM535.312 197.125H533.852V193.023H535.312V197.125ZM540.531 197.125H539.039V193.023H540.531V197.125ZM543.594 198.086H530.781V196.859H543.594V198.086ZM537.164 186.641C538.164 186.641 539.055 186.794 539.836 187.102C540.617 187.404 541.227 187.833 541.664 188.391C542.107 188.943 542.328 189.578 542.328 190.297C542.328 191.021 542.107 191.659 541.664 192.211C541.227 192.758 540.617 193.185 539.836 193.492C539.055 193.794 538.164 193.945 537.164 193.945C536.169 193.945 535.279 193.794 534.492 193.492C533.711 193.185 533.099 192.758 532.656 192.211C532.214 191.659 531.992 191.021 531.992 190.297C531.992 189.578 532.214 188.943 532.656 188.391C533.099 187.833 533.711 187.404 534.492 187.102C535.279 186.794 536.169 186.641 537.164 186.641ZM537.164 187.844C536.435 187.839 535.789 187.938 535.227 188.141C534.669 188.339 534.232 188.625 533.914 189C533.602 189.37 533.445 189.802 533.445 190.297C533.445 190.792 533.602 191.227 533.914 191.602C534.232 191.977 534.672 192.268 535.234 192.477C535.797 192.685 536.44 192.789 537.164 192.789C537.883 192.789 538.523 192.685 539.086 192.477C539.648 192.268 540.089 191.977 540.406 191.602C540.724 191.227 540.883 190.792 540.883 190.297C540.883 189.802 540.724 189.37 540.406 189C540.094 188.625 539.656 188.339 539.094 188.141C538.531 187.938 537.888 187.839 537.164 187.844Z" fill="#333333"/>
<rect x="382.094" y="220.508" width="142" height="40" rx="12" fill="white"/>
<path d="M407.406 243.023H394.594V241.789H407.406V243.023ZM401.695 247.836H400.234V242.539H401.695V247.836ZM400.969 234.359C401.953 234.359 402.823 234.487 403.578 234.742C404.333 234.992 404.917 235.354 405.328 235.828C405.745 236.297 405.953 236.849 405.953 237.484C405.953 238.094 405.745 238.63 405.328 239.094C404.917 239.557 404.333 239.917 403.578 240.172C402.823 240.422 401.953 240.547 400.969 240.547C399.984 240.547 399.115 240.422 398.359 240.172C397.609 239.917 397.026 239.557 396.609 239.094C396.193 238.63 395.984 238.094 395.984 237.484C395.984 236.849 396.193 236.297 396.609 235.828C397.026 235.354 397.609 234.992 398.359 234.742C399.115 234.487 399.984 234.359 400.969 234.359ZM400.969 235.562C400.276 235.562 399.669 235.638 399.148 235.789C398.628 235.94 398.224 236.161 397.938 236.453C397.656 236.745 397.516 237.089 397.516 237.484C397.516 237.865 397.656 238.198 397.938 238.484C398.224 238.766 398.628 238.984 399.148 239.141C399.669 239.292 400.276 239.367 400.969 239.367C401.661 239.367 402.271 239.292 402.797 239.141C403.323 238.984 403.727 238.766 404.008 238.484C404.294 238.198 404.438 237.865 404.438 237.484C404.438 237.089 404.294 236.745 404.008 236.453C403.727 236.161 403.323 235.94 402.797 235.789C402.271 235.638 401.661 235.562 400.969 235.562ZM413.062 236.359C413.062 237.266 412.906 238.112 412.594 238.898C412.281 239.68 411.831 240.359 411.242 240.938C410.654 241.516 409.956 241.956 409.148 242.258L408.328 241.078C409.052 240.828 409.677 240.466 410.203 239.992C410.734 239.513 411.138 238.961 411.414 238.336C411.69 237.711 411.828 237.052 411.828 236.359V234.695H413.062V236.359ZM413.297 236.391C413.297 237.021 413.435 237.625 413.711 238.203C413.987 238.776 414.385 239.286 414.906 239.734C415.427 240.177 416.036 240.521 416.734 240.766L415.969 241.938C415.177 241.651 414.492 241.234 413.914 240.688C413.336 240.141 412.891 239.497 412.578 238.758C412.266 238.018 412.109 237.229 412.109 236.391V234.695H413.297V236.391ZM419.438 244.148H417.961V233.836H419.438V244.148ZM421.477 239.305H418.984V238.047H421.477V239.305ZM420.039 247.555H410.578V246.328H420.039V247.555ZM412.094 246.945H410.578V243.148H412.094V246.945ZM437.172 244.117H435.695V233.836H437.172V244.117ZM439.211 239.25H436.719V238.016H439.211V239.25ZM437.766 247.555H428.305V246.328H437.766V247.555ZM429.773 246.836H428.305V243.047H429.773V246.836ZM430.109 234.789C430.807 234.789 431.44 234.938 432.008 235.234C432.581 235.531 433.029 235.945 433.352 236.477C433.68 237.003 433.844 237.602 433.844 238.273C433.844 238.94 433.68 239.539 433.352 240.07C433.029 240.602 432.581 241.018 432.008 241.32C431.44 241.617 430.807 241.766 430.109 241.766C429.411 241.766 428.779 241.617 428.211 241.32C427.643 241.018 427.195 240.602 426.867 240.07C426.544 239.539 426.383 238.94 426.383 238.273C426.383 237.602 426.544 237.003 426.867 236.477C427.195 235.945 427.641 235.531 428.203 235.234C428.771 234.938 429.406 234.789 430.109 234.789ZM430.109 236.086C429.693 236.086 429.31 236.177 428.961 236.359C428.612 236.542 428.336 236.802 428.133 237.141C427.935 237.474 427.836 237.852 427.836 238.273C427.836 238.701 427.935 239.081 428.133 239.414C428.336 239.742 428.612 240 428.961 240.188C429.31 240.37 429.693 240.461 430.109 240.461C430.547 240.461 430.938 240.37 431.281 240.188C431.625 240 431.896 239.742 432.094 239.414C432.292 239.081 432.391 238.701 432.391 238.273C432.391 237.841 432.292 237.461 432.094 237.133C431.896 236.799 431.625 236.542 431.281 236.359C430.938 236.177 430.547 236.086 430.109 236.086ZM443.977 236.875C443.977 237.625 443.852 238.339 443.602 239.016C443.357 239.688 442.997 240.289 442.523 240.82C442.055 241.352 441.482 241.76 440.805 242.047L440.07 240.953C440.643 240.703 441.138 240.367 441.555 239.945C441.977 239.518 442.294 239.039 442.508 238.508C442.727 237.971 442.836 237.427 442.836 236.875V236.469H443.977V236.875ZM444.234 236.875C444.234 237.391 444.344 237.896 444.562 238.391C444.781 238.88 445.099 239.32 445.516 239.711C445.938 240.096 446.435 240.401 447.008 240.625L446.312 241.742C445.635 241.477 445.055 241.099 444.57 240.609C444.091 240.115 443.729 239.547 443.484 238.906C443.245 238.266 443.125 237.589 443.125 236.875V236.469H444.234V236.875ZM446.641 236.836H440.391V235.664H446.641V236.836ZM444.234 236.234H442.836V234.102H444.234V236.234ZM451.938 242.562H450.523V233.844H451.938V242.562ZM450.961 238.695H448.43V237.492H450.961V238.695ZM448.938 242.062H447.516V234.102H448.938V242.062ZM447.258 242.742C448.227 242.737 449.07 242.836 449.789 243.039C450.508 243.242 451.057 243.536 451.438 243.922C451.823 244.307 452.016 244.766 452.016 245.297C452.016 245.818 451.823 246.268 451.438 246.648C451.052 247.029 450.503 247.318 449.789 247.516C449.081 247.714 448.237 247.812 447.258 247.812C446.273 247.812 445.424 247.714 444.711 247.516C444.003 247.318 443.458 247.029 443.078 246.648C442.698 246.268 442.508 245.818 442.508 245.297C442.508 244.766 442.698 244.307 443.078 243.922C443.458 243.536 444.005 243.242 444.719 243.039C445.438 242.836 446.284 242.737 447.258 242.742ZM447.258 243.898C446.576 243.898 445.99 243.953 445.5 244.062C445.01 244.172 444.635 244.333 444.375 244.547C444.12 244.755 443.992 245.005 443.992 245.297C443.992 245.578 444.12 245.823 444.375 246.031C444.635 246.234 445.01 246.391 445.5 246.5C445.99 246.604 446.576 246.656 447.258 246.656C447.935 246.656 448.518 246.604 449.008 246.5C449.497 246.391 449.872 246.234 450.133 246.031C450.398 245.823 450.531 245.578 450.531 245.297C450.531 245.005 450.398 244.755 450.133 244.547C449.872 244.333 449.497 244.172 449.008 244.062C448.518 243.953 447.935 243.898 447.258 243.898ZM460.953 235.336C460.953 236.737 460.74 238.044 460.312 239.258C459.891 240.471 459.206 241.591 458.258 242.617C457.31 243.638 456.076 244.518 454.555 245.258L453.789 244.07C455.096 243.43 456.172 242.688 457.016 241.844C457.859 240.995 458.482 240.049 458.883 239.008C459.289 237.966 459.492 236.823 459.492 235.578V235.336H460.953ZM460.25 236.523H454.422V235.336H460.25V236.523ZM465.484 247.836H464.016V233.82H465.484V247.836ZM464.273 238.797H460.422V237.602H464.273V238.797ZM464.133 242.57H460.25V241.359H464.133V242.57ZM478.68 242.328H477.188V233.844H478.68V242.328ZM480.672 238.734H478.094V237.516H480.672V238.734ZM472.023 243.258C472.023 243.904 471.898 244.518 471.648 245.102C471.398 245.68 471.036 246.19 470.562 246.633C470.094 247.081 469.523 247.427 468.852 247.672L468.109 246.562C468.698 246.375 469.198 246.109 469.609 245.766C470.026 245.422 470.341 245.036 470.555 244.609C470.773 244.177 470.883 243.727 470.883 243.258V242.938H472.023V243.258ZM472.32 243.258C472.32 243.706 472.411 244.151 472.594 244.594C472.781 245.031 473.062 245.435 473.438 245.805C473.812 246.174 474.271 246.464 474.812 246.672L474.18 247.789C473.518 247.534 472.966 247.169 472.523 246.695C472.081 246.221 471.753 245.688 471.539 245.094C471.326 244.495 471.219 243.883 471.219 243.258V242.938H472.32V243.258ZM477.156 243.258C477.156 243.872 477.047 244.479 476.828 245.078C476.609 245.672 476.279 246.208 475.836 246.688C475.393 247.172 474.841 247.539 474.18 247.789L473.57 246.672C474.107 246.453 474.562 246.159 474.938 245.789C475.312 245.414 475.594 245.008 475.781 244.57C475.969 244.128 476.062 243.69 476.062 243.258V242.938H477.156V243.258ZM477.5 243.258C477.5 243.732 477.607 244.188 477.82 244.625C478.034 245.057 478.349 245.443 478.766 245.781C479.188 246.115 479.695 246.375 480.289 246.562L479.562 247.672C478.875 247.432 478.292 247.091 477.812 246.648C477.339 246.211 476.979 245.703 476.734 245.125C476.49 244.542 476.367 243.919 476.367 243.258V242.938H477.5V243.258ZM472.688 241.203H471.195V239H472.688V241.203ZM467.633 240.648C468.773 240.648 469.789 240.638 470.68 240.617C471.576 240.596 472.523 240.557 473.523 240.5C474.523 240.438 475.458 240.341 476.328 240.211L476.445 241.258C475.148 241.487 473.784 241.641 472.352 241.719C470.924 241.792 469.409 241.828 467.805 241.828L467.633 240.648ZM471.906 234.273C472.589 234.273 473.195 234.38 473.727 234.594C474.258 234.807 474.669 235.112 474.961 235.508C475.258 235.904 475.406 236.359 475.406 236.875C475.406 237.385 475.258 237.839 474.961 238.234C474.664 238.625 474.25 238.93 473.719 239.148C473.193 239.367 472.589 239.477 471.906 239.477C471.224 239.477 470.617 239.367 470.086 239.148C469.56 238.93 469.151 238.625 468.859 238.234C468.568 237.839 468.422 237.385 468.422 236.875C468.422 236.359 468.568 235.904 468.859 235.508C469.151 235.112 469.56 234.807 470.086 234.594C470.617 234.38 471.224 234.273 471.906 234.273ZM471.906 235.375C471.49 235.375 471.122 235.435 470.805 235.555C470.487 235.669 470.242 235.844 470.07 236.078C469.898 236.307 469.812 236.573 469.812 236.875C469.812 237.167 469.898 237.43 470.07 237.664C470.242 237.893 470.487 238.07 470.805 238.195C471.128 238.32 471.495 238.383 471.906 238.383C472.318 238.383 472.682 238.32 473 238.195C473.318 238.07 473.565 237.893 473.742 237.664C473.919 237.43 474.008 237.167 474.008 236.875C474.008 236.573 473.919 236.307 473.742 236.078C473.565 235.844 473.318 235.669 473 235.555C472.682 235.435 472.318 235.375 471.906 235.375ZM492.391 247.867H490.914V233.828H492.391V247.867ZM494.648 240.484H492.055V239.258H494.648V240.484ZM483.211 243.156C484.534 243.156 485.69 243.122 486.68 243.055C487.669 242.982 488.667 242.854 489.672 242.672L489.852 243.938C488.831 244.12 487.82 244.242 486.82 244.305C485.826 244.362 484.622 244.391 483.211 244.391H482.078V243.156H483.211ZM488.625 236.391H483.555V243.734H482.078V235.172H488.625V236.391ZM496.906 246.617C496.708 246.617 496.523 246.565 496.352 246.461C496.18 246.357 496.044 246.221 495.945 246.055C495.852 245.883 495.805 245.698 495.805 245.5C495.805 245.307 495.852 245.125 495.945 244.953C496.044 244.781 496.18 244.648 496.352 244.555C496.523 244.456 496.708 244.406 496.906 244.406C497.099 244.406 497.281 244.456 497.453 244.555C497.625 244.648 497.76 244.781 497.859 244.953C497.958 245.125 498.008 245.307 498.008 245.5C498.008 245.698 497.958 245.883 497.859 246.055C497.76 246.221 497.625 246.357 497.453 246.461C497.281 246.565 497.099 246.617 496.906 246.617ZM501.125 246.617C500.927 246.617 500.742 246.565 500.57 246.461C500.398 246.357 500.263 246.221 500.164 246.055C500.07 245.883 500.023 245.698 500.023 245.5C500.023 245.307 500.07 245.125 500.164 244.953C500.263 244.781 500.398 244.648 500.57 244.555C500.742 244.456 500.927 244.406 501.125 244.406C501.318 244.406 501.5 244.456 501.672 244.555C501.844 244.648 501.979 244.781 502.078 244.953C502.177 245.125 502.227 245.307 502.227 245.5C502.227 245.698 502.177 245.883 502.078 246.055C501.979 246.221 501.844 246.357 501.672 246.461C501.5 246.565 501.318 246.617 501.125 246.617ZM505.344 246.617C505.146 246.617 504.961 246.565 504.789 246.461C504.617 246.357 504.482 246.221 504.383 246.055C504.289 245.883 504.242 245.698 504.242 245.5C504.242 245.307 504.289 245.125 504.383 244.953C504.482 244.781 504.617 244.648 504.789 244.555C504.961 244.456 505.146 244.406 505.344 244.406C505.536 244.406 505.719 244.456 505.891 244.555C506.062 244.648 506.198 244.781 506.297 244.953C506.396 245.125 506.445 245.307 506.445 245.5C506.445 245.698 506.396 245.883 506.297 246.055C506.198 246.221 506.062 246.357 505.891 246.461C505.719 246.565 505.536 246.617 505.344 246.617ZM510.328 243.258H508.789L508.641 235.195H510.469L510.328 243.258ZM509.555 246.617C509.362 246.617 509.18 246.565 509.008 246.461C508.836 246.357 508.701 246.221 508.602 246.055C508.503 245.883 508.453 245.698 508.453 245.5C508.453 245.307 508.503 245.125 508.602 244.953C508.701 244.781 508.836 244.648 509.008 244.555C509.18 244.456 509.362 244.406 509.555 244.406C509.753 244.406 509.935 244.456 510.102 244.555C510.273 244.648 510.409 244.781 510.508 244.953C510.612 245.125 510.664 245.307 510.664 245.5C510.664 245.698 510.612 245.883 510.508 246.055C510.409 246.221 510.273 246.357 510.102 246.461C509.935 246.565 509.753 246.617 509.555 246.617Z" fill="#333333"/>
<mask id="mask0_2706_22434" style="mask-type:alpha" maskUnits="userSpaceOnUse" x="1" y="2" width="500" height="500">
<circle cx="251" cy="252" r="250" fill="#D9D9D9"/>
</mask>
<g mask="url(#mask0_2706_22434)">
<path d="M308.008 120.426C308.008 120.979 308.202 158.366 316.691 166.274C325.181 174.211 281.019 180.239 281.019 180.239C281.019 180.239 287.269 162.486 284.614 139.866C281.959 117.218 308.008 120.426 308.008 120.426Z" fill="#A25870"/>
<path d="M304.134 120.4C304.134 106.408 292.797 95.0703 278.804 95.0703C264.812 95.0703 253.474 106.408 253.474 120.4C253.474 134.393 262.544 152.533 276.537 152.533C290.529 152.533 304.134 134.393 304.134 120.4Z" fill="#A25870"/>
<path d="M370.753 277.723C370.753 277.723 382.174 522.341 381.482 561.58C354.853 571.397 342.243 561.58 342.243 561.58L317.77 360.516C317.77 360.516 303.888 553.948 302.257 565.922C284.365 575.185 253.947 565.922 253.947 565.922L250.159 302.279L370.753 277.695V277.723Z" fill="#738DFC"/>
<path d="M309.753 354.016C313.293 356.781 317.772 360.514 317.772 360.514L322.612 400.196" stroke="#4B4BE0" stroke-width="0.912546" stroke-linecap="round" stroke-linejoin="round"/>
<path d="M304.139 148.634C304.139 148.634 334.032 140.753 347.997 155.824C361.962 170.894 356.569 180.435 353.113 183.034C349.656 185.633 278.782 200.428 278.229 178.057C277.675 155.685 296.867 149.989 304.139 148.634Z" fill="#FFC689"/>
<path d="M312.129 157.181C312.129 157.181 375.399 150.24 378.524 338.446C350.18 350.807 267.276 353.074 253.505 347.599C239.734 342.151 213.436 173.607 284.172 166.307C288.68 176.179 298.247 174.962 312.157 157.181H312.129Z" fill="#FFC689"/>
<path d="M278.806 193.297C281.101 177.673 287.71 173 287.71 173C287.71 173 280.797 193.518 283.12 206.875" stroke="#FFA757" stroke-width="0.912546" stroke-linecap="round" stroke-linejoin="round"/>
<path d="M347.082 185.14C347.082 185.14 330.656 185.694 317.77 175.517C304.884 165.341 295.482 183.951 287.711 172.973C287.711 172.973 279.443 174.052 279.471 168.383" stroke="#FFA757" stroke-width="0.912546" stroke-linecap="round" stroke-linejoin="round"/>
<path d="M310.915 288.559C310.915 288.559 314.869 315.465 350.155 314.497" stroke="#FFA757" stroke-width="0.912546" stroke-linecap="round" stroke-linejoin="round"/>
<path d="M250.16 115.148C250.16 115.148 265.729 121.95 277.481 109.645C282.182 120.319 308.259 127.868 308.259 127.868C308.259 127.868 313.568 94.2421 288.127 90.1495C262.687 86.0569 251.819 104.944 250.132 115.148H250.16Z" fill="#2D2729"/>
<path d="M299.384 121.42C299.384 118.987 297.421 117.023 294.988 117.023C292.554 117.023 290.591 118.987 290.591 121.42C290.591 123.854 292.554 125.817 294.988 125.817C297.421 125.817 299.384 123.854 299.384 121.42Z" fill="#A25870"/>
<path d="M292.335 121.671C292.335 121.671 294.022 117.965 296.29 119.265" stroke="#2D2729" stroke-width="0.912546" stroke-linecap="round" stroke-linejoin="round"/>
<path d="M268.768 128.276C268.768 127.584 268.215 127.031 267.523 127.031C266.832 127.031 266.279 127.584 266.279 128.276C266.279 128.967 266.832 129.52 267.523 129.52C268.215 129.52 268.768 128.967 268.768 128.276Z" fill="#2D2729"/>
<path d="M260.748 130.131C260.748 129.44 260.194 128.887 259.503 128.887C258.812 128.887 258.259 129.44 258.259 130.131C258.259 130.822 258.812 131.375 259.503 131.375C260.194 131.375 260.748 130.822 260.748 130.131Z" fill="#2D2729"/>
<path d="M269.541 145.924C269.541 145.924 276.593 146.837 277.643 139.094" stroke="#2D2729" stroke-width="0.912546" stroke-linecap="round" stroke-linejoin="round"/>
<path d="M269.403 121.421C269.403 121.421 265.587 120.785 265.421 122.389C265.421 122.389 265.338 123.468 268.656 123.965C271.974 124.435 272.859 124.27 273.246 123.274C273.634 122.279 271.172 121.587 269.375 121.421H269.403Z" fill="#2D2729"/>
<path d="M255.217 123.137C255.217 123.137 251.788 124.879 252.59 126.29C252.59 126.29 253.171 127.23 256.13 125.654C259.089 124.078 259.697 123.414 259.421 122.363C259.144 121.34 256.738 122.225 255.19 123.165L255.217 123.137Z" fill="#2D2729"/>
<path d="M262.795 131.543C262.795 131.543 264.869 138.484 266.114 139.313C267.386 140.143 268.658 139.313 268.658 139.313" stroke="#2D2729" stroke-width="0.912546" stroke-linecap="round" stroke-linejoin="round"/>
<path d="M283.174 134.2C283.396 133.233 282.041 132.099 280.133 131.656C278.224 131.214 276.51 131.656 276.289 132.624C276.068 133.592 277.423 134.726 279.331 135.168C281.239 135.611 282.953 135.168 283.174 134.2Z" fill="#FD6C81"/>
<path d="M234.037 108.43C234.037 108.43 254.251 118.219 250.104 146.618C248.555 157.237 226.682 132.239 226.488 127.87C226.294 123.501 234.037 108.43 234.037 108.43Z" fill="#9F5970"/>
<path d="M249.328 143.244C249.328 129.251 242.138 115.148 228.146 115.148C214.153 115.148 202.815 126.486 202.815 140.478C202.815 146.286 200.133 152.397 203.866 157.568L202.815 198.467C202.815 198.467 241.142 228.498 233.178 209.528C227.786 196.725 222.145 180.271 223.721 170.344C243.05 172.998 249.328 157.181 249.328 143.271V143.244Z" fill="#FDA79E"/>
<path d="M248.331 134.285C248.331 134.285 250.792 142.692 252.479 147.42C253.004 148.886 248.331 150.213 248.331 150.213V134.285Z" fill="#FDA79E"/>
<path d="M283.087 602.526C282.644 606.342 256.734 599.816 246.364 597.023C243.847 596.332 242.078 594.092 242.05 591.493L241.801 576.588C241.801 576.477 241.801 576.366 241.801 576.228C241.414 571.444 230.214 477.341 230.906 454.555C231.293 441.724 256.485 449.08 256.07 451.32C252.779 468.741 263.26 552.972 261.96 578.357C261.877 580.21 262.679 582.008 264.145 583.169C266.799 585.271 270.118 588.008 273.215 590.746C278.607 595.53 283.363 600.397 283.142 602.526H283.087Z" fill="#FDA79E"/>
<path d="M206.131 600.673C205.219 604.351 179.64 599.18 168.8 596.829C166.062 596.221 164.237 593.677 164.541 590.911L164.597 590.331L166.09 576.615C166.09 576.615 166.09 576.394 166.09 576.283C166.283 571.637 162.799 469.017 166.007 456.38C168.855 445.07 193.3 461.33 193.245 463.432C192.803 480.549 187.272 536.795 185.834 580.763C185.779 582.754 186.277 584.745 187.853 585.989C190.535 588.063 194.019 590.303 197.227 592.405C202.26 595.668 206.574 598.71 206.104 600.701L206.131 600.673Z" fill="#FDA79E"/>
<path d="M242.055 302.11C241.557 275.673 254.858 262.124 251.651 235.909C249.245 216.137 240.838 216.137 229.196 199.13C228.229 202.283 224.772 202.2 219.49 201.398C209.369 199.877 205.94 185.387 195.487 185.387C181.689 185.387 176.213 193.157 173.614 203.223C172.757 204.191 172.065 205.435 171.706 207.067C165.65 234.775 161.032 250.565 176.988 309.299C153.123 334.823 141.371 485.697 147.759 486.499C206.162 493.8 272.888 483.347 272.86 479.863C272.418 438.19 262.822 358.743 242.055 302.11Z" fill="#FD6C81"/>
<path d="M273.302 314.607C273.302 314.607 293.682 303.02 295.148 304.597C296.613 306.173 290.806 310.901 290.806 310.901C294.733 309.795 308.863 308.8 311.325 311.067C313.813 313.39 313.952 314.966 314.283 318.34C314.615 322.046 313.094 328.461 309.251 330.148C307.287 331.005 304.301 330.646 302.254 330.618C295.341 330.563 288.345 330.037 281.542 328.876C279.137 328.461 276.454 328.074 274.27 326.885C268.075 323.539 273.302 314.607 273.302 314.607Z" fill="#FDA79E"/>
<path d="M313.677 314.496H297.085" stroke="#A25870" stroke-width="0.912546" stroke-linecap="round" stroke-linejoin="round"/>
<path d="M314.34 320.637L297.085 319.945" stroke="#A25870" stroke-width="0.912546" stroke-linecap="round" stroke-linejoin="round"/>
<path d="M312.816 326.253L294.676 324.953" stroke="#A25870" stroke-width="0.912546" stroke-linecap="round" stroke-linejoin="round"/>
<path d="M198.667 238.257C198.667 238.257 189.763 277.137 195.901 283.221C202.04 289.304 280.381 308.274 280.381 308.274C280.381 308.274 280.602 317.455 275.597 328.378C270.592 339.301 169.604 320.746 161.75 299.121C150.634 268.454 158.1 240.773 161.833 222.025C165.594 203.276 184.785 202.308 190.786 204.631C196.786 206.981 201.377 212.346 198.667 238.257Z" fill="#FD6C81"/>
<path d="M223.72 294.556C213.378 291.735 200.906 288.223 193.136 281.835C185.918 275.917 187.052 257.915 190.564 243.121" stroke="#BC2E49" stroke-width="0.912546" stroke-linecap="round" stroke-linejoin="round"/>
<path d="M176.542 311.73L190.313 317.565" stroke="#BC2E49" stroke-width="0.912546" stroke-linecap="round" stroke-linejoin="round"/>
<path d="M240.316 132.344C240.316 132.344 236.887 134.087 237.689 135.497C237.689 135.497 238.27 136.437 241.229 134.861C244.188 133.285 244.796 132.621 244.52 131.57C244.243 130.547 241.837 131.432 240.289 132.372L240.316 132.344Z" fill="#9F5970"/>
<path d="M233.648 147.995C233.261 147.083 231.491 146.944 229.694 147.719C227.896 148.465 226.762 149.848 227.15 150.76C227.537 151.673 229.306 151.811 231.104 151.037C232.901 150.29 234.035 148.908 233.648 147.995Z" fill="#FD6C81"/>
<path d="M243.301 138.179C242.859 137.156 242.969 136.105 243.523 135.884C244.076 135.663 244.878 136.299 245.32 137.322C245.762 138.345 245.652 139.396 245.099 139.617C244.546 139.838 243.744 139.202 243.301 138.179Z" fill="#2D2729"/>
<path d="M223.751 170.23C220.902 169.898 216.423 168.792 213.215 165.031" stroke="#2D2729" stroke-width="0.912546" stroke-linecap="round" stroke-linejoin="round"/>
<path d="M232.432 155.875C232.432 155.875 231.907 159.608 235.917 160.77" stroke="#2D2729" stroke-width="0.912546" stroke-linecap="round" stroke-linejoin="round"/>
<path d="M245.206 121.781C245.206 121.781 239.565 137.294 221.977 138.843C217 139.147 216.198 150.264 203.837 161.352C206.16 174.764 211.801 252.054 160.754 236.596C109.707 221.138 161.224 166.468 184.259 152.78C183.097 131.211 192.361 104.94 219.655 105.079C241.003 105.189 245.206 121.809 245.206 121.809V121.781Z" fill="#9F5970"/>
<path d="M190.757 157.203C190.757 157.203 178.231 167.96 173.447 178.828" stroke="#2D2729" stroke-width="0.912546" stroke-linecap="round" stroke-linejoin="round"/>
<path d="M193.271 157.59C193.271 157.59 182.349 172.91 176.763 189.612" stroke="#2D2729" stroke-width="0.912546" stroke-linecap="round" stroke-linejoin="round"/>
<path d="M187.135 156.707C187.135 156.707 177.54 163.288 175.051 167.879" stroke="#2D2729" stroke-width="0.912546" stroke-linecap="round" stroke-linejoin="round"/>
<path d="M224.248 141.413C224.248 138.565 221.926 136.242 219.077 136.242C216.229 136.242 213.906 138.565 213.906 141.413C213.906 144.262 216.229 146.584 219.077 146.584C221.926 146.584 224.248 144.262 224.248 141.413Z" fill="#FDA79E"/>
<path d="M217.001 139.144C217.001 139.144 219.545 137.457 220.9 139.753" stroke="#2D2729" stroke-width="0.912546" stroke-linecap="round" stroke-linejoin="round"/>
<path d="M215.675 313.66C215.675 313.66 192.392 311.033 191.645 313.052C190.898 315.07 198.116 317.144 198.116 317.144C194.078 317.697 181.939 322.315 180.584 325.357C179.201 328.454 179.699 329.975 180.722 333.211C181.856 336.75 187.082 342.06 191.258 342.087C193.387 342.087 197.258 340.594 199.139 339.764C205.471 336.999 207.905 333.764 213.712 330.031C215.758 328.703 218.081 327.293 219.602 325.357C223.971 319.827 215.648 313.688 215.648 313.688L215.675 313.66Z" fill="#A25870"/>
<path d="M200.327 332.656L185.919 339.846" stroke="#2D2729" stroke-width="0.912546" stroke-linecap="round" stroke-linejoin="round"/>
<path d="M194.245 328.844L181.912 335.563" stroke="#2D2729" stroke-width="0.912546" stroke-linecap="round" stroke-linejoin="round"/>
<path d="M191.7 324.777L179.865 330.142" stroke="#2D2729" stroke-width="0.912546" stroke-linecap="round" stroke-linejoin="round"/>
<path d="M334.47 195.335C337.373 198.349 338.867 200.064 339.199 204.737C340.332 221.606 331.096 245.028 322.607 258.329C313.343 272.819 311.933 275.529 300.955 288.553C288.953 302.794 244.321 337.278 216.392 334.485C205.635 333.406 199.524 318.723 203.948 308.85C234.062 292.535 260.747 274.644 273.357 261.951C285.137 250.06 288.041 222.573 298.438 209.383C303.277 203.244 313.398 188.145 322.911 189.279C331.262 190.275 334.525 195.335 334.525 195.335H334.47Z" fill="#FFC689"/>
<path d="M330.211 191.653C330.211 191.653 314.726 183.44 300.954 204.429C287.183 225.417 289.976 239.244 277.532 256.61C265.061 273.948 256.461 276.161 256.461 276.161" stroke="#FFA757" stroke-width="0.912546" stroke-linecap="round" stroke-linejoin="round"/>
<path d="M339.196 204.762C339.196 204.762 344.727 223.704 326.42 251.772C308.114 279.812 304.823 285.204 283.752 304.45" stroke="#FFA757" stroke-width="0.912546" stroke-linecap="round" stroke-linejoin="round"/>
<path d="M158.099 235.711C158.099 235.711 148.117 248.874 159.786 262.673C171.483 276.471 177.678 269.918 178.203 264.193C179.751 247.159 163.879 244.062 163.879 244.062C163.879 244.062 170.93 245.445 171.483 242.818C172.036 240.191 158.099 235.739 158.099 235.739V235.711Z" fill="#A25870"/>
<path d="M164.293 250.203L176.543 256.591" stroke="#2D2729" stroke-width="0.912546" stroke-linecap="round" stroke-linejoin="round"/>
<path d="M164.293 255.566L176.543 263.862" stroke="#2D2729" stroke-width="0.912546" stroke-linecap="round" stroke-linejoin="round"/>
<path d="M163.461 261.262L172.78 269.585" stroke="#2D2729" stroke-width="0.912546" stroke-linecap="round" stroke-linejoin="round"/>
<path d="M163.295 67.1936C162.742 67.0553 162.189 67 161.691 67C159.12 67 157.765 68.9081 156.824 70.5672C156.465 71.2032 156.05 72.0328 155.193 71.3692C154.28 70.7055 154.115 69.4888 153.34 68.7145C152.483 67.8572 151.294 67.1936 149.884 67.1936C149.358 67.1936 148.805 67.2489 148.252 67.4148C145.874 67.9955 144.132 71.6457 144.547 75.2406C144.934 78.5589 147.118 81.739 149.192 84.5319C150.354 86.1082 151.432 87.7673 152.925 89.1776C155.387 91.4728 157.184 90.7262 159.175 88.514C162.549 84.7808 166.475 79.9692 167.001 75.2406C167.416 71.618 165.646 67.7743 163.295 67.1936Z" fill="#F3668B"/>
<path d="M132.575 119.597C131.8 119.403 131.026 119.32 130.307 119.32C126.685 119.32 124.777 122.03 123.422 124.353C122.896 125.238 122.343 126.399 121.099 125.487C119.827 124.547 119.578 122.832 118.499 121.754C117.283 120.537 115.623 119.624 113.632 119.624C112.913 119.624 112.112 119.735 111.31 119.929C107.964 120.758 105.502 125.902 106.083 130.962C106.609 135.636 109.706 140.115 112.637 144.07C114.268 146.31 115.817 148.66 117.919 150.623C121.375 153.859 123.919 152.808 126.74 149.683C131.496 144.429 137.027 137.627 137.801 130.99C138.382 125.874 135.893 120.454 132.575 119.652V119.597Z" fill="#F3668B"/>
</g>
<defs>
<linearGradient id="paint0_linear_2706_22434" x1="332.375" y1="2.35937" x2="332.375" y2="502.359" gradientUnits="userSpaceOnUse">
<stop stop-color="#85E5B7"/>
<stop offset="1" stop-color="#FCF4E8"/>
</linearGradient>
</defs>
</svg>
