<svg width="144" height="30" viewBox="0 0 144 30" fill="none" xmlns="http://www.w3.org/2000/svg">
<g id="&#235;&#145;&#144;&#234;&#187;&#152;, &#234;&#179;&#161;&#235;&#165;&#160; &#236;&#161;&#176;&#236;&#160;&#149;" clip-path="url(#clip0_2696_14615)">
<path id="Union" fill-rule="evenodd" clip-rule="evenodd" d="M14.8553 0.078125C13.3883 0.078125 11.9809 0.658728 10.9428 1.69308L1.32309 11.2777C0.476248 12.1215 0 13.2665 0 14.4609C0 16.9489 2.02357 18.9612 4.51402 18.9612H8.37629L6.99274 20.3397C5.94495 21.3837 5.36044 22.8033 5.3709 24.2808C5.39227 27.2999 7.84267 29.7376 10.8662 29.7588C12.3467 29.7692 13.7701 29.1879 14.8178 28.144L22.6555 20.3348C23.7076 19.2865 24.2946 17.8612 24.2842 16.3775C24.2628 13.3304 21.7783 10.876 18.7266 10.876H17.3841L18.7678 9.49735C19.806 8.46291 20.3898 7.05932 20.3898 5.59522C20.3898 2.54564 17.9093 0.078125 14.8553 0.078125ZM8.05079 21.4017L10.5001 18.9612H16.0228C17.3468 18.9612 18.4249 17.891 18.4249 16.5652C18.4249 15.2393 17.3468 14.1691 16.0228 14.1691H9.73763C9.23631 14.1691 8.83458 13.7649 8.83458 13.2721C8.83458 12.7792 9.23631 12.375 9.73763 12.375L18.7266 12.375C20.9596 12.375 22.7696 14.1697 22.7852 16.388C22.7928 17.4687 22.3653 18.5079 21.5975 19.2729L13.7597 27.0821C12.9962 27.8429 11.9578 28.2674 10.8768 28.2598C8.66778 28.2443 6.88543 26.4646 6.86989 24.2702C6.86228 23.1957 7.28732 22.1623 8.05079 21.4017ZM17.7097 8.43545L15.2603 10.876H9.73763C8.41357 10.876 7.33555 11.9462 7.33555 13.2721C7.33555 14.5979 8.41357 15.6681 9.73763 15.6681H16.0228C16.5241 15.6681 16.9258 16.0723 16.9258 16.5652C16.9258 17.058 16.5241 17.4622 16.0228 17.4622H4.51402C2.84631 17.4622 1.49903 16.1159 1.49903 14.4609C1.49903 13.6658 1.81602 12.9027 2.38113 12.3396L12.0008 2.75499C12.7574 2.00115 13.7841 1.57716 14.8553 1.57716C17.0866 1.57716 18.8907 3.37868 18.8907 5.59522C18.8907 6.65999 18.4662 7.6817 17.7097 8.43545ZM33.393 19.9871C34.3528 20.9469 35.468 21.6951 36.7384 22.2315C38.0088 22.7679 39.3592 23.0361 40.7896 23.0361C41.9189 23.0361 42.9352 22.8761 43.8387 22.5561C44.7421 22.2362 45.509 21.8033 46.1395 21.2575C46.77 20.7117 47.2547 20.0718 47.5935 19.3377C47.9322 18.6037 48.1016 17.8226 48.1016 16.9945C48.1016 16.2228 47.9981 15.55 47.7911 14.9759C47.584 14.4019 47.2923 13.889 46.9159 13.4373C46.5395 12.9856 46.0925 12.5951 45.5749 12.2657C45.0573 11.9363 44.488 11.6399 43.8669 11.3764L41.0155 10.1625C40.6014 9.99307 40.1921 9.81897 39.7874 9.64017C39.3828 9.46137 39.0252 9.24963 38.7146 9.00496C38.4041 8.76028 38.15 8.48267 37.9524 8.17213C37.7547 7.86158 37.6559 7.48045 37.6559 7.02875C37.6559 6.1818 37.9712 5.52306 38.6017 5.05253C39.2322 4.582 40.0838 4.34674 41.1567 4.34674C42.0789 4.34674 42.907 4.51143 43.641 4.84079C44.3751 5.17016 45.0714 5.62657 45.7302 6.21003L47.4523 4.12089C46.6618 3.31158 45.7255 2.67166 44.6433 2.20114C43.561 1.73061 42.3988 1.49535 41.1567 1.49535C40.178 1.49535 39.2698 1.64121 38.4323 1.93294C37.5948 2.22466 36.8701 2.62461 36.2585 3.13278C35.6468 3.64095 35.1715 4.24322 34.8328 4.9396C34.494 5.63598 34.3246 6.39824 34.3246 7.22637C34.3246 7.97921 34.4516 8.64736 34.7057 9.23081C34.9598 9.81427 35.2892 10.3271 35.6938 10.7694C36.0985 11.2117 36.5502 11.5882 37.0489 11.8987C37.5477 12.2092 38.0512 12.468 38.5593 12.6751L41.439 13.9173C41.9283 14.1243 42.3753 14.3266 42.78 14.5242C43.1846 14.7219 43.5375 14.943 43.8387 15.1877C44.1398 15.4324 44.3703 15.7194 44.5303 16.0487C44.6903 16.3781 44.7703 16.7781 44.7703 17.2486C44.7703 18.152 44.4315 18.8672 43.754 19.3942C43.0764 19.9212 42.1071 20.1847 40.8461 20.1847C39.8298 20.1847 38.8417 19.9635 37.8818 19.5212C36.9219 19.0789 36.0655 18.4814 35.3127 17.7285L33.393 19.9871ZM53.2399 4.06443H49.9085V0.563705H53.2399V4.06443ZM49.9368 7.14167H53.1552V22.6691H49.9368V7.14167ZM56.8956 28.6117C57.4696 28.9599 58.1519 29.2187 58.9424 29.3881C59.7329 29.5575 60.5892 29.6422 61.5114 29.6422C62.7536 29.6422 63.8782 29.501 64.8851 29.2187C65.8921 28.9364 66.7484 28.5506 67.4542 28.0612C68.16 27.5719 68.7011 26.9978 69.0775 26.3391C69.4539 25.6804 69.6422 24.9746 69.6422 24.2217C69.6422 22.8666 69.181 21.8973 68.2588 21.3139C67.3366 20.7304 65.9344 20.4387 64.0523 20.4387H61.2009C60.2034 20.4387 59.5211 20.3022 59.1541 20.0293C58.7871 19.7564 58.6036 19.3847 58.6036 18.9142C58.6036 18.5378 58.6789 18.2272 58.8294 17.9825C58.98 17.7379 59.187 17.5026 59.4505 17.2767C60.2598 17.5967 60.9845 17.7567 61.6244 17.7567C62.4337 17.7567 63.1912 17.639 63.897 17.4038C64.6028 17.1685 65.2192 16.8203 65.7462 16.3592C66.2732 15.8981 66.6872 15.3382 66.9884 14.6794C67.2895 14.0207 67.4401 13.2678 67.4401 12.4209C67.4401 11.8186 67.346 11.2728 67.1578 10.7835C66.9696 10.2941 66.7249 9.88946 66.4238 9.56951H69.3881V7.14159H63.8829C63.5818 7.02866 63.2383 6.93455 62.8524 6.85927C62.4666 6.78399 62.0573 6.74634 61.6244 6.74634C60.8151 6.74634 60.0481 6.87339 59.3235 7.12747C58.5989 7.38156 57.9637 7.74857 57.4179 8.2285C56.8721 8.70844 56.4345 9.2919 56.1051 9.97887C55.7757 10.6658 55.611 11.414 55.611 12.3362C55.611 13.2584 55.8181 14.0725 56.2321 14.7782C56.6462 15.484 57.1167 16.044 57.6437 16.458V16.5709C57.2108 16.8909 56.8156 17.3003 56.458 17.799C56.1004 18.2978 55.9216 18.8483 55.9216 19.4506C55.9216 20.0905 56.058 20.6175 56.3309 21.0315C56.6038 21.4456 56.9379 21.775 57.3332 22.0197V22.1608C56.618 22.5937 56.0627 23.1019 55.6675 23.6853C55.2723 24.2688 55.0746 24.871 55.0746 25.5486C55.0746 26.2262 55.2346 26.819 55.5546 27.3272C55.8745 27.8354 56.3215 28.2635 56.8956 28.6117ZM65.2663 26.6638C64.871 26.9178 64.3958 27.1202 63.8406 27.2707C63.2853 27.4213 62.6689 27.4966 61.9914 27.4966C60.6927 27.4966 59.6764 27.2896 58.9424 26.8755C58.2083 26.4614 57.8413 25.8592 57.8413 25.0687C57.8413 24.6734 57.9449 24.2829 58.1519 23.8971C58.3589 23.5112 58.6977 23.1489 59.1682 22.8101C59.5258 22.8854 59.874 22.9419 60.2128 22.9795C60.5516 23.0172 60.8998 23.036 61.2574 23.036H63.6006C64.5605 23.036 65.2851 23.1536 65.7744 23.3889C66.2638 23.6242 66.5084 24.0712 66.5084 24.7299C66.5084 25.1063 66.4002 25.4592 66.1838 25.7886C65.9673 26.1179 65.6615 26.4097 65.2663 26.6638ZM64.5605 12.3362C64.5605 13.3714 64.2734 14.1854 63.6994 14.7782C63.1254 15.3711 62.4337 15.6675 61.6244 15.6675C60.8151 15.6675 60.1234 15.3711 59.5493 14.7782C58.9753 14.1854 58.6883 13.409 58.6883 12.3362C58.6883 11.2634 58.9659 10.4447 59.5211 9.88005C60.0763 9.31542 60.7774 9.03311 61.6244 9.03311C62.4713 9.03311 63.1724 9.31542 63.7276 9.88005C64.2829 10.4447 64.5605 11.301 64.5605 12.3362ZM73.7641 7.14159L74.0182 9.28719H74.1029C74.8181 8.59081 75.5898 7.99324 76.4179 7.49448C77.246 6.99572 78.1871 6.74634 79.2411 6.74634C80.8973 6.74634 82.1066 7.27333 82.8688 8.32732C83.6311 9.3813 84.0122 10.9058 84.0122 12.9008V22.669H80.7656V13.2961C80.7656 11.941 80.5586 10.9764 80.1445 10.4023C79.7304 9.8283 79.0623 9.54128 78.14 9.54128C77.4248 9.54128 76.7849 9.72007 76.2203 10.0777C75.6557 10.4353 75.0252 10.9623 74.3288 11.6586V22.669H71.1104V7.14159H73.7641ZM87.6965 21.822C88.1011 22.2173 88.5811 22.5184 89.1363 22.7254C89.6915 22.9325 90.3079 23.036 90.9855 23.036C91.9453 23.036 92.8299 22.8431 93.6392 22.4572C94.4485 22.0714 95.2108 21.5774 95.926 20.9751H96.0107L96.293 22.669H98.9468V13.3243C98.9468 11.2164 98.4904 9.59303 97.5776 8.45436C96.6647 7.31568 95.239 6.74634 93.3005 6.74634C92.0583 6.74634 90.9149 6.93926 89.8703 7.32509C88.8258 7.71092 87.8988 8.15792 87.0895 8.66609L88.0494 11.0376C88.7081 10.6047 89.4421 10.2235 90.2514 9.89417C91.0608 9.5648 91.8889 9.40012 92.7358 9.40012C93.3005 9.40012 93.7757 9.48952 94.1615 9.66832C94.5474 9.84712 94.8532 10.0918 95.0791 10.4023C95.3049 10.7129 95.4649 11.0752 95.559 11.4893C95.6531 11.9033 95.7001 12.3362 95.7001 12.7879C94.1004 12.9008 92.7123 13.0467 91.536 13.2255C90.3597 13.4043 89.3763 13.7101 88.5858 14.143C87.7765 14.6324 87.2118 15.2723 86.8919 16.0628C86.5719 16.8533 86.4119 17.6814 86.4119 18.5472C86.4119 19.2247 86.5249 19.8411 86.7507 20.3963C86.9766 20.9516 87.2918 21.4268 87.6965 21.822ZM95.6978 18.7448C95.0579 19.3282 94.4462 19.7611 93.8627 20.0434C93.2793 20.3258 92.6676 20.4669 91.9712 20.4669C91.2748 20.4669 90.6961 20.3069 90.235 19.987C89.7739 19.667 89.5433 19.1118 89.5433 18.3213C89.5433 18.0014 89.5574 17.6579 89.5856 17.2909C89.6139 16.9238 89.835 16.5521 90.2491 16.1757C90.4938 15.9499 90.7761 15.7758 91.096 15.6534C91.416 15.5311 91.7924 15.4276 92.2253 15.3429C92.6582 15.2582 93.1569 15.1876 93.7216 15.1311C94.2862 15.0747 94.945 14.9994 95.6978 14.9053V18.7448ZM105.184 0.196622V22.669H101.965V0.196622H105.184ZM108.007 4.06443H111.338V0.563705H108.007V4.06443ZM111.254 7.14167H108.035V22.6691H111.254V7.14167ZM116.956 7.14159L117.21 9.28719H117.295C118.01 8.59081 118.782 7.99324 119.61 7.49448C120.438 6.99572 121.379 6.74634 122.433 6.74634C124.089 6.74634 125.299 7.27333 126.061 8.32732C126.823 9.3813 127.204 10.9058 127.204 12.9008V22.669H123.958V13.2961C123.958 11.941 123.751 10.9764 123.337 10.4023C122.923 9.8283 122.254 9.54128 121.332 9.54128C120.617 9.54128 119.977 9.72007 119.412 10.0777C118.848 10.4353 118.217 10.9623 117.521 11.6586V22.669H114.302V7.14159H116.956ZM131.199 28.6117C131.773 28.9599 132.455 29.2187 133.246 29.3881C134.036 29.5575 134.893 29.6422 135.815 29.6422C137.057 29.6422 138.182 29.501 139.189 29.2187C140.196 28.9364 141.052 28.5506 141.758 28.0612C142.463 27.5719 143.005 26.9978 143.381 26.3391C143.757 25.6804 143.946 24.9746 143.946 24.2217C143.946 22.8666 143.485 21.8973 142.562 21.3139C141.64 20.7304 140.238 20.4387 138.356 20.4387H135.504C134.507 20.4387 133.825 20.3022 133.458 20.0293C133.091 19.7564 132.907 19.3847 132.907 18.9142C132.907 18.5378 132.982 18.2272 133.133 17.9825C133.283 17.7379 133.491 17.5026 133.754 17.2767C134.563 17.5967 135.288 17.7567 135.928 17.7567C136.737 17.7567 137.495 17.639 138.201 17.4038C138.906 17.1685 139.523 16.8203 140.05 16.3592C140.577 15.8981 140.991 15.3382 141.292 14.6794C141.593 14.0207 141.744 13.2678 141.744 12.4209C141.744 11.8186 141.649 11.2728 141.461 10.7835C141.273 10.2941 141.028 9.88946 140.727 9.56951H143.692V7.14159H138.186C137.885 7.02866 137.542 6.93455 137.156 6.85927C136.77 6.78399 136.361 6.74634 135.928 6.74634C135.119 6.74634 134.352 6.87339 133.627 7.12747C132.902 7.38156 132.267 7.74857 131.721 8.2285C131.176 8.70844 130.738 9.2919 130.409 9.97887C130.079 10.6658 129.915 11.414 129.915 12.3362C129.915 13.2584 130.122 14.0725 130.536 14.7782C130.95 15.484 131.42 16.044 131.947 16.458V16.5709C131.514 16.8909 131.119 17.3003 130.761 17.799C130.404 18.2978 130.225 18.8483 130.225 19.4506C130.225 20.0905 130.362 20.6175 130.634 21.0315C130.907 21.4456 131.241 21.775 131.637 22.0197V22.1608C130.921 22.5937 130.366 23.1019 129.971 23.6853C129.576 24.2688 129.378 24.871 129.378 25.5486C129.378 26.2262 129.538 26.819 129.858 27.3272C130.178 27.8354 130.625 28.2635 131.199 28.6117ZM139.57 26.6638C139.174 26.9178 138.699 27.1202 138.144 27.2707C137.589 27.4213 136.972 27.4966 136.295 27.4966C134.996 27.4966 133.98 27.2896 133.246 26.8755C132.512 26.4614 132.145 25.8592 132.145 25.0687C132.145 24.6734 132.248 24.2829 132.455 23.8971C132.662 23.5112 133.001 23.1489 133.472 22.8101C133.829 22.8854 134.177 22.9419 134.516 22.9795C134.855 23.0172 135.203 23.036 135.561 23.036H137.904C138.864 23.036 139.589 23.1536 140.078 23.3889C140.567 23.6242 140.812 24.0712 140.812 24.7299C140.812 25.1063 140.704 25.4592 140.487 25.7886C140.271 26.1179 139.965 26.4097 139.57 26.6638ZM138.864 12.3362C138.864 13.3714 138.577 14.1854 138.003 14.7782C137.429 15.3711 136.737 15.6675 135.928 15.6675C135.119 15.6675 134.427 15.3711 133.853 14.7782C133.279 14.1854 132.992 13.409 132.992 12.3362C132.992 11.2634 133.269 10.4447 133.825 9.88005C134.38 9.31542 135.081 9.03311 135.928 9.03311C136.775 9.03311 137.476 9.31542 138.031 9.88005C138.586 10.4447 138.864 11.301 138.864 12.3362Z" fill="url(#paint0_linear_2696_14615)"/>
</g>
<defs>
<linearGradient id="paint0_linear_2696_14615" x1="-0.00460053" y1="0.0781225" x2="-1.90648" y2="59.7526" gradientUnits="userSpaceOnUse">
<stop stop-color="#FE9A84"/>
<stop offset="1" stop-color="#FF4C24"/>
</linearGradient>
<clipPath id="clip0_2696_14615">
<rect width="144" height="29.7766" fill="white"/>
</clipPath>
</defs>
</svg>
