<svg width="320" height="190" viewBox="0 0 320 190" fill="none" xmlns="http://www.w3.org/2000/svg">
<rect width="320" height="190" rx="16" fill="#36312B"/>
<path d="M34.15 37.268V28.97H36.544V37.268H34.15ZM31.864 33.236C31.864 33.788 31.75 34.298 31.522 34.766C31.306 35.234 31 35.636 30.604 35.972C30.208 36.308 29.74 36.572 29.2 36.764C28.672 36.944 28.09 37.034 27.454 37.034C26.83 37.034 26.242 36.944 25.69 36.764C25.15 36.572 24.682 36.308 24.286 35.972C23.89 35.636 23.578 35.234 23.35 34.766C23.122 34.298 23.008 33.788 23.008 33.236C23.008 32.684 23.122 32.18 23.35 31.724C23.578 31.256 23.89 30.854 24.286 30.518C24.682 30.182 25.15 29.924 25.69 29.744C26.242 29.552 26.83 29.456 27.454 29.456C28.09 29.456 28.672 29.552 29.2 29.744C29.74 29.924 30.208 30.182 30.604 30.518C31 30.854 31.306 31.256 31.522 31.724C31.75 32.18 31.864 32.684 31.864 33.236ZM25.312 33.236C25.312 33.848 25.516 34.316 25.924 34.64C26.332 34.952 26.842 35.108 27.454 35.108C28.066 35.108 28.57 34.952 28.966 34.64C29.362 34.316 29.56 33.848 29.56 33.236C29.56 32.648 29.362 32.192 28.966 31.868C28.57 31.532 28.066 31.364 27.454 31.364C26.842 31.364 26.332 31.532 25.924 31.868C25.516 32.192 25.312 32.648 25.312 33.236ZM36.958 45.368H25.51V40.778H34.186V39.77H25.492V37.952H36.544V42.47H27.868V43.514H36.958V45.368ZM50.8166 28.97H53.1926V38.834H50.8166V34.892H48.3326V32.966H50.8166V28.97ZM48.1706 38.384C47.2706 38.084 46.5086 37.658 45.8846 37.106C45.2606 36.542 44.7686 35.894 44.4086 35.162C44.0486 36.002 43.5386 36.746 42.8786 37.394C42.2306 38.03 41.4206 38.51 40.4486 38.834L39.2426 36.962C39.9026 36.734 40.4726 36.44 40.9526 36.08C41.4326 35.708 41.8286 35.3 42.1406 34.856C42.4646 34.4 42.7046 33.92 42.8606 33.416C43.0286 32.9 43.1246 32.384 43.1486 31.868H39.8906V29.96H48.8006V31.868H45.5786C45.5906 32.336 45.6746 32.804 45.8306 33.272C45.9866 33.74 46.2146 34.184 46.5146 34.604C46.8266 35.012 47.2166 35.384 47.6846 35.72C48.1526 36.056 48.6986 36.326 49.3226 36.53L48.1706 38.384ZM47.5946 39.194C48.4706 39.194 49.2566 39.266 49.9526 39.41C50.6606 39.554 51.2546 39.764 51.7346 40.04C52.2266 40.304 52.6046 40.634 52.8686 41.03C53.1326 41.426 53.2646 41.876 53.2646 42.38C53.2646 42.884 53.1326 43.334 52.8686 43.73C52.6046 44.126 52.2266 44.456 51.7346 44.72C51.2546 44.996 50.6606 45.206 49.9526 45.35C49.2566 45.494 48.4706 45.566 47.5946 45.566C46.7186 45.566 45.9266 45.494 45.2186 45.35C44.5106 45.206 43.9106 44.996 43.4186 44.72C42.9386 44.456 42.5666 44.126 42.3026 43.73C42.0386 43.334 41.9066 42.884 41.9066 42.38C41.9066 41.876 42.0386 41.426 42.3026 41.03C42.5666 40.634 42.9386 40.304 43.4186 40.04C43.9106 39.764 44.5106 39.554 45.2186 39.41C45.9266 39.266 46.7186 39.194 47.5946 39.194ZM47.5946 43.766C49.7906 43.766 50.8886 43.304 50.8886 42.38C50.8886 41.456 49.7906 40.994 47.5946 40.994C45.3866 40.994 44.2826 41.456 44.2826 42.38C44.2826 43.304 45.3866 43.766 47.5946 43.766ZM68.5733 38.6V45.512H66.1973V38.6H59.9693V36.674H63.5873C63.8633 35.618 64.0433 34.706 64.1273 33.938C64.2113 33.158 64.2593 32.462 64.2713 31.85H61.1573V29.96H66.5933V31.022C66.5933 31.694 66.5693 32.492 66.5213 33.416C66.4733 34.328 66.2933 35.414 65.9813 36.674H70.4633C70.6793 35.654 70.8173 34.76 70.8773 33.992C70.9373 33.212 70.9733 32.498 70.9853 31.85H67.6913V29.96H73.3253V31.13C73.3253 31.814 73.3013 32.612 73.2533 33.524C73.2173 34.424 73.0793 35.474 72.8393 36.674H74.9453V38.6H68.5733ZM90.2619 45.584H87.8859V28.97H90.2619V45.584ZM85.3119 41.606H77.3379V30.464H85.3119V41.606ZM79.6779 39.734H82.9719V32.336H79.6779V39.734ZM106.893 45.53H104.499V28.952H106.893V45.53ZM101.961 30.68C101.961 31.94 101.841 33.146 101.601 34.298C101.361 35.45 100.947 36.536 100.359 37.556C99.7825 38.564 99.0085 39.506 98.0365 40.382C97.0645 41.246 95.8405 42.032 94.3645 42.74L93.1225 40.868C94.1785 40.364 95.0905 39.824 95.8585 39.248C96.6265 38.66 97.2685 38.024 97.7845 37.34C98.3005 36.656 98.6965 35.918 98.9725 35.126C99.2605 34.334 99.4465 33.482 99.5305 32.57H94.0045V30.68H101.961ZM112.579 41.714L111.247 45.476H109.213L109.951 41.714H112.579ZM131.185 34.406V38.294H128.809V28.97H131.185V32.462H133.381V34.406H131.185ZM127.783 36.782C126.403 37.058 125.095 37.244 123.859 37.34C122.623 37.436 121.405 37.484 120.205 37.484H118.801V29.744H121.177V35.504C122.197 35.48 123.223 35.426 124.255 35.342C125.299 35.246 126.385 35.09 127.513 34.874L127.783 36.782ZM131.185 39.068V45.35H120.385V39.068H131.185ZM128.863 43.496V40.922H122.725V43.496H128.863ZM144.162 37.124V35.216H146.178V33.776H144.162V31.868H146.178V28.97H148.554V41.192H146.178V37.124H144.162ZM144.198 38.618C143.43 38.75 142.638 38.858 141.822 38.942C141.006 39.014 140.196 39.068 139.392 39.104C138.588 39.14 137.808 39.164 137.052 39.176C136.296 39.188 135.594 39.194 134.946 39.194L134.694 37.268H136.422V32.048H135.108V30.158H143.856V32.048H142.542V37.034C142.806 37.01 143.064 36.986 143.316 36.962C143.568 36.938 143.814 36.914 144.054 36.89L144.198 38.618ZM138.708 37.214C138.96 37.214 139.212 37.214 139.464 37.214C139.728 37.202 139.992 37.19 140.256 37.178V32.048H138.708V37.214ZM148.932 45.26H137.628V40.274H140.004V43.37H148.932V45.26ZM164.285 37.61V45.53H161.909V28.952H164.285V35.63H166.517V37.61H164.285ZM157.715 38.114C157.907 36.914 158.027 35.87 158.075 34.982C158.123 34.082 158.147 33.254 158.147 32.498H151.955V30.608H160.487V31.958C160.487 32.762 160.469 33.68 160.433 34.712C160.397 35.744 160.265 36.944 160.037 38.312L157.715 38.114ZM156.419 40.184C157.223 40.16 158.021 40.124 158.813 40.076C159.617 40.016 160.397 39.938 161.153 39.842L161.279 41.552C160.439 41.696 159.581 41.816 158.705 41.912C157.841 41.996 156.983 42.062 156.131 42.11C155.279 42.146 154.445 42.176 153.629 42.2C152.813 42.212 152.045 42.218 151.325 42.218L151.109 40.274H152.531C153.023 40.274 153.539 40.268 154.079 40.256V35.36H156.419V40.184ZM171.871 32.336V30.464H175.561V28.862H177.955V30.464H181.645V32.336H171.871ZM184.939 35V38.96H182.563V28.988H184.939V33.056H187.135V35H184.939ZM180.835 35.81C180.835 36.254 180.733 36.662 180.529 37.034C180.337 37.406 180.061 37.724 179.701 37.988C179.341 38.24 178.909 38.438 178.405 38.582C177.913 38.726 177.367 38.798 176.767 38.798C176.167 38.798 175.615 38.726 175.111 38.582C174.619 38.438 174.193 38.24 173.833 37.988C173.473 37.724 173.191 37.406 172.987 37.034C172.795 36.662 172.699 36.254 172.699 35.81C172.699 35.366 172.795 34.964 172.987 34.604C173.191 34.232 173.473 33.92 173.833 33.668C174.193 33.404 174.619 33.2 175.111 33.056C175.615 32.912 176.167 32.84 176.767 32.84C177.367 32.84 177.913 32.912 178.405 33.056C178.909 33.2 179.341 33.404 179.701 33.668C180.061 33.92 180.337 34.232 180.529 34.604C180.733 34.964 180.835 35.366 180.835 35.81ZM174.967 35.81C174.967 36.23 175.129 36.542 175.453 36.746C175.789 36.95 176.227 37.052 176.767 37.052C177.307 37.052 177.739 36.95 178.063 36.746C178.399 36.542 178.567 36.23 178.567 35.81C178.567 35.402 178.399 35.096 178.063 34.892C177.739 34.688 177.307 34.586 176.767 34.586C176.227 34.586 175.789 34.688 175.453 34.892C175.129 35.096 174.967 35.402 174.967 35.81ZM184.939 39.68V45.35H174.157V39.68H184.939ZM182.617 43.496V41.552H176.497V43.496H182.617ZM202.83 45.566H200.562V28.97H202.83V45.566ZM199.572 29.33V44.828H197.376V37.106H195.792C195.624 38.126 195.378 39.116 195.054 40.076C194.73 41.036 194.28 41.966 193.704 42.866L191.886 41.858C192.342 41.126 192.714 40.406 193.002 39.698C193.29 38.978 193.512 38.252 193.668 37.52C193.836 36.776 193.95 36.014 194.01 35.234C194.082 34.454 194.13 33.632 194.154 32.768H192.966V30.842H196.17C196.17 31.598 196.158 32.336 196.134 33.056C196.11 33.764 196.068 34.478 196.008 35.198H197.376V29.33H199.572ZM192.48 30.842C192.48 31.898 192.45 32.924 192.39 33.92C192.33 34.904 192.21 35.864 192.03 36.8C191.85 37.724 191.598 38.63 191.274 39.518C190.95 40.394 190.53 41.246 190.014 42.074L188.196 41.066C188.604 40.418 188.946 39.77 189.222 39.122C189.498 38.474 189.72 37.814 189.888 37.142C190.068 36.47 190.2 35.774 190.284 35.054C190.368 34.334 190.422 33.572 190.446 32.768H188.736V30.842H192.48ZM218.02 37.412V45.548H215.644V28.97H218.02V35.45H220.396V37.412H218.02ZM214.564 31.418V33.308H204.916V31.418H208.588V29.258H210.964V31.418H214.564ZM209.794 34.244C210.394 34.244 210.946 34.34 211.45 34.532C211.966 34.724 212.41 35 212.782 35.36C213.154 35.708 213.442 36.122 213.646 36.602C213.862 37.082 213.97 37.61 213.97 38.186C213.97 38.774 213.862 39.314 213.646 39.806C213.442 40.286 213.154 40.706 212.782 41.066C212.41 41.414 211.966 41.684 211.45 41.876C210.946 42.068 210.394 42.164 209.794 42.164C209.194 42.164 208.636 42.068 208.12 41.876C207.604 41.684 207.154 41.414 206.77 41.066C206.398 40.706 206.104 40.286 205.888 39.806C205.684 39.314 205.582 38.774 205.582 38.186C205.582 37.61 205.684 37.082 205.888 36.602C206.104 36.122 206.398 35.708 206.77 35.36C207.154 35 207.604 34.724 208.12 34.532C208.636 34.34 209.194 34.244 209.794 34.244ZM209.794 40.22C210.37 40.22 210.832 40.046 211.18 39.698C211.54 39.338 211.72 38.834 211.72 38.186C211.72 37.562 211.54 37.07 211.18 36.71C210.832 36.35 210.37 36.17 209.794 36.17C209.218 36.17 208.75 36.35 208.39 36.71C208.03 37.058 207.85 37.556 207.85 38.204C207.85 38.852 208.03 39.35 208.39 39.698C208.75 40.046 209.218 40.22 209.794 40.22ZM223.419 35.342V29.564H225.795V33.452H234.921V35.342H223.419ZM236.577 38.942H221.565V37.034H236.577V38.942ZM235.011 43.298V45.206H223.257V40.256H225.651V43.298H235.011ZM256.548 45.53H254.298V37.25H252.948V44.792H250.734V39.986L249.402 41.768C248.646 41.372 248.028 40.85 247.548 40.202C247.068 39.554 246.678 38.816 246.378 37.988C246.102 38.96 245.718 39.824 245.226 40.58C244.746 41.324 244.11 41.924 243.318 42.38L241.896 40.58C242.508 40.22 243.024 39.776 243.444 39.248C243.864 38.708 244.2 38.108 244.452 37.448C244.704 36.788 244.884 36.086 244.992 35.342C245.1 34.586 245.154 33.812 245.154 33.02V32.57H242.436V30.644H249.942V32.57H247.458V33.02C247.458 33.752 247.512 34.466 247.62 35.162C247.74 35.846 247.926 36.488 248.178 37.088C248.43 37.688 248.766 38.234 249.186 38.726C249.606 39.218 250.122 39.626 250.734 39.95V29.222H252.948V35.306H254.298V28.952H256.548V45.53ZM272.494 45.584H270.118V28.97H272.494V45.584ZM267.544 41.606H259.57V30.464H267.544V41.606ZM261.91 39.734H265.204V32.336H261.91V39.734ZM277.011 40.184L276.633 32.822L276.543 30.32H279.207L279.117 32.822L278.739 40.184H277.011ZM276.579 44.252V41.696H279.207V44.252H276.579Z" fill="white"/>
<path d="M40.3039 75.9718L36.7882 79.0054L37.8593 83.5421C37.9184 83.7884 37.9032 84.0466 37.8156 84.2843C37.728 84.5219 37.5719 84.7282 37.3671 84.8772C37.1623 85.0262 36.9179 85.1111 36.6648 85.1213C36.4118 85.1314 36.1614 85.0663 35.9453 84.9343L32 82.5061L28.0523 84.9343C27.8362 85.0656 27.5861 85.13 27.3335 85.1195C27.0809 85.109 26.837 85.0239 26.6326 84.8751C26.4282 84.7262 26.2724 84.5202 26.1849 84.283C26.0973 84.0458 26.0819 83.788 26.1406 83.5421L27.2156 79.0054L23.7 75.9718C23.5088 75.8065 23.3705 75.5887 23.3024 75.3453C23.2344 75.102 23.2395 74.844 23.3172 74.6035C23.3948 74.3631 23.5416 74.1509 23.7392 73.9933C23.9368 73.8358 24.1764 73.74 24.4281 73.7179L29.0375 73.346L30.8156 69.0429C30.9118 68.8083 31.0756 68.6077 31.2862 68.4666C31.4967 68.3254 31.7445 68.25 31.998 68.25C32.2515 68.25 32.4993 68.3254 32.7098 68.4666C32.9204 68.6077 33.0842 68.8083 33.1804 69.0429L34.9578 73.346L39.5671 73.7179C39.8193 73.7392 40.0596 73.8345 40.2579 73.9918C40.4562 74.1491 40.6037 74.3614 40.6819 74.6021C40.76 74.8429 40.7654 75.1013 40.6973 75.3451C40.6292 75.5889 40.4907 75.8071 40.2992 75.9725L40.3039 75.9718Z" fill="#FE8207"/>
<path d="M60.3039 75.9718L56.7882 79.0054L57.8593 83.5421C57.9184 83.7884 57.9032 84.0466 57.8156 84.2843C57.728 84.5219 57.5719 84.7282 57.3671 84.8772C57.1623 85.0262 56.9179 85.1111 56.6648 85.1213C56.4118 85.1314 56.1614 85.0663 55.9453 84.9343L52 82.5061L48.0523 84.9343C47.8362 85.0656 47.5861 85.13 47.3335 85.1195C47.0809 85.109 46.837 85.0239 46.6326 84.8751C46.4282 84.7262 46.2724 84.5202 46.1849 84.283C46.0973 84.0458 46.0819 83.788 46.1406 83.5421L47.2156 79.0054L43.7 75.9718C43.5088 75.8065 43.3705 75.5887 43.3024 75.3453C43.2344 75.102 43.2395 74.844 43.3172 74.6035C43.3948 74.3631 43.5416 74.1509 43.7392 73.9933C43.9368 73.8358 44.1764 73.74 44.4281 73.7179L49.0375 73.346L50.8156 69.0429C50.9118 68.8083 51.0756 68.6077 51.2862 68.4666C51.4967 68.3254 51.7445 68.25 51.998 68.25C52.2515 68.25 52.4993 68.3254 52.7098 68.4666C52.9204 68.6077 53.0842 68.8083 53.1804 69.0429L54.9578 73.346L59.5671 73.7179C59.8193 73.7392 60.0596 73.8345 60.2579 73.9918C60.4562 74.1491 60.6037 74.3614 60.6819 74.6021C60.76 74.8429 60.7654 75.1013 60.6973 75.3451C60.6292 75.5889 60.4907 75.8071 60.2992 75.9725L60.3039 75.9718Z" fill="#FE8207"/>
<path d="M80.3039 75.9718L76.7882 79.0054L77.8593 83.5421C77.9184 83.7884 77.9032 84.0466 77.8156 84.2843C77.728 84.5219 77.5719 84.7282 77.3671 84.8772C77.1623 85.0262 76.9179 85.1111 76.6648 85.1213C76.4118 85.1314 76.1614 85.0663 75.9453 84.9343L72 82.5061L68.0523 84.9343C67.8362 85.0656 67.5861 85.13 67.3335 85.1195C67.0809 85.109 66.837 85.0239 66.6326 84.8751C66.4282 84.7262 66.2724 84.5202 66.1849 84.283C66.0973 84.0458 66.0819 83.788 66.1406 83.5421L67.2156 79.0054L63.7 75.9718C63.5088 75.8065 63.3705 75.5887 63.3024 75.3453C63.2344 75.102 63.2395 74.844 63.3172 74.6035C63.3948 74.3631 63.5416 74.1509 63.7392 73.9933C63.9368 73.8358 64.1764 73.74 64.4281 73.7179L69.0375 73.346L70.8156 69.0429C70.9118 68.8083 71.0756 68.6077 71.2862 68.4666C71.4967 68.3254 71.7445 68.25 71.998 68.25C72.2515 68.25 72.4993 68.3254 72.7098 68.4666C72.9204 68.6077 73.0842 68.8083 73.1804 69.0429L74.9578 73.346L79.5671 73.7179C79.8193 73.7392 80.0596 73.8345 80.2579 73.9918C80.4562 74.1491 80.6037 74.3614 80.6819 74.6021C80.76 74.8429 80.7654 75.1013 80.6973 75.3451C80.6292 75.5889 80.4907 75.8071 80.2992 75.9725L80.3039 75.9718Z" fill="#FE8207"/>
<path d="M100.304 75.9718L96.7882 79.0054L97.8593 83.5421C97.9184 83.7884 97.9032 84.0466 97.8156 84.2843C97.728 84.5219 97.5719 84.7282 97.3671 84.8772C97.1623 85.0262 96.9179 85.1111 96.6648 85.1213C96.4118 85.1314 96.1614 85.0663 95.9453 84.9343L92 82.5061L88.0523 84.9343C87.8362 85.0656 87.5861 85.13 87.3335 85.1195C87.0809 85.109 86.837 85.0239 86.6326 84.8751C86.4282 84.7262 86.2724 84.5202 86.1849 84.283C86.0973 84.0458 86.0819 83.788 86.1406 83.5421L87.2156 79.0054L83.7 75.9718C83.5088 75.8065 83.3705 75.5887 83.3024 75.3453C83.2344 75.102 83.2395 74.844 83.3172 74.6035C83.3948 74.3631 83.5416 74.1509 83.7392 73.9933C83.9368 73.8358 84.1764 73.74 84.4281 73.7179L89.0375 73.346L90.8156 69.0429C90.9118 68.8083 91.0756 68.6077 91.2862 68.4666C91.4967 68.3254 91.7445 68.25 91.998 68.25C92.2515 68.25 92.4993 68.3254 92.7098 68.4666C92.9204 68.6077 93.0842 68.8083 93.1804 69.0429L94.9578 73.346L99.5671 73.7179C99.8193 73.7392 100.06 73.8345 100.258 73.9918C100.456 74.1491 100.604 74.3614 100.682 74.6021C100.76 74.8429 100.765 75.1013 100.697 75.3451C100.629 75.5889 100.491 75.8071 100.299 75.9725L100.304 75.9718Z" fill="#FE8207"/>
<path d="M120.304 75.9718L116.788 79.0054L117.859 83.5421C117.918 83.7884 117.903 84.0466 117.816 84.2843C117.728 84.5219 117.572 84.7282 117.367 84.8772C117.162 85.0262 116.918 85.1111 116.665 85.1213C116.412 85.1314 116.161 85.0663 115.945 84.9343L112 82.5061L108.052 84.9343C107.836 85.0656 107.586 85.13 107.333 85.1195C107.081 85.109 106.837 85.0239 106.633 84.8751C106.428 84.7262 106.272 84.5202 106.185 84.283C106.097 84.0458 106.082 83.788 106.141 83.5421L107.216 79.0054L103.7 75.9718C103.509 75.8065 103.371 75.5887 103.302 75.3453C103.234 75.102 103.239 74.844 103.317 74.6035C103.395 74.3631 103.542 74.1509 103.739 73.9933C103.937 73.8358 104.176 73.74 104.428 73.7179L109.037 73.346L110.816 69.0429C110.912 68.8083 111.076 68.6077 111.286 68.4666C111.497 68.3254 111.744 68.25 111.998 68.25C112.251 68.25 112.499 68.3254 112.71 68.4666C112.92 68.6077 113.084 68.8083 113.18 69.0429L114.958 73.346L119.567 73.7179C119.819 73.7392 120.06 73.8345 120.258 73.9918C120.456 74.1491 120.604 74.3614 120.682 74.6021C120.76 74.8429 120.765 75.1013 120.697 75.3451C120.629 75.5889 120.491 75.8071 120.299 75.9725L120.304 75.9718Z" fill="#FE8207"/>
<path d="M32.486 110.314V113.576H31.338V106.478H32.486V109.362H34.348V110.314H32.486ZM30.204 112.064C29.1307 112.279 28.1227 112.428 27.18 112.512C26.2373 112.587 25.29 112.624 24.338 112.624H23.358V107.108H24.492V111.658C25.3973 111.649 26.298 111.607 27.194 111.532C28.09 111.457 29.0467 111.322 30.064 111.126L30.204 112.064ZM32.486 114.262V118.854H24.576V114.262H32.486ZM31.366 117.93V115.186H25.696V117.93H31.366ZM42.7049 112.204V111.266H44.8049V109.796H42.7049V108.872H44.8049V106.492H45.9669V115.816H44.8049V112.204H42.7049ZM43.0689 113.506C42.4716 113.599 41.8509 113.674 41.2069 113.73C40.5629 113.786 39.9236 113.828 39.2889 113.856C38.6542 113.884 38.0382 113.903 37.4409 113.912C36.8436 113.921 36.2929 113.926 35.7889 113.926L35.6629 112.974H36.8389C36.9696 112.974 37.1049 112.969 37.2449 112.96V108.424H35.9989V107.5H42.6069V108.424H41.3609V112.806C41.6409 112.787 41.9162 112.769 42.1869 112.75C42.4669 112.722 42.7376 112.689 42.9989 112.652L43.0689 113.506ZM38.3509 112.946C38.6589 112.937 38.9716 112.927 39.2889 112.918C39.6062 112.909 39.9236 112.895 40.2409 112.876V108.424H38.3509V112.946ZM46.2889 118.756H37.9169V115.06H39.0649V117.818H46.2889V118.756ZM58.1318 112.694V119.036H56.9838V106.478H58.1318V111.728H60.1338V112.694H58.1318ZM53.9038 113.408C54.0811 112.363 54.1885 111.457 54.2258 110.692C54.2631 109.927 54.2818 109.292 54.2818 108.788H49.0598V107.85H55.4018V108.536C55.4018 109.04 55.3878 109.703 55.3598 110.524C55.3318 111.336 55.2291 112.335 55.0518 113.52L53.9038 113.408ZM52.1678 115.27C52.8678 115.242 53.5538 115.209 54.2258 115.172C54.9071 115.125 55.5698 115.06 56.2138 114.976L56.2838 115.816C55.6305 115.919 54.9631 116.003 54.2818 116.068C53.6005 116.124 52.9238 116.171 52.2518 116.208C51.5798 116.245 50.9265 116.269 50.2918 116.278C49.6571 116.287 49.0598 116.292 48.4998 116.292L48.3738 115.34C48.7751 115.34 49.1998 115.34 49.6478 115.34C50.0958 115.331 50.5578 115.317 51.0338 115.298V111.434H52.1678V115.27ZM75.1216 113.786C74.5056 113.515 73.9922 113.137 73.5816 112.652C73.1802 112.167 72.8722 111.625 72.6576 111.028C72.4522 111.644 72.1489 112.209 71.7476 112.722C71.3462 113.235 70.8236 113.637 70.1796 113.926C69.5356 113.627 69.0082 113.212 68.5976 112.68C68.1962 112.148 67.8976 111.574 67.7016 110.958C67.4869 111.555 67.1696 112.106 66.7496 112.61C66.3389 113.105 65.8349 113.497 65.2376 113.786L64.6216 112.904C65.0229 112.727 65.3776 112.493 65.6856 112.204C66.0029 111.915 66.2689 111.597 66.4836 111.252C66.6982 110.907 66.8616 110.547 66.9736 110.174C67.0856 109.801 67.1416 109.441 67.1416 109.096V107.5H68.2756V109.096C68.2756 109.385 68.3176 109.698 68.4016 110.034C68.4856 110.361 68.6069 110.687 68.7656 111.014C68.9242 111.331 69.1202 111.639 69.3536 111.938C69.5962 112.227 69.8762 112.484 70.1936 112.708C70.5109 112.493 70.7862 112.241 71.0196 111.952C71.2529 111.663 71.4442 111.359 71.5936 111.042C71.7522 110.715 71.8689 110.389 71.9436 110.062C72.0276 109.726 72.0696 109.404 72.0696 109.096V107.5H73.2316V109.096C73.2316 109.479 73.2829 109.861 73.3856 110.244C73.4976 110.617 73.6562 110.972 73.8616 111.308C74.0762 111.644 74.3422 111.952 74.6596 112.232C74.9769 112.503 75.3409 112.727 75.7516 112.904L75.1216 113.786ZM75.8916 117.37H64.5096V116.418H75.8916V117.37ZM78.5925 108.676V107.738H87.3985V108.984C87.3985 109.376 87.3938 109.782 87.3845 110.202C87.3845 110.613 87.3705 111.056 87.3425 111.532C87.3145 111.999 87.2678 112.503 87.2025 113.044C87.1372 113.576 87.0438 114.159 86.9225 114.794L85.7745 114.668C86.0172 113.473 86.1572 112.414 86.1945 111.49C86.2318 110.566 86.2505 109.731 86.2505 108.984V108.676H78.5925ZM88.7565 117.272H77.4025V116.334H81.8125V111.84H82.9605V116.334H88.7565V117.272ZM102.554 113.66V106.492H103.702V113.66H102.554ZM96.9543 113.072C96.4783 113.072 96.0396 113.002 95.6383 112.862C95.2463 112.722 94.9056 112.521 94.6163 112.26C94.3269 111.999 94.0983 111.691 93.9303 111.336C93.7716 110.972 93.6923 110.575 93.6923 110.146C93.6923 109.707 93.7716 109.311 93.9303 108.956C94.0983 108.601 94.3269 108.293 94.6163 108.032C94.9056 107.771 95.2463 107.57 95.6383 107.43C96.0396 107.29 96.4783 107.22 96.9543 107.22C97.4303 107.22 97.8689 107.29 98.2703 107.43C98.6716 107.57 99.0169 107.771 99.3063 108.032C99.6049 108.293 99.8336 108.601 99.9923 108.956C100.16 109.311 100.244 109.707 100.244 110.146C100.244 110.575 100.16 110.972 99.9923 111.336C99.8336 111.691 99.6049 111.999 99.3063 112.26C99.0169 112.521 98.6716 112.722 98.2703 112.862C97.8689 113.002 97.4303 113.072 96.9543 113.072ZM96.9543 108.172C96.6463 108.172 96.3569 108.223 96.0863 108.326C95.8249 108.419 95.6009 108.555 95.4143 108.732C95.2276 108.9 95.0783 109.105 94.9663 109.348C94.8636 109.591 94.8123 109.857 94.8123 110.146C94.8123 110.435 94.8636 110.701 94.9663 110.944C95.0783 111.187 95.2276 111.397 95.4143 111.574C95.6009 111.742 95.8249 111.877 96.0863 111.98C96.3569 112.073 96.6463 112.12 96.9543 112.12C97.2623 112.12 97.5469 112.073 97.8083 111.98C98.0789 111.877 98.3123 111.742 98.5083 111.574C98.7043 111.397 98.8536 111.187 98.9563 110.944C99.0683 110.701 99.1243 110.435 99.1243 110.146C99.1243 109.857 99.0683 109.591 98.9563 109.348C98.8536 109.105 98.7043 108.9 98.5083 108.732C98.3123 108.555 98.0789 108.419 97.8083 108.326C97.5469 108.223 97.2623 108.172 96.9543 108.172ZM102.302 114.878C102.302 115.205 102.358 115.527 102.47 115.844C102.582 116.161 102.746 116.46 102.96 116.74C103.175 117.011 103.436 117.258 103.744 117.482C104.062 117.697 104.421 117.869 104.822 118L104.248 118.868C103.632 118.644 103.11 118.327 102.68 117.916C102.26 117.505 101.943 117.034 101.728 116.502C101.532 117.015 101.243 117.496 100.86 117.944C100.478 118.383 99.9923 118.728 99.4043 118.98C98.7883 118.737 98.2889 118.406 97.9063 117.986C97.5329 117.557 97.2529 117.076 97.0663 116.544C96.8423 117.048 96.5203 117.505 96.1003 117.916C95.6803 118.327 95.1763 118.644 94.5883 118.868L94.0143 118C94.4063 117.86 94.7563 117.678 95.0643 117.454C95.3816 117.221 95.6476 116.964 95.8623 116.684C96.0863 116.404 96.2543 116.11 96.3663 115.802C96.4783 115.494 96.5343 115.186 96.5343 114.878V114.206H97.6403V114.878C97.6403 115.438 97.7803 115.989 98.0603 116.53C98.3496 117.071 98.7883 117.515 99.3763 117.86C99.6749 117.673 99.9363 117.459 100.16 117.216C100.394 116.973 100.585 116.721 100.734 116.46C100.884 116.189 100.996 115.919 101.07 115.648C101.145 115.377 101.182 115.121 101.182 114.878V114.206H102.302V114.878ZM107.803 111.196V106.94H108.951V110.258H116.343V111.196H107.803ZM117.645 113.8H106.263V112.876H117.645V113.8ZM116.413 117.79V118.728H107.719V115.06H108.867V117.79H116.413ZM129.81 119.036H128.718V106.478H129.81V119.036ZM127.276 106.786V118.406H126.198V112.218H123.496V111.266H126.198V106.786H127.276ZM120.752 115.06C121.191 115.06 121.597 115.055 121.97 115.046C122.343 115.037 122.698 115.023 123.034 115.004C123.37 114.976 123.697 114.939 124.014 114.892C124.331 114.845 124.649 114.785 124.966 114.71L125.078 115.648C124.723 115.723 124.373 115.783 124.028 115.83C123.692 115.877 123.337 115.914 122.964 115.942C122.6 115.97 122.213 115.989 121.802 115.998C121.391 116.007 120.934 116.012 120.43 116.012H119.618V108.018H124.336V108.942H120.752V115.06ZM145.512 119.064H144.364V111.574H140.514V110.622H144.364V106.478H145.512V119.064ZM137 115.06C137.933 115.051 138.834 115.009 139.702 114.934C140.579 114.859 141.484 114.729 142.418 114.542L142.572 115.522C141.573 115.709 140.616 115.839 139.702 115.914C138.787 115.989 137.83 116.026 136.832 116.026H135.852V107.878H137V115.06ZM149.487 112.064V107.178H157.971V112.064H149.487ZM150.607 108.102V111.154H156.837V108.102H150.607ZM154.275 114.71V119.022H153.127V114.71H148.031V113.772H159.427V114.71H154.275ZM164.657 110.104C165.207 110.057 165.735 109.969 166.239 109.838C166.743 109.698 167.191 109.53 167.583 109.334C167.975 109.129 168.297 108.895 168.549 108.634C168.801 108.363 168.945 108.074 168.983 107.766H165.105V106.87H174.373V107.766H170.495C170.532 108.074 170.672 108.363 170.915 108.634C171.167 108.895 171.489 109.129 171.881 109.334C172.273 109.539 172.721 109.707 173.225 109.838C173.729 109.969 174.256 110.057 174.807 110.104L174.443 110.972C173.911 110.925 173.397 110.841 172.903 110.72C172.417 110.589 171.965 110.426 171.544 110.23C171.134 110.034 170.77 109.805 170.453 109.544C170.145 109.273 169.907 108.979 169.739 108.662C169.571 108.979 169.328 109.273 169.011 109.544C168.703 109.805 168.339 110.034 167.919 110.23C167.508 110.426 167.055 110.589 166.561 110.72C166.075 110.841 165.567 110.925 165.035 110.972L164.657 110.104ZM175.423 112.61H164.055V111.686H169.151V110.202H170.299V111.686H175.423V112.61ZM174.359 114.29V115.172H165.105V114.29H169.165V113.114H170.312V114.29H174.359ZM169.725 115.788C170.975 115.788 171.918 115.928 172.553 116.208C173.187 116.488 173.505 116.908 173.505 117.468C173.505 118.009 173.187 118.415 172.553 118.686C171.918 118.966 170.975 119.106 169.725 119.106C168.474 119.106 167.531 118.966 166.897 118.686C166.271 118.415 165.959 118.009 165.959 117.468C165.959 116.908 166.271 116.488 166.897 116.208C167.531 115.928 168.474 115.788 169.725 115.788ZM169.725 118.322C170.574 118.322 171.218 118.247 171.657 118.098C172.105 117.958 172.329 117.748 172.329 117.468C172.329 117.169 172.105 116.95 171.657 116.81C171.218 116.67 170.574 116.6 169.725 116.6C168.875 116.6 168.231 116.67 167.793 116.81C167.354 116.95 167.135 117.169 167.135 117.468C167.135 117.748 167.354 117.958 167.793 118.098C168.231 118.247 168.875 118.322 169.725 118.322ZM186.593 112.456V119.036H185.445V106.492H186.593V111.49H188.665V112.456H186.593ZM180.279 107.444C180.746 107.444 181.171 107.547 181.553 107.752C181.936 107.957 182.267 108.251 182.547 108.634C182.827 109.017 183.042 109.479 183.191 110.02C183.35 110.552 183.429 111.154 183.429 111.826C183.429 112.498 183.35 113.105 183.191 113.646C183.042 114.178 182.827 114.635 182.547 115.018C182.267 115.401 181.936 115.695 181.553 115.9C181.171 116.105 180.746 116.208 180.279 116.208C179.813 116.208 179.383 116.105 178.991 115.9C178.609 115.695 178.277 115.401 177.997 115.018C177.717 114.635 177.498 114.178 177.339 113.646C177.19 113.105 177.115 112.498 177.115 111.826C177.115 111.154 177.19 110.552 177.339 110.02C177.498 109.479 177.717 109.017 177.997 108.634C178.277 108.251 178.609 107.957 178.991 107.752C179.383 107.547 179.813 107.444 180.279 107.444ZM180.279 115.186C180.578 115.186 180.853 115.107 181.105 114.948C181.357 114.789 181.572 114.565 181.749 114.276C181.936 113.977 182.081 113.623 182.183 113.212C182.286 112.801 182.337 112.339 182.337 111.826C182.337 111.322 182.286 110.865 182.183 110.454C182.081 110.034 181.936 109.679 181.749 109.39C181.572 109.101 181.357 108.877 181.105 108.718C180.853 108.559 180.578 108.48 180.279 108.48C179.971 108.48 179.691 108.559 179.439 108.718C179.187 108.877 178.968 109.101 178.781 109.39C178.604 109.679 178.464 110.034 178.361 110.454C178.259 110.865 178.207 111.322 178.207 111.826C178.207 112.339 178.259 112.801 178.361 113.212C178.464 113.623 178.604 113.977 178.781 114.276C178.968 114.565 179.187 114.789 179.439 114.948C179.691 115.107 179.971 115.186 180.279 115.186ZM201.208 117.426H189.798V116.474H192.598V113.086C192.066 112.815 191.651 112.461 191.352 112.022C191.063 111.574 190.918 111.065 190.918 110.496C190.918 110.011 191.03 109.572 191.254 109.18C191.478 108.779 191.791 108.438 192.192 108.158C192.603 107.878 193.088 107.663 193.648 107.514C194.208 107.355 194.82 107.276 195.482 107.276C196.154 107.276 196.766 107.355 197.316 107.514C197.876 107.663 198.357 107.878 198.758 108.158C199.169 108.438 199.486 108.779 199.71 109.18C199.934 109.572 200.046 110.011 200.046 110.496C200.046 111.065 199.902 111.569 199.612 112.008C199.332 112.447 198.926 112.801 198.394 113.072V116.474H201.208V117.426ZM195.482 108.172C194.978 108.172 194.512 108.228 194.082 108.34C193.662 108.452 193.298 108.611 192.99 108.816C192.692 109.012 192.454 109.255 192.276 109.544C192.108 109.824 192.024 110.141 192.024 110.496C192.024 110.841 192.108 111.159 192.276 111.448C192.454 111.737 192.692 111.985 192.99 112.19C193.298 112.386 193.662 112.54 194.082 112.652C194.512 112.764 194.978 112.82 195.482 112.82C195.986 112.82 196.448 112.764 196.868 112.652C197.298 112.54 197.666 112.386 197.974 112.19C198.282 111.985 198.52 111.737 198.688 111.448C198.866 111.159 198.954 110.841 198.954 110.496C198.954 110.141 198.866 109.824 198.688 109.544C198.52 109.255 198.282 109.012 197.974 108.816C197.666 108.611 197.298 108.452 196.868 108.34C196.448 108.228 195.986 108.172 195.482 108.172ZM197.246 116.474V113.52C196.621 113.651 196.033 113.716 195.482 113.716C195.174 113.716 194.876 113.702 194.586 113.674C194.297 113.637 194.017 113.585 193.746 113.52V116.474H197.246ZM204.651 107.514L204.441 115.494H203.559L203.349 107.514H204.651ZM203.363 118.182V116.866H204.637V118.182H203.363ZM31.898 133.918V127.478H33.046V133.918H31.898ZM29.518 130.726C29.518 131.137 29.434 131.515 29.266 131.86C29.1073 132.196 28.8833 132.485 28.594 132.728C28.3047 132.971 27.9593 133.162 27.558 133.302C27.166 133.433 26.7367 133.498 26.27 133.498C25.8033 133.498 25.3693 133.433 24.968 133.302C24.576 133.162 24.2353 132.971 23.946 132.728C23.666 132.485 23.442 132.196 23.274 131.86C23.1153 131.515 23.036 131.137 23.036 130.726C23.036 130.306 23.1153 129.928 23.274 129.592C23.442 129.247 23.666 128.953 23.946 128.71C24.2353 128.458 24.576 128.267 24.968 128.136C25.3693 127.996 25.8033 127.926 26.27 127.926C26.7367 127.926 27.166 127.996 27.558 128.136C27.9593 128.267 28.3047 128.458 28.594 128.71C28.8833 128.953 29.1073 129.247 29.266 129.592C29.434 129.928 29.518 130.306 29.518 130.726ZM24.142 130.726C24.142 130.987 24.1933 131.235 24.296 131.468C24.408 131.692 24.5573 131.888 24.744 132.056C24.94 132.215 25.164 132.341 25.416 132.434C25.6773 132.527 25.962 132.574 26.27 132.574C26.578 132.574 26.8627 132.527 27.124 132.434C27.3853 132.341 27.6093 132.215 27.796 132.056C27.9827 131.888 28.1273 131.692 28.23 131.468C28.342 131.235 28.398 130.987 28.398 130.726C28.398 130.455 28.342 130.208 28.23 129.984C28.1273 129.751 27.9827 129.555 27.796 129.396C27.6093 129.228 27.3853 129.097 27.124 129.004C26.8627 128.911 26.578 128.864 26.27 128.864C25.962 128.864 25.6773 128.911 25.416 129.004C25.164 129.097 24.94 129.228 24.744 129.396C24.5573 129.555 24.408 129.751 24.296 129.984C24.1933 130.208 24.142 130.455 24.142 130.726ZM33.466 139.868H24.94V136.718H31.912V135.444H24.912V134.534H33.046V137.572H26.074V138.958H33.466V139.868ZM44.8049 127.492H45.9669V134.968H44.8049V131.678H42.3269V130.74H44.8049V127.492ZM42.4529 134.492C41.7529 134.24 41.1416 133.867 40.6189 133.372C40.0962 132.877 39.6996 132.308 39.4289 131.664C39.1582 132.392 38.7476 133.036 38.1969 133.596C37.6462 134.156 37.0022 134.576 36.2649 134.856L35.6629 133.946C36.1296 133.778 36.5542 133.549 36.9369 133.26C37.3289 132.971 37.6649 132.644 37.9449 132.28C38.2249 131.907 38.4396 131.505 38.5889 131.076C38.7476 130.647 38.8269 130.208 38.8269 129.76V129.326H36.0269V128.402H42.7329V129.326H39.9749V129.76C39.9749 130.161 40.0496 130.558 40.1989 130.95C40.3482 131.342 40.5536 131.711 40.8149 132.056C41.0856 132.392 41.4076 132.695 41.7809 132.966C42.1542 133.227 42.5696 133.437 43.0269 133.596L42.4529 134.492ZM41.8229 135.36C42.4669 135.36 43.0456 135.411 43.5589 135.514C44.0722 135.617 44.5109 135.771 44.8749 135.976C45.2389 136.172 45.5142 136.415 45.7009 136.704C45.8969 136.993 45.9949 137.325 45.9949 137.698C45.9949 138.071 45.8969 138.403 45.7009 138.692C45.5142 138.981 45.2389 139.224 44.8749 139.42C44.5109 139.625 44.0722 139.779 43.5589 139.882C43.0456 139.985 42.4669 140.036 41.8229 140.036C41.1789 140.036 40.5956 139.985 40.0729 139.882C39.5596 139.779 39.1209 139.625 38.7569 139.42C38.4022 139.224 38.1269 138.981 37.9309 138.692C37.7349 138.403 37.6369 138.071 37.6369 137.698C37.6369 137.325 37.7349 136.993 37.9309 136.704C38.1269 136.415 38.4022 136.172 38.7569 135.976C39.1209 135.771 39.5596 135.617 40.0729 135.514C40.5956 135.411 41.1789 135.36 41.8229 135.36ZM41.8229 139.14C42.7842 139.14 43.5309 139.014 44.0629 138.762C44.5949 138.51 44.8609 138.155 44.8609 137.698C44.8609 137.241 44.5949 136.886 44.0629 136.634C43.5309 136.373 42.7842 136.242 41.8229 136.242C40.8616 136.242 40.1149 136.373 39.5829 136.634C39.0509 136.886 38.7849 137.241 38.7849 137.698C38.7849 138.155 39.0509 138.51 39.5829 138.762C40.1149 139.014 40.8616 139.14 41.8229 139.14ZM53.0587 132.252V127.982H61.5847V128.906H54.2067V131.328H61.6687V132.252H53.0587ZM62.9987 134.408H51.6307V133.456H62.9987V134.408ZM57.3007 135.486C57.9727 135.486 58.57 135.537 59.0927 135.64C59.6247 135.733 60.0773 135.878 60.4507 136.074C60.824 136.27 61.1087 136.508 61.3047 136.788C61.5007 137.068 61.5987 137.39 61.5987 137.754C61.5987 138.118 61.5007 138.44 61.3047 138.72C61.1087 139 60.824 139.238 60.4507 139.434C60.0773 139.63 59.6247 139.775 59.0927 139.868C58.57 139.971 57.9727 140.022 57.3007 140.022C56.6287 140.022 56.0267 139.971 55.4947 139.868C54.972 139.775 54.524 139.63 54.1507 139.434C53.7773 139.238 53.4927 139 53.2967 138.72C53.1007 138.44 53.0027 138.118 53.0027 137.754C53.0027 137.39 53.1007 137.068 53.2967 136.788C53.4927 136.508 53.7773 136.27 54.1507 136.074C54.524 135.878 54.972 135.733 55.4947 135.64C56.0267 135.537 56.6287 135.486 57.3007 135.486ZM57.3007 139.126C58.29 139.126 59.06 139.009 59.6107 138.776C60.1613 138.543 60.4367 138.202 60.4367 137.754C60.4367 137.306 60.1613 136.965 59.6107 136.732C59.06 136.499 58.29 136.382 57.3007 136.382C56.3113 136.382 55.5413 136.499 54.9907 136.732C54.44 136.965 54.1647 137.306 54.1647 137.754C54.1647 138.202 54.44 138.543 54.9907 138.776C55.5413 139.009 56.3113 139.126 57.3007 139.126ZM75.8916 135.318H64.4956V134.38H69.6196V133.064H65.9656V129.998H73.3016V128.696H65.9376V127.8H74.4356V130.852H67.0996V132.168H74.7016V133.064H70.7816V134.38H75.8916V135.318ZM74.5056 136.284V139.924H73.3576V137.222H65.7696V136.284H74.5056ZM87.6645 140.064H86.5165V127.478H87.6645V140.064ZM81.8405 130.824C81.8405 131.393 81.9292 131.963 82.1065 132.532C82.2838 133.092 82.5218 133.615 82.8205 134.1C83.1285 134.585 83.4878 135.019 83.8985 135.402C84.3092 135.775 84.7432 136.065 85.2005 136.27L84.5145 137.194C83.7865 136.839 83.1378 136.317 82.5685 135.626C82.0085 134.926 81.5792 134.123 81.2805 133.218C80.9912 134.179 80.5618 135.024 79.9925 135.752C79.4232 136.48 78.7698 137.04 78.0325 137.432L77.3325 136.494C77.7898 136.27 78.2238 135.962 78.6345 135.57C79.0452 135.178 79.4045 134.73 79.7125 134.226C80.0205 133.722 80.2632 133.181 80.4405 132.602C80.6178 132.014 80.7065 131.421 80.7065 130.824V128.57H81.8405V130.824ZM103.996 135.08H102.89V131.692H101.294V134.996H100.202V127.702H101.294V130.754H102.89V127.492H103.996V135.08ZM99.0683 134.296C98.4803 134.053 97.9763 133.717 97.5563 133.288C97.1363 132.849 96.8143 132.359 96.5903 131.818C96.3663 132.415 96.0349 132.966 95.5963 133.47C95.1669 133.965 94.6443 134.347 94.0283 134.618L93.4123 133.736C93.8229 133.549 94.1869 133.316 94.5042 133.036C94.8309 132.747 95.1063 132.429 95.3303 132.084C95.5543 131.739 95.7269 131.379 95.8483 131.006C95.9696 130.633 96.0303 130.269 96.0303 129.914V128.22H97.1363V129.914C97.1363 130.269 97.1923 130.623 97.3043 130.978C97.4256 131.323 97.5936 131.655 97.8083 131.972C98.0229 132.28 98.2889 132.56 98.6063 132.812C98.9236 133.064 99.2829 133.269 99.6843 133.428L99.0683 134.296ZM103.996 135.766V140.036H102.848V136.69H95.5543V135.766H103.996ZM117.883 131.174H116.035V133.89H114.887V127.478H116.035V130.222H117.883V131.174ZM109.903 133.302C110.696 132.742 111.289 132.131 111.681 131.468C112.073 130.796 112.311 130.012 112.395 129.116H110.449V128.178H113.487C113.487 129.41 113.272 130.497 112.843 131.44C112.423 132.383 111.709 133.227 110.701 133.974L109.903 133.302ZM109.945 128.178C109.945 128.794 109.884 129.354 109.763 129.858C109.642 130.353 109.46 130.81 109.217 131.23C108.984 131.65 108.69 132.037 108.335 132.392C107.98 132.747 107.565 133.087 107.089 133.414L106.333 132.686C107.042 132.238 107.607 131.739 108.027 131.188C108.456 130.628 108.727 129.937 108.839 129.116H106.613V128.178H109.945ZM116.525 138.958V139.868H108.041V136.69H114.901V135.388H108.013V134.478H116.035V137.558H109.175V138.958H116.525ZM129.432 140.064H128.284V127.478H129.432V140.064ZM122.81 128.444C123.277 128.444 123.706 128.547 124.098 128.752C124.49 128.957 124.826 129.251 125.106 129.634C125.386 130.017 125.605 130.479 125.764 131.02C125.923 131.552 126.002 132.154 126.002 132.826C126.002 133.498 125.923 134.105 125.764 134.646C125.605 135.178 125.386 135.635 125.106 136.018C124.826 136.401 124.49 136.695 124.098 136.9C123.706 137.105 123.277 137.208 122.81 137.208C122.343 137.208 121.914 137.105 121.522 136.9C121.13 136.695 120.794 136.401 120.514 136.018C120.234 135.635 120.015 135.178 119.856 134.646C119.697 134.105 119.618 133.498 119.618 132.826C119.618 132.154 119.697 131.552 119.856 131.02C120.015 130.479 120.234 130.017 120.514 129.634C120.794 129.251 121.13 128.957 121.522 128.752C121.914 128.547 122.343 128.444 122.81 128.444ZM122.81 129.48C122.502 129.48 122.217 129.559 121.956 129.718C121.704 129.877 121.485 130.101 121.298 130.39C121.111 130.679 120.967 131.034 120.864 131.454C120.761 131.865 120.71 132.322 120.71 132.826C120.71 133.339 120.761 133.801 120.864 134.212C120.967 134.623 121.111 134.977 121.298 135.276C121.485 135.565 121.704 135.789 121.956 135.948C122.217 136.107 122.502 136.186 122.81 136.186C123.118 136.186 123.398 136.107 123.65 135.948C123.902 135.789 124.121 135.565 124.308 135.276C124.495 134.977 124.639 134.623 124.742 134.212C124.845 133.801 124.896 133.339 124.896 132.826C124.896 132.322 124.845 131.865 124.742 131.454C124.639 131.034 124.495 130.679 124.308 130.39C124.121 130.101 123.902 129.877 123.65 129.718C123.398 129.559 123.118 129.48 122.81 129.48ZM145.512 140.064H144.364V135.192H141.228C140.966 135.836 140.602 136.335 140.136 136.69C139.678 137.035 139.142 137.208 138.526 137.208C138.068 137.208 137.648 137.105 137.266 136.9C136.883 136.695 136.552 136.401 136.272 136.018C135.992 135.635 135.772 135.178 135.614 134.646C135.464 134.105 135.39 133.498 135.39 132.826C135.39 132.154 135.464 131.552 135.614 131.02C135.772 130.479 135.992 130.017 136.272 129.634C136.552 129.251 136.883 128.957 137.266 128.752C137.648 128.547 138.068 128.444 138.526 128.444C139.114 128.444 139.627 128.607 140.066 128.934C140.514 129.251 140.873 129.704 141.144 130.292H144.364V127.478H145.512V140.064ZM138.526 136.186C138.824 136.186 139.095 136.107 139.338 135.948C139.59 135.789 139.804 135.565 139.982 135.276C140.168 134.977 140.313 134.623 140.416 134.212C140.518 133.801 140.57 133.339 140.57 132.826C140.57 132.322 140.518 131.865 140.416 131.454C140.313 131.034 140.168 130.679 139.982 130.39C139.804 130.101 139.59 129.877 139.338 129.718C139.095 129.559 138.824 129.48 138.526 129.48C138.227 129.48 137.952 129.559 137.7 129.718C137.448 129.877 137.228 130.101 137.042 130.39C136.864 130.679 136.724 131.034 136.622 131.454C136.528 131.865 136.482 132.322 136.482 132.826C136.482 133.339 136.528 133.801 136.622 134.212C136.724 134.623 136.864 134.977 137.042 135.276C137.228 135.565 137.448 135.789 137.7 135.948C137.952 136.107 138.227 136.186 138.526 136.186ZM144.364 131.23H141.466C141.522 131.473 141.564 131.729 141.592 132C141.629 132.261 141.648 132.537 141.648 132.826C141.648 133.414 141.601 133.89 141.508 134.254H144.364V131.23ZM158.377 140.05H157.229V133.246H154.835V132.308H157.229V127.464H158.377V140.05ZM149.641 136.074C150.173 136.074 150.672 136.069 151.139 136.06C151.615 136.051 152.067 136.032 152.497 136.004C152.935 135.967 153.369 135.925 153.799 135.878C154.228 135.822 154.667 135.752 155.115 135.668L155.227 136.62C154.751 136.704 154.289 136.774 153.841 136.83C153.402 136.877 152.949 136.919 152.483 136.956C152.025 136.984 151.549 137.003 151.055 137.012C150.569 137.021 150.042 137.026 149.473 137.026H148.507V132.112H152.973V129.578H148.479V128.64H154.093V133.036H149.641V136.074ZM173.715 133.526V140.036H172.567V127.478H173.715V132.574H175.731V133.526H173.715ZM170.467 128.822C170.467 129.718 170.359 130.586 170.145 131.426C169.93 132.266 169.594 133.064 169.137 133.82C168.679 134.576 168.091 135.281 167.373 135.934C166.654 136.578 165.786 137.152 164.769 137.656L164.139 136.76C165.772 135.939 167.013 134.949 167.863 133.792C168.712 132.625 169.202 131.286 169.333 129.774H164.727V128.822H170.467ZM187.209 140.036H186.061V127.492H187.209V140.036ZM181.413 131.314C181.413 131.846 181.502 132.373 181.679 132.896C181.857 133.419 182.095 133.909 182.393 134.366C182.701 134.814 183.061 135.215 183.471 135.57C183.882 135.925 184.316 136.2 184.773 136.396L184.129 137.32C183.765 137.152 183.415 136.937 183.079 136.676C182.753 136.415 182.445 136.121 182.155 135.794C181.875 135.467 181.623 135.108 181.399 134.716C181.175 134.324 180.989 133.913 180.839 133.484C180.699 133.941 180.517 134.38 180.293 134.8C180.069 135.22 179.817 135.612 179.537 135.976C179.257 136.34 178.954 136.662 178.627 136.942C178.301 137.222 177.96 137.451 177.605 137.628L176.933 136.704C177.381 136.489 177.806 136.191 178.207 135.808C178.618 135.416 178.973 134.982 179.271 134.506C179.579 134.021 179.822 133.503 179.999 132.952C180.177 132.401 180.265 131.855 180.265 131.314V129.718H177.353V128.766H184.367V129.718H181.413V131.314ZM200.158 140.064H199.01V135.192H195.874C195.613 135.836 195.249 136.335 194.782 136.69C194.325 137.035 193.788 137.208 193.172 137.208C192.715 137.208 192.295 137.105 191.912 136.9C191.53 136.695 191.198 136.401 190.918 136.018C190.638 135.635 190.419 135.178 190.26 134.646C190.111 134.105 190.036 133.498 190.036 132.826C190.036 132.154 190.111 131.552 190.26 131.02C190.419 130.479 190.638 130.017 190.918 129.634C191.198 129.251 191.53 128.957 191.912 128.752C192.295 128.547 192.715 128.444 193.172 128.444C193.76 128.444 194.274 128.607 194.712 128.934C195.16 129.251 195.52 129.704 195.79 130.292H199.01V127.478H200.158V140.064ZM193.172 136.186C193.471 136.186 193.742 136.107 193.984 135.948C194.236 135.789 194.451 135.565 194.628 135.276C194.815 134.977 194.96 134.623 195.062 134.212C195.165 133.801 195.216 133.339 195.216 132.826C195.216 132.322 195.165 131.865 195.062 131.454C194.96 131.034 194.815 130.679 194.628 130.39C194.451 130.101 194.236 129.877 193.984 129.718C193.742 129.559 193.471 129.48 193.172 129.48C192.874 129.48 192.598 129.559 192.346 129.718C192.094 129.877 191.875 130.101 191.688 130.39C191.511 130.679 191.371 131.034 191.268 131.454C191.175 131.865 191.128 132.322 191.128 132.826C191.128 133.339 191.175 133.801 191.268 134.212C191.371 134.623 191.511 134.977 191.688 135.276C191.875 135.565 192.094 135.789 192.346 135.948C192.598 136.107 192.874 136.186 193.172 136.186ZM199.01 131.23H196.112C196.168 131.473 196.21 131.729 196.238 132C196.276 132.261 196.294 132.537 196.294 132.826C196.294 133.414 196.248 133.89 196.154 134.254H199.01V131.23ZM213.037 140.05H211.889V132.672H208.977V131.734H211.889V127.478H213.037V140.05ZM207.087 130.81C207.087 131.379 207.171 131.944 207.339 132.504C207.507 133.055 207.736 133.573 208.025 134.058C208.324 134.543 208.669 134.977 209.061 135.36C209.453 135.733 209.878 136.027 210.335 136.242L209.663 137.152C209.318 136.975 208.982 136.751 208.655 136.48C208.338 136.2 208.044 135.892 207.773 135.556C207.503 135.211 207.26 134.837 207.045 134.436C206.831 134.035 206.653 133.615 206.513 133.176C206.373 133.643 206.196 134.091 205.981 134.52C205.776 134.94 205.538 135.332 205.267 135.696C205.006 136.06 204.717 136.387 204.399 136.676C204.082 136.956 203.746 137.189 203.391 137.376L202.691 136.466C203.149 136.242 203.573 135.929 203.965 135.528C204.357 135.127 204.698 134.674 204.987 134.17C205.286 133.666 205.519 133.125 205.687 132.546C205.855 131.967 205.939 131.389 205.939 130.81V128.556H207.087V130.81ZM28.986 155.52V161.036H27.838V155.52H22.728V154.582H25.962C26.2233 153.593 26.3913 152.748 26.466 152.048C26.5407 151.348 26.5827 150.76 26.592 150.284H23.652V149.346H27.712V149.766C27.712 150.158 27.6887 150.765 27.642 151.586C27.5953 152.398 27.432 153.397 27.152 154.582H31.198C31.4033 153.593 31.5293 152.748 31.576 152.048C31.632 151.348 31.6647 150.76 31.674 150.284H28.636V149.346H32.808V149.906C32.808 150.354 32.7893 150.965 32.752 151.74C32.7147 152.515 32.5793 153.462 32.346 154.582H34.082V155.52H28.986ZM45.8969 161.064H44.7489V148.478H45.8969V161.064ZM42.1169 157.872H36.3489V149.71H42.1169V157.872ZM37.4689 156.962H40.9969V150.634H37.4689V156.962ZM50.0258 153.196V148.94H51.1738V152.258H58.5658V153.196H50.0258ZM59.8678 155.8H48.4858V154.876H59.8678V155.8ZM58.6358 159.79V160.728H49.9418V157.06H51.0898V159.79H58.6358ZM75.2196 161.036H74.1136V154.498H72.4616V160.42H71.3836V148.758H72.4616V153.546H74.1136V148.464H75.2196V161.036ZM68.2196 151.88C68.2196 152.459 68.2756 153.014 68.3876 153.546C68.4996 154.078 68.6676 154.573 68.8916 155.03C69.1156 155.478 69.3956 155.884 69.7316 156.248C70.0676 156.603 70.4596 156.897 70.9076 157.13L70.2356 158.012C69.6196 157.667 69.0969 157.205 68.6676 156.626C68.2382 156.047 67.9116 155.38 67.6876 154.624C67.2489 156.388 66.3809 157.662 65.0836 158.446L64.3836 157.578C64.8316 157.326 65.2236 157.009 65.5596 156.626C65.9049 156.234 66.1896 155.795 66.4136 155.31C66.6469 154.815 66.8196 154.279 66.9316 153.7C67.0529 153.121 67.1136 152.515 67.1136 151.88V150.9H64.6776V149.962H70.5016V150.9H68.2196V151.88ZM87.6645 161.064H86.5165V148.478H87.6645V161.064ZM83.8845 157.872H78.1165V149.71H83.8845V157.872ZM79.2365 156.962H82.7645V150.634H79.2365V156.962ZM99.9274 154.526V161.036H98.7794V148.478H99.9274V153.574H101.943V154.526H99.9274ZM96.6794 149.822C96.6794 150.718 96.5721 151.586 96.3574 152.426C96.1427 153.266 95.8067 154.064 95.3494 154.82C94.8921 155.576 94.3041 156.281 93.5854 156.934C92.8667 157.578 91.9987 158.152 90.9814 158.656L90.3514 157.76C91.9847 156.939 93.2261 155.949 94.0754 154.792C94.9247 153.625 95.4147 152.286 95.5454 150.774H90.9394V149.822H96.6794ZM115.433 155.66V148.492H116.581V155.66H115.433ZM109.833 155.072C109.357 155.072 108.918 155.002 108.517 154.862C108.125 154.722 107.784 154.521 107.495 154.26C107.206 153.999 106.977 153.691 106.809 153.336C106.65 152.972 106.571 152.575 106.571 152.146C106.571 151.707 106.65 151.311 106.809 150.956C106.977 150.601 107.206 150.293 107.495 150.032C107.784 149.771 108.125 149.57 108.517 149.43C108.918 149.29 109.357 149.22 109.833 149.22C110.309 149.22 110.748 149.29 111.149 149.43C111.55 149.57 111.896 149.771 112.185 150.032C112.484 150.293 112.712 150.601 112.871 150.956C113.039 151.311 113.123 151.707 113.123 152.146C113.123 152.575 113.039 152.972 112.871 153.336C112.712 153.691 112.484 153.999 112.185 154.26C111.896 154.521 111.55 154.722 111.149 154.862C110.748 155.002 110.309 155.072 109.833 155.072ZM109.833 150.172C109.525 150.172 109.236 150.223 108.965 150.326C108.704 150.419 108.48 150.555 108.293 150.732C108.106 150.9 107.957 151.105 107.845 151.348C107.742 151.591 107.691 151.857 107.691 152.146C107.691 152.435 107.742 152.701 107.845 152.944C107.957 153.187 108.106 153.397 108.293 153.574C108.48 153.742 108.704 153.877 108.965 153.98C109.236 154.073 109.525 154.12 109.833 154.12C110.141 154.12 110.426 154.073 110.687 153.98C110.958 153.877 111.191 153.742 111.387 153.574C111.583 153.397 111.732 153.187 111.835 152.944C111.947 152.701 112.003 152.435 112.003 152.146C112.003 151.857 111.947 151.591 111.835 151.348C111.732 151.105 111.583 150.9 111.387 150.732C111.191 150.555 110.958 150.419 110.687 150.326C110.426 150.223 110.141 150.172 109.833 150.172ZM115.181 156.878C115.181 157.205 115.237 157.527 115.349 157.844C115.461 158.161 115.624 158.46 115.839 158.74C116.054 159.011 116.315 159.258 116.623 159.482C116.94 159.697 117.3 159.869 117.701 160L117.127 160.868C116.511 160.644 115.988 160.327 115.559 159.916C115.139 159.505 114.822 159.034 114.607 158.502C114.411 159.015 114.122 159.496 113.739 159.944C113.356 160.383 112.871 160.728 112.283 160.98C111.667 160.737 111.168 160.406 110.785 159.986C110.412 159.557 110.132 159.076 109.945 158.544C109.721 159.048 109.399 159.505 108.979 159.916C108.559 160.327 108.055 160.644 107.467 160.868L106.893 160C107.285 159.86 107.635 159.678 107.943 159.454C108.26 159.221 108.526 158.964 108.741 158.684C108.965 158.404 109.133 158.11 109.245 157.802C109.357 157.494 109.413 157.186 109.413 156.878V156.206H110.519V156.878C110.519 157.438 110.659 157.989 110.939 158.53C111.228 159.071 111.667 159.515 112.255 159.86C112.554 159.673 112.815 159.459 113.039 159.216C113.272 158.973 113.464 158.721 113.613 158.46C113.762 158.189 113.874 157.919 113.949 157.648C114.024 157.377 114.061 157.121 114.061 156.878V156.206H115.181V156.878ZM129.502 161.064H128.354V154.204H125.624C125.596 154.82 125.498 155.375 125.33 155.87C125.171 156.365 124.957 156.785 124.686 157.13C124.415 157.475 124.093 157.741 123.72 157.928C123.356 158.115 122.955 158.208 122.516 158.208C122.059 158.208 121.639 158.105 121.256 157.9C120.873 157.695 120.542 157.401 120.262 157.018C119.982 156.635 119.763 156.178 119.604 155.646C119.455 155.105 119.38 154.498 119.38 153.826C119.38 153.154 119.455 152.552 119.604 152.02C119.763 151.479 119.982 151.017 120.262 150.634C120.542 150.251 120.873 149.957 121.256 149.752C121.639 149.547 122.059 149.444 122.516 149.444C122.936 149.444 123.323 149.533 123.678 149.71C124.042 149.887 124.359 150.144 124.63 150.48C124.91 150.807 125.134 151.208 125.302 151.684C125.47 152.151 125.577 152.678 125.624 153.266H128.354V148.478H129.502V161.064ZM122.516 157.186C122.815 157.186 123.085 157.107 123.328 156.948C123.58 156.789 123.795 156.565 123.972 156.276C124.159 155.977 124.299 155.623 124.392 155.212C124.495 154.801 124.546 154.339 124.546 153.826C124.546 153.322 124.495 152.865 124.392 152.454C124.299 152.034 124.159 151.679 123.972 151.39C123.795 151.101 123.58 150.877 123.328 150.718C123.085 150.559 122.815 150.48 122.516 150.48C122.217 150.48 121.942 150.559 121.69 150.718C121.438 150.877 121.219 151.101 121.032 151.39C120.855 151.679 120.715 152.034 120.612 152.454C120.519 152.865 120.472 153.322 120.472 153.826C120.472 154.339 120.519 154.801 120.612 155.212C120.715 155.623 120.855 155.977 121.032 156.276C121.219 156.565 121.438 156.789 121.69 156.948C121.942 157.107 122.217 157.186 122.516 157.186ZM143.431 159.426H132.021V158.474H134.821V155.086C134.289 154.815 133.874 154.461 133.575 154.022C133.286 153.574 133.141 153.065 133.141 152.496C133.141 152.011 133.253 151.572 133.477 151.18C133.701 150.779 134.014 150.438 134.415 150.158C134.826 149.878 135.311 149.663 135.871 149.514C136.431 149.355 137.042 149.276 137.705 149.276C138.377 149.276 138.988 149.355 139.539 149.514C140.099 149.663 140.58 149.878 140.981 150.158C141.392 150.438 141.709 150.779 141.933 151.18C142.157 151.572 142.269 152.011 142.269 152.496C142.269 153.065 142.124 153.569 141.835 154.008C141.555 154.447 141.149 154.801 140.617 155.072V158.474H143.431V159.426ZM137.705 150.172C137.201 150.172 136.734 150.228 136.305 150.34C135.885 150.452 135.521 150.611 135.213 150.816C134.914 151.012 134.676 151.255 134.499 151.544C134.331 151.824 134.247 152.141 134.247 152.496C134.247 152.841 134.331 153.159 134.499 153.448C134.676 153.737 134.914 153.985 135.213 154.19C135.521 154.386 135.885 154.54 136.305 154.652C136.734 154.764 137.201 154.82 137.705 154.82C138.209 154.82 138.671 154.764 139.091 154.652C139.52 154.54 139.889 154.386 140.197 154.19C140.505 153.985 140.743 153.737 140.911 153.448C141.088 153.159 141.177 152.841 141.177 152.496C141.177 152.141 141.088 151.824 140.911 151.544C140.743 151.255 140.505 151.012 140.197 150.816C139.889 150.611 139.52 150.452 139.091 150.34C138.671 150.228 138.209 150.172 137.705 150.172ZM139.469 158.474V155.52C138.844 155.651 138.256 155.716 137.705 155.716C137.397 155.716 137.098 155.702 136.809 155.674C136.52 155.637 136.24 155.585 135.969 155.52V158.474H139.469ZM146.874 149.514L146.664 157.494H145.782L145.572 149.514H146.874ZM145.586 160.182V158.866H146.86V160.182H145.586Z" fill="white"/>
</svg>
