<svg width="320" height="148" viewBox="0 0 320 148" fill="none" xmlns="http://www.w3.org/2000/svg">
<rect width="320" height="148" rx="16" fill="#36312B"/>
<path d="M36.688 45.602H34.312V36.008H29.848V34.082H34.312V28.952H36.688V45.602ZM25.978 39.716C27.034 39.692 28.084 39.632 29.128 39.536C30.184 39.44 31.276 39.284 32.404 39.068L32.674 41.012C31.33 41.288 30.028 41.474 28.768 41.57C27.508 41.654 26.26 41.696 25.024 41.696H23.62V30.734H25.978V39.716ZM41.0606 36.476V29.78H52.5446V36.476H41.0606ZM43.4006 31.652V34.604H50.2226V31.652H43.4006ZM47.9726 40.13V45.548H45.5966V40.13H39.3326V38.24H54.3446V40.13H47.9726ZM60.5993 33.074C62.0873 32.978 63.2453 32.75 64.0733 32.39C64.9013 32.03 65.4353 31.628 65.6753 31.184H61.3373V29.384H73.6133V31.184H69.2393C69.4793 31.64 70.0133 32.048 70.8413 32.408C71.6693 32.756 72.8333 32.978 74.3333 33.074L73.5953 34.838C71.9273 34.73 70.5953 34.442 69.5993 33.974C68.6033 33.494 67.8893 32.894 67.4573 32.174C67.0253 32.894 66.3113 33.494 65.3153 33.974C64.3313 34.442 63.0053 34.73 61.3373 34.838L60.5993 33.074ZM74.9993 37.286H59.9693V35.432H66.2513V33.92H68.6273V35.432H74.9993V37.286ZM73.5773 38.978V40.742H61.3193V38.978H66.2513V37.808H68.6273V38.978H73.5773ZM67.4213 41.228C70.8053 41.228 72.4973 41.96 72.4973 43.424C72.4973 44.876 70.8053 45.602 67.4213 45.602C64.0613 45.602 62.3813 44.876 62.3813 43.424C62.3813 41.96 64.0613 41.228 67.4213 41.228ZM67.4213 44.036C69.1733 44.036 70.0493 43.832 70.0493 43.424C70.0493 43.004 69.1733 42.794 67.4213 42.794C65.6933 42.794 64.8293 43.004 64.8293 43.424C64.8293 43.832 65.6933 44.036 67.4213 44.036ZM89.5059 37.178V45.548H87.1299V28.97H89.5059V35.216H91.9179V37.178H89.5059ZM80.9739 30.122C81.5979 30.122 82.1739 30.26 82.7019 30.536C83.2419 30.812 83.7039 31.208 84.0879 31.724C84.4719 32.228 84.7719 32.846 84.9879 33.578C85.2159 34.298 85.3299 35.114 85.3299 36.026C85.3299 36.938 85.2159 37.76 84.9879 38.492C84.7719 39.224 84.4719 39.848 84.0879 40.364C83.7039 40.88 83.2419 41.276 82.7019 41.552C82.1739 41.828 81.5979 41.966 80.9739 41.966C80.3499 41.966 79.7679 41.828 79.2279 41.552C78.6999 41.276 78.2379 40.88 77.8419 40.364C77.4579 39.848 77.1579 39.224 76.9419 38.492C76.7259 37.76 76.6179 36.938 76.6179 36.026C76.6179 35.114 76.7259 34.298 76.9419 33.578C77.1579 32.846 77.4579 32.228 77.8419 31.724C78.2379 31.208 78.6999 30.812 79.2279 30.536C79.7679 30.26 80.3499 30.122 80.9739 30.122ZM80.9739 39.806C81.5859 39.806 82.0839 39.488 82.4679 38.852C82.8519 38.204 83.0439 37.262 83.0439 36.026C83.0439 34.79 82.8519 33.854 82.4679 33.218C82.0839 32.582 81.5859 32.264 80.9739 32.264C80.3499 32.264 79.8459 32.582 79.4619 33.218C79.0899 33.854 78.9039 34.79 78.9039 36.026C78.9039 37.262 79.0899 38.204 79.4619 38.852C79.8459 39.488 80.3499 39.806 80.9739 39.806ZM108.099 43.622H93.0865V41.696H96.3985V37.646C95.7505 37.262 95.2525 36.782 94.9045 36.206C94.5565 35.618 94.3885 34.964 94.4005 34.244C94.4005 33.56 94.5565 32.948 94.8685 32.408C95.1805 31.856 95.6065 31.388 96.1465 31.004C96.6985 30.608 97.3525 30.308 98.1085 30.104C98.8645 29.888 99.6865 29.78 100.575 29.78C101.475 29.78 102.303 29.888 103.059 30.104C103.815 30.308 104.463 30.608 105.003 31.004C105.555 31.388 105.987 31.856 106.299 32.408C106.611 32.948 106.767 33.56 106.767 34.244C106.767 34.964 106.587 35.618 106.227 36.206C105.879 36.782 105.393 37.262 104.769 37.646V41.696H108.099V43.622ZM100.575 31.652C99.4225 31.652 98.4925 31.88 97.7845 32.336C97.0885 32.78 96.7405 33.416 96.7405 34.244C96.7405 35.072 97.0885 35.714 97.7845 36.17C98.4925 36.614 99.4225 36.836 100.575 36.836C101.151 36.836 101.673 36.782 102.141 36.674C102.621 36.554 103.029 36.386 103.365 36.17C103.701 35.942 103.959 35.666 104.139 35.342C104.331 35.018 104.427 34.652 104.427 34.244C104.427 33.824 104.331 33.458 104.139 33.146C103.959 32.822 103.701 32.552 103.365 32.336C103.029 32.108 102.621 31.94 102.141 31.832C101.673 31.712 101.151 31.652 100.575 31.652ZM102.411 41.696V38.528C101.835 38.636 101.223 38.69 100.575 38.69C99.9385 38.69 99.3325 38.636 98.7565 38.528V41.696H102.411Z" fill="white"/>
<path d="M40.3039 75.9718L36.7882 79.0054L37.8593 83.5421C37.9184 83.7884 37.9032 84.0466 37.8156 84.2843C37.728 84.5219 37.5719 84.7282 37.3671 84.8772C37.1623 85.0262 36.9179 85.1111 36.6648 85.1213C36.4118 85.1314 36.1614 85.0663 35.9453 84.9343L32 82.5061L28.0523 84.9343C27.8362 85.0656 27.5861 85.13 27.3335 85.1195C27.0809 85.109 26.837 85.0239 26.6326 84.8751C26.4282 84.7262 26.2724 84.5202 26.1849 84.283C26.0973 84.0458 26.0819 83.788 26.1406 83.5421L27.2156 79.0054L23.7 75.9718C23.5088 75.8065 23.3705 75.5887 23.3024 75.3453C23.2344 75.102 23.2395 74.844 23.3172 74.6035C23.3948 74.3631 23.5416 74.1509 23.7392 73.9933C23.9368 73.8358 24.1764 73.74 24.4281 73.7179L29.0375 73.346L30.8156 69.0429C30.9118 68.8083 31.0756 68.6077 31.2862 68.4666C31.4967 68.3254 31.7445 68.25 31.998 68.25C32.2515 68.25 32.4993 68.3254 32.7098 68.4666C32.9204 68.6077 33.0842 68.8083 33.1804 69.0429L34.9578 73.346L39.5671 73.7179C39.8193 73.7392 40.0596 73.8345 40.2579 73.9918C40.4562 74.1491 40.6037 74.3614 40.6819 74.6021C40.76 74.8429 40.7654 75.1013 40.6973 75.3451C40.6292 75.5889 40.4907 75.8071 40.2992 75.9725L40.3039 75.9718Z" fill="#FE8207"/>
<path d="M60.3039 75.9718L56.7882 79.0054L57.8593 83.5421C57.9184 83.7884 57.9032 84.0466 57.8156 84.2843C57.728 84.5219 57.5719 84.7282 57.3671 84.8772C57.1623 85.0262 56.9179 85.1111 56.6648 85.1213C56.4118 85.1314 56.1614 85.0663 55.9453 84.9343L52 82.5061L48.0523 84.9343C47.8362 85.0656 47.5861 85.13 47.3335 85.1195C47.0809 85.109 46.837 85.0239 46.6326 84.8751C46.4282 84.7262 46.2724 84.5202 46.1849 84.283C46.0973 84.0458 46.0819 83.788 46.1406 83.5421L47.2156 79.0054L43.7 75.9718C43.5088 75.8065 43.3705 75.5887 43.3024 75.3453C43.2344 75.102 43.2395 74.844 43.3172 74.6035C43.3948 74.3631 43.5416 74.1509 43.7392 73.9933C43.9368 73.8358 44.1764 73.74 44.4281 73.7179L49.0375 73.346L50.8156 69.0429C50.9118 68.8083 51.0756 68.6077 51.2862 68.4666C51.4967 68.3254 51.7445 68.25 51.998 68.25C52.2515 68.25 52.4993 68.3254 52.7098 68.4666C52.9204 68.6077 53.0842 68.8083 53.1804 69.0429L54.9578 73.346L59.5671 73.7179C59.8193 73.7392 60.0596 73.8345 60.2579 73.9918C60.4562 74.1491 60.6037 74.3614 60.6819 74.6021C60.76 74.8429 60.7654 75.1013 60.6973 75.3451C60.6292 75.5889 60.4907 75.8071 60.2992 75.9725L60.3039 75.9718Z" fill="#FE8207"/>
<path d="M80.3039 75.9718L76.7882 79.0054L77.8593 83.5421C77.9184 83.7884 77.9032 84.0466 77.8156 84.2843C77.728 84.5219 77.5719 84.7282 77.3671 84.8772C77.1623 85.0262 76.9179 85.1111 76.6648 85.1213C76.4118 85.1314 76.1614 85.0663 75.9453 84.9343L72 82.5061L68.0523 84.9343C67.8362 85.0656 67.5861 85.13 67.3335 85.1195C67.0809 85.109 66.837 85.0239 66.6326 84.8751C66.4282 84.7262 66.2724 84.5202 66.1849 84.283C66.0973 84.0458 66.0819 83.788 66.1406 83.5421L67.2156 79.0054L63.7 75.9718C63.5088 75.8065 63.3705 75.5887 63.3024 75.3453C63.2344 75.102 63.2395 74.844 63.3172 74.6035C63.3948 74.3631 63.5416 74.1509 63.7392 73.9933C63.9368 73.8358 64.1764 73.74 64.4281 73.7179L69.0375 73.346L70.8156 69.0429C70.9118 68.8083 71.0756 68.6077 71.2862 68.4666C71.4967 68.3254 71.7445 68.25 71.998 68.25C72.2515 68.25 72.4993 68.3254 72.7098 68.4666C72.9204 68.6077 73.0842 68.8083 73.1804 69.0429L74.9578 73.346L79.5671 73.7179C79.8193 73.7392 80.0596 73.8345 80.2579 73.9918C80.4562 74.1491 80.6037 74.3614 80.6819 74.6021C80.76 74.8429 80.7654 75.1013 80.6973 75.3451C80.6292 75.5889 80.4907 75.8071 80.2992 75.9725L80.3039 75.9718Z" fill="#FE8207"/>
<path d="M100.304 75.9718L96.7882 79.0054L97.8593 83.5421C97.9184 83.7884 97.9032 84.0466 97.8156 84.2843C97.728 84.5219 97.5719 84.7282 97.3671 84.8772C97.1623 85.0262 96.9179 85.1111 96.6648 85.1213C96.4118 85.1314 96.1614 85.0663 95.9453 84.9343L92 82.5061L88.0523 84.9343C87.8362 85.0656 87.5861 85.13 87.3335 85.1195C87.0809 85.109 86.837 85.0239 86.6326 84.8751C86.4282 84.7262 86.2724 84.5202 86.1849 84.283C86.0973 84.0458 86.0819 83.788 86.1406 83.5421L87.2156 79.0054L83.7 75.9718C83.5088 75.8065 83.3705 75.5887 83.3024 75.3453C83.2344 75.102 83.2395 74.844 83.3172 74.6035C83.3948 74.3631 83.5416 74.1509 83.7392 73.9933C83.9368 73.8358 84.1764 73.74 84.4281 73.7179L89.0375 73.346L90.8156 69.0429C90.9118 68.8083 91.0756 68.6077 91.2862 68.4666C91.4967 68.3254 91.7445 68.25 91.998 68.25C92.2515 68.25 92.4993 68.3254 92.7098 68.4666C92.9204 68.6077 93.0842 68.8083 93.1804 69.0429L94.9578 73.346L99.5671 73.7179C99.8193 73.7392 100.06 73.8345 100.258 73.9918C100.456 74.1491 100.604 74.3614 100.682 74.6021C100.76 74.8429 100.765 75.1013 100.697 75.3451C100.629 75.5889 100.491 75.8071 100.299 75.9725L100.304 75.9718Z" fill="#FE8207"/>
<path d="M120.304 75.9718L116.788 79.0054L117.859 83.5421C117.918 83.7884 117.903 84.0466 117.816 84.2843C117.728 84.5219 117.572 84.7282 117.367 84.8772C117.162 85.0262 116.918 85.1111 116.665 85.1213C116.412 85.1314 116.161 85.0663 115.945 84.9343L112 82.5061L108.052 84.9343C107.836 85.0656 107.586 85.13 107.333 85.1195C107.081 85.109 106.837 85.0239 106.633 84.8751C106.428 84.7262 106.272 84.5202 106.185 84.283C106.097 84.0458 106.082 83.788 106.141 83.5421L107.216 79.0054L103.7 75.9718C103.509 75.8065 103.371 75.5887 103.302 75.3453C103.234 75.102 103.239 74.844 103.317 74.6035C103.395 74.3631 103.542 74.1509 103.739 73.9933C103.937 73.8358 104.176 73.74 104.428 73.7179L109.037 73.346L110.816 69.0429C110.912 68.8083 111.076 68.6077 111.286 68.4666C111.497 68.3254 111.744 68.25 111.998 68.25C112.251 68.25 112.499 68.3254 112.71 68.4666C112.92 68.6077 113.084 68.8083 113.18 69.0429L114.958 73.346L119.567 73.7179C119.819 73.7392 120.06 73.8345 120.258 73.9918C120.456 74.1491 120.604 74.3614 120.682 74.6021C120.76 74.8429 120.765 75.1013 120.697 75.3451C120.629 75.5889 120.491 75.8071 120.299 75.9725L120.304 75.9718Z" fill="#FE8207"/>
<path d="M33.074 119.036H31.926V112.456H29.028V111.518H31.926V106.492H33.074V119.036ZM29.07 107.78C29.07 108.695 28.9813 109.586 28.804 110.454C28.6267 111.313 28.3187 112.134 27.88 112.918C27.4507 113.693 26.872 114.425 26.144 115.116C25.416 115.797 24.4967 116.418 23.386 116.978L22.742 116.068C23.89 115.508 24.8187 114.873 25.528 114.164C26.2373 113.455 26.788 112.68 27.18 111.84L22.994 112.232L22.784 111.238L27.53 110.93C27.6513 110.575 27.74 110.216 27.796 109.852C27.8613 109.488 27.908 109.11 27.936 108.718H23.428V107.78H29.07ZM36.6709 107.752V106.87H45.8829V107.752H43.9929V110.146H45.8409V111.028H36.7129V110.146H38.5749V107.752H36.6709ZM39.7229 107.752V110.146H42.8449V107.752H39.7229ZM46.9749 112.988H35.6069V112.078H46.9749V112.988ZM45.8969 118.028V118.896H37.0209V116.026H44.3849V114.948H36.9789V114.094H45.5189V116.852H38.1409V118.028H45.8969ZM52.9887 108.046V107.122H61.5427V108.186C61.5427 108.69 61.5287 109.208 61.5007 109.74C61.4727 110.272 61.37 110.86 61.1927 111.504L60.0727 111.378C60.2407 110.734 60.3387 110.165 60.3667 109.67C60.3947 109.166 60.4087 108.671 60.4087 108.186V108.046H52.9887ZM62.9567 113.268H51.6587V112.33H56.2927V109.922H57.4407V112.33H62.9567V113.268ZM57.2587 114.416C57.9307 114.416 58.5327 114.467 59.0647 114.57C59.606 114.673 60.068 114.827 60.4507 115.032C60.8333 115.228 61.1273 115.471 61.3327 115.76C61.538 116.04 61.6407 116.362 61.6407 116.726C61.6407 117.081 61.538 117.403 61.3327 117.692C61.1273 117.972 60.8333 118.21 60.4507 118.406C60.068 118.602 59.606 118.751 59.0647 118.854C58.5327 118.966 57.9307 119.022 57.2587 119.022C56.5867 119.022 55.98 118.966 55.4387 118.854C54.9067 118.751 54.4493 118.602 54.0667 118.406C53.6933 118.21 53.404 117.972 53.1987 117.692C52.9933 117.403 52.8907 117.081 52.8907 116.726C52.8907 116.362 52.9933 116.04 53.1987 115.76C53.404 115.471 53.6933 115.228 54.0667 115.032C54.4493 114.827 54.9067 114.673 55.4387 114.57C55.98 114.467 56.5867 114.416 57.2587 114.416ZM57.2587 118.126C58.248 118.126 59.032 118.005 59.6107 117.762C60.1987 117.519 60.4927 117.174 60.4927 116.726C60.4927 116.278 60.1987 115.928 59.6107 115.676C59.032 115.424 58.248 115.298 57.2587 115.298C56.2787 115.298 55.4947 115.424 54.9067 115.676C54.328 115.928 54.0387 116.278 54.0387 116.726C54.0387 117.165 54.328 117.51 54.9067 117.762C55.4947 118.005 56.2787 118.126 57.2587 118.126ZM70.1656 112.456C69.5122 112.456 68.9149 112.395 68.3736 112.274C67.8416 112.143 67.3796 111.961 66.9876 111.728C66.6049 111.485 66.3062 111.196 66.0916 110.86C65.8862 110.515 65.7836 110.132 65.7836 109.712C65.7836 109.292 65.8862 108.914 66.0916 108.578C66.3062 108.242 66.6049 107.957 66.9876 107.724C67.3796 107.481 67.8416 107.299 68.3736 107.178C68.9149 107.047 69.5122 106.982 70.1656 106.982C70.8189 106.982 71.4162 107.047 71.9576 107.178C72.4989 107.299 72.9609 107.481 73.3436 107.724C73.7262 107.957 74.0249 108.242 74.2396 108.578C74.4542 108.914 74.5616 109.292 74.5616 109.712C74.5616 110.132 74.4542 110.515 74.2396 110.86C74.0249 111.196 73.7262 111.485 73.3436 111.728C72.9609 111.961 72.4989 112.143 71.9576 112.274C71.4162 112.395 70.8189 112.456 70.1656 112.456ZM70.1656 107.906C69.6896 107.906 69.2556 107.948 68.8636 108.032C68.4716 108.116 68.1309 108.237 67.8416 108.396C67.5616 108.555 67.3422 108.746 67.1836 108.97C67.0342 109.185 66.9596 109.432 66.9596 109.712C66.9596 109.992 67.0342 110.244 67.1836 110.468C67.3422 110.692 67.5616 110.883 67.8416 111.042C68.1309 111.201 68.4716 111.322 68.8636 111.406C69.2556 111.49 69.6896 111.532 70.1656 111.532C70.6416 111.532 71.0756 111.49 71.4676 111.406C71.8689 111.322 72.2096 111.201 72.4896 111.042C72.7789 110.883 72.9982 110.692 73.1476 110.468C73.3062 110.244 73.3856 109.992 73.3856 109.712C73.3856 109.432 73.3062 109.185 73.1476 108.97C72.9982 108.746 72.7789 108.555 72.4896 108.396C72.2096 108.237 71.8689 108.116 71.4676 108.032C71.0756 107.948 70.6416 107.906 70.1656 107.906ZM72.9096 114.57V119.036H71.7476V114.57H68.5976V119.036H67.4356V114.57H64.5096V113.632H75.8776V114.57H72.9096ZM87.2673 112.988V106.716H88.3593V109.362H90.0113V106.492H91.1173V113.086H90.0113V110.3H88.3593V112.988H87.2673ZM86.1053 107.192C86.1053 108.676 85.7087 109.959 84.9153 111.042C84.1313 112.115 82.8947 112.974 81.2053 113.618L80.6873 112.778C81.5647 112.47 82.288 112.101 82.8573 111.672C83.436 111.243 83.898 110.762 84.2433 110.23L80.8133 110.58L80.6313 109.656L84.6633 109.39C84.8127 108.989 84.9107 108.564 84.9573 108.116H81.2193V107.192H86.1053ZM91.5933 118.868H82.8573V115.76H89.9833V114.57H82.8293V113.674H91.1173V116.614H83.9913V117.972H91.5933V118.868ZM102.54 115.732V106.492H103.688V115.732H102.54ZM101.154 113.534C100.65 113.618 100.16 113.688 99.6843 113.744C99.2176 113.8 98.7416 113.842 98.2563 113.87C97.7709 113.898 97.2669 113.921 96.7443 113.94C96.2216 113.949 95.6616 113.954 95.0643 113.954H94.0563V110.132H98.5923V108.298H94.0143V107.374H99.7262V111H95.1763V113.016C95.7549 113.016 96.2916 113.011 96.7863 113.002C97.2903 112.983 97.7756 112.96 98.2423 112.932C98.7089 112.904 99.1709 112.862 99.6283 112.806C100.086 112.75 100.557 112.68 101.042 112.596L101.154 113.534ZM104.038 118.756H95.4983V115.018H96.6463V117.818H104.038V118.756ZM116.623 119.064H115.475V111.98H111.877V111.028H115.475V106.478H116.623V119.064ZM108.055 114.99C108.615 114.99 109.128 114.985 109.595 114.976C110.071 114.967 110.524 114.948 110.953 114.92C111.382 114.883 111.798 114.841 112.199 114.794C112.61 114.738 113.025 114.668 113.445 114.584L113.585 115.536C113.128 115.62 112.684 115.69 112.255 115.746C111.826 115.802 111.387 115.844 110.939 115.872C110.491 115.9 110.015 115.923 109.511 115.942C109.016 115.951 108.47 115.956 107.873 115.956H106.907V107.668H112.619V108.62H108.055V114.99ZM132.633 119.064H131.485V112.204H128.755C128.727 112.82 128.629 113.375 128.461 113.87C128.302 114.365 128.088 114.785 127.817 115.13C127.546 115.475 127.224 115.741 126.851 115.928C126.487 116.115 126.086 116.208 125.647 116.208C125.19 116.208 124.77 116.105 124.387 115.9C124.004 115.695 123.673 115.401 123.393 115.018C123.113 114.635 122.894 114.178 122.735 113.646C122.586 113.105 122.511 112.498 122.511 111.826C122.511 111.154 122.586 110.552 122.735 110.02C122.894 109.479 123.113 109.017 123.393 108.634C123.673 108.251 124.004 107.957 124.387 107.752C124.77 107.547 125.19 107.444 125.647 107.444C126.067 107.444 126.454 107.533 126.809 107.71C127.173 107.887 127.49 108.144 127.761 108.48C128.041 108.807 128.265 109.208 128.433 109.684C128.601 110.151 128.708 110.678 128.755 111.266H131.485V106.478H132.633V119.064ZM125.647 115.186C125.946 115.186 126.216 115.107 126.459 114.948C126.711 114.789 126.926 114.565 127.103 114.276C127.29 113.977 127.43 113.623 127.523 113.212C127.626 112.801 127.677 112.339 127.677 111.826C127.677 111.322 127.626 110.865 127.523 110.454C127.43 110.034 127.29 109.679 127.103 109.39C126.926 109.101 126.711 108.877 126.459 108.718C126.216 108.559 125.946 108.48 125.647 108.48C125.348 108.48 125.073 108.559 124.821 108.718C124.569 108.877 124.35 109.101 124.163 109.39C123.986 109.679 123.846 110.034 123.743 110.454C123.65 110.865 123.603 111.322 123.603 111.826C123.603 112.339 123.65 112.801 123.743 113.212C123.846 113.623 123.986 113.977 124.163 114.276C124.35 114.565 124.569 114.789 124.821 114.948C125.073 115.107 125.348 115.186 125.647 115.186ZM136.216 107.752V106.87H145.428V107.752H143.538V110.146H145.386V111.028H136.258V110.146H138.12V107.752H136.216ZM139.268 107.752V110.146H142.39V107.752H139.268ZM146.52 112.988H135.152V112.078H146.52V112.988ZM145.442 118.028V118.896H136.566V116.026H143.93V114.948H136.524V114.094H145.064V116.852H137.686V118.028H145.442ZM158.321 119.064H157.173V106.478H158.321V119.064ZM151.699 107.444C152.165 107.444 152.595 107.547 152.987 107.752C153.379 107.957 153.715 108.251 153.995 108.634C154.275 109.017 154.494 109.479 154.653 110.02C154.811 110.552 154.891 111.154 154.891 111.826C154.891 112.498 154.811 113.105 154.653 113.646C154.494 114.178 154.275 114.635 153.995 115.018C153.715 115.401 153.379 115.695 152.987 115.9C152.595 116.105 152.165 116.208 151.699 116.208C151.232 116.208 150.803 116.105 150.411 115.9C150.019 115.695 149.683 115.401 149.403 115.018C149.123 114.635 148.903 114.178 148.745 113.646C148.586 113.105 148.507 112.498 148.507 111.826C148.507 111.154 148.586 110.552 148.745 110.02C148.903 109.479 149.123 109.017 149.403 108.634C149.683 108.251 150.019 107.957 150.411 107.752C150.803 107.547 151.232 107.444 151.699 107.444ZM151.699 108.48C151.391 108.48 151.106 108.559 150.845 108.718C150.593 108.877 150.373 109.101 150.187 109.39C150 109.679 149.855 110.034 149.753 110.454C149.65 110.865 149.599 111.322 149.599 111.826C149.599 112.339 149.65 112.801 149.753 113.212C149.855 113.623 150 113.977 150.187 114.276C150.373 114.565 150.593 114.789 150.845 114.948C151.106 115.107 151.391 115.186 151.699 115.186C152.007 115.186 152.287 115.107 152.539 114.948C152.791 114.789 153.01 114.565 153.197 114.276C153.383 113.977 153.528 113.623 153.631 113.212C153.733 112.801 153.785 112.339 153.785 111.826C153.785 111.322 153.733 110.865 153.631 110.454C153.528 110.034 153.383 109.679 153.197 109.39C153.01 109.101 152.791 108.877 152.539 108.718C152.287 108.559 152.007 108.48 151.699 108.48ZM170.859 113.828V106.73H171.951V109.852H173.547V106.492H174.653V114.234H173.547V110.79H171.951V113.828H170.859ZM169.725 113.254C169.137 113.011 168.633 112.68 168.213 112.26C167.793 111.831 167.471 111.35 167.247 110.818C167.023 111.406 166.691 111.952 166.253 112.456C165.823 112.951 165.301 113.333 164.685 113.604L164.069 112.708C164.479 112.531 164.843 112.302 165.16 112.022C165.487 111.742 165.763 111.434 165.987 111.098C166.211 110.753 166.383 110.398 166.505 110.034C166.626 109.661 166.687 109.301 166.687 108.956V107.262H167.793V108.956C167.793 109.301 167.849 109.647 167.961 109.992C168.082 110.328 168.25 110.65 168.465 110.958C168.679 111.257 168.945 111.532 169.263 111.784C169.58 112.027 169.939 112.223 170.341 112.372L169.725 113.254ZM170.508 114.514C171.153 114.514 171.731 114.565 172.245 114.668C172.767 114.771 173.211 114.92 173.575 115.116C173.939 115.303 174.219 115.536 174.415 115.816C174.611 116.096 174.709 116.413 174.709 116.768C174.709 117.123 174.611 117.44 174.415 117.72C174.219 118 173.939 118.233 173.575 118.42C173.211 118.616 172.767 118.765 172.245 118.868C171.731 118.971 171.153 119.022 170.508 119.022C169.865 119.022 169.281 118.971 168.759 118.868C168.245 118.765 167.807 118.616 167.443 118.42C167.088 118.233 166.813 118 166.617 117.72C166.421 117.44 166.323 117.123 166.323 116.768C166.323 116.413 166.421 116.096 166.617 115.816C166.813 115.536 167.088 115.303 167.443 115.116C167.807 114.92 168.245 114.771 168.759 114.668C169.281 114.565 169.865 114.514 170.508 114.514ZM170.508 118.14C171.47 118.14 172.221 118.023 172.763 117.79C173.304 117.557 173.575 117.216 173.575 116.768C173.575 116.32 173.304 115.984 172.763 115.76C172.221 115.527 171.47 115.41 170.508 115.41C169.547 115.41 168.796 115.527 168.255 115.76C167.723 115.984 167.457 116.32 167.457 116.768C167.457 117.216 167.723 117.557 168.255 117.79C168.796 118.023 169.547 118.14 170.508 118.14ZM187.265 119.022H186.117V114.22H182.645V113.282H186.117V110.846H182.827C182.473 112.013 181.866 113.095 181.007 114.094C180.158 115.083 179.001 115.942 177.535 116.67L176.933 115.746C178.595 114.925 179.841 113.926 180.671 112.75C181.511 111.574 181.987 110.244 182.099 108.76H177.479V107.836H183.247C183.247 108.191 183.229 108.545 183.191 108.9C183.163 109.245 183.117 109.586 183.051 109.922H186.117V106.464H187.265V119.022ZM200.158 119.05H199.01V111.672H196.098V110.734H199.01V106.478H200.158V119.05ZM194.208 109.81C194.208 110.379 194.292 110.944 194.46 111.504C194.628 112.055 194.857 112.573 195.146 113.058C195.445 113.543 195.79 113.977 196.182 114.36C196.574 114.733 196.999 115.027 197.456 115.242L196.784 116.152C196.439 115.975 196.103 115.751 195.776 115.48C195.459 115.2 195.165 114.892 194.894 114.556C194.624 114.211 194.381 113.837 194.166 113.436C193.952 113.035 193.774 112.615 193.634 112.176C193.494 112.643 193.317 113.091 193.102 113.52C192.897 113.94 192.659 114.332 192.388 114.696C192.127 115.06 191.838 115.387 191.52 115.676C191.203 115.956 190.867 116.189 190.512 116.376L189.812 115.466C190.27 115.242 190.694 114.929 191.086 114.528C191.478 114.127 191.819 113.674 192.108 113.17C192.407 112.666 192.64 112.125 192.808 111.546C192.976 110.967 193.06 110.389 193.06 109.81V107.556H194.208V109.81ZM216.168 119.064H215.02V111.574H211.17V110.622H215.02V106.478H216.168V119.064ZM207.656 115.06C208.589 115.051 209.49 115.009 210.358 114.934C211.235 114.859 212.141 114.729 213.074 114.542L213.228 115.522C212.229 115.709 211.273 115.839 210.358 115.914C209.443 115.989 208.487 116.026 207.488 116.026H206.508V107.878H207.656V115.06ZM220.143 112.064V107.178H228.627V112.064H220.143ZM221.263 108.102V111.154H227.493V108.102H221.263ZM224.931 114.71V119.022H223.783V114.71H218.687V113.772H230.083V114.71H224.931ZM235.313 110.104C235.863 110.057 236.391 109.969 236.895 109.838C237.399 109.698 237.847 109.53 238.239 109.334C238.631 109.129 238.953 108.895 239.205 108.634C239.457 108.363 239.601 108.074 239.639 107.766H235.761V106.87H245.029V107.766H241.151C241.188 108.074 241.328 108.363 241.571 108.634C241.823 108.895 242.145 109.129 242.537 109.334C242.929 109.539 243.377 109.707 243.881 109.838C244.385 109.969 244.912 110.057 245.463 110.104L245.099 110.972C244.567 110.925 244.053 110.841 243.559 110.72C243.073 110.589 242.621 110.426 242.201 110.23C241.79 110.034 241.426 109.805 241.109 109.544C240.801 109.273 240.563 108.979 240.395 108.662C240.227 108.979 239.984 109.273 239.667 109.544C239.359 109.805 238.995 110.034 238.575 110.23C238.164 110.426 237.711 110.589 237.217 110.72C236.731 110.841 236.223 110.925 235.691 110.972L235.313 110.104ZM246.079 112.61H234.711V111.686H239.807V110.202H240.955V111.686H246.079V112.61ZM245.015 114.29V115.172H235.761V114.29H239.821V113.114H240.969V114.29H245.015ZM240.381 115.788C241.631 115.788 242.574 115.928 243.209 116.208C243.843 116.488 244.161 116.908 244.161 117.468C244.161 118.009 243.843 118.415 243.209 118.686C242.574 118.966 241.631 119.106 240.381 119.106C239.13 119.106 238.187 118.966 237.553 118.686C236.927 118.415 236.615 118.009 236.615 117.468C236.615 116.908 236.927 116.488 237.553 116.208C238.187 115.928 239.13 115.788 240.381 115.788ZM240.381 118.322C241.23 118.322 241.874 118.247 242.313 118.098C242.761 117.958 242.985 117.748 242.985 117.468C242.985 117.169 242.761 116.95 242.313 116.81C241.874 116.67 241.23 116.6 240.381 116.6C239.531 116.6 238.887 116.67 238.449 116.81C238.01 116.95 237.791 117.169 237.791 117.468C237.791 117.748 238.01 117.958 238.449 118.098C238.887 118.247 239.531 118.322 240.381 118.322ZM257.25 112.456V119.036H256.102V106.492H257.25V111.49H259.322V112.456H257.25ZM250.936 107.444C251.402 107.444 251.827 107.547 252.21 107.752C252.592 107.957 252.924 108.251 253.204 108.634C253.484 109.017 253.698 109.479 253.848 110.02C254.006 110.552 254.086 111.154 254.086 111.826C254.086 112.498 254.006 113.105 253.848 113.646C253.698 114.178 253.484 114.635 253.204 115.018C252.924 115.401 252.592 115.695 252.21 115.9C251.827 116.105 251.402 116.208 250.936 116.208C250.469 116.208 250.04 116.105 249.648 115.9C249.265 115.695 248.934 115.401 248.654 115.018C248.374 114.635 248.154 114.178 247.996 113.646C247.846 113.105 247.772 112.498 247.772 111.826C247.772 111.154 247.846 110.552 247.996 110.02C248.154 109.479 248.374 109.017 248.654 108.634C248.934 108.251 249.265 107.957 249.648 107.752C250.04 107.547 250.469 107.444 250.936 107.444ZM250.936 115.186C251.234 115.186 251.51 115.107 251.762 114.948C252.014 114.789 252.228 114.565 252.406 114.276C252.592 113.977 252.737 113.623 252.84 113.212C252.942 112.801 252.994 112.339 252.994 111.826C252.994 111.322 252.942 110.865 252.84 110.454C252.737 110.034 252.592 109.679 252.406 109.39C252.228 109.101 252.014 108.877 251.762 108.718C251.51 108.559 251.234 108.48 250.936 108.48C250.628 108.48 250.348 108.559 250.096 108.718C249.844 108.877 249.624 109.101 249.438 109.39C249.26 109.679 249.12 110.034 249.018 110.454C248.915 110.865 248.864 111.322 248.864 111.826C248.864 112.339 248.915 112.801 249.018 113.212C249.12 113.623 249.26 113.977 249.438 114.276C249.624 114.565 249.844 114.789 250.096 114.948C250.348 115.107 250.628 115.186 250.936 115.186ZM271.865 117.426H260.455V116.474H263.255V113.086C262.723 112.815 262.307 112.461 262.009 112.022C261.719 111.574 261.575 111.065 261.575 110.496C261.575 110.011 261.687 109.572 261.911 109.18C262.135 108.779 262.447 108.438 262.849 108.158C263.259 107.878 263.745 107.663 264.305 107.514C264.865 107.355 265.476 107.276 266.139 107.276C266.811 107.276 267.422 107.355 267.973 107.514C268.533 107.663 269.013 107.878 269.415 108.158C269.825 108.438 270.143 108.779 270.367 109.18C270.591 109.572 270.703 110.011 270.703 110.496C270.703 111.065 270.558 111.569 270.269 112.008C269.989 112.447 269.583 112.801 269.051 113.072V116.474H271.865V117.426ZM266.139 108.172C265.635 108.172 265.168 108.228 264.739 108.34C264.319 108.452 263.955 108.611 263.647 108.816C263.348 109.012 263.11 109.255 262.933 109.544C262.765 109.824 262.681 110.141 262.681 110.496C262.681 110.841 262.765 111.159 262.933 111.448C263.11 111.737 263.348 111.985 263.647 112.19C263.955 112.386 264.319 112.54 264.739 112.652C265.168 112.764 265.635 112.82 266.139 112.82C266.643 112.82 267.105 112.764 267.525 112.652C267.954 112.54 268.323 112.386 268.631 112.19C268.939 111.985 269.177 111.737 269.345 111.448C269.522 111.159 269.611 110.841 269.611 110.496C269.611 110.141 269.522 109.824 269.345 109.544C269.177 109.255 268.939 109.012 268.631 108.816C268.323 108.611 267.954 108.452 267.525 108.34C267.105 108.228 266.643 108.172 266.139 108.172ZM267.903 116.474V113.52C267.277 113.651 266.689 113.716 266.139 113.716C265.831 113.716 265.532 113.702 265.243 113.674C264.953 113.637 264.673 113.585 264.403 113.52V116.474H267.903ZM275.307 107.514L275.097 115.494H274.215L274.005 107.514H275.307ZM274.019 118.182V116.866H275.293V118.182H274.019Z" fill="white"/>
</svg>
