<svg width="320" height="190" viewBox="0 0 320 190" fill="none" xmlns="http://www.w3.org/2000/svg">
<rect width="320" height="190" rx="16" fill="#36312B"/>
<path d="M34.15 40.886V28.988H36.544V40.886H34.15ZM32.026 34.244C32.026 34.844 31.912 35.402 31.684 35.918C31.456 36.434 31.138 36.878 30.73 37.25C30.322 37.622 29.842 37.916 29.29 38.132C28.75 38.336 28.162 38.438 27.526 38.438C26.89 38.438 26.296 38.336 25.744 38.132C25.192 37.916 24.712 37.622 24.304 37.25C23.908 36.878 23.59 36.434 23.35 35.918C23.122 35.402 23.008 34.844 23.008 34.244C23.008 33.632 23.122 33.068 23.35 32.552C23.59 32.036 23.908 31.592 24.304 31.22C24.712 30.848 25.192 30.56 25.744 30.356C26.296 30.14 26.89 30.032 27.526 30.032C28.162 30.032 28.75 30.14 29.29 30.356C29.842 30.56 30.322 30.848 30.73 31.22C31.138 31.592 31.456 32.036 31.684 32.552C31.912 33.068 32.026 33.632 32.026 34.244ZM25.33 34.244C25.33 34.928 25.54 35.456 25.96 35.828C26.392 36.2 26.914 36.386 27.526 36.386C28.15 36.386 28.666 36.2 29.074 35.828C29.494 35.456 29.704 34.928 29.704 34.244C29.704 33.56 29.494 33.032 29.074 32.66C28.666 32.276 28.15 32.084 27.526 32.084C26.914 32.084 26.392 32.276 25.96 32.66C25.54 33.032 25.33 33.56 25.33 34.244ZM36.958 45.26H25.51V39.716H27.886V43.37H36.958V45.26ZM52.8146 38.762C51.3626 38.474 50.1206 37.952 49.0886 37.196C48.0686 36.44 47.2886 35.534 46.7486 34.478C46.2086 35.534 45.4286 36.446 44.4086 37.214C43.3886 37.97 42.1526 38.486 40.7006 38.762L39.6926 36.782C40.6286 36.626 41.4566 36.356 42.1766 35.972C42.8966 35.576 43.5026 35.12 43.9946 34.604C44.4866 34.088 44.8586 33.53 45.1106 32.93C45.3626 32.318 45.4886 31.718 45.4886 31.13V29.942H48.0266V31.13C48.0266 31.73 48.1526 32.336 48.4046 32.948C48.6566 33.548 49.0286 34.106 49.5206 34.622C50.0126 35.138 50.6186 35.588 51.3386 35.972C52.0586 36.356 52.8866 36.626 53.8226 36.782L52.8146 38.762ZM54.3446 43.532H39.3326V41.606H54.3446V43.532ZM68.8692 37.214V45.566H66.4932V28.97H68.8692V35.252H71.2812V37.214H68.8692ZM58.9152 39.896C60.0792 39.896 61.1652 39.866 62.1732 39.806C63.1932 39.746 64.2432 39.632 65.3232 39.464L65.5392 41.354C64.9032 41.45 64.2852 41.528 63.6852 41.588C63.0852 41.648 62.4792 41.696 61.8672 41.732C61.2552 41.756 60.6252 41.774 59.9772 41.786C59.3412 41.798 58.6632 41.804 57.9432 41.804H56.5392V30.338H64.3332V32.264H58.9152V34.964H64.0992V36.818H58.9152V39.896ZM91.7559 35H89.7579V39.086H87.3819V28.97H89.7579V33.038H91.7559V35ZM83.0799 35.126C83.2119 34.442 83.2959 33.824 83.3319 33.272C83.3799 32.72 83.4099 32.216 83.4219 31.76H77.2659V29.87H85.7619V30.95C85.7619 31.502 85.7439 32.144 85.7079 32.876C85.6839 33.596 85.5759 34.406 85.3839 35.306L83.0799 35.126ZM86.6259 37.754C85.7739 37.898 84.9039 38.012 84.0159 38.096C83.1399 38.18 82.2699 38.246 81.4059 38.294C80.5419 38.33 79.6959 38.354 78.8679 38.366C78.0519 38.378 77.2719 38.384 76.5279 38.384L76.2939 36.494H77.7519C78.2559 36.494 78.7779 36.488 79.3179 36.476V33.578H81.6399V36.422C82.4679 36.386 83.2839 36.344 84.0879 36.296C84.8919 36.236 85.6899 36.158 86.4819 36.062L86.6259 37.754ZM84.1779 39.266C85.0539 39.266 85.8459 39.338 86.5539 39.482C87.2619 39.626 87.8619 39.836 88.3539 40.112C88.8459 40.376 89.2239 40.7 89.4879 41.084C89.7639 41.468 89.9019 41.906 89.9019 42.398C89.9019 42.878 89.7639 43.316 89.4879 43.712C89.2239 44.096 88.8459 44.42 88.3539 44.684C87.8619 44.96 87.2619 45.17 86.5539 45.314C85.8459 45.458 85.0539 45.53 84.1779 45.53C83.3019 45.53 82.5039 45.458 81.7839 45.314C81.0759 45.17 80.4699 44.96 79.9659 44.684C79.4739 44.42 79.0899 44.096 78.8139 43.712C78.5499 43.316 78.4179 42.878 78.4179 42.398C78.4179 41.906 78.5499 41.468 78.8139 41.084C79.0899 40.7 79.4739 40.376 79.9659 40.112C80.4699 39.836 81.0759 39.626 81.7839 39.482C82.5039 39.338 83.3019 39.266 84.1779 39.266ZM84.1779 43.676C86.3739 43.676 87.4719 43.25 87.4719 42.398C87.4719 41.534 86.3739 41.102 84.1779 41.102C83.0859 41.102 82.2579 41.21 81.6939 41.426C81.1299 41.63 80.8479 41.954 80.8479 42.398C80.8479 42.842 81.1299 43.166 81.6939 43.37C82.2579 43.574 83.0859 43.676 84.1779 43.676ZM103.617 39.644C103.929 38.084 104.115 36.71 104.175 35.522C104.247 34.322 104.283 33.242 104.283 32.282H94.6165V30.392H106.659V31.976C106.659 32.492 106.653 33.032 106.641 33.596C106.641 34.16 106.617 34.766 106.569 35.414C106.533 36.05 106.467 36.74 106.371 37.484C106.287 38.228 106.161 39.038 105.993 39.914L103.617 39.644ZM108.099 43.55H93.1045V41.642H98.3965V35.936H100.773V41.642H108.099V43.55ZM125.099 38.294V28.97H127.493V38.294H125.099ZM114.551 37.412V29.96H122.597V37.412H114.551ZM116.891 31.832V35.54H120.275V31.832H116.891ZM127.853 45.35H116.513V39.104H127.565V40.994H118.871V43.478H127.853V45.35ZM140.812 39.644C141.124 38.084 141.31 36.71 141.37 35.522C141.442 34.322 141.478 33.242 141.478 32.282H131.812V30.392H143.854V31.976C143.854 32.492 143.848 33.032 143.836 33.596C143.836 34.16 143.812 34.766 143.764 35.414C143.728 36.05 143.662 36.74 143.566 37.484C143.482 38.228 143.356 39.038 143.188 39.914L140.812 39.644ZM145.294 43.55H130.3V41.642H135.592V35.936H137.968V41.642H145.294V43.55ZM166.165 34.136H163.969V37.34H161.593V28.952H163.969V32.174H166.165V34.136ZM155.347 36.206C155.791 35.882 156.175 35.558 156.499 35.234C156.823 34.91 157.099 34.568 157.327 34.208C157.555 33.836 157.735 33.446 157.867 33.038C157.999 32.618 158.095 32.156 158.155 31.652H156.355V29.762H160.423C160.423 30.626 160.363 31.424 160.243 32.156C160.135 32.888 159.949 33.572 159.685 34.208C159.421 34.844 159.067 35.438 158.623 35.99C158.191 36.542 157.645 37.076 156.985 37.592L155.347 36.206ZM155.743 29.762C155.743 30.614 155.683 31.394 155.563 32.102C155.443 32.798 155.245 33.446 154.969 34.046C154.693 34.634 154.327 35.186 153.871 35.702C153.427 36.206 152.869 36.698 152.197 37.178L150.685 35.72C151.105 35.432 151.471 35.144 151.783 34.856C152.107 34.568 152.383 34.268 152.611 33.956C152.839 33.632 153.019 33.284 153.151 32.912C153.295 32.54 153.403 32.12 153.475 31.652H151.315V29.762H155.743ZM164.527 43.514V45.368H152.935V40.796H161.629V39.824H152.917V38.024H163.969V42.488H155.293V43.514H164.527ZM180.455 37.178V45.548H178.079V28.97H180.455V35.216H182.867V37.178H180.455ZM171.923 30.122C172.547 30.122 173.123 30.26 173.651 30.536C174.191 30.812 174.653 31.208 175.037 31.724C175.421 32.228 175.721 32.846 175.937 33.578C176.165 34.298 176.279 35.114 176.279 36.026C176.279 36.938 176.165 37.76 175.937 38.492C175.721 39.224 175.421 39.848 175.037 40.364C174.653 40.88 174.191 41.276 173.651 41.552C173.123 41.828 172.547 41.966 171.923 41.966C171.299 41.966 170.717 41.828 170.177 41.552C169.649 41.276 169.187 40.88 168.791 40.364C168.407 39.848 168.107 39.224 167.891 38.492C167.675 37.76 167.567 36.938 167.567 36.026C167.567 35.114 167.675 34.298 167.891 33.578C168.107 32.846 168.407 32.228 168.791 31.724C169.187 31.208 169.649 30.812 170.177 30.536C170.717 30.26 171.299 30.122 171.923 30.122ZM171.923 39.806C172.535 39.806 173.033 39.488 173.417 38.852C173.801 38.204 173.993 37.262 173.993 36.026C173.993 34.79 173.801 33.854 173.417 33.218C173.033 32.582 172.535 32.264 171.923 32.264C171.299 32.264 170.795 32.582 170.411 33.218C170.039 33.854 169.853 34.79 169.853 36.026C169.853 37.262 170.039 38.204 170.411 38.852C170.795 39.488 171.299 39.806 171.923 39.806ZM199.03 39.608H184.036V37.718H190.318V36.332H185.944V29.564H188.302V31.184H194.764V29.564H197.122V36.332H192.694V37.718H199.03V39.608ZM194.764 34.46V33.02H188.302V34.46H194.764ZM197.356 43.37V45.26H185.854V40.58H188.23V43.37H197.356ZM212.646 32.84C212.142 34.076 211.32 35.09 210.18 35.882C209.052 36.674 207.546 37.268 205.662 37.664L204.87 35.756C205.806 35.576 206.616 35.342 207.3 35.054C207.996 34.766 208.578 34.442 209.046 34.082C209.514 33.71 209.874 33.308 210.126 32.876C210.378 32.432 210.54 31.97 210.612 31.49H205.824V29.6H213.222C213.222 30.104 213.186 30.59 213.114 31.058H216.156V28.97H218.532V37.286H216.156V36.044H212.484V34.262H216.156V32.84H212.646ZM218.874 45.386H207.624V40.706H216.156V39.77H207.606V37.898H218.532V42.47H210V43.514H218.874V45.386ZM234.263 37.61V45.53H231.887V28.952H234.263V35.63H236.495V37.61H234.263ZM227.693 38.114C227.885 36.914 228.005 35.87 228.053 34.982C228.101 34.082 228.125 33.254 228.125 32.498H221.933V30.608H230.465V31.958C230.465 32.762 230.447 33.68 230.411 34.712C230.375 35.744 230.243 36.944 230.015 38.312L227.693 38.114ZM226.397 40.184C227.201 40.16 227.999 40.124 228.791 40.076C229.595 40.016 230.375 39.938 231.131 39.842L231.257 41.552C230.417 41.696 229.559 41.816 228.683 41.912C227.819 41.996 226.961 42.062 226.109 42.11C225.257 42.146 224.423 42.176 223.607 42.2C222.791 42.212 222.023 42.218 221.303 42.218L221.087 40.274H222.509C223.001 40.274 223.517 40.268 224.057 40.256V35.36H226.397V40.184ZM238.186 44.252V41.696H240.814V44.252H238.186ZM243.143 44.252V41.696H245.771V44.252H243.143ZM248.1 44.252V41.696H250.728V44.252H248.1Z" fill="white"/>
<path d="M40.3039 75.9718L36.7882 79.0054L37.8593 83.5421C37.9184 83.7884 37.9032 84.0466 37.8156 84.2843C37.728 84.5219 37.5719 84.7282 37.3671 84.8772C37.1623 85.0262 36.9179 85.1111 36.6648 85.1213C36.4118 85.1314 36.1614 85.0663 35.9453 84.9343L32 82.5061L28.0523 84.9343C27.8362 85.0656 27.5861 85.13 27.3335 85.1195C27.0809 85.109 26.837 85.0239 26.6326 84.8751C26.4282 84.7262 26.2724 84.5202 26.1849 84.283C26.0973 84.0458 26.0819 83.788 26.1406 83.5421L27.2156 79.0054L23.7 75.9718C23.5088 75.8065 23.3705 75.5887 23.3024 75.3453C23.2344 75.102 23.2395 74.844 23.3172 74.6035C23.3948 74.3631 23.5416 74.1509 23.7392 73.9933C23.9368 73.8358 24.1764 73.74 24.4281 73.7179L29.0375 73.346L30.8156 69.0429C30.9118 68.8083 31.0756 68.6077 31.2862 68.4666C31.4967 68.3254 31.7445 68.25 31.998 68.25C32.2515 68.25 32.4993 68.3254 32.7098 68.4666C32.9204 68.6077 33.0842 68.8083 33.1804 69.0429L34.9578 73.346L39.5671 73.7179C39.8193 73.7392 40.0596 73.8345 40.2579 73.9918C40.4562 74.1491 40.6037 74.3614 40.6819 74.6021C40.76 74.8429 40.7654 75.1013 40.6973 75.3451C40.6292 75.5889 40.4907 75.8071 40.2992 75.9725L40.3039 75.9718Z" fill="#FE8207"/>
<path d="M60.3039 75.9718L56.7882 79.0054L57.8593 83.5421C57.9184 83.7884 57.9032 84.0466 57.8156 84.2843C57.728 84.5219 57.5719 84.7282 57.3671 84.8772C57.1623 85.0262 56.9179 85.1111 56.6648 85.1213C56.4118 85.1314 56.1614 85.0663 55.9453 84.9343L52 82.5061L48.0523 84.9343C47.8362 85.0656 47.5861 85.13 47.3335 85.1195C47.0809 85.109 46.837 85.0239 46.6326 84.8751C46.4282 84.7262 46.2724 84.5202 46.1849 84.283C46.0973 84.0458 46.0819 83.788 46.1406 83.5421L47.2156 79.0054L43.7 75.9718C43.5088 75.8065 43.3705 75.5887 43.3024 75.3453C43.2344 75.102 43.2395 74.844 43.3172 74.6035C43.3948 74.3631 43.5416 74.1509 43.7392 73.9933C43.9368 73.8358 44.1764 73.74 44.4281 73.7179L49.0375 73.346L50.8156 69.0429C50.9118 68.8083 51.0756 68.6077 51.2862 68.4666C51.4967 68.3254 51.7445 68.25 51.998 68.25C52.2515 68.25 52.4993 68.3254 52.7098 68.4666C52.9204 68.6077 53.0842 68.8083 53.1804 69.0429L54.9578 73.346L59.5671 73.7179C59.8193 73.7392 60.0596 73.8345 60.2579 73.9918C60.4562 74.1491 60.6037 74.3614 60.6819 74.6021C60.76 74.8429 60.7654 75.1013 60.6973 75.3451C60.6292 75.5889 60.4907 75.8071 60.2992 75.9725L60.3039 75.9718Z" fill="#FE8207"/>
<path d="M80.3039 75.9718L76.7882 79.0054L77.8593 83.5421C77.9184 83.7884 77.9032 84.0466 77.8156 84.2843C77.728 84.5219 77.5719 84.7282 77.3671 84.8772C77.1623 85.0262 76.9179 85.1111 76.6648 85.1213C76.4118 85.1314 76.1614 85.0663 75.9453 84.9343L72 82.5061L68.0523 84.9343C67.8362 85.0656 67.5861 85.13 67.3335 85.1195C67.0809 85.109 66.837 85.0239 66.6326 84.8751C66.4282 84.7262 66.2724 84.5202 66.1849 84.283C66.0973 84.0458 66.0819 83.788 66.1406 83.5421L67.2156 79.0054L63.7 75.9718C63.5088 75.8065 63.3705 75.5887 63.3024 75.3453C63.2344 75.102 63.2395 74.844 63.3172 74.6035C63.3948 74.3631 63.5416 74.1509 63.7392 73.9933C63.9368 73.8358 64.1764 73.74 64.4281 73.7179L69.0375 73.346L70.8156 69.0429C70.9118 68.8083 71.0756 68.6077 71.2862 68.4666C71.4967 68.3254 71.7445 68.25 71.998 68.25C72.2515 68.25 72.4993 68.3254 72.7098 68.4666C72.9204 68.6077 73.0842 68.8083 73.1804 69.0429L74.9578 73.346L79.5671 73.7179C79.8193 73.7392 80.0596 73.8345 80.2579 73.9918C80.4562 74.1491 80.6037 74.3614 80.6819 74.6021C80.76 74.8429 80.7654 75.1013 80.6973 75.3451C80.6292 75.5889 80.4907 75.8071 80.2992 75.9725L80.3039 75.9718Z" fill="#FE8207"/>
<path d="M100.304 75.9718L96.7882 79.0054L97.8593 83.5421C97.9184 83.7884 97.9032 84.0466 97.8156 84.2843C97.728 84.5219 97.5719 84.7282 97.3671 84.8772C97.1623 85.0262 96.9179 85.1111 96.6648 85.1213C96.4118 85.1314 96.1614 85.0663 95.9453 84.9343L92 82.5061L88.0523 84.9343C87.8362 85.0656 87.5861 85.13 87.3335 85.1195C87.0809 85.109 86.837 85.0239 86.6326 84.8751C86.4282 84.7262 86.2724 84.5202 86.1849 84.283C86.0973 84.0458 86.0819 83.788 86.1406 83.5421L87.2156 79.0054L83.7 75.9718C83.5088 75.8065 83.3705 75.5887 83.3024 75.3453C83.2344 75.102 83.2395 74.844 83.3172 74.6035C83.3948 74.3631 83.5416 74.1509 83.7392 73.9933C83.9368 73.8358 84.1764 73.74 84.4281 73.7179L89.0375 73.346L90.8156 69.0429C90.9118 68.8083 91.0756 68.6077 91.2862 68.4666C91.4967 68.3254 91.7445 68.25 91.998 68.25C92.2515 68.25 92.4993 68.3254 92.7098 68.4666C92.9204 68.6077 93.0842 68.8083 93.1804 69.0429L94.9578 73.346L99.5671 73.7179C99.8193 73.7392 100.06 73.8345 100.258 73.9918C100.456 74.1491 100.604 74.3614 100.682 74.6021C100.76 74.8429 100.765 75.1013 100.697 75.3451C100.629 75.5889 100.491 75.8071 100.299 75.9725L100.304 75.9718Z" fill="#FE8207"/>
<path d="M120.304 75.9718L116.788 79.0054L117.859 83.5421C117.918 83.7884 117.903 84.0466 117.816 84.2843C117.728 84.5219 117.572 84.7282 117.367 84.8772C117.162 85.0262 116.918 85.1111 116.665 85.1213C116.412 85.1314 116.161 85.0663 115.945 84.9343L112 82.5061L108.052 84.9343C107.836 85.0656 107.586 85.13 107.333 85.1195C107.081 85.109 106.837 85.0239 106.633 84.8751C106.428 84.7262 106.272 84.5202 106.185 84.283C106.097 84.0458 106.082 83.788 106.141 83.5421L107.216 79.0054L103.7 75.9718C103.509 75.8065 103.371 75.5887 103.302 75.3453C103.234 75.102 103.239 74.844 103.317 74.6035C103.395 74.3631 103.542 74.1509 103.739 73.9933C103.937 73.8358 104.176 73.74 104.428 73.7179L109.037 73.346L110.816 69.0429C110.912 68.8083 111.076 68.6077 111.286 68.4666C111.497 68.3254 111.744 68.25 111.998 68.25C112.251 68.25 112.499 68.3254 112.71 68.4666C112.92 68.6077 113.084 68.8083 113.18 69.0429L114.958 73.346L119.567 73.7179C119.819 73.7392 120.06 73.8345 120.258 73.9918C120.456 74.1491 120.604 74.3614 120.682 74.6021C120.76 74.8429 120.765 75.1013 120.697 75.3451C120.629 75.5889 120.491 75.8071 120.299 75.9725L120.304 75.9718Z" fill="#FE8207"/>
<path d="M31.898 115.662V106.492H33.046V115.662H31.898ZM29.588 110.44C29.588 110.897 29.504 111.317 29.336 111.7C29.168 112.073 28.9347 112.4 28.636 112.68C28.3467 112.951 28.0013 113.165 27.6 113.324C27.1987 113.473 26.7647 113.548 26.298 113.548C25.8313 113.548 25.3973 113.473 24.996 113.324C24.604 113.165 24.2587 112.951 23.96 112.68C23.6707 112.4 23.442 112.073 23.274 111.7C23.1153 111.317 23.036 110.897 23.036 110.44C23.036 109.992 23.1153 109.581 23.274 109.208C23.442 108.825 23.6707 108.499 23.96 108.228C24.2587 107.948 24.604 107.733 24.996 107.584C25.3973 107.435 25.8313 107.36 26.298 107.36C26.7647 107.36 27.1987 107.435 27.6 107.584C28.0013 107.733 28.3467 107.948 28.636 108.228C28.9347 108.499 29.168 108.825 29.336 109.208C29.504 109.581 29.588 109.992 29.588 110.44ZM24.156 110.44C24.156 110.748 24.2073 111.033 24.31 111.294C24.422 111.555 24.5713 111.779 24.758 111.966C24.954 112.153 25.1827 112.297 25.444 112.4C25.7053 112.503 25.99 112.554 26.298 112.554C26.606 112.554 26.8907 112.503 27.152 112.4C27.4227 112.297 27.656 112.153 27.852 111.966C28.048 111.779 28.1973 111.555 28.3 111.294C28.412 111.033 28.468 110.748 28.468 110.44C28.468 110.132 28.412 109.852 28.3 109.6C28.1973 109.348 28.048 109.129 27.852 108.942C27.656 108.755 27.4227 108.611 27.152 108.508C26.8907 108.405 26.606 108.354 26.298 108.354C25.99 108.354 25.7053 108.405 25.444 108.508C25.1827 108.611 24.954 108.755 24.758 108.942C24.5713 109.129 24.422 109.348 24.31 109.6C24.2073 109.852 24.156 110.132 24.156 110.44ZM33.424 118.756H24.968V114.724H26.116V117.818H33.424V118.756ZM45.9249 113.744C45.4489 113.632 44.9729 113.469 44.4969 113.254C44.0302 113.03 43.5869 112.764 43.1669 112.456C42.7562 112.148 42.3829 111.798 42.0469 111.406C41.7202 111.005 41.4589 110.575 41.2629 110.118C41.0669 110.575 40.8009 111 40.4649 111.392C40.1382 111.784 39.7649 112.139 39.3449 112.456C38.9342 112.764 38.4909 113.03 38.0149 113.254C37.5482 113.469 37.0816 113.632 36.6149 113.744L36.0969 112.792C36.6476 112.68 37.1936 112.489 37.7349 112.218C38.2762 111.938 38.7616 111.602 39.1909 111.21C39.6296 110.809 39.9842 110.365 40.2549 109.88C40.5256 109.385 40.6609 108.867 40.6609 108.326V107.36H41.8649V108.326C41.8649 108.858 42.0002 109.371 42.2709 109.866C42.5416 110.361 42.8916 110.809 43.3209 111.21C43.7596 111.602 44.2496 111.938 44.7909 112.218C45.3416 112.498 45.8922 112.689 46.4429 112.792L45.9249 113.744ZM47.0029 117.356H35.6209V116.404H47.0029V117.356ZM58.1598 112.484V119.022H57.0118V106.478H58.1598V111.518H60.2318V112.484H58.1598ZM50.1938 115.074C50.7538 115.074 51.2718 115.069 51.7478 115.06C52.2331 115.041 52.6998 115.018 53.1478 114.99C53.5958 114.953 54.0391 114.911 54.4778 114.864C54.9165 114.808 55.3691 114.743 55.8358 114.668L55.9478 115.592C55.4625 115.676 54.9911 115.746 54.5338 115.802C54.0858 115.858 53.6238 115.9 53.1478 115.928C52.6811 115.956 52.1911 115.979 51.6778 115.998C51.1645 116.007 50.6138 116.012 50.0258 116.012H49.0458V107.612H54.8978V108.55H50.1938V111.14H54.6178V112.064H50.1938V115.074ZM72.0467 119.036H70.9547V106.478H72.0467V119.036ZM69.5547 106.758V118.42H68.4627V112.302H66.8807C66.8527 112.918 66.7687 113.473 66.6287 113.968C66.4981 114.453 66.3161 114.869 66.0827 115.214C65.8587 115.559 65.5881 115.825 65.2707 116.012C64.9534 116.189 64.6034 116.278 64.2207 116.278C63.8101 116.278 63.4367 116.175 63.1007 115.97C62.7741 115.765 62.4941 115.475 62.2607 115.102C62.0274 114.719 61.8454 114.257 61.7147 113.716C61.5934 113.175 61.5327 112.563 61.5327 111.882C61.5327 111.21 61.5934 110.608 61.7147 110.076C61.8454 109.535 62.0274 109.077 62.2607 108.704C62.4941 108.321 62.7741 108.032 63.1007 107.836C63.4367 107.631 63.8101 107.528 64.2207 107.528C64.6034 107.528 64.9487 107.617 65.2567 107.794C65.5647 107.971 65.8307 108.228 66.0547 108.564C66.2881 108.891 66.4747 109.292 66.6147 109.768C66.7547 110.244 66.8434 110.776 66.8807 111.364H68.4627V106.758H69.5547ZM64.2207 115.214C64.7247 115.214 65.1214 114.92 65.4107 114.332C65.7001 113.744 65.8447 112.927 65.8447 111.882C65.8447 111.378 65.8027 110.925 65.7187 110.524C65.6441 110.113 65.5367 109.768 65.3967 109.488C65.2567 109.199 65.0841 108.979 64.8787 108.83C64.6827 108.671 64.4634 108.592 64.2207 108.592C63.7167 108.592 63.3154 108.891 63.0167 109.488C62.7274 110.076 62.5827 110.874 62.5827 111.882C62.5827 112.927 62.7274 113.744 63.0167 114.332C63.3154 114.92 63.7167 115.214 64.2207 115.214ZM84.6036 119.05H83.4556V111.672H80.5436V110.734H83.4556V106.478H84.6036V119.05ZM78.6536 109.81C78.6536 110.379 78.7376 110.944 78.9056 111.504C79.0736 112.055 79.3023 112.573 79.5916 113.058C79.8903 113.543 80.2356 113.977 80.6276 114.36C81.0196 114.733 81.4443 115.027 81.9016 115.242L81.2296 116.152C80.8843 115.975 80.5483 115.751 80.2216 115.48C79.9043 115.2 79.6103 114.892 79.3396 114.556C79.069 114.211 78.8263 113.837 78.6116 113.436C78.397 113.035 78.2196 112.615 78.0796 112.176C77.9396 112.643 77.7623 113.091 77.5476 113.52C77.3423 113.94 77.1043 114.332 76.8336 114.696C76.5723 115.06 76.283 115.387 75.9656 115.676C75.6483 115.956 75.3123 116.189 74.9576 116.376L74.2576 115.466C74.715 115.242 75.1396 114.929 75.5316 114.528C75.9236 114.127 76.2643 113.674 76.5536 113.17C76.8523 112.666 77.0856 112.125 77.2536 111.546C77.4216 110.967 77.5056 110.389 77.5056 109.81V107.556H78.6536V109.81ZM101.831 110.86H100.039V114.304H98.8914V106.464H100.039V109.908H101.831V110.86ZM95.7274 111.252C95.8767 110.58 95.9654 110.001 95.9934 109.516C96.0307 109.021 96.0494 108.578 96.0494 108.186H90.9534V107.262H97.1694V107.934C97.1694 108.335 97.1554 108.816 97.1274 109.376C97.0994 109.936 97.0061 110.594 96.8474 111.35L95.7274 111.252ZM98.1354 112.974C97.4821 113.077 96.8101 113.161 96.1194 113.226C95.4381 113.282 94.7614 113.329 94.0894 113.366C93.4174 113.403 92.7594 113.427 92.1154 113.436C91.4714 113.445 90.8694 113.45 90.3094 113.45L90.1834 112.498H91.4574C91.6814 112.498 91.9054 112.498 92.1294 112.498C92.3627 112.489 92.6007 112.479 92.8434 112.47V109.992H93.9774V112.442C94.6774 112.414 95.3681 112.377 96.0494 112.33C96.7401 112.283 97.4074 112.218 98.0514 112.134L98.1354 112.974ZM95.9934 114.472C96.6374 114.472 97.2161 114.523 97.7294 114.626C98.2427 114.729 98.6814 114.878 99.0454 115.074C99.4094 115.261 99.6847 115.494 99.8714 115.774C100.067 116.054 100.165 116.371 100.165 116.726C100.165 117.09 100.067 117.417 99.8714 117.706C99.6847 117.986 99.4094 118.219 99.0454 118.406C98.6814 118.602 98.2427 118.751 97.7294 118.854C97.2161 118.957 96.6374 119.008 95.9934 119.008C95.3494 119.008 94.7707 118.957 94.2574 118.854C93.7441 118.751 93.3054 118.602 92.9414 118.406C92.5774 118.219 92.2974 117.986 92.1014 117.706C91.9147 117.417 91.8214 117.09 91.8214 116.726C91.8214 116.371 91.9147 116.054 92.1014 115.774C92.2974 115.494 92.5774 115.261 92.9414 115.074C93.3054 114.878 93.7441 114.729 94.2574 114.626C94.7707 114.523 95.3494 114.472 95.9934 114.472ZM95.9934 118.098C96.9267 118.098 97.6594 117.981 98.1914 117.748C98.7327 117.515 99.0034 117.174 99.0034 116.726C99.0034 116.297 98.7327 115.965 98.1914 115.732C97.6594 115.489 96.9267 115.368 95.9934 115.368C95.0601 115.368 94.3227 115.489 93.7814 115.732C93.2494 115.965 92.9834 116.297 92.9834 116.726C92.9834 117.174 93.2494 117.515 93.7814 117.748C94.3227 117.981 95.0601 118.098 95.9934 118.098ZM104.35 108.676V107.738H113.156V108.984C113.156 109.376 113.152 109.782 113.142 110.202C113.142 110.613 113.128 111.056 113.1 111.532C113.072 111.999 113.026 112.503 112.96 113.044C112.895 113.576 112.802 114.159 112.68 114.794L111.532 114.668C111.775 113.473 111.915 112.414 111.952 111.49C111.99 110.566 112.008 109.731 112.008 108.984V108.676H104.35ZM114.514 117.272H103.16V116.334H107.57V111.84H108.718V116.334H114.514V117.272ZM130.538 117.426H119.156V116.488H124.252V113.786H120.5V107.374H121.634V109.614H128.046V107.374H129.166V113.786H125.414V116.488H130.538V117.426ZM128.046 112.862V110.552H121.634V112.862H128.046ZM133.239 108.676V107.738H142.045V108.984C142.045 109.376 142.04 109.782 142.031 110.202C142.031 110.613 142.017 111.056 141.989 111.532C141.961 111.999 141.914 112.503 141.849 113.044C141.784 113.576 141.69 114.159 141.569 114.794L140.421 114.668C140.664 113.473 140.804 112.414 140.841 111.49C140.878 110.566 140.897 109.731 140.897 108.984V108.676H133.239ZM143.403 117.272H132.049V116.334H136.459V111.84H137.607V116.334H143.403V117.272ZM159.651 111.252H157.789V115.704H156.641V106.492H157.789V110.286H159.651V111.252ZM148.563 113.604V107.388H149.697V109.488H153.253V107.388H154.373V113.604H148.563ZM149.697 110.384V112.68H153.253V110.384H149.697ZM158.349 117.818V118.756H149.977V114.822H151.125V117.818H158.349ZM170.08 115.69V106.478H171.228V115.69H170.08ZM167.882 113.646C167.154 113.375 166.524 112.974 165.992 112.442C165.469 111.901 165.068 111.266 164.788 110.538C164.517 111.303 164.111 111.98 163.57 112.568C163.028 113.147 162.389 113.59 161.652 113.898L161.05 112.96C161.526 112.783 161.955 112.54 162.338 112.232C162.73 111.924 163.061 111.574 163.332 111.182C163.612 110.781 163.826 110.347 163.976 109.88C164.125 109.413 164.2 108.937 164.2 108.452V107.178H165.348V108.452C165.348 108.928 165.422 109.385 165.572 109.824C165.73 110.263 165.945 110.673 166.216 111.056C166.496 111.429 166.827 111.761 167.21 112.05C167.602 112.339 168.026 112.568 168.484 112.736L167.882 113.646ZM171.606 118.756H163.15V114.836H164.298V117.818H171.606V118.756ZM185.409 111.252H183.547V115.704H182.399V106.492H183.547V110.286H185.409V111.252ZM174.321 113.604V107.388H175.455V109.488H179.011V107.388H180.131V113.604H174.321ZM175.455 110.384V112.68H179.011V110.384H175.455ZM184.107 117.818V118.756H175.735V114.822H176.883V117.818H184.107ZM196.915 119.064H195.767V106.478H196.915V119.064ZM190.755 107.402C191.25 107.402 191.703 107.477 192.113 107.626C192.524 107.766 192.874 107.967 193.163 108.228C193.462 108.48 193.695 108.788 193.863 109.152C194.031 109.516 194.115 109.917 194.115 110.356C194.115 110.795 194.031 111.196 193.863 111.56C193.695 111.924 193.462 112.237 193.163 112.498C192.874 112.75 192.524 112.951 192.113 113.1C191.703 113.24 191.25 113.31 190.755 113.31C190.27 113.31 189.822 113.24 189.411 113.1C189.001 112.951 188.646 112.75 188.347 112.498C188.049 112.237 187.815 111.924 187.647 111.56C187.479 111.196 187.395 110.795 187.395 110.356C187.395 109.917 187.479 109.516 187.647 109.152C187.815 108.788 188.049 108.48 188.347 108.228C188.646 107.967 189.001 107.766 189.411 107.626C189.822 107.477 190.27 107.402 190.755 107.402ZM190.755 108.382C190.429 108.382 190.125 108.429 189.845 108.522C189.575 108.615 189.341 108.751 189.145 108.928C188.949 109.105 188.795 109.315 188.683 109.558C188.571 109.791 188.515 110.057 188.515 110.356C188.515 110.645 188.571 110.911 188.683 111.154C188.795 111.397 188.949 111.607 189.145 111.784C189.341 111.952 189.575 112.087 189.845 112.19C190.125 112.283 190.429 112.33 190.755 112.33C191.082 112.33 191.381 112.283 191.651 112.19C191.931 112.087 192.169 111.952 192.365 111.784C192.561 111.607 192.715 111.397 192.827 111.154C192.939 110.911 192.995 110.645 192.995 110.356C192.995 110.057 192.939 109.791 192.827 109.558C192.715 109.315 192.561 109.105 192.365 108.928C192.169 108.751 191.931 108.615 191.651 108.522C191.381 108.429 191.082 108.382 190.755 108.382ZM186.765 115.34C187.344 115.34 187.965 115.335 188.627 115.326C189.29 115.317 189.971 115.298 190.671 115.27C191.381 115.242 192.095 115.2 192.813 115.144C193.541 115.088 194.251 115.009 194.941 114.906L195.039 115.76C194.33 115.891 193.611 115.993 192.883 116.068C192.165 116.143 191.455 116.199 190.755 116.236C190.065 116.264 189.393 116.283 188.739 116.292C188.086 116.301 187.475 116.306 186.905 116.306L186.765 115.34ZM209.234 112.61V119.036H208.086V106.492H209.234V111.644H211.292V112.61H209.234ZM206.896 108.494V109.418H199.49V108.494H202.654V106.632H203.802V108.494H206.896ZM203.242 110.454C203.69 110.454 204.101 110.529 204.474 110.678C204.848 110.818 205.17 111.019 205.44 111.28C205.72 111.532 205.935 111.835 206.084 112.19C206.234 112.545 206.308 112.932 206.308 113.352C206.308 113.781 206.234 114.173 206.084 114.528C205.935 114.883 205.72 115.186 205.44 115.438C205.17 115.69 204.848 115.886 204.474 116.026C204.101 116.166 203.69 116.236 203.242 116.236C202.804 116.236 202.398 116.166 202.024 116.026C201.651 115.886 201.329 115.69 201.058 115.438C200.788 115.186 200.578 114.883 200.428 114.528C200.279 114.173 200.204 113.781 200.204 113.352C200.204 112.932 200.279 112.545 200.428 112.19C200.578 111.835 200.788 111.532 201.058 111.28C201.329 111.019 201.651 110.818 202.024 110.678C202.398 110.529 202.804 110.454 203.242 110.454ZM203.242 115.284C203.532 115.284 203.798 115.237 204.04 115.144C204.283 115.041 204.488 114.906 204.656 114.738C204.834 114.57 204.969 114.369 205.062 114.136C205.165 113.893 205.216 113.632 205.216 113.352C205.216 113.072 205.165 112.815 205.062 112.582C204.969 112.339 204.834 112.134 204.656 111.966C204.488 111.789 204.283 111.653 204.04 111.56C203.798 111.457 203.532 111.406 203.242 111.406C202.962 111.406 202.701 111.457 202.458 111.56C202.216 111.653 202.006 111.789 201.828 111.966C201.66 112.134 201.525 112.339 201.422 112.582C201.329 112.815 201.282 113.072 201.282 113.352C201.282 113.632 201.329 113.893 201.422 114.136C201.525 114.369 201.66 114.57 201.828 114.738C202.006 114.906 202.216 115.041 202.458 115.144C202.701 115.237 202.962 115.284 203.242 115.284ZM222.785 119.064H221.637V113.884H218.655V115.858H212.943V107.71H218.655V109.488H221.637V106.478H222.785V119.064ZM214.063 108.62V114.948H217.521V108.62H214.063ZM221.637 110.426H218.655V112.946H221.637V110.426ZM240.055 110.174H238.207V112.89H237.059V106.478H238.207V109.222H240.055V110.174ZM232.075 112.302C232.868 111.742 233.461 111.131 233.853 110.468C234.245 109.796 234.483 109.012 234.567 108.116H232.621V107.178H235.659C235.659 108.41 235.444 109.497 235.015 110.44C234.595 111.383 233.881 112.227 232.873 112.974L232.075 112.302ZM232.117 107.178C232.117 107.794 232.056 108.354 231.935 108.858C231.814 109.353 231.632 109.81 231.389 110.23C231.156 110.65 230.862 111.037 230.507 111.392C230.152 111.747 229.737 112.087 229.261 112.414L228.505 111.686C229.214 111.238 229.779 110.739 230.199 110.188C230.628 109.628 230.899 108.937 231.011 108.116H228.785V107.178H232.117ZM238.697 117.958V118.868H230.213V115.69H237.073V114.388H230.185V113.478H238.207V116.558H231.347V117.958H238.697ZM250.988 112.456V119.036H249.84V106.492H250.988V111.49H253.06V112.456H250.988ZM244.674 107.444C245.141 107.444 245.565 107.547 245.948 107.752C246.331 107.957 246.662 108.251 246.942 108.634C247.222 109.017 247.437 109.479 247.586 110.02C247.745 110.552 247.824 111.154 247.824 111.826C247.824 112.498 247.745 113.105 247.586 113.646C247.437 114.178 247.222 114.635 246.942 115.018C246.662 115.401 246.331 115.695 245.948 115.9C245.565 116.105 245.141 116.208 244.674 116.208C244.207 116.208 243.778 116.105 243.386 115.9C243.003 115.695 242.672 115.401 242.392 115.018C242.112 114.635 241.893 114.178 241.734 113.646C241.585 113.105 241.51 112.498 241.51 111.826C241.51 111.154 241.585 110.552 241.734 110.02C241.893 109.479 242.112 109.017 242.392 108.634C242.672 108.251 243.003 107.957 243.386 107.752C243.778 107.547 244.207 107.444 244.674 107.444ZM244.674 115.186C244.973 115.186 245.248 115.107 245.5 114.948C245.752 114.789 245.967 114.565 246.144 114.276C246.331 113.977 246.475 113.623 246.578 113.212C246.681 112.801 246.732 112.339 246.732 111.826C246.732 111.322 246.681 110.865 246.578 110.454C246.475 110.034 246.331 109.679 246.144 109.39C245.967 109.101 245.752 108.877 245.5 108.718C245.248 108.559 244.973 108.48 244.674 108.48C244.366 108.48 244.086 108.559 243.834 108.718C243.582 108.877 243.363 109.101 243.176 109.39C242.999 109.679 242.859 110.034 242.756 110.454C242.653 110.865 242.602 111.322 242.602 111.826C242.602 112.339 242.653 112.801 242.756 113.212C242.859 113.623 242.999 113.977 243.176 114.276C243.363 114.565 243.582 114.789 243.834 114.948C244.086 115.107 244.366 115.186 244.674 115.186ZM265.785 110.958H263.937V114.206H262.789V106.478H263.937V110.006H265.785V110.958ZM262.075 113.338C261.431 113.45 260.764 113.543 260.073 113.618C259.392 113.683 258.715 113.735 258.043 113.772C257.371 113.8 256.718 113.823 256.083 113.842C255.448 113.851 254.856 113.856 254.305 113.856L254.193 112.946C254.697 112.946 255.224 112.941 255.775 112.932C256.335 112.923 256.909 112.909 257.497 112.89V111.462H255.061V107.01H256.195V108.326H259.919V107.01H261.067V111.462H258.645V112.834C259.214 112.806 259.779 112.769 260.339 112.722C260.908 112.675 261.459 112.615 261.991 112.54L262.075 113.338ZM259.919 110.552V109.208H256.195V110.552H259.919ZM262.845 115.018C262.845 115.326 262.901 115.634 263.013 115.942C263.125 116.25 263.288 116.539 263.503 116.81C263.718 117.071 263.979 117.309 264.287 117.524C264.604 117.739 264.964 117.911 265.365 118.042L264.791 118.882C264.175 118.667 263.657 118.359 263.237 117.958C262.817 117.557 262.5 117.104 262.285 116.6C262.098 117.113 261.814 117.58 261.431 118C261.048 118.429 260.558 118.761 259.961 118.994C259.364 118.761 258.874 118.434 258.491 118.014C258.108 117.594 257.824 117.132 257.637 116.628C257.422 117.132 257.105 117.58 256.685 117.972C256.274 118.364 255.761 118.667 255.145 118.882L254.571 118.042C254.972 117.911 255.327 117.739 255.635 117.524C255.952 117.309 256.218 117.071 256.433 116.81C256.648 116.539 256.811 116.25 256.923 115.942C257.035 115.634 257.091 115.326 257.091 115.018V114.71H258.183V115.018C258.183 115.279 258.22 115.545 258.295 115.816C258.37 116.087 258.477 116.348 258.617 116.6C258.766 116.852 258.953 117.09 259.177 117.314C259.401 117.538 259.662 117.734 259.961 117.902C260.549 117.557 260.988 117.123 261.277 116.6C261.576 116.077 261.725 115.55 261.725 115.018V114.71H262.845V115.018ZM268.612 111.196V106.94H269.76V110.258H277.152V111.196H268.612ZM278.454 113.8H267.072V112.876H278.454V113.8ZM277.222 117.79V118.728H268.528V115.06H269.676V117.79H277.222ZM290.619 119.036H289.527V106.478H290.619V119.036ZM288.085 106.786V118.406H287.007V112.218H284.305V111.266H287.007V106.786H288.085ZM281.561 115.06C281.999 115.06 282.405 115.055 282.779 115.046C283.152 115.037 283.507 115.023 283.843 115.004C284.179 114.976 284.505 114.939 284.823 114.892C285.14 114.845 285.457 114.785 285.775 114.71L285.887 115.648C285.532 115.723 285.182 115.783 284.837 115.83C284.501 115.877 284.146 115.914 283.773 115.942C283.409 115.97 283.021 115.989 282.611 115.998C282.2 116.007 281.743 116.012 281.239 116.012H280.427V108.018H285.145V108.942H281.561V115.06ZM33.088 140.064H31.94V132.574H28.09V131.622H31.94V127.478H33.088V140.064ZM24.576 136.06C25.5093 136.051 26.41 136.009 27.278 135.934C28.1553 135.859 29.0607 135.729 29.994 135.542L30.148 136.522C29.1493 136.709 28.1927 136.839 27.278 136.914C26.3633 136.989 25.4067 137.026 24.408 137.026H23.428V128.878H24.576V136.06ZM37.0629 133.064V128.178H45.5469V133.064H37.0629ZM38.1829 129.102V132.154H44.4129V129.102H38.1829ZM41.8509 135.71V140.022H40.7029V135.71H35.6069V134.772H47.0029V135.71H41.8509ZM52.2327 131.104C52.7833 131.057 53.3107 130.969 53.8147 130.838C54.3187 130.698 54.7667 130.53 55.1587 130.334C55.5507 130.129 55.8727 129.895 56.1247 129.634C56.3767 129.363 56.5213 129.074 56.5587 128.766H52.6807V127.87H61.9487V128.766H58.0707C58.108 129.074 58.248 129.363 58.4907 129.634C58.7427 129.895 59.0647 130.129 59.4567 130.334C59.8487 130.539 60.2967 130.707 60.8007 130.838C61.3047 130.969 61.832 131.057 62.3827 131.104L62.0187 131.972C61.4867 131.925 60.9733 131.841 60.4787 131.72C59.9933 131.589 59.5407 131.426 59.1207 131.23C58.71 131.034 58.346 130.805 58.0287 130.544C57.7207 130.273 57.4827 129.979 57.3147 129.662C57.1467 129.979 56.904 130.273 56.5867 130.544C56.2787 130.805 55.9147 131.034 55.4947 131.23C55.084 131.426 54.6313 131.589 54.1367 131.72C53.6513 131.841 53.1427 131.925 52.6107 131.972L52.2327 131.104ZM62.9987 133.61H51.6307V132.686H56.7267V131.202H57.8747V132.686H62.9987V133.61ZM61.9347 135.29V136.172H52.6807V135.29H56.7407V134.114H57.8887V135.29H61.9347ZM57.3007 136.788C58.5513 136.788 59.494 136.928 60.1287 137.208C60.7633 137.488 61.0807 137.908 61.0807 138.468C61.0807 139.009 60.7633 139.415 60.1287 139.686C59.494 139.966 58.5513 140.106 57.3007 140.106C56.05 140.106 55.1073 139.966 54.4727 139.686C53.8473 139.415 53.5347 139.009 53.5347 138.468C53.5347 137.908 53.8473 137.488 54.4727 137.208C55.1073 136.928 56.05 136.788 57.3007 136.788ZM57.3007 139.322C58.15 139.322 58.794 139.247 59.2327 139.098C59.6807 138.958 59.9047 138.748 59.9047 138.468C59.9047 138.169 59.6807 137.95 59.2327 137.81C58.794 137.67 58.15 137.6 57.3007 137.6C56.4513 137.6 55.8073 137.67 55.3687 137.81C54.93 137.95 54.7107 138.169 54.7107 138.468C54.7107 138.748 54.93 138.958 55.3687 139.098C55.8073 139.247 56.4513 139.322 57.3007 139.322ZM75.1776 140.036H74.0856V127.464H75.1776V140.036ZM72.5036 127.786V139.406H71.4116V132.644H68.6116V131.692H71.4116V127.786H72.5036ZM66.2596 135.864C66.9316 135.855 67.5942 135.827 68.2476 135.78C68.9009 135.724 69.5916 135.621 70.3196 135.472L70.4736 136.438C69.6522 136.606 68.8776 136.718 68.1496 136.774C67.4216 136.83 66.6796 136.858 65.9236 136.858H65.1256V128.822H66.2596V135.864ZM88.7845 138.426H77.3745V137.474H80.1745V134.086C79.6425 133.815 79.2272 133.461 78.9285 133.022C78.6392 132.574 78.4945 132.065 78.4945 131.496C78.4945 131.011 78.6065 130.572 78.8305 130.18C79.0545 129.779 79.3672 129.438 79.7685 129.158C80.1792 128.878 80.6645 128.663 81.2245 128.514C81.7845 128.355 82.3958 128.276 83.0585 128.276C83.7305 128.276 84.3418 128.355 84.8925 128.514C85.4525 128.663 85.9332 128.878 86.3345 129.158C86.7452 129.438 87.0625 129.779 87.2865 130.18C87.5105 130.572 87.6225 131.011 87.6225 131.496C87.6225 132.065 87.4778 132.569 87.1885 133.008C86.9085 133.447 86.5025 133.801 85.9705 134.072V137.474H88.7845V138.426ZM83.0585 129.172C82.5545 129.172 82.0878 129.228 81.6585 129.34C81.2385 129.452 80.8745 129.611 80.5665 129.816C80.2678 130.012 80.0298 130.255 79.8525 130.544C79.6845 130.824 79.6005 131.141 79.6005 131.496C79.6005 131.841 79.6845 132.159 79.8525 132.448C80.0298 132.737 80.2678 132.985 80.5665 133.19C80.8745 133.386 81.2385 133.54 81.6585 133.652C82.0878 133.764 82.5545 133.82 83.0585 133.82C83.5625 133.82 84.0245 133.764 84.4445 133.652C84.8738 133.54 85.2425 133.386 85.5505 133.19C85.8585 132.985 86.0965 132.737 86.2645 132.448C86.4418 132.159 86.5305 131.841 86.5305 131.496C86.5305 131.141 86.4418 130.824 86.2645 130.544C86.0965 130.255 85.8585 130.012 85.5505 129.816C85.2425 129.611 84.8738 129.452 84.4445 129.34C84.0245 129.228 83.5625 129.172 83.0585 129.172ZM84.8225 137.474V134.52C84.1972 134.651 83.6092 134.716 83.0585 134.716C82.7505 134.716 82.4518 134.702 82.1625 134.674C81.8732 134.637 81.5932 134.585 81.3225 134.52V137.474H84.8225ZM91.3874 137.88V139.196H90.1134V137.88H91.3874ZM103.415 134.618C102.705 134.385 102.085 134.039 101.553 133.582C101.03 133.125 100.633 132.597 100.363 132C100.092 132.681 99.6861 133.279 99.1448 133.792C98.6035 134.305 97.9641 134.688 97.2268 134.94L96.6528 134.044C97.1195 133.895 97.5441 133.689 97.9268 133.428C98.3095 133.157 98.6361 132.854 98.9068 132.518C99.1775 132.173 99.3875 131.799 99.5368 131.398C99.6861 130.997 99.7608 130.581 99.7608 130.152V129.872H96.9748V128.962H99.7608V127.436H100.909V128.962H103.681V129.872H100.909V130.152C100.909 130.535 100.983 130.913 101.133 131.286C101.282 131.65 101.487 131.991 101.749 132.308C102.019 132.616 102.341 132.896 102.715 133.148C103.097 133.391 103.517 133.582 103.975 133.722L103.415 134.618ZM105.823 127.478H106.971V136.172H105.823V131.972H103.317V131.034H105.823V127.478ZM103.513 135.598C103.513 136.037 103.625 136.447 103.849 136.83C104.082 137.213 104.39 137.558 104.773 137.866C105.165 138.165 105.613 138.421 106.117 138.636C106.63 138.841 107.167 138.991 107.727 139.084L107.279 139.98C106.803 139.896 106.341 139.77 105.893 139.602C105.454 139.443 105.043 139.247 104.661 139.014C104.287 138.781 103.951 138.515 103.653 138.216C103.354 137.917 103.111 137.586 102.925 137.222C102.729 137.577 102.481 137.903 102.183 138.202C101.884 138.501 101.543 138.767 101.161 139C100.787 139.243 100.381 139.443 99.9428 139.602C99.5041 139.77 99.0468 139.896 98.5708 139.98L98.1088 139.084C98.6688 138.991 99.2008 138.837 99.7048 138.622C100.218 138.407 100.666 138.146 101.049 137.838C101.441 137.53 101.753 137.185 101.987 136.802C102.22 136.419 102.337 136.018 102.337 135.598V135.332H103.513V135.598ZM121.11 131.034H119.248V133.806H118.1V127.478H119.248V130.082H121.11V131.034ZM116.952 132.658C115.878 132.873 114.87 133.017 113.928 133.092C112.994 133.167 112.052 133.204 111.1 133.204H110.12V128.024H111.254V132.252C112.159 132.243 113.055 132.201 113.942 132.126C114.828 132.042 115.78 131.897 116.798 131.692L116.952 132.658ZM119.71 138.944V139.868H111.31V136.62H118.114V135.332H111.268V134.408H119.248V137.502H112.444V138.944H119.71ZM123.811 133.414V127.982H124.945V129.704H131.175V127.982H132.323V133.414H123.811ZM124.945 130.628V132.476H131.175V130.628H124.945ZM128.613 135.85V140.05H127.465V135.85H122.369V134.926H133.765V135.85H128.613ZM145.608 140.05H144.46V133.162H141.87V132.21H144.46V127.464H145.608V140.05ZM136.984 136.088C137.553 136.088 138.076 136.083 138.552 136.074C139.028 136.055 139.48 136.032 139.91 136.004C140.339 135.976 140.754 135.939 141.156 135.892C141.566 135.836 141.986 135.771 142.416 135.696L142.542 136.634C142.084 136.718 141.641 136.788 141.212 136.844C140.782 136.891 140.339 136.928 139.882 136.956C139.434 136.984 138.958 137.003 138.454 137.012C137.95 137.021 137.399 137.026 136.802 137.026H135.836V128.612H141.646V129.564H136.984V132.154H141.1V133.078H136.984V136.088ZM162.877 132.266H161.015V136.662H159.867V127.464H161.015V131.3H162.877V132.266ZM151.789 134.408V128.598H157.557V134.408H151.789ZM152.909 129.522V133.498H156.437V129.522H152.909ZM161.575 138.818V139.756H153.203V135.808H154.351V138.818H161.575ZM164.794 131.692C165.345 131.627 165.872 131.515 166.376 131.356C166.89 131.188 167.342 130.983 167.734 130.74C168.136 130.497 168.458 130.222 168.7 129.914C168.943 129.606 169.074 129.275 169.092 128.92H165.186V127.982H174.482V128.92H170.576C170.595 129.275 170.726 129.606 170.968 129.914C171.211 130.222 171.528 130.497 171.92 130.74C172.312 130.983 172.765 131.188 173.278 131.356C173.792 131.515 174.324 131.627 174.874 131.692L174.468 132.588C173.955 132.523 173.456 132.42 172.97 132.28C172.494 132.131 172.051 131.949 171.64 131.734C171.239 131.519 170.88 131.267 170.562 130.978C170.254 130.689 170.012 130.371 169.834 130.026C169.657 130.371 169.414 130.689 169.106 130.978C168.798 131.267 168.444 131.519 168.042 131.734C167.641 131.949 167.198 132.131 166.712 132.28C166.236 132.42 165.737 132.523 165.214 132.588L164.794 131.692ZM175.546 134.716H164.15V133.778H169.246V131.888H170.394V133.778H175.546V134.716ZM174.104 135.962V140.05H172.956V136.886H165.41V135.962H174.104ZM188.425 138.454H177.015V137.502H182.125V134.282H178.471V128.486H186.983V129.424H179.619V133.358H187.109V134.282H183.287V137.502H188.425V138.454ZM199.661 139H194.117V137.964H196.399V130.376C196.399 130.32 196.404 130.269 196.413 130.222L194.551 131.888L193.865 131.062L196.623 128.682H197.645V137.964H199.661V139ZM208.603 133.89C208.603 134.795 208.505 135.584 208.309 136.256C208.113 136.919 207.847 137.469 207.511 137.908C207.175 138.347 206.778 138.673 206.321 138.888C205.863 139.093 205.369 139.196 204.837 139.196C204.305 139.196 203.81 139.093 203.353 138.888C202.895 138.673 202.494 138.347 202.149 137.908C201.813 137.469 201.547 136.919 201.351 136.256C201.164 135.584 201.071 134.795 201.071 133.89C201.071 132.975 201.164 132.187 201.351 131.524C201.547 130.852 201.813 130.297 202.149 129.858C202.494 129.419 202.895 129.097 203.353 128.892C203.81 128.677 204.305 128.57 204.837 128.57C205.369 128.57 205.863 128.677 206.321 128.892C206.778 129.097 207.175 129.419 207.511 129.858C207.847 130.297 208.113 130.852 208.309 131.524C208.505 132.187 208.603 132.975 208.603 133.89ZM207.315 133.89C207.315 133.087 207.245 132.415 207.105 131.874C206.974 131.323 206.792 130.885 206.559 130.558C206.335 130.222 206.073 129.984 205.775 129.844C205.476 129.695 205.163 129.62 204.837 129.62C204.51 129.62 204.197 129.695 203.899 129.844C203.6 129.984 203.339 130.222 203.115 130.558C202.891 130.885 202.709 131.323 202.569 131.874C202.438 132.415 202.373 133.087 202.373 133.89C202.373 134.683 202.438 135.355 202.569 135.906C202.709 136.447 202.891 136.886 203.115 137.222C203.339 137.558 203.6 137.801 203.899 137.95C204.197 138.09 204.51 138.16 204.837 138.16C205.163 138.16 205.476 138.09 205.775 137.95C206.073 137.801 206.335 137.558 206.559 137.222C206.792 136.886 206.974 136.447 207.105 135.906C207.245 135.355 207.315 134.683 207.315 133.89ZM216.943 133.89C216.943 134.795 216.845 135.584 216.649 136.256C216.453 136.919 216.187 137.469 215.851 137.908C215.515 138.347 215.118 138.673 214.661 138.888C214.203 139.093 213.709 139.196 213.177 139.196C212.645 139.196 212.15 139.093 211.693 138.888C211.235 138.673 210.834 138.347 210.489 137.908C210.153 137.469 209.887 136.919 209.691 136.256C209.504 135.584 209.411 134.795 209.411 133.89C209.411 132.975 209.504 132.187 209.691 131.524C209.887 130.852 210.153 130.297 210.489 129.858C210.834 129.419 211.235 129.097 211.693 128.892C212.15 128.677 212.645 128.57 213.177 128.57C213.709 128.57 214.203 128.677 214.661 128.892C215.118 129.097 215.515 129.419 215.851 129.858C216.187 130.297 216.453 130.852 216.649 131.524C216.845 132.187 216.943 132.975 216.943 133.89ZM215.655 133.89C215.655 133.087 215.585 132.415 215.445 131.874C215.314 131.323 215.132 130.885 214.899 130.558C214.675 130.222 214.413 129.984 214.115 129.844C213.816 129.695 213.503 129.62 213.177 129.62C212.85 129.62 212.537 129.695 212.239 129.844C211.94 129.984 211.679 130.222 211.455 130.558C211.231 130.885 211.049 131.323 210.909 131.874C210.778 132.415 210.713 133.087 210.713 133.89C210.713 134.683 210.778 135.355 210.909 135.906C211.049 136.447 211.231 136.886 211.455 137.222C211.679 137.558 211.94 137.801 212.239 137.95C212.537 138.09 212.85 138.16 213.177 138.16C213.503 138.16 213.816 138.09 214.115 137.95C214.413 137.801 214.675 137.558 214.899 137.222C215.132 136.886 215.314 136.447 215.445 135.906C215.585 135.355 215.655 134.683 215.655 133.89ZM219.066 129.662V128.738H228.376V129.662H226.43V134.03H228.348V134.968H219.094V134.03H221.012V129.662H219.066ZM222.16 129.662V134.03H225.282V129.662H222.16ZM229.44 138.426H218.058V137.474H229.44V138.426ZM242.333 138.482H230.923V137.544H236.033V135.178H232.351V131.3H239.799V129.34H232.323V128.402H240.919V132.224H233.485V134.254H241.213V135.178H237.195V137.544H242.333V138.482ZM254.12 134.226H252.972V127.492H254.12V134.226ZM247.372 128.08C247.848 128.08 248.287 128.15 248.688 128.29C249.09 128.43 249.435 128.626 249.724 128.878C250.023 129.13 250.252 129.433 250.41 129.788C250.578 130.143 250.662 130.535 250.662 130.964C250.662 131.393 250.578 131.79 250.41 132.154C250.252 132.509 250.023 132.812 249.724 133.064C249.435 133.316 249.09 133.512 248.688 133.652C248.287 133.792 247.848 133.862 247.372 133.862C246.896 133.862 246.458 133.792 246.056 133.652C245.664 133.512 245.324 133.316 245.034 133.064C244.745 132.812 244.516 132.509 244.348 132.154C244.19 131.79 244.11 131.393 244.11 130.964C244.11 130.535 244.19 130.143 244.348 129.788C244.516 129.433 244.745 129.13 245.034 128.878C245.324 128.626 245.664 128.43 246.056 128.29C246.458 128.15 246.896 128.08 247.372 128.08ZM247.372 129.032C247.064 129.032 246.775 129.079 246.504 129.172C246.243 129.265 246.019 129.401 245.832 129.578C245.646 129.746 245.496 129.951 245.384 130.194C245.282 130.427 245.23 130.684 245.23 130.964C245.23 131.253 245.282 131.519 245.384 131.762C245.496 131.995 245.646 132.201 245.832 132.378C246.019 132.546 246.243 132.677 246.504 132.77C246.775 132.863 247.064 132.91 247.372 132.91C248.016 132.91 248.539 132.733 248.94 132.378C249.342 132.023 249.542 131.552 249.542 130.964C249.542 130.684 249.486 130.427 249.374 130.194C249.272 129.951 249.122 129.746 248.926 129.578C248.74 129.401 248.511 129.265 248.24 129.172C247.979 129.079 247.69 129.032 247.372 129.032ZM247.162 136.382H252.986V134.842H254.12V139.868H246.028V134.842H247.162V136.382ZM252.986 138.944V137.278H247.162V138.944H252.986ZM266.985 140.022H265.837V127.478H266.985V140.022ZM258.627 135.808C259.588 135.808 260.554 135.766 261.525 135.682C262.496 135.589 263.504 135.435 264.549 135.22L264.675 136.2C263.574 136.424 262.524 136.578 261.525 136.662C260.526 136.746 259.523 136.788 258.515 136.788H257.479V128.696H258.627V135.808ZM279.234 133.386V140.064H278.086V127.478H279.234V132.434H281.306V133.386H279.234ZM271.254 135.948C271.814 135.948 272.337 135.943 272.822 135.934C273.317 135.915 273.788 135.892 274.236 135.864C274.693 135.836 275.141 135.794 275.58 135.738C276.019 135.682 276.462 135.612 276.91 135.528L277.036 136.48C276.56 136.573 276.093 136.653 275.636 136.718C275.179 136.774 274.712 136.821 274.236 136.858C273.76 136.886 273.265 136.905 272.752 136.914C272.239 136.923 271.688 136.928 271.1 136.928H270.106V128.682H275.944V129.634H271.254V135.948ZM284.413 128.514L284.203 136.494H283.321L283.111 128.514H284.413ZM283.125 139.182V137.866H284.399V139.182H283.125ZM33.088 161.064H31.94V154.204H29.21C29.182 154.82 29.084 155.375 28.916 155.87C28.7573 156.365 28.5427 156.785 28.272 157.13C28.0013 157.475 27.6793 157.741 27.306 157.928C26.942 158.115 26.5407 158.208 26.102 158.208C25.6447 158.208 25.2247 158.105 24.842 157.9C24.4593 157.695 24.128 157.401 23.848 157.018C23.568 156.635 23.3487 156.178 23.19 155.646C23.0407 155.105 22.966 154.498 22.966 153.826C22.966 153.154 23.0407 152.552 23.19 152.02C23.3487 151.479 23.568 151.017 23.848 150.634C24.128 150.251 24.4593 149.957 24.842 149.752C25.2247 149.547 25.6447 149.444 26.102 149.444C26.522 149.444 26.9093 149.533 27.264 149.71C27.628 149.887 27.9453 150.144 28.216 150.48C28.496 150.807 28.72 151.208 28.888 151.684C29.056 152.151 29.1633 152.678 29.21 153.266H31.94V148.478H33.088V161.064ZM26.102 157.186C26.4007 157.186 26.6713 157.107 26.914 156.948C27.166 156.789 27.3807 156.565 27.558 156.276C27.7447 155.977 27.8847 155.623 27.978 155.212C28.0807 154.801 28.132 154.339 28.132 153.826C28.132 153.322 28.0807 152.865 27.978 152.454C27.8847 152.034 27.7447 151.679 27.558 151.39C27.3807 151.101 27.166 150.877 26.914 150.718C26.6713 150.559 26.4007 150.48 26.102 150.48C25.8033 150.48 25.528 150.559 25.276 150.718C25.024 150.877 24.8047 151.101 24.618 151.39C24.4407 151.679 24.3007 152.034 24.198 152.454C24.1047 152.865 24.058 153.322 24.058 153.826C24.058 154.339 24.1047 154.801 24.198 155.212C24.3007 155.623 24.4407 155.977 24.618 156.276C24.8047 156.565 25.024 156.789 25.276 156.948C25.528 157.107 25.8033 157.186 26.102 157.186ZM36.6709 149.752V148.87H45.8829V149.752H43.9929V152.146H45.8409V153.028H36.7129V152.146H38.5749V149.752H36.6709ZM39.7229 149.752V152.146H42.8449V149.752H39.7229ZM46.9749 154.988H35.6069V154.078H46.9749V154.988ZM45.8969 160.028V160.896H37.0209V158.026H44.3849V156.948H36.9789V156.094H45.5189V158.852H38.1409V160.028H45.8969ZM63.2367 152.16H61.3747V154.946H60.2267V148.492H61.3747V151.208H63.2367V152.16ZM58.4347 154.736C57.7067 154.521 57.072 154.195 56.5307 153.756C55.9987 153.308 55.5927 152.79 55.3127 152.202C55.042 152.874 54.6267 153.457 54.0667 153.952C53.5067 154.447 52.844 154.815 52.0787 155.058L51.5187 154.162C51.9947 154.022 52.4287 153.826 52.8207 153.574C53.2127 153.322 53.5487 153.037 53.8287 152.72C54.1087 152.393 54.3233 152.039 54.4727 151.656C54.6313 151.264 54.7107 150.867 54.7107 150.466V150.116H51.9107V149.178H58.6307V150.116H55.8727V150.452C55.8727 150.825 55.9473 151.189 56.0967 151.544C56.246 151.889 56.456 152.211 56.7267 152.51C56.9973 152.799 57.3193 153.061 57.6927 153.294C58.0753 153.518 58.4953 153.695 58.9527 153.826L58.4347 154.736ZM61.8367 160.028V160.91H53.4367V157.718H60.2407V156.43H53.3947V155.548H61.3747V158.572H54.5567V160.028H61.8367ZM77.9164 161.064H76.7684V148.478H77.9164V161.064ZM71.2944 149.444C71.7611 149.444 72.1904 149.547 72.5824 149.752C72.9744 149.957 73.3104 150.251 73.5904 150.634C73.8704 151.017 74.0898 151.479 74.2484 152.02C74.4071 152.552 74.4864 153.154 74.4864 153.826C74.4864 154.498 74.4071 155.105 74.2484 155.646C74.0898 156.178 73.8704 156.635 73.5904 157.018C73.3104 157.401 72.9744 157.695 72.5824 157.9C72.1904 158.105 71.7611 158.208 71.2944 158.208C70.8278 158.208 70.3984 158.105 70.0064 157.9C69.6144 157.695 69.2784 157.401 68.9984 157.018C68.7184 156.635 68.4991 156.178 68.3404 155.646C68.1818 155.105 68.1024 154.498 68.1024 153.826C68.1024 153.154 68.1818 152.552 68.3404 152.02C68.4991 151.479 68.7184 151.017 68.9984 150.634C69.2784 150.251 69.6144 149.957 70.0064 149.752C70.3984 149.547 70.8278 149.444 71.2944 149.444ZM71.2944 150.48C70.9864 150.48 70.7018 150.559 70.4404 150.718C70.1884 150.877 69.9691 151.101 69.7824 151.39C69.5958 151.679 69.4511 152.034 69.3484 152.454C69.2458 152.865 69.1944 153.322 69.1944 153.826C69.1944 154.339 69.2458 154.801 69.3484 155.212C69.4511 155.623 69.5958 155.977 69.7824 156.276C69.9691 156.565 70.1884 156.789 70.4404 156.948C70.7018 157.107 70.9864 157.186 71.2944 157.186C71.6024 157.186 71.8824 157.107 72.1344 156.948C72.3864 156.789 72.6058 156.565 72.7924 156.276C72.9791 155.977 73.1238 155.623 73.2264 155.212C73.3291 154.801 73.3804 154.339 73.3804 153.826C73.3804 153.322 73.3291 152.865 73.2264 152.454C73.1238 152.034 72.9791 151.679 72.7924 151.39C72.6058 151.101 72.3864 150.877 72.1344 150.718C71.8824 150.559 71.6024 150.48 71.2944 150.48ZM91.8733 155.618H80.5053V154.694H83.3193V152.93C82.2927 152.519 81.7793 151.889 81.7793 151.04C81.7793 150.676 81.882 150.349 82.0873 150.06C82.2927 149.771 82.5867 149.528 82.9693 149.332C83.352 149.127 83.814 148.973 84.3553 148.87C84.8967 148.758 85.508 148.702 86.1893 148.702C86.8707 148.702 87.482 148.758 88.0233 148.87C88.574 148.973 89.036 149.127 89.4093 149.332C89.792 149.528 90.086 149.771 90.2913 150.06C90.4967 150.349 90.5993 150.676 90.5993 151.04C90.5993 151.46 90.464 151.829 90.1933 152.146C89.932 152.463 89.5587 152.72 89.0733 152.916V154.694H91.8733V155.618ZM82.9553 151.04C82.9553 151.488 83.24 151.843 83.8093 152.104C84.3787 152.356 85.172 152.482 86.1893 152.482C87.2067 152.482 88 152.356 88.5693 152.104C89.1387 151.843 89.4233 151.488 89.4233 151.04C89.4233 150.583 89.1387 150.228 88.5693 149.976C88 149.724 87.2067 149.598 86.1893 149.598C85.172 149.598 84.3787 149.724 83.8093 149.976C83.24 150.228 82.9553 150.583 82.9553 151.04ZM87.9393 154.694V153.224C87.6967 153.271 87.426 153.308 87.1273 153.336C86.838 153.355 86.5253 153.364 86.1893 153.364C85.872 153.364 85.5687 153.355 85.2793 153.336C84.99 153.308 84.7147 153.271 84.4533 153.224V154.694H87.9393ZM86.1893 156.556C87.5427 156.556 88.5973 156.752 89.3533 157.144C90.1093 157.527 90.4873 158.077 90.4873 158.796C90.4873 159.515 90.1093 160.065 89.3533 160.448C88.5973 160.831 87.5427 161.022 86.1893 161.022C84.8453 161.022 83.7907 160.831 83.0253 160.448C82.2693 160.065 81.8913 159.515 81.8913 158.796C81.8913 158.077 82.2693 157.527 83.0253 157.144C83.7907 156.752 84.8453 156.556 86.1893 156.556ZM86.1893 160.14C87.1787 160.14 87.9487 160.023 88.4993 159.79C89.05 159.557 89.3253 159.225 89.3253 158.796C89.3253 158.367 89.05 158.035 88.4993 157.802C87.9487 157.569 87.1787 157.452 86.1893 157.452C85.2 157.452 84.43 157.569 83.8793 157.802C83.3287 158.035 83.0533 158.367 83.0533 158.796C83.0533 159.225 83.3287 159.557 83.8793 159.79C84.43 160.023 85.2 160.14 86.1893 160.14ZM103.072 154.61V161.036H101.924V148.492H103.072V153.644H105.13V154.61H103.072ZM100.734 150.494V151.418H93.3283V150.494H96.4923V148.632H97.6403V150.494H100.734ZM97.0803 152.454C97.5283 152.454 97.9389 152.529 98.3123 152.678C98.6856 152.818 99.0076 153.019 99.2783 153.28C99.5583 153.532 99.7729 153.835 99.9223 154.19C100.072 154.545 100.146 154.932 100.146 155.352C100.146 155.781 100.072 156.173 99.9223 156.528C99.7729 156.883 99.5583 157.186 99.2783 157.438C99.0076 157.69 98.6856 157.886 98.3123 158.026C97.9389 158.166 97.5283 158.236 97.0803 158.236C96.6416 158.236 96.2356 158.166 95.8623 158.026C95.4889 157.886 95.1669 157.69 94.8963 157.438C94.6256 157.186 94.4156 156.883 94.2663 156.528C94.1169 156.173 94.0423 155.781 94.0423 155.352C94.0423 154.932 94.1169 154.545 94.2663 154.19C94.4156 153.835 94.6256 153.532 94.8963 153.28C95.1669 153.019 95.4889 152.818 95.8623 152.678C96.2356 152.529 96.6416 152.454 97.0803 152.454ZM97.0803 157.284C97.3696 157.284 97.6356 157.237 97.8783 157.144C98.1209 157.041 98.3263 156.906 98.4943 156.738C98.6716 156.57 98.8069 156.369 98.9003 156.136C99.0029 155.893 99.0543 155.632 99.0543 155.352C99.0543 155.072 99.0029 154.815 98.9003 154.582C98.8069 154.339 98.6716 154.134 98.4943 153.966C98.3263 153.789 98.1209 153.653 97.8783 153.56C97.6356 153.457 97.3696 153.406 97.0803 153.406C96.8003 153.406 96.5389 153.457 96.2963 153.56C96.0536 153.653 95.8436 153.789 95.6663 153.966C95.4983 154.134 95.3629 154.339 95.2603 154.582C95.1669 154.815 95.1203 155.072 95.1203 155.352C95.1203 155.632 95.1669 155.893 95.2603 156.136C95.3629 156.369 95.4983 156.57 95.6663 156.738C95.8436 156.906 96.0536 157.041 96.2963 157.144C96.5389 157.237 96.8003 157.284 97.0803 157.284ZM115.769 155.73V148.492H116.875V155.73H115.769ZM110.813 152.972C109.992 154.232 108.718 155.235 106.991 155.982L106.389 155.128C108.984 154.101 110.393 152.505 110.617 150.34H106.935V149.416H111.793C111.793 150.368 111.625 151.245 111.289 152.048H113.277V148.758H114.355V155.534H113.277V152.972H110.813ZM115.279 156.976C115.279 157.303 115.335 157.625 115.447 157.942C115.559 158.259 115.722 158.558 115.937 158.838C116.161 159.118 116.427 159.37 116.735 159.594C117.052 159.818 117.407 160 117.799 160.14L117.239 160.98C116.614 160.765 116.086 160.448 115.657 160.028C115.237 159.608 114.92 159.132 114.705 158.6C114.518 159.113 114.234 159.594 113.851 160.042C113.468 160.499 112.983 160.849 112.395 161.092C111.779 160.849 111.284 160.513 110.911 160.084C110.547 159.655 110.272 159.174 110.085 158.642C109.852 159.146 109.525 159.603 109.105 160.014C108.685 160.434 108.176 160.756 107.579 160.98L107.005 160.14C107.397 160 107.752 159.813 108.069 159.58C108.386 159.347 108.652 159.09 108.867 158.81C109.082 158.521 109.245 158.222 109.357 157.914C109.478 157.597 109.539 157.284 109.539 156.976V156.164H110.645V156.976C110.645 157.545 110.785 158.101 111.065 158.642C111.354 159.183 111.793 159.627 112.381 159.972C112.68 159.785 112.941 159.571 113.165 159.328C113.389 159.085 113.571 158.829 113.711 158.558C113.86 158.287 113.972 158.017 114.047 157.746C114.122 157.475 114.159 157.219 114.159 156.976V156.164H115.279V156.976ZM129.446 153.322C128.961 153.247 128.485 153.131 128.018 152.972C127.551 152.813 127.113 152.622 126.702 152.398C126.301 152.165 125.937 151.899 125.61 151.6C125.293 151.301 125.036 150.979 124.84 150.634C124.644 150.979 124.383 151.301 124.056 151.6C123.739 151.899 123.375 152.165 122.964 152.398C122.563 152.622 122.129 152.813 121.662 152.972C121.195 153.131 120.715 153.247 120.22 153.322L119.8 152.398C120.36 152.333 120.906 152.202 121.438 152.006C121.979 151.81 122.455 151.572 122.866 151.292C123.286 151.003 123.622 150.681 123.874 150.326C124.126 149.962 124.252 149.579 124.252 149.178V148.618H125.428V149.178C125.428 149.561 125.554 149.934 125.806 150.298C126.058 150.653 126.389 150.975 126.8 151.264C127.22 151.553 127.696 151.801 128.228 152.006C128.76 152.202 129.306 152.333 129.866 152.398L129.446 153.322ZM130.51 155.128H119.142V154.204H130.51V155.128ZM129.026 155.996V160.868H120.584V155.996H121.718V157.466H127.892V155.996H129.026ZM121.718 158.348V159.944H127.892V158.348H121.718ZM142.325 161.022H141.177V148.478H142.325V161.022ZM133.967 156.808C134.928 156.808 135.894 156.766 136.865 156.682C137.836 156.589 138.844 156.435 139.889 156.22L140.015 157.2C138.914 157.424 137.864 157.578 136.865 157.662C135.866 157.746 134.863 157.788 133.855 157.788H132.819V149.696H133.967V156.808ZM154.574 154.386V161.064H153.426V148.478H154.574V153.434H156.646V154.386H154.574ZM146.594 156.948C147.154 156.948 147.677 156.943 148.162 156.934C148.657 156.915 149.128 156.892 149.576 156.864C150.033 156.836 150.481 156.794 150.92 156.738C151.359 156.682 151.802 156.612 152.25 156.528L152.376 157.48C151.9 157.573 151.433 157.653 150.976 157.718C150.519 157.774 150.052 157.821 149.576 157.858C149.1 157.886 148.605 157.905 148.092 157.914C147.579 157.923 147.028 157.928 146.44 157.928H145.446V149.682H151.284V150.634H146.594V156.948Z" fill="white"/>
</svg>
