<svg width="320" height="211" viewBox="0 0 320 211" fill="none" xmlns="http://www.w3.org/2000/svg">
<rect width="320" height="211" rx="16" fill="#36312B"/>
<path d="M36.652 45.53H34.276V28.97H36.652V45.53ZM28.156 36.71C27.532 36.71 26.95 36.626 26.41 36.458C25.882 36.278 25.426 36.032 25.042 35.72C24.658 35.408 24.352 35.036 24.124 34.604C23.908 34.172 23.8 33.698 23.8 33.182C23.8 32.654 23.908 32.174 24.124 31.742C24.352 31.31 24.658 30.938 25.042 30.626C25.426 30.314 25.882 30.074 26.41 29.906C26.95 29.726 27.532 29.636 28.156 29.636C28.78 29.636 29.356 29.726 29.884 29.906C30.412 30.074 30.868 30.314 31.252 30.626C31.648 30.938 31.954 31.31 32.17 31.742C32.386 32.174 32.494 32.654 32.494 33.182C32.494 33.698 32.386 34.172 32.17 34.604C31.954 35.036 31.648 35.408 31.252 35.72C30.868 36.032 30.412 36.278 29.884 36.458C29.356 36.626 28.78 36.71 28.156 36.71ZM28.156 31.562C27.544 31.562 27.046 31.7 26.662 31.976C26.278 32.24 26.086 32.642 26.086 33.182C26.086 33.686 26.278 34.076 26.662 34.352C27.046 34.628 27.544 34.766 28.156 34.766C28.768 34.766 29.266 34.628 29.65 34.352C30.034 34.076 30.226 33.686 30.226 33.182C30.226 32.642 30.034 32.24 29.65 31.976C29.266 31.7 28.768 31.562 28.156 31.562ZM33.484 38.852C32.8 38.984 32.122 39.098 31.45 39.194C30.778 39.278 30.1 39.35 29.416 39.41V45.044H27.04V39.554C26.32 39.578 25.63 39.596 24.97 39.608C24.31 39.62 23.686 39.626 23.098 39.626L22.828 37.682C23.548 37.682 24.334 37.676 25.186 37.664C26.05 37.652 26.938 37.628 27.85 37.592C28.762 37.556 29.686 37.502 30.622 37.43C31.558 37.358 32.464 37.256 33.34 37.124L33.484 38.852ZM51.2126 40.004V28.97H53.4626V40.004H51.2126ZM47.9546 29.258H50.1686V38.6H47.9546V35.018H46.2266V33.092H47.9546V29.258ZM46.3166 38.546C45.6206 38.27 45.0326 37.91 44.5526 37.466C44.0846 37.01 43.7126 36.488 43.4366 35.9C43.1366 36.584 42.7346 37.19 42.2306 37.718C41.7266 38.234 41.0966 38.648 40.3406 38.96L39.1166 37.142C39.6806 36.914 40.1606 36.626 40.5566 36.278C40.9526 35.93 41.2766 35.546 41.5286 35.126C41.7806 34.706 41.9606 34.262 42.0686 33.794C42.1886 33.326 42.2486 32.852 42.2486 32.372V32.066H39.6386V30.158H46.9646V32.066H44.5526V32.372C44.5526 32.816 44.6066 33.254 44.7146 33.686C44.8226 34.118 44.9906 34.526 45.2186 34.91C45.4586 35.282 45.7646 35.624 46.1366 35.936C46.5086 36.248 46.9586 36.506 47.4866 36.71L46.3166 38.546ZM48.9266 39.68C48.9266 40.1 49.0346 40.526 49.2506 40.958C49.4666 41.378 49.7906 41.768 50.2226 42.128C50.6666 42.488 51.2186 42.806 51.8786 43.082C52.5386 43.346 53.3186 43.532 54.2186 43.64L53.3366 45.476C51.9926 45.296 50.8466 44.942 49.8986 44.414C48.9626 43.886 48.2426 43.238 47.7386 42.47C47.2346 43.238 46.5086 43.886 45.5606 44.414C44.6246 44.942 43.4846 45.296 42.1406 45.476L41.2946 43.64C42.1826 43.532 42.9566 43.346 43.6166 43.082C44.2766 42.806 44.8226 42.488 45.2546 42.128C45.6866 41.768 46.0106 41.378 46.2266 40.958C46.4426 40.526 46.5506 40.1 46.5506 39.68V39.248H48.9266V39.68ZM69.0672 37.412V45.53H66.6732V28.952H69.0672V35.45H71.2092V37.412H69.0672ZM60.7692 30.662C60.7692 31.802 60.7272 32.888 60.6432 33.92C60.5712 34.94 60.4152 35.918 60.1752 36.854C59.9472 37.79 59.6112 38.69 59.1672 39.554C58.7232 40.418 58.1352 41.258 57.4032 42.074L55.5492 40.724C56.1012 40.112 56.5572 39.5 56.9172 38.888C57.2892 38.276 57.5832 37.64 57.7992 36.98C58.0272 36.32 58.1952 35.63 58.3032 34.91C58.4112 34.178 58.4832 33.398 58.5192 32.57H56.2872V30.662H60.7692ZM65.3412 30.662C65.3412 31.862 65.3052 33.02 65.2332 34.136C65.1612 35.24 65.0112 36.308 64.7832 37.34C64.5552 38.372 64.2252 39.368 63.7932 40.328C63.3612 41.288 62.7852 42.218 62.0652 43.118L60.1932 41.804C60.7452 41.108 61.2012 40.412 61.5612 39.716C61.9212 39.008 62.2092 38.282 62.4252 37.538C62.6412 36.782 62.7972 35.996 62.8932 35.18C63.0012 34.364 63.0732 33.494 63.1092 32.57H61.3272V30.662H65.3412ZM86.1838 45.548H83.8078V28.97H86.1838V45.548ZM78.8578 33.434C78.8578 34.106 78.9418 34.784 79.1098 35.468C79.2778 36.14 79.5298 36.776 79.8658 37.376C80.2138 37.976 80.6398 38.516 81.1438 38.996C81.6598 39.476 82.2658 39.86 82.9618 40.148L81.6658 42.02C80.6938 41.6 79.8778 41.012 79.2178 40.256C78.5698 39.488 78.0598 38.594 77.6878 37.574C77.3158 38.666 76.7938 39.638 76.1218 40.49C75.4618 41.342 74.6458 41.99 73.6738 42.434L72.3238 40.544C73.0198 40.232 73.6258 39.818 74.1418 39.302C74.6578 38.786 75.0838 38.216 75.4198 37.592C75.7678 36.956 76.0258 36.284 76.1938 35.576C76.3618 34.856 76.4458 34.142 76.4458 33.434V32.516H72.9898V30.554H82.2778V32.516H78.8578V33.434ZM108.315 36.134H106.227V41.624H103.851V28.97H106.227V34.172H108.315V36.134ZM103.131 38.78C102.291 38.936 101.433 39.062 100.557 39.158C99.6925 39.242 98.8345 39.308 97.9825 39.356C97.1425 39.404 96.3265 39.434 95.5345 39.446C94.7425 39.458 94.0045 39.464 93.3205 39.464L93.0325 37.574H94.8685C95.5045 37.574 96.1645 37.562 96.8485 37.538V36.26C95.9485 36.068 95.2285 35.684 94.6885 35.108C94.1605 34.532 93.8965 33.83 93.8965 33.002C93.8965 32.51 93.9985 32.06 94.2025 31.652C94.4065 31.232 94.6885 30.878 95.0485 30.59C95.4205 30.29 95.8585 30.056 96.3625 29.888C96.8665 29.72 97.4185 29.636 98.0185 29.636C98.6185 29.636 99.1705 29.72 99.6745 29.888C100.191 30.056 100.629 30.29 100.989 30.59C101.361 30.878 101.649 31.232 101.853 31.652C102.057 32.06 102.159 32.51 102.159 33.002C102.159 33.83 101.895 34.532 101.367 35.108C100.839 35.672 100.125 36.056 99.2245 36.26V37.448C99.8725 37.412 100.509 37.37 101.133 37.322C101.757 37.274 102.375 37.202 102.987 37.106L103.131 38.78ZM96.1105 33.002C96.1105 33.506 96.2845 33.896 96.6325 34.172C96.9805 34.448 97.4425 34.586 98.0185 34.586C98.5945 34.586 99.0625 34.448 99.4225 34.172C99.7825 33.896 99.9625 33.506 99.9625 33.002C99.9625 32.498 99.7825 32.108 99.4225 31.832C99.0625 31.556 98.5945 31.418 98.0185 31.418C97.4425 31.418 96.9805 31.556 96.6325 31.832C96.2845 32.108 96.1105 32.498 96.1105 33.002ZM106.785 43.37V45.26H95.1925V40.544H97.5685V43.37H106.785ZM123.505 38.852H121.129V36.692H118.177V38.132H110.347V29.942H112.705V32.264H115.855V29.942H118.177V31.4H121.129V28.988H123.505V38.852ZM121.129 33.29H118.177V34.802H121.129V33.29ZM112.705 34.082V36.224H115.855V34.082H112.705ZM123.505 39.608V45.566H121.129V41.48H112.219V39.608H123.505ZM140.424 45.53H138.174V37.628H136.914V44.846H134.7V29.276H136.914V35.72H138.174V28.952H140.424V45.53ZM134.106 31.472V33.362H126.186V31.472H129.012V29.42H131.352V31.472H134.106ZM130.182 34.082C130.71 34.082 131.196 34.178 131.64 34.37C132.084 34.562 132.468 34.838 132.792 35.198C133.116 35.546 133.368 35.966 133.548 36.458C133.728 36.938 133.818 37.466 133.818 38.042C133.818 38.618 133.728 39.146 133.548 39.626C133.368 40.106 133.116 40.526 132.792 40.886C132.468 41.234 132.084 41.504 131.64 41.696C131.196 41.888 130.71 41.984 130.182 41.984C129.654 41.984 129.168 41.888 128.724 41.696C128.28 41.504 127.896 41.234 127.572 40.886C127.248 40.526 126.996 40.106 126.816 39.626C126.636 39.146 126.546 38.618 126.546 38.042C126.546 37.466 126.636 36.938 126.816 36.458C126.996 35.966 127.248 35.546 127.572 35.198C127.896 34.838 128.28 34.562 128.724 34.37C129.168 34.178 129.654 34.082 130.182 34.082ZM130.182 40.004C130.638 40.004 131.01 39.836 131.298 39.5C131.586 39.152 131.73 38.666 131.73 38.042C131.73 37.418 131.586 36.932 131.298 36.584C131.01 36.236 130.638 36.062 130.182 36.062C129.726 36.062 129.354 36.236 129.066 36.584C128.778 36.932 128.634 37.418 128.634 38.042C128.634 38.666 128.778 39.152 129.066 39.5C129.354 39.836 129.726 40.004 130.182 40.004ZM157.774 43.622H142.762V41.696H146.074V37.646C145.426 37.262 144.928 36.782 144.58 36.206C144.232 35.618 144.064 34.964 144.076 34.244C144.076 33.56 144.232 32.948 144.544 32.408C144.856 31.856 145.282 31.388 145.822 31.004C146.374 30.608 147.028 30.308 147.784 30.104C148.54 29.888 149.362 29.78 150.25 29.78C151.15 29.78 151.978 29.888 152.734 30.104C153.49 30.308 154.138 30.608 154.678 31.004C155.23 31.388 155.662 31.856 155.974 32.408C156.286 32.948 156.442 33.56 156.442 34.244C156.442 34.964 156.262 35.618 155.902 36.206C155.554 36.782 155.068 37.262 154.444 37.646V41.696H157.774V43.622ZM150.25 31.652C149.098 31.652 148.168 31.88 147.46 32.336C146.764 32.78 146.416 33.416 146.416 34.244C146.416 35.072 146.764 35.714 147.46 36.17C148.168 36.614 149.098 36.836 150.25 36.836C150.826 36.836 151.348 36.782 151.816 36.674C152.296 36.554 152.704 36.386 153.04 36.17C153.376 35.942 153.634 35.666 153.814 35.342C154.006 35.018 154.102 34.652 154.102 34.244C154.102 33.824 154.006 33.458 153.814 33.146C153.634 32.822 153.376 32.552 153.04 32.336C152.704 32.108 152.296 31.94 151.816 31.832C151.348 31.712 150.826 31.652 150.25 31.652ZM152.086 41.696V38.528C151.51 38.636 150.898 38.69 150.25 38.69C149.614 38.69 149.008 38.636 148.432 38.528V41.696H152.086ZM161.013 40.184L160.635 32.822L160.545 30.32H163.209L163.119 32.822L162.741 40.184H161.013ZM160.581 44.252V41.696H163.209V44.252H160.581Z" fill="white"/>
<path d="M40.3039 75.9718L36.7882 79.0054L37.8593 83.5421C37.9184 83.7884 37.9032 84.0466 37.8156 84.2843C37.728 84.5219 37.5719 84.7282 37.3671 84.8772C37.1623 85.0262 36.9179 85.1111 36.6648 85.1213C36.4118 85.1314 36.1614 85.0663 35.9453 84.9343L32 82.5061L28.0523 84.9343C27.8362 85.0656 27.5861 85.13 27.3335 85.1195C27.0809 85.109 26.837 85.0239 26.6326 84.8751C26.4282 84.7262 26.2724 84.5202 26.1849 84.283C26.0973 84.0458 26.0819 83.788 26.1406 83.5421L27.2156 79.0054L23.7 75.9718C23.5088 75.8065 23.3705 75.5887 23.3024 75.3453C23.2344 75.102 23.2395 74.844 23.3172 74.6035C23.3948 74.3631 23.5416 74.1509 23.7392 73.9933C23.9368 73.8358 24.1764 73.74 24.4281 73.7179L29.0375 73.346L30.8156 69.0429C30.9118 68.8083 31.0756 68.6077 31.2862 68.4666C31.4967 68.3254 31.7445 68.25 31.998 68.25C32.2515 68.25 32.4993 68.3254 32.7098 68.4666C32.9204 68.6077 33.0842 68.8083 33.1804 69.0429L34.9578 73.346L39.5671 73.7179C39.8193 73.7392 40.0596 73.8345 40.2579 73.9918C40.4562 74.1491 40.6037 74.3614 40.6819 74.6021C40.76 74.8429 40.7654 75.1013 40.6973 75.3451C40.6292 75.5889 40.4907 75.8071 40.2992 75.9725L40.3039 75.9718Z" fill="#FE8207"/>
<path d="M60.3039 75.9718L56.7882 79.0054L57.8593 83.5421C57.9184 83.7884 57.9032 84.0466 57.8156 84.2843C57.728 84.5219 57.5719 84.7282 57.3671 84.8772C57.1623 85.0262 56.9179 85.1111 56.6648 85.1213C56.4118 85.1314 56.1614 85.0663 55.9453 84.9343L52 82.5061L48.0523 84.9343C47.8362 85.0656 47.5861 85.13 47.3335 85.1195C47.0809 85.109 46.837 85.0239 46.6326 84.8751C46.4282 84.7262 46.2724 84.5202 46.1849 84.283C46.0973 84.0458 46.0819 83.788 46.1406 83.5421L47.2156 79.0054L43.7 75.9718C43.5088 75.8065 43.3705 75.5887 43.3024 75.3453C43.2344 75.102 43.2395 74.844 43.3172 74.6035C43.3948 74.3631 43.5416 74.1509 43.7392 73.9933C43.9368 73.8358 44.1764 73.74 44.4281 73.7179L49.0375 73.346L50.8156 69.0429C50.9118 68.8083 51.0756 68.6077 51.2862 68.4666C51.4967 68.3254 51.7445 68.25 51.998 68.25C52.2515 68.25 52.4993 68.3254 52.7098 68.4666C52.9204 68.6077 53.0842 68.8083 53.1804 69.0429L54.9578 73.346L59.5671 73.7179C59.8193 73.7392 60.0596 73.8345 60.2579 73.9918C60.4562 74.1491 60.6037 74.3614 60.6819 74.6021C60.76 74.8429 60.7654 75.1013 60.6973 75.3451C60.6292 75.5889 60.4907 75.8071 60.2992 75.9725L60.3039 75.9718Z" fill="#FE8207"/>
<path d="M80.3039 75.9718L76.7882 79.0054L77.8593 83.5421C77.9184 83.7884 77.9032 84.0466 77.8156 84.2843C77.728 84.5219 77.5719 84.7282 77.3671 84.8772C77.1623 85.0262 76.9179 85.1111 76.6648 85.1213C76.4118 85.1314 76.1614 85.0663 75.9453 84.9343L72 82.5061L68.0523 84.9343C67.8362 85.0656 67.5861 85.13 67.3335 85.1195C67.0809 85.109 66.837 85.0239 66.6326 84.8751C66.4282 84.7262 66.2724 84.5202 66.1849 84.283C66.0973 84.0458 66.0819 83.788 66.1406 83.5421L67.2156 79.0054L63.7 75.9718C63.5088 75.8065 63.3705 75.5887 63.3024 75.3453C63.2344 75.102 63.2395 74.844 63.3172 74.6035C63.3948 74.3631 63.5416 74.1509 63.7392 73.9933C63.9368 73.8358 64.1764 73.74 64.4281 73.7179L69.0375 73.346L70.8156 69.0429C70.9118 68.8083 71.0756 68.6077 71.2862 68.4666C71.4967 68.3254 71.7445 68.25 71.998 68.25C72.2515 68.25 72.4993 68.3254 72.7098 68.4666C72.9204 68.6077 73.0842 68.8083 73.1804 69.0429L74.9578 73.346L79.5671 73.7179C79.8193 73.7392 80.0596 73.8345 80.2579 73.9918C80.4562 74.1491 80.6037 74.3614 80.6819 74.6021C80.76 74.8429 80.7654 75.1013 80.6973 75.3451C80.6292 75.5889 80.4907 75.8071 80.2992 75.9725L80.3039 75.9718Z" fill="#FE8207"/>
<path d="M100.304 75.9718L96.7882 79.0054L97.8593 83.5421C97.9184 83.7884 97.9032 84.0466 97.8156 84.2843C97.728 84.5219 97.5719 84.7282 97.3671 84.8772C97.1623 85.0262 96.9179 85.1111 96.6648 85.1213C96.4118 85.1314 96.1614 85.0663 95.9453 84.9343L92 82.5061L88.0523 84.9343C87.8362 85.0656 87.5861 85.13 87.3335 85.1195C87.0809 85.109 86.837 85.0239 86.6326 84.8751C86.4282 84.7262 86.2724 84.5202 86.1849 84.283C86.0973 84.0458 86.0819 83.788 86.1406 83.5421L87.2156 79.0054L83.7 75.9718C83.5088 75.8065 83.3705 75.5887 83.3024 75.3453C83.2344 75.102 83.2395 74.844 83.3172 74.6035C83.3948 74.3631 83.5416 74.1509 83.7392 73.9933C83.9368 73.8358 84.1764 73.74 84.4281 73.7179L89.0375 73.346L90.8156 69.0429C90.9118 68.8083 91.0756 68.6077 91.2862 68.4666C91.4967 68.3254 91.7445 68.25 91.998 68.25C92.2515 68.25 92.4993 68.3254 92.7098 68.4666C92.9204 68.6077 93.0842 68.8083 93.1804 69.0429L94.9578 73.346L99.5671 73.7179C99.8193 73.7392 100.06 73.8345 100.258 73.9918C100.456 74.1491 100.604 74.3614 100.682 74.6021C100.76 74.8429 100.765 75.1013 100.697 75.3451C100.629 75.5889 100.491 75.8071 100.299 75.9725L100.304 75.9718Z" fill="#FE8207"/>
<path d="M120.304 75.9718L116.788 79.0054L117.859 83.5421C117.918 83.7884 117.903 84.0466 117.816 84.2843C117.728 84.5219 117.572 84.7282 117.367 84.8772C117.162 85.0262 116.918 85.1111 116.665 85.1213C116.412 85.1314 116.161 85.0663 115.945 84.9343L112 82.5061L108.052 84.9343C107.836 85.0656 107.586 85.13 107.333 85.1195C107.081 85.109 106.837 85.0239 106.633 84.8751C106.428 84.7262 106.272 84.5202 106.185 84.283C106.097 84.0458 106.082 83.788 106.141 83.5421L107.216 79.0054L103.7 75.9718C103.509 75.8065 103.371 75.5887 103.302 75.3453C103.234 75.102 103.239 74.844 103.317 74.6035C103.395 74.3631 103.542 74.1509 103.739 73.9933C103.937 73.8358 104.176 73.74 104.428 73.7179L109.037 73.346L110.816 69.0429C110.912 68.8083 111.076 68.6077 111.286 68.4666C111.497 68.3254 111.744 68.25 111.998 68.25C112.251 68.25 112.499 68.3254 112.71 68.4666C112.92 68.6077 113.084 68.8083 113.18 69.0429L114.958 73.346L119.567 73.7179C119.819 73.7392 120.06 73.8345 120.258 73.9918C120.456 74.1491 120.604 74.3614 120.682 74.6021C120.76 74.8429 120.765 75.1013 120.697 75.3451C120.629 75.5889 120.491 75.8071 120.299 75.9725L120.304 75.9718Z" fill="#FE8207"/>
<path d="M33.34 113.338H32.234V110.314H30.638V113.24H29.546V106.73H30.638V109.362H32.234V106.492H33.34V113.338ZM28.58 110.006C28.58 110.426 28.5053 110.813 28.356 111.168C28.216 111.513 28.02 111.812 27.768 112.064C27.516 112.316 27.2127 112.512 26.858 112.652C26.5127 112.792 26.1347 112.862 25.724 112.862C25.304 112.862 24.9167 112.792 24.562 112.652C24.2167 112.512 23.918 112.316 23.666 112.064C23.414 111.812 23.218 111.513 23.078 111.168C22.938 110.813 22.868 110.426 22.868 110.006C22.868 109.586 22.938 109.203 23.078 108.858C23.218 108.513 23.414 108.214 23.666 107.962C23.918 107.71 24.2167 107.519 24.562 107.388C24.9167 107.248 25.304 107.178 25.724 107.178C26.1347 107.178 26.5127 107.248 26.858 107.388C27.2127 107.519 27.516 107.71 27.768 107.962C28.02 108.214 28.216 108.513 28.356 108.858C28.5053 109.203 28.58 109.586 28.58 110.006ZM23.904 110.006C23.904 110.286 23.9507 110.543 24.044 110.776C24.1373 111.009 24.2633 111.215 24.422 111.392C24.5807 111.56 24.772 111.691 24.996 111.784C25.22 111.877 25.4627 111.924 25.724 111.924C25.9853 111.924 26.2233 111.877 26.438 111.784C26.662 111.691 26.8533 111.56 27.012 111.392C27.18 111.215 27.306 111.009 27.39 110.776C27.4833 110.543 27.53 110.286 27.53 110.006C27.53 109.726 27.4833 109.469 27.39 109.236C27.306 109.003 27.18 108.802 27.012 108.634C26.8533 108.466 26.662 108.335 26.438 108.242C26.2233 108.149 25.9853 108.102 25.724 108.102C25.4627 108.102 25.22 108.149 24.996 108.242C24.772 108.335 24.5807 108.466 24.422 108.634C24.2633 108.802 24.1373 109.003 24.044 109.236C23.9507 109.469 23.904 109.726 23.904 110.006ZM33.34 113.884V118.868H25.094V113.884H26.242V115.396H32.206V113.884H33.34ZM26.242 116.306V117.93H32.206V116.306H26.242ZM49.0558 119.05H47.9078V106.464H49.0558V119.05ZM40.6278 115.06C41.6544 115.06 42.6531 115.027 43.6238 114.962C44.6038 114.897 45.6398 114.78 46.7318 114.612L46.8438 115.55C46.2744 115.643 45.7238 115.723 45.1918 115.788C44.6691 115.844 44.1511 115.891 43.6378 115.928C43.1244 115.956 42.6111 115.979 42.0978 115.998C41.5844 116.007 41.0571 116.012 40.5158 116.012H39.4798V111.196H44.0998V108.578H39.4378V107.64H45.2618V112.134H40.6278V115.06ZM53.0587 112.316V106.968H54.1927V108.648H60.4227V106.968H61.5707V112.316H53.0587ZM54.1927 109.572V111.392H60.4227V109.572H54.1927ZM60.1287 114.752V119.036H58.9807V114.752H55.6347V119.036H54.4867V114.752H51.6167V113.814H63.0127V114.752H60.1287ZM78.1684 119.022H77.0064V111.994H74.8224V111.014H77.0064V106.478H78.1684V119.022ZM73.9824 110.412C73.9824 110.832 74.0104 111.275 74.0664 111.742C74.1318 112.199 74.2344 112.647 74.3744 113.086C74.5238 113.525 74.7244 113.94 74.9764 114.332C75.2284 114.724 75.5458 115.06 75.9284 115.34L75.2004 116.18C74.7431 115.835 74.3744 115.405 74.0944 114.892C73.8144 114.369 73.5951 113.8 73.4364 113.184C73.2964 113.809 73.0864 114.397 72.8064 114.948C72.5358 115.489 72.1624 115.937 71.6864 116.292C71.2104 115.937 70.8324 115.485 70.5524 114.934C70.2724 114.383 70.0671 113.8 69.9364 113.184C69.7778 113.772 69.5584 114.327 69.2784 114.85C69.0078 115.373 68.6484 115.807 68.2004 116.152L67.4584 115.34C67.8411 115.06 68.1538 114.724 68.3964 114.332C68.6484 113.931 68.8491 113.506 68.9984 113.058C69.1478 112.61 69.2504 112.157 69.3064 111.7C69.3624 111.243 69.3904 110.813 69.3904 110.412V107.584H70.4824V110.412C70.4824 110.729 70.4964 111.079 70.5244 111.462C70.5618 111.835 70.6224 112.218 70.7064 112.61C70.7904 113.002 70.9118 113.389 71.0704 113.772C71.2291 114.145 71.4344 114.491 71.6864 114.808C71.9384 114.5 72.1438 114.159 72.3024 113.786C72.4611 113.413 72.5824 113.035 72.6664 112.652C72.7504 112.26 72.8064 111.873 72.8344 111.49C72.8718 111.107 72.8904 110.748 72.8904 110.412V107.584H73.9824V110.412ZM91.8733 114.276H80.5053V113.338H85.6293V111.994H82.0173V106.982H83.1513V108.564H89.2553V106.982H90.3893V111.994H86.7773V113.338H91.8733V114.276ZM89.2553 111.07V109.46H83.1513V111.07H89.2553ZM90.6133 117.818V118.756H81.9753V115.284H83.1233V117.818H90.6133ZM106.861 113.996H105.713V110.692H103.263V109.754H105.713V106.478H106.861V113.996ZM103.361 113.506C102.661 113.254 102.05 112.881 101.527 112.386C101.004 111.891 100.603 111.317 100.323 110.664C100.052 111.392 99.6418 112.031 99.0911 112.582C98.5498 113.123 97.9104 113.529 97.1731 113.8L96.5711 112.89C97.0378 112.722 97.4624 112.498 97.8451 112.218C98.2371 111.938 98.5731 111.616 98.8531 111.252C99.1331 110.888 99.3478 110.496 99.4971 110.076C99.6558 109.656 99.7351 109.222 99.7351 108.774V108.27H96.9351V107.332H103.641V108.27H100.883V108.774C100.883 109.175 100.958 109.572 101.107 109.964C101.256 110.356 101.462 110.725 101.723 111.07C101.994 111.406 102.316 111.709 102.689 111.98C103.062 112.241 103.478 112.451 103.935 112.61L103.361 113.506ZM106.861 114.682V119.05H105.713V115.606H98.4751V114.682H106.861ZM122.871 119.036H121.723V112.456H118.783V111.518H121.723V106.492H122.871V119.036ZM118.811 107.836C118.811 108.732 118.713 109.6 118.517 110.44C118.321 111.271 117.999 112.059 117.551 112.806C117.103 113.553 116.52 114.253 115.801 114.906C115.082 115.55 114.2 116.129 113.155 116.642L112.525 115.746C113.365 115.335 114.093 114.878 114.709 114.374C115.334 113.87 115.857 113.324 116.277 112.736C116.697 112.148 117.019 111.523 117.243 110.86C117.467 110.197 117.607 109.497 117.663 108.76H113.085V107.836H118.811ZM135.652 119.064H134.504V106.478H135.652V119.064ZM129.492 107.402C129.986 107.402 130.439 107.477 130.85 107.626C131.26 107.766 131.61 107.967 131.9 108.228C132.198 108.48 132.432 108.788 132.6 109.152C132.768 109.516 132.852 109.917 132.852 110.356C132.852 110.795 132.768 111.196 132.6 111.56C132.432 111.924 132.198 112.237 131.9 112.498C131.61 112.75 131.26 112.951 130.85 113.1C130.439 113.24 129.986 113.31 129.492 113.31C129.006 113.31 128.558 113.24 128.148 113.1C127.737 112.951 127.382 112.75 127.084 112.498C126.785 112.237 126.552 111.924 126.384 111.56C126.216 111.196 126.132 110.795 126.132 110.356C126.132 109.917 126.216 109.516 126.384 109.152C126.552 108.788 126.785 108.48 127.084 108.228C127.382 107.967 127.737 107.766 128.148 107.626C128.558 107.477 129.006 107.402 129.492 107.402ZM129.492 108.382C129.165 108.382 128.862 108.429 128.582 108.522C128.311 108.615 128.078 108.751 127.882 108.928C127.686 109.105 127.532 109.315 127.42 109.558C127.308 109.791 127.252 110.057 127.252 110.356C127.252 110.645 127.308 110.911 127.42 111.154C127.532 111.397 127.686 111.607 127.882 111.784C128.078 111.952 128.311 112.087 128.582 112.19C128.862 112.283 129.165 112.33 129.492 112.33C129.818 112.33 130.117 112.283 130.388 112.19C130.668 112.087 130.906 111.952 131.102 111.784C131.298 111.607 131.452 111.397 131.564 111.154C131.676 110.911 131.732 110.645 131.732 110.356C131.732 110.057 131.676 109.791 131.564 109.558C131.452 109.315 131.298 109.105 131.102 108.928C130.906 108.751 130.668 108.615 130.388 108.522C130.117 108.429 129.818 108.382 129.492 108.382ZM125.502 115.34C126.08 115.34 126.701 115.335 127.364 115.326C128.026 115.317 128.708 115.298 129.408 115.27C130.117 115.242 130.831 115.2 131.55 115.144C132.278 115.088 132.987 115.009 133.678 114.906L133.776 115.76C133.066 115.891 132.348 115.993 131.62 116.068C130.901 116.143 130.192 116.199 129.492 116.236C128.801 116.264 128.129 116.283 127.476 116.292C126.822 116.301 126.211 116.306 125.642 116.306L125.502 115.34ZM148.05 110.37C147.994 110.734 147.877 111.07 147.7 111.378C147.522 111.677 147.294 111.933 147.014 112.148C146.743 112.363 146.426 112.531 146.062 112.652C145.698 112.764 145.296 112.82 144.858 112.82C144.391 112.82 143.957 112.75 143.556 112.61C143.164 112.47 142.823 112.274 142.534 112.022C142.254 111.761 142.03 111.453 141.862 111.098C141.703 110.743 141.624 110.351 141.624 109.922C141.624 109.493 141.703 109.101 141.862 108.746C142.03 108.391 142.254 108.088 142.534 107.836C142.823 107.584 143.164 107.388 143.556 107.248C143.957 107.108 144.391 107.038 144.858 107.038C145.278 107.038 145.67 107.094 146.034 107.206C146.398 107.318 146.72 107.481 147 107.696C147.28 107.901 147.508 108.153 147.686 108.452C147.872 108.741 147.994 109.068 148.05 109.432H150.612V106.492H151.774V113.128H150.612V110.37H148.05ZM144.858 111.868C145.166 111.868 145.45 111.821 145.712 111.728C145.982 111.625 146.211 111.49 146.398 111.322C146.584 111.145 146.729 110.939 146.832 110.706C146.944 110.463 147 110.202 147 109.922C147 109.642 146.944 109.385 146.832 109.152C146.729 108.909 146.584 108.704 146.398 108.536C146.211 108.359 145.982 108.223 145.712 108.13C145.45 108.037 145.166 107.99 144.858 107.99C144.55 107.99 144.26 108.037 143.99 108.13C143.728 108.223 143.504 108.359 143.318 108.536C143.131 108.704 142.982 108.909 142.87 109.152C142.767 109.385 142.716 109.642 142.716 109.922C142.716 110.202 142.767 110.463 142.87 110.706C142.982 110.939 143.131 111.145 143.318 111.322C143.504 111.49 143.728 111.625 143.99 111.728C144.26 111.821 144.55 111.868 144.858 111.868ZM150.766 114.822C150.766 115.158 150.812 115.489 150.906 115.816C151.008 116.143 151.153 116.451 151.34 116.74C151.536 117.029 151.774 117.295 152.054 117.538C152.343 117.771 152.674 117.963 153.048 118.112L152.474 118.98C151.904 118.737 151.428 118.415 151.046 118.014C150.672 117.613 150.392 117.146 150.206 116.614C150 117.127 149.711 117.589 149.338 118C148.974 118.411 148.512 118.737 147.952 118.98L147.364 118.112C147.737 117.953 148.064 117.753 148.344 117.51C148.633 117.267 148.871 117.001 149.058 116.712C149.254 116.423 149.398 116.115 149.492 115.788C149.594 115.461 149.646 115.139 149.646 114.822V113.758H150.766V114.822ZM147.21 113.842V118.868H142.856V113.842H143.934V115.424H146.146V113.842H147.21ZM143.934 116.278V117.972H146.146V116.278H143.934ZM155.832 111.196V106.94H156.98V110.258H164.372V111.196H155.832ZM165.674 113.8H154.292V112.876H165.674V113.8ZM164.442 117.79V118.728H155.748V115.06H156.896V117.79H164.442ZM177.839 119.036H176.747V106.478H177.839V119.036ZM175.305 106.786V118.406H174.227V112.218H171.525V111.266H174.227V106.786H175.305ZM168.781 115.06C169.22 115.06 169.626 115.055 169.999 115.046C170.373 115.037 170.727 115.023 171.063 115.004C171.399 114.976 171.726 114.939 172.043 114.892C172.361 114.845 172.678 114.785 172.995 114.71L173.107 115.648C172.753 115.723 172.403 115.783 172.057 115.83C171.721 115.877 171.367 115.914 170.993 115.942C170.629 115.97 170.242 115.989 169.831 115.998C169.421 116.007 168.963 116.012 168.459 116.012H167.647V108.018H172.365V108.942H168.781V115.06ZM181.38 116.222L180.526 119.05H179.602L180.106 116.222H181.38ZM196.193 119.064H195.045V111.574H191.195V110.622H195.045V106.478H196.193V119.064ZM187.681 115.06C188.615 115.051 189.515 115.009 190.383 114.934C191.261 114.859 192.166 114.729 193.099 114.542L193.253 115.522C192.255 115.709 191.298 115.839 190.383 115.914C189.469 115.989 188.512 116.026 187.513 116.026H186.533V107.878H187.681V115.06ZM200.168 112.064V107.178H208.652V112.064H200.168ZM201.288 108.102V111.154H207.518V108.102H201.288ZM204.956 114.71V119.022H203.808V114.71H198.712V113.772H210.108V114.71H204.956ZM215.338 110.104C215.889 110.057 216.416 109.969 216.92 109.838C217.424 109.698 217.872 109.53 218.264 109.334C218.656 109.129 218.978 108.895 219.23 108.634C219.482 108.363 219.627 108.074 219.664 107.766H215.786V106.87H225.054V107.766H221.176C221.213 108.074 221.353 108.363 221.596 108.634C221.848 108.895 222.17 109.129 222.562 109.334C222.954 109.539 223.402 109.707 223.906 109.838C224.41 109.969 224.937 110.057 225.488 110.104L225.124 110.972C224.592 110.925 224.079 110.841 223.584 110.72C223.099 110.589 222.646 110.426 222.226 110.23C221.815 110.034 221.451 109.805 221.134 109.544C220.826 109.273 220.588 108.979 220.42 108.662C220.252 108.979 220.009 109.273 219.692 109.544C219.384 109.805 219.02 110.034 218.6 110.23C218.189 110.426 217.737 110.589 217.242 110.72C216.757 110.841 216.248 110.925 215.716 110.972L215.338 110.104ZM226.104 112.61H214.736V111.686H219.832V110.202H220.98V111.686H226.104V112.61ZM225.04 114.29V115.172H215.786V114.29H219.846V113.114H220.994V114.29H225.04ZM220.406 115.788C221.657 115.788 222.599 115.928 223.234 116.208C223.869 116.488 224.186 116.908 224.186 117.468C224.186 118.009 223.869 118.415 223.234 118.686C222.599 118.966 221.657 119.106 220.406 119.106C219.155 119.106 218.213 118.966 217.578 118.686C216.953 118.415 216.64 118.009 216.64 117.468C216.64 116.908 216.953 116.488 217.578 116.208C218.213 115.928 219.155 115.788 220.406 115.788ZM220.406 118.322C221.255 118.322 221.899 118.247 222.338 118.098C222.786 117.958 223.01 117.748 223.01 117.468C223.01 117.169 222.786 116.95 222.338 116.81C221.899 116.67 221.255 116.6 220.406 116.6C219.557 116.6 218.913 116.67 218.474 116.81C218.035 116.95 217.816 117.169 217.816 117.468C217.816 117.748 218.035 117.958 218.474 118.098C218.913 118.247 219.557 118.322 220.406 118.322ZM237.275 112.456V119.036H236.127V106.492H237.275V111.49H239.347V112.456H237.275ZM230.961 107.444C231.428 107.444 231.852 107.547 232.235 107.752C232.618 107.957 232.949 108.251 233.229 108.634C233.509 109.017 233.724 109.479 233.873 110.02C234.032 110.552 234.111 111.154 234.111 111.826C234.111 112.498 234.032 113.105 233.873 113.646C233.724 114.178 233.509 114.635 233.229 115.018C232.949 115.401 232.618 115.695 232.235 115.9C231.852 116.105 231.428 116.208 230.961 116.208C230.494 116.208 230.065 116.105 229.673 115.9C229.29 115.695 228.959 115.401 228.679 115.018C228.399 114.635 228.18 114.178 228.021 113.646C227.872 113.105 227.797 112.498 227.797 111.826C227.797 111.154 227.872 110.552 228.021 110.02C228.18 109.479 228.399 109.017 228.679 108.634C228.959 108.251 229.29 107.957 229.673 107.752C230.065 107.547 230.494 107.444 230.961 107.444ZM230.961 115.186C231.26 115.186 231.535 115.107 231.787 114.948C232.039 114.789 232.254 114.565 232.431 114.276C232.618 113.977 232.762 113.623 232.865 113.212C232.968 112.801 233.019 112.339 233.019 111.826C233.019 111.322 232.968 110.865 232.865 110.454C232.762 110.034 232.618 109.679 232.431 109.39C232.254 109.101 232.039 108.877 231.787 108.718C231.535 108.559 231.26 108.48 230.961 108.48C230.653 108.48 230.373 108.559 230.121 108.718C229.869 108.877 229.65 109.101 229.463 109.39C229.286 109.679 229.146 110.034 229.043 110.454C228.94 110.865 228.889 111.322 228.889 111.826C228.889 112.339 228.94 112.801 229.043 113.212C229.146 113.623 229.286 113.977 229.463 114.276C229.65 114.565 229.869 114.789 230.121 114.948C230.373 115.107 230.653 115.186 230.961 115.186ZM251.89 117.426H240.48V116.474H243.28V113.086C242.748 112.815 242.333 112.461 242.034 112.022C241.745 111.574 241.6 111.065 241.6 110.496C241.6 110.011 241.712 109.572 241.936 109.18C242.16 108.779 242.473 108.438 242.874 108.158C243.285 107.878 243.77 107.663 244.33 107.514C244.89 107.355 245.501 107.276 246.164 107.276C246.836 107.276 247.447 107.355 247.998 107.514C248.558 107.663 249.039 107.878 249.44 108.158C249.851 108.438 250.168 108.779 250.392 109.18C250.616 109.572 250.728 110.011 250.728 110.496C250.728 111.065 250.583 111.569 250.294 112.008C250.014 112.447 249.608 112.801 249.076 113.072V116.474H251.89V117.426ZM246.164 108.172C245.66 108.172 245.193 108.228 244.764 108.34C244.344 108.452 243.98 108.611 243.672 108.816C243.373 109.012 243.135 109.255 242.958 109.544C242.79 109.824 242.706 110.141 242.706 110.496C242.706 110.841 242.79 111.159 242.958 111.448C243.135 111.737 243.373 111.985 243.672 112.19C243.98 112.386 244.344 112.54 244.764 112.652C245.193 112.764 245.66 112.82 246.164 112.82C246.668 112.82 247.13 112.764 247.55 112.652C247.979 112.54 248.348 112.386 248.656 112.19C248.964 111.985 249.202 111.737 249.37 111.448C249.547 111.159 249.636 110.841 249.636 110.496C249.636 110.141 249.547 109.824 249.37 109.544C249.202 109.255 248.964 109.012 248.656 108.816C248.348 108.611 247.979 108.452 247.55 108.34C247.13 108.228 246.668 108.172 246.164 108.172ZM247.928 116.474V113.52C247.303 113.651 246.715 113.716 246.164 113.716C245.856 113.716 245.557 113.702 245.268 113.674C244.979 113.637 244.699 113.585 244.428 113.52V116.474H247.928ZM255.333 107.514L255.123 115.494H254.241L254.031 107.514H255.333ZM254.045 118.182V116.866H255.319V118.182H254.045ZM33.046 140.05H31.898V127.492H33.046V140.05ZM26.858 133.232C26.3913 133.232 25.962 133.171 25.57 133.05C25.178 132.919 24.8373 132.742 24.548 132.518C24.268 132.294 24.0487 132.023 23.89 131.706C23.7313 131.389 23.652 131.039 23.652 130.656C23.652 130.273 23.7313 129.923 23.89 129.606C24.0487 129.289 24.268 129.018 24.548 128.794C24.8373 128.561 25.178 128.383 25.57 128.262C25.962 128.131 26.3913 128.066 26.858 128.066C27.3247 128.066 27.754 128.131 28.146 128.262C28.538 128.383 28.874 128.561 29.154 128.794C29.434 129.018 29.6533 129.289 29.812 129.606C29.9707 129.923 30.05 130.273 30.05 130.656C30.05 131.039 29.9707 131.389 29.812 131.706C29.6533 132.023 29.434 132.294 29.154 132.518C28.874 132.742 28.538 132.919 28.146 133.05C27.754 133.171 27.3247 133.232 26.858 133.232ZM26.858 129.018C26.55 129.018 26.2653 129.06 26.004 129.144C25.752 129.219 25.5327 129.331 25.346 129.48C25.1593 129.62 25.0147 129.793 24.912 129.998C24.8093 130.194 24.758 130.413 24.758 130.656C24.758 130.899 24.8093 131.123 24.912 131.328C25.0147 131.524 25.1593 131.697 25.346 131.846C25.5327 131.986 25.752 132.098 26.004 132.182C26.2653 132.257 26.55 132.294 26.858 132.294C27.474 132.294 27.9733 132.149 28.356 131.86C28.748 131.561 28.944 131.16 28.944 130.656C28.944 130.152 28.748 129.755 28.356 129.466C27.9733 129.167 27.474 129.018 26.858 129.018ZM31.086 134.702C29.8913 134.917 28.692 135.057 27.488 135.122V139.644H26.34V135.192C25.7147 135.22 25.1127 135.239 24.534 135.248C23.9553 135.257 23.4 135.262 22.868 135.262L22.714 134.296C23.302 134.296 23.932 134.291 24.604 134.282C25.2853 134.273 25.9807 134.254 26.69 134.226C27.4087 134.198 28.132 134.156 28.86 134.1C29.588 134.035 30.2973 133.951 30.988 133.848L31.086 134.702ZM45.1129 135.948V127.492H46.2189V135.948H45.1129ZM42.6909 127.702H43.7829V134.8H42.6909V131.706H40.8149V130.768H42.6909V127.702ZM41.2069 134.59C40.6189 134.347 40.1242 134.007 39.7229 133.568C39.3216 133.129 39.0136 132.639 38.7989 132.098C38.5842 132.714 38.2669 133.274 37.8469 133.778C37.4269 134.282 36.9089 134.674 36.2929 134.954L35.6769 134.072C36.0876 133.895 36.4516 133.666 36.7689 133.386C37.0862 133.097 37.3522 132.779 37.5669 132.434C37.7816 132.079 37.9449 131.711 38.0569 131.328C38.1689 130.936 38.2249 130.549 38.2249 130.166V129.466H35.9149V128.528H41.4869V129.466H39.3309V130.166C39.3309 130.511 39.3822 130.861 39.4849 131.216C39.5969 131.561 39.7556 131.893 39.9609 132.21C40.1756 132.518 40.4322 132.803 40.7309 133.064C41.0296 133.316 41.3749 133.521 41.7669 133.68L41.2069 134.59ZM42.6069 135.738C42.6069 136.149 42.7236 136.541 42.9569 136.914C43.1996 137.278 43.5169 137.609 43.9089 137.908C44.3009 138.197 44.7536 138.445 45.2669 138.65C45.7802 138.855 46.3122 139 46.8629 139.084L46.4289 139.98C45.9622 139.896 45.5049 139.775 45.0569 139.616C44.6089 139.457 44.1889 139.261 43.7969 139.028C43.4142 138.804 43.0689 138.547 42.7609 138.258C42.4622 137.969 42.2196 137.651 42.0329 137.306C41.8369 137.651 41.5849 137.969 41.2769 138.258C40.9782 138.547 40.6376 138.804 40.2549 139.028C39.8722 139.261 39.4569 139.457 39.0089 139.616C38.5702 139.775 38.1176 139.896 37.6509 139.98L37.2169 139.084C37.7676 139 38.2949 138.855 38.7989 138.65C39.3122 138.445 39.7649 138.197 40.1569 137.908C40.5489 137.609 40.8616 137.278 41.0949 136.914C41.3282 136.541 41.4449 136.149 41.4449 135.738V135.318H42.6069V135.738ZM58.3698 133.61V140.036H57.2218V127.478H58.3698V132.658H60.2318V133.61H58.3698ZM52.2658 128.836C52.2658 129.592 52.2191 130.343 52.1258 131.09C52.0418 131.827 51.8878 132.551 51.6638 133.26C51.4398 133.96 51.1411 134.646 50.7678 135.318C50.3945 135.981 49.9231 136.611 49.3538 137.208L48.4578 136.564C49.3911 135.584 50.0585 134.529 50.4598 133.4C50.8705 132.271 51.1085 131.067 51.1738 129.788H48.8638V128.836H52.2658ZM55.6958 128.836C55.6958 129.592 55.6585 130.371 55.5838 131.174C55.5185 131.967 55.3878 132.761 55.1918 133.554C54.9958 134.347 54.7158 135.127 54.3518 135.892C53.9971 136.648 53.5305 137.367 52.9518 138.048L52.0278 137.418C52.5225 136.858 52.9285 136.275 53.2458 135.668C53.5725 135.052 53.8291 134.422 54.0158 133.778C54.2118 133.125 54.3518 132.467 54.4358 131.804C54.5291 131.132 54.5898 130.46 54.6178 129.788H52.6858V128.836H55.6958ZM71.6547 140.036H70.5067V127.492H71.6547V140.036ZM65.8587 131.314C65.8587 131.846 65.9474 132.373 66.1247 132.896C66.3021 133.419 66.5401 133.909 66.8387 134.366C67.1467 134.814 67.5061 135.215 67.9167 135.57C68.3274 135.925 68.7614 136.2 69.2187 136.396L68.5747 137.32C68.2107 137.152 67.8607 136.937 67.5247 136.676C67.1981 136.415 66.8901 136.121 66.6007 135.794C66.3207 135.467 66.0687 135.108 65.8447 134.716C65.6207 134.324 65.4341 133.913 65.2847 133.484C65.1447 133.941 64.9627 134.38 64.7387 134.8C64.5147 135.22 64.2627 135.612 63.9827 135.976C63.7027 136.34 63.3994 136.662 63.0727 136.942C62.7461 137.222 62.4054 137.451 62.0507 137.628L61.3787 136.704C61.8267 136.489 62.2514 136.191 62.6527 135.808C63.0634 135.416 63.4181 134.982 63.7167 134.506C64.0247 134.021 64.2674 133.503 64.4447 132.952C64.6221 132.401 64.7107 131.855 64.7107 131.314V129.718H61.7987V128.766H68.8127V129.718H65.8587V131.314ZM87.0485 133.442V140.036H85.9005V127.478H87.0485V132.49H89.0645V133.442H87.0485ZM79.0265 135.892C79.9318 135.892 80.8512 135.85 81.7845 135.766C82.7272 135.682 83.7072 135.537 84.7245 135.332L84.8645 136.284C83.7912 136.499 82.7645 136.648 81.7845 136.732C80.8138 136.816 79.8478 136.858 78.8865 136.858H77.8925V128.696H79.0265V135.892ZM99.9274 133.624V140.036H98.7794V127.464H99.9274V132.658H101.915V133.624H99.9274ZM94.5934 136.284C95.1814 136.256 95.7554 136.223 96.3154 136.186C96.8847 136.139 97.4401 136.079 97.9814 136.004L98.0794 136.844C97.4167 136.956 96.7401 137.045 96.0494 137.11C95.3587 137.175 94.6774 137.227 94.0054 137.264C93.3427 137.292 92.6941 137.311 92.0594 137.32C91.4247 137.329 90.8321 137.334 90.2814 137.334L90.1274 136.368C90.6314 136.368 91.1634 136.368 91.7234 136.368C92.2834 136.359 92.8574 136.345 93.4454 136.326V134.156C93.0441 134.109 92.6707 134.007 92.3254 133.848C91.9894 133.68 91.7001 133.47 91.4574 133.218C91.2147 132.966 91.0234 132.672 90.8834 132.336C90.7527 132 90.6874 131.636 90.6874 131.244C90.6874 130.805 90.7667 130.404 90.9254 130.04C91.0934 129.676 91.3221 129.368 91.6114 129.116C91.9101 128.855 92.2647 128.654 92.6754 128.514C93.0861 128.365 93.5341 128.29 94.0194 128.29C94.4954 128.29 94.9341 128.365 95.3354 128.514C95.7461 128.654 96.0961 128.855 96.3854 129.116C96.6841 129.368 96.9174 129.676 97.0854 130.04C97.2534 130.404 97.3374 130.805 97.3374 131.244C97.3374 131.636 97.2674 132 97.1274 132.336C96.9967 132.663 96.8101 132.952 96.5674 133.204C96.3247 133.456 96.0354 133.666 95.6994 133.834C95.3634 133.993 94.9947 134.1 94.5934 134.156V136.284ZM91.8074 131.244C91.8074 131.841 92.0127 132.322 92.4234 132.686C92.8341 133.041 93.3661 133.218 94.0194 133.218C94.3461 133.218 94.6401 133.171 94.9014 133.078C95.1721 132.985 95.4054 132.854 95.6014 132.686C95.7974 132.509 95.9467 132.299 96.0494 132.056C96.1614 131.813 96.2174 131.543 96.2174 131.244C96.2174 130.945 96.1614 130.675 96.0494 130.432C95.9467 130.189 95.7974 129.984 95.6014 129.816C95.4054 129.639 95.1721 129.503 94.9014 129.41C94.6401 129.307 94.3461 129.256 94.0194 129.256C93.6927 129.256 93.3941 129.307 93.1234 129.41C92.8527 129.503 92.6194 129.639 92.4234 129.816C92.2274 129.984 92.0734 130.189 91.9614 130.432C91.8587 130.675 91.8074 130.945 91.8074 131.244ZM113.492 140.05H112.344V132.672H109.432V131.734H112.344V127.478H113.492V140.05ZM107.542 130.81C107.542 131.379 107.626 131.944 107.794 132.504C107.962 133.055 108.191 133.573 108.48 134.058C108.779 134.543 109.124 134.977 109.516 135.36C109.908 135.733 110.333 136.027 110.79 136.242L110.118 137.152C109.773 136.975 109.437 136.751 109.11 136.48C108.793 136.2 108.499 135.892 108.228 135.556C107.958 135.211 107.715 134.837 107.5 134.436C107.286 134.035 107.108 133.615 106.968 133.176C106.828 133.643 106.651 134.091 106.436 134.52C106.231 134.94 105.993 135.332 105.722 135.696C105.461 136.06 105.172 136.387 104.854 136.676C104.537 136.956 104.201 137.189 103.846 137.376L103.146 136.466C103.604 136.242 104.028 135.929 104.42 135.528C104.812 135.127 105.153 134.674 105.442 134.17C105.741 133.666 105.974 133.125 106.142 132.546C106.31 131.967 106.394 131.389 106.394 130.81V128.556H107.542V130.81ZM129.502 140.064H128.354V132.574H124.504V131.622H128.354V127.478H129.502V140.064ZM120.99 136.06C121.923 136.051 122.824 136.009 123.692 135.934C124.569 135.859 125.475 135.729 126.408 135.542L126.562 136.522C125.563 136.709 124.607 136.839 123.692 136.914C122.777 136.989 121.821 137.026 120.822 137.026H119.842V128.878H120.99V136.06ZM133.477 133.064V128.178H141.961V133.064H133.477ZM134.597 129.102V132.154H140.827V129.102H134.597ZM138.265 135.71V140.022H137.117V135.71H132.021V134.772H143.417V135.71H138.265ZM148.647 131.104C149.197 131.057 149.725 130.969 150.229 130.838C150.733 130.698 151.181 130.53 151.573 130.334C151.965 130.129 152.287 129.895 152.539 129.634C152.791 129.363 152.935 129.074 152.973 128.766H149.095V127.87H158.363V128.766H154.485C154.522 129.074 154.662 129.363 154.905 129.634C155.157 129.895 155.479 130.129 155.871 130.334C156.263 130.539 156.711 130.707 157.215 130.838C157.719 130.969 158.246 131.057 158.797 131.104L158.433 131.972C157.901 131.925 157.387 131.841 156.893 131.72C156.407 131.589 155.955 131.426 155.535 131.23C155.124 131.034 154.76 130.805 154.443 130.544C154.135 130.273 153.897 129.979 153.729 129.662C153.561 129.979 153.318 130.273 153.001 130.544C152.693 130.805 152.329 131.034 151.909 131.23C151.498 131.426 151.045 131.589 150.551 131.72C150.065 131.841 149.557 131.925 149.025 131.972L148.647 131.104ZM159.413 133.61H148.045V132.686H153.141V131.202H154.289V132.686H159.413V133.61ZM158.349 135.29V136.172H149.095V135.29H153.155V134.114H154.303V135.29H158.349ZM153.715 136.788C154.965 136.788 155.908 136.928 156.543 137.208C157.177 137.488 157.495 137.908 157.495 138.468C157.495 139.009 157.177 139.415 156.543 139.686C155.908 139.966 154.965 140.106 153.715 140.106C152.464 140.106 151.521 139.966 150.887 139.686C150.261 139.415 149.949 139.009 149.949 138.468C149.949 137.908 150.261 137.488 150.887 137.208C151.521 136.928 152.464 136.788 153.715 136.788ZM153.715 139.322C154.564 139.322 155.208 139.247 155.647 139.098C156.095 138.958 156.319 138.748 156.319 138.468C156.319 138.169 156.095 137.95 155.647 137.81C155.208 137.67 154.564 137.6 153.715 137.6C152.865 137.6 152.221 137.67 151.783 137.81C151.344 137.95 151.125 138.169 151.125 138.468C151.125 138.748 151.344 138.958 151.783 139.098C152.221 139.247 152.865 139.322 153.715 139.322ZM170.584 133.456V140.036H169.436V127.492H170.584V132.49H172.656V133.456H170.584ZM164.27 128.444C164.736 128.444 165.161 128.547 165.544 128.752C165.926 128.957 166.258 129.251 166.538 129.634C166.818 130.017 167.032 130.479 167.182 131.02C167.34 131.552 167.42 132.154 167.42 132.826C167.42 133.498 167.34 134.105 167.182 134.646C167.032 135.178 166.818 135.635 166.538 136.018C166.258 136.401 165.926 136.695 165.544 136.9C165.161 137.105 164.736 137.208 164.27 137.208C163.803 137.208 163.374 137.105 162.982 136.9C162.599 136.695 162.268 136.401 161.988 136.018C161.708 135.635 161.488 135.178 161.33 134.646C161.18 134.105 161.106 133.498 161.106 132.826C161.106 132.154 161.18 131.552 161.33 131.02C161.488 130.479 161.708 130.017 161.988 129.634C162.268 129.251 162.599 128.957 162.982 128.752C163.374 128.547 163.803 128.444 164.27 128.444ZM164.27 136.186C164.568 136.186 164.844 136.107 165.096 135.948C165.348 135.789 165.562 135.565 165.74 135.276C165.926 134.977 166.071 134.623 166.174 134.212C166.276 133.801 166.328 133.339 166.328 132.826C166.328 132.322 166.276 131.865 166.174 131.454C166.071 131.034 165.926 130.679 165.74 130.39C165.562 130.101 165.348 129.877 165.096 129.718C164.844 129.559 164.568 129.48 164.27 129.48C163.962 129.48 163.682 129.559 163.43 129.718C163.178 129.877 162.958 130.101 162.772 130.39C162.594 130.679 162.454 131.034 162.352 131.454C162.249 131.865 162.198 132.322 162.198 132.826C162.198 133.339 162.249 133.801 162.352 134.212C162.454 134.623 162.594 134.977 162.772 135.276C162.958 135.565 163.178 135.789 163.43 135.948C163.682 136.107 163.962 136.186 164.27 136.186ZM185.199 138.426H173.789V137.474H176.589V134.086C176.057 133.815 175.641 133.461 175.343 133.022C175.053 132.574 174.909 132.065 174.909 131.496C174.909 131.011 175.021 130.572 175.245 130.18C175.469 129.779 175.781 129.438 176.183 129.158C176.593 128.878 177.079 128.663 177.639 128.514C178.199 128.355 178.81 128.276 179.473 128.276C180.145 128.276 180.756 128.355 181.307 128.514C181.867 128.663 182.347 128.878 182.749 129.158C183.159 129.438 183.477 129.779 183.701 130.18C183.925 130.572 184.037 131.011 184.037 131.496C184.037 132.065 183.892 132.569 183.603 133.008C183.323 133.447 182.917 133.801 182.385 134.072V137.474H185.199V138.426ZM179.473 129.172C178.969 129.172 178.502 129.228 178.073 129.34C177.653 129.452 177.289 129.611 176.981 129.816C176.682 130.012 176.444 130.255 176.267 130.544C176.099 130.824 176.015 131.141 176.015 131.496C176.015 131.841 176.099 132.159 176.267 132.448C176.444 132.737 176.682 132.985 176.981 133.19C177.289 133.386 177.653 133.54 178.073 133.652C178.502 133.764 178.969 133.82 179.473 133.82C179.977 133.82 180.439 133.764 180.859 133.652C181.288 133.54 181.657 133.386 181.965 133.19C182.273 132.985 182.511 132.737 182.679 132.448C182.856 132.159 182.945 131.841 182.945 131.496C182.945 131.141 182.856 130.824 182.679 130.544C182.511 130.255 182.273 130.012 181.965 129.816C181.657 129.611 181.288 129.452 180.859 129.34C180.439 129.228 179.977 129.172 179.473 129.172ZM181.237 137.474V134.52C180.611 134.651 180.023 134.716 179.473 134.716C179.165 134.716 178.866 134.702 178.577 134.674C178.287 134.637 178.007 134.585 177.737 134.52V137.474H181.237ZM188.641 128.514L188.431 136.494H187.549L187.339 128.514H188.641ZM187.353 139.182V137.866H188.627V139.182H187.353ZM33.074 161.036H31.926V154.456H29.028V153.518H31.926V148.492H33.074V161.036ZM29.07 149.78C29.07 150.695 28.9813 151.586 28.804 152.454C28.6267 153.313 28.3187 154.134 27.88 154.918C27.4507 155.693 26.872 156.425 26.144 157.116C25.416 157.797 24.4967 158.418 23.386 158.978L22.742 158.068C23.89 157.508 24.8187 156.873 25.528 156.164C26.2373 155.455 26.788 154.68 27.18 153.84L22.994 154.232L22.784 153.238L27.53 152.93C27.6513 152.575 27.74 152.216 27.796 151.852C27.8613 151.488 27.908 151.11 27.936 150.718H23.428V149.78H29.07ZM36.6709 149.752V148.87H45.8829V149.752H43.9929V152.146H45.8409V153.028H36.7129V152.146H38.5749V149.752H36.6709ZM39.7229 149.752V152.146H42.8449V149.752H39.7229ZM46.9749 154.988H35.6069V154.078H46.9749V154.988ZM45.8969 160.028V160.896H37.0209V158.026H44.3849V156.948H36.9789V156.094H45.5189V158.852H38.1409V160.028H45.8969ZM49.9978 153.896V148.884H51.1318V150.48H57.2358V148.884H58.3698V153.896H49.9978ZM51.1318 151.362V152.986H57.2358V151.362H51.1318ZM59.8818 156.038H54.8418V158.474H53.6938V156.038H48.4718V155.114H59.8818V156.038ZM58.6078 159.818V160.756H49.9278V157.34H51.0618V159.818H58.6078ZM62.8907 152.706V148.898H71.2627V149.822H64.0387V151.782H71.3887V152.706H62.8907ZM72.7467 154.652H61.3787V153.714H72.7467V154.652ZM71.6547 159.986V160.882H62.7787V157.844H70.1427V156.64H62.7367V155.744H71.2767V158.698H63.8987V159.986H71.6547ZM74.2996 150.942V150.018H77.4216V148.492H78.5696V150.018H81.7056V150.942H74.2996ZM85.8636 153.588H84.0016V157.9H82.8536V148.492H84.0016V152.622H85.8636V153.588ZM81.0056 153.966C81.0056 154.321 80.931 154.643 80.7816 154.932C80.6416 155.221 80.4363 155.469 80.1656 155.674C79.9043 155.87 79.587 156.024 79.2136 156.136C78.8496 156.248 78.4436 156.304 77.9956 156.304C77.5476 156.304 77.1416 156.248 76.7776 156.136C76.4136 156.024 76.0963 155.87 75.8256 155.674C75.5643 155.469 75.359 155.221 75.2096 154.932C75.0696 154.643 74.9996 154.321 74.9996 153.966C74.9996 153.611 75.0696 153.294 75.2096 153.014C75.359 152.725 75.5643 152.482 75.8256 152.286C76.0963 152.081 76.4136 151.922 76.7776 151.81C77.1416 151.698 77.5476 151.642 77.9956 151.642C78.4436 151.642 78.8496 151.698 79.2136 151.81C79.587 151.922 79.9043 152.081 80.1656 152.286C80.4363 152.482 80.6416 152.725 80.7816 153.014C80.931 153.294 81.0056 153.611 81.0056 153.966ZM76.0916 153.966C76.0916 154.414 76.2596 154.769 76.5956 155.03C76.941 155.282 77.4076 155.408 77.9956 155.408C78.565 155.408 79.027 155.282 79.3816 155.03C79.7363 154.769 79.9136 154.414 79.9136 153.966C79.9136 153.518 79.7363 153.168 79.3816 152.916C79.027 152.664 78.565 152.538 77.9956 152.538C77.4076 152.538 76.941 152.664 76.5956 152.916C76.2596 153.168 76.0916 153.518 76.0916 153.966ZM84.5616 159.818V160.756H76.1896V157.158H77.3376V159.818H84.5616ZM97.7905 161.022H96.6985V148.464H97.7905V161.022ZM95.2565 148.786V160.392H94.1785V154.176H92.3585V153.238H94.1785V148.786H95.2565ZM88.7045 157.074C89.1432 157.074 89.5445 157.069 89.9085 157.06C90.2819 157.051 90.6319 157.037 90.9585 157.018C91.2945 156.99 91.6165 156.957 91.9245 156.92C92.2419 156.873 92.5639 156.817 92.8905 156.752L92.9885 157.69C92.6339 157.765 92.2885 157.825 91.9525 157.872C91.6165 157.909 91.2665 157.942 90.9025 157.97C90.5479 157.989 90.1652 158.003 89.7545 158.012C89.3532 158.012 88.9052 158.012 88.4105 158.012H87.5985V149.976H92.2745V150.914H88.7045V153.378H91.6865V154.288H88.7045V157.074ZM101.541 153.196V148.94H102.689V152.258H110.081V153.196H101.541ZM111.383 155.8H100.001V154.876H111.383V155.8ZM110.151 159.79V160.728H101.457V157.06H102.605V159.79H110.151ZM125.181 157.676V148.492H126.329V157.676H125.181ZM123.137 155.884C122.409 155.632 121.77 155.263 121.219 154.778C120.678 154.283 120.263 153.7 119.973 153.028C119.703 153.756 119.292 154.386 118.741 154.918C118.2 155.45 117.551 155.851 116.795 156.122L116.193 155.226C116.669 155.058 117.103 154.839 117.495 154.568C117.887 154.288 118.219 153.971 118.489 153.616C118.769 153.252 118.984 152.86 119.133 152.44C119.292 152.02 119.371 151.586 119.371 151.138V150.452H116.501V149.528H123.389V150.452H120.547V151.138C120.547 151.558 120.622 151.969 120.771 152.37C120.93 152.762 121.149 153.126 121.429 153.462C121.709 153.798 122.041 154.097 122.423 154.358C122.815 154.619 123.24 154.825 123.697 154.974L123.137 155.884ZM126.707 160.756H118.251V156.808H119.399V159.818H126.707V160.756ZM138.858 154.428V161.036H137.71V148.492H138.858V153.462H140.608V154.428H138.858ZM135.26 152.216C135.26 152.683 135.288 153.173 135.344 153.686C135.409 154.19 135.512 154.685 135.652 155.17C135.801 155.646 136.002 156.094 136.254 156.514C136.506 156.934 136.823 157.289 137.206 157.578L136.478 158.404C136.011 158.049 135.638 157.597 135.358 157.046C135.087 156.486 134.873 155.884 134.714 155.24C134.574 155.893 134.364 156.509 134.084 157.088C133.813 157.667 133.44 158.143 132.964 158.516C132.488 158.124 132.11 157.643 131.83 157.074C131.559 156.495 131.354 155.879 131.214 155.226C131.055 155.87 130.836 156.472 130.556 157.032C130.276 157.583 129.912 158.04 129.464 158.404L128.736 157.578C129.119 157.289 129.431 156.934 129.674 156.514C129.926 156.085 130.127 155.627 130.276 155.142C130.425 154.657 130.528 154.162 130.584 153.658C130.64 153.145 130.668 152.664 130.668 152.216V150.69H129.128V149.752H132.684V150.69H131.76V152.216C131.76 152.561 131.774 152.939 131.802 153.35C131.83 153.761 131.886 154.181 131.97 154.61C132.063 155.03 132.189 155.445 132.348 155.856C132.507 156.267 132.712 156.64 132.964 156.976C133.216 156.64 133.421 156.271 133.58 155.87C133.739 155.469 133.86 155.058 133.944 154.638C134.028 154.218 134.084 153.803 134.112 153.392C134.149 152.972 134.168 152.58 134.168 152.216V150.69H133.23V149.752H136.702V150.69H135.26V152.216ZM154.084 155.002V148.478H155.232V155.002H154.084ZM152.88 154.092C152.255 154.185 151.606 154.265 150.934 154.33C150.271 154.386 149.609 154.433 148.946 154.47C148.293 154.507 147.649 154.535 147.014 154.554C146.389 154.563 145.801 154.568 145.25 154.568L145.138 153.616H146.314C146.445 153.616 146.575 153.611 146.706 153.602V150.228H145.474V149.318H152.208V150.228H150.976V153.434C151.293 153.415 151.606 153.392 151.914 153.364C152.222 153.327 152.525 153.289 152.824 153.252L152.88 154.092ZM147.826 153.574C148.498 153.565 149.179 153.537 149.87 153.49V150.228H147.826V153.574ZM155.708 160.896H147.07V157.76H154.098V156.5H147.028V155.604H155.232V158.614H148.204V159.986H155.708V160.896ZM168.125 154.19C167.639 154.106 167.159 153.98 166.683 153.812C166.216 153.635 165.777 153.42 165.367 153.168C164.965 152.916 164.601 152.631 164.275 152.314C163.948 151.987 163.682 151.633 163.477 151.25C163.281 151.633 163.019 151.987 162.693 152.314C162.366 152.631 161.997 152.916 161.587 153.168C161.185 153.42 160.747 153.635 160.271 153.812C159.804 153.98 159.328 154.106 158.843 154.19L158.381 153.266C158.959 153.182 159.515 153.033 160.047 152.818C160.588 152.594 161.069 152.323 161.489 152.006C161.909 151.679 162.245 151.315 162.497 150.914C162.749 150.503 162.875 150.074 162.875 149.626V148.926H164.079V149.626C164.079 150.065 164.205 150.485 164.457 150.886C164.718 151.287 165.059 151.651 165.479 151.978C165.908 152.305 166.393 152.58 166.935 152.804C167.476 153.028 168.031 153.182 168.601 153.266L168.125 154.19ZM164.023 156.5V161.05H162.875V156.5H157.807V155.548H169.147L169.161 156.5H164.023ZM184.149 161.064H183.001V154.204H180.271C180.243 154.82 180.145 155.375 179.977 155.87C179.818 156.365 179.603 156.785 179.333 157.13C179.062 157.475 178.74 157.741 178.367 157.928C178.003 158.115 177.601 158.208 177.163 158.208C176.705 158.208 176.285 158.105 175.903 157.9C175.52 157.695 175.189 157.401 174.909 157.018C174.629 156.635 174.409 156.178 174.251 155.646C174.101 155.105 174.027 154.498 174.027 153.826C174.027 153.154 174.101 152.552 174.251 152.02C174.409 151.479 174.629 151.017 174.909 150.634C175.189 150.251 175.52 149.957 175.903 149.752C176.285 149.547 176.705 149.444 177.163 149.444C177.583 149.444 177.97 149.533 178.325 149.71C178.689 149.887 179.006 150.144 179.277 150.48C179.557 150.807 179.781 151.208 179.949 151.684C180.117 152.151 180.224 152.678 180.271 153.266H183.001V148.478H184.149V161.064ZM177.163 157.186C177.461 157.186 177.732 157.107 177.975 156.948C178.227 156.789 178.441 156.565 178.619 156.276C178.805 155.977 178.945 155.623 179.039 155.212C179.141 154.801 179.193 154.339 179.193 153.826C179.193 153.322 179.141 152.865 179.039 152.454C178.945 152.034 178.805 151.679 178.619 151.39C178.441 151.101 178.227 150.877 177.975 150.718C177.732 150.559 177.461 150.48 177.163 150.48C176.864 150.48 176.589 150.559 176.337 150.718C176.085 150.877 175.865 151.101 175.679 151.39C175.501 151.679 175.361 152.034 175.259 152.454C175.165 152.865 175.119 153.322 175.119 153.826C175.119 154.339 175.165 154.801 175.259 155.212C175.361 155.623 175.501 155.977 175.679 156.276C175.865 156.565 176.085 156.789 176.337 156.948C176.589 157.107 176.864 157.186 177.163 157.186ZM187.731 149.752V148.87H196.943V149.752H195.053V152.146H196.901V153.028H187.773V152.146H189.635V149.752H187.731ZM190.783 149.752V152.146H193.905V149.752H190.783ZM198.035 154.988H186.667V154.078H198.035V154.988ZM196.957 160.028V160.896H188.081V158.026H195.445V156.948H188.039V156.094H196.579V158.852H189.201V160.028H196.957ZM208.716 157.662V148.492H209.864V157.662H208.716ZM206.406 152.44C206.406 152.897 206.322 153.317 206.154 153.7C205.986 154.073 205.753 154.4 205.454 154.68C205.165 154.951 204.82 155.165 204.418 155.324C204.017 155.473 203.583 155.548 203.116 155.548C202.65 155.548 202.216 155.473 201.814 155.324C201.422 155.165 201.077 154.951 200.778 154.68C200.489 154.4 200.26 154.073 200.092 153.7C199.934 153.317 199.854 152.897 199.854 152.44C199.854 151.992 199.934 151.581 200.092 151.208C200.26 150.825 200.489 150.499 200.778 150.228C201.077 149.948 201.422 149.733 201.814 149.584C202.216 149.435 202.65 149.36 203.116 149.36C203.583 149.36 204.017 149.435 204.418 149.584C204.82 149.733 205.165 149.948 205.454 150.228C205.753 150.499 205.986 150.825 206.154 151.208C206.322 151.581 206.406 151.992 206.406 152.44ZM200.974 152.44C200.974 152.748 201.026 153.033 201.128 153.294C201.24 153.555 201.39 153.779 201.576 153.966C201.772 154.153 202.001 154.297 202.262 154.4C202.524 154.503 202.808 154.554 203.116 154.554C203.424 154.554 203.709 154.503 203.97 154.4C204.241 154.297 204.474 154.153 204.67 153.966C204.866 153.779 205.016 153.555 205.118 153.294C205.23 153.033 205.286 152.748 205.286 152.44C205.286 152.132 205.23 151.852 205.118 151.6C205.016 151.348 204.866 151.129 204.67 150.942C204.474 150.755 204.241 150.611 203.97 150.508C203.709 150.405 203.424 150.354 203.116 150.354C202.808 150.354 202.524 150.405 202.262 150.508C202.001 150.611 201.772 150.755 201.576 150.942C201.39 151.129 201.24 151.348 201.128 151.6C201.026 151.852 200.974 152.132 200.974 152.44ZM210.242 160.756H201.786V156.724H202.934V159.818H210.242V160.756ZM222.052 152.958V152.02H224.754V148.492H225.916V156.976H224.754V152.958H222.052ZM222.01 149.472C222.01 150.284 221.879 151.035 221.618 151.726C221.357 152.417 220.979 153.042 220.484 153.602C219.999 154.162 219.401 154.661 218.692 155.1C217.983 155.529 217.18 155.889 216.284 156.178L215.78 155.268C217.301 154.792 218.487 154.148 219.336 153.336C220.185 152.515 220.666 151.539 220.778 150.41H216.382V149.472H222.01ZM222.43 156.458C222.43 156.906 222.542 157.331 222.766 157.732C222.99 158.124 223.293 158.479 223.676 158.796C224.059 159.104 224.502 159.37 225.006 159.594C225.51 159.809 226.037 159.967 226.588 160.07L226.126 160.966C225.669 160.873 225.221 160.742 224.782 160.574C224.353 160.406 223.951 160.205 223.578 159.972C223.205 159.729 222.869 159.459 222.57 159.16C222.281 158.861 222.043 158.53 221.856 158.166C221.669 158.53 221.427 158.866 221.128 159.174C220.829 159.482 220.493 159.757 220.12 160C219.747 160.233 219.341 160.434 218.902 160.602C218.463 160.77 218.011 160.901 217.544 160.994L217.082 160.084C217.642 159.991 218.174 159.837 218.678 159.622C219.191 159.398 219.639 159.127 220.022 158.81C220.405 158.493 220.708 158.138 220.932 157.746C221.165 157.345 221.282 156.915 221.282 156.458V155.884H222.43V156.458ZM243.186 152.342H241.324V155.184H240.176V148.478H241.324V151.39H243.186V152.342ZM237.978 149.36C237.978 150.144 237.843 150.863 237.572 151.516C237.311 152.169 236.923 152.748 236.41 153.252C235.906 153.756 235.29 154.19 234.562 154.554C233.834 154.918 233.008 155.207 232.084 155.422L231.622 154.498C233.246 154.153 234.478 153.611 235.318 152.874C236.158 152.137 236.62 151.273 236.704 150.284H232.14V149.36H237.978ZM241.674 160V160.868H233.414V155.758H241.394V156.612H234.562V157.858H241.24V158.712H234.562V160H241.674ZM254.749 153.322C254.263 153.247 253.787 153.131 253.321 152.972C252.854 152.813 252.415 152.622 252.005 152.398C251.603 152.165 251.239 151.899 250.913 151.6C250.595 151.301 250.339 150.979 250.143 150.634C249.947 150.979 249.685 151.301 249.359 151.6C249.041 151.899 248.677 152.165 248.267 152.398C247.865 152.622 247.431 152.813 246.965 152.972C246.498 153.131 246.017 153.247 245.523 153.322L245.103 152.398C245.663 152.333 246.209 152.202 246.741 152.006C247.282 151.81 247.758 151.572 248.169 151.292C248.589 151.003 248.925 150.681 249.177 150.326C249.429 149.962 249.555 149.579 249.555 149.178V148.618H250.731V149.178C250.731 149.561 250.857 149.934 251.109 150.298C251.361 150.653 251.692 150.975 252.103 151.264C252.523 151.553 252.999 151.801 253.531 152.006C254.063 152.202 254.609 152.333 255.169 152.398L254.749 153.322ZM255.813 155.128H244.445V154.204H255.813V155.128ZM254.329 155.996V160.868H245.887V155.996H247.021V157.466H253.195V155.996H254.329ZM247.021 158.348V159.944H253.195V158.348H247.021ZM267.628 161.022H266.48V148.478H267.628V161.022ZM259.27 156.808C260.231 156.808 261.197 156.766 262.168 156.682C263.138 156.589 264.146 156.435 265.192 156.22L265.318 157.2C264.216 157.424 263.166 157.578 262.168 157.662C261.169 157.746 260.166 157.788 259.158 157.788H258.122V149.696H259.27V156.808ZM279.877 154.386V161.064H278.729V148.478H279.877V153.434H281.949V154.386H279.877ZM271.897 156.948C272.457 156.948 272.979 156.943 273.465 156.934C273.959 156.915 274.431 156.892 274.879 156.864C275.336 156.836 275.784 156.794 276.223 156.738C276.661 156.682 277.105 156.612 277.553 156.528L277.679 157.48C277.203 157.573 276.736 157.653 276.279 157.718C275.821 157.774 275.355 157.821 274.879 157.858C274.403 157.886 273.908 157.905 273.395 157.914C272.881 157.923 272.331 157.928 271.743 157.928H270.749V149.682H276.587V150.634H271.897V156.948ZM284.216 158.88V160.196H282.942V158.88H284.216ZM32.976 182.05H31.828V169.478H32.976V182.05ZM23.19 175.638C23.6567 175.498 24.0813 175.311 24.464 175.078C24.8467 174.835 25.1733 174.56 25.444 174.252C25.724 173.935 25.9387 173.589 26.088 173.216C26.2467 172.843 26.3307 172.451 26.34 172.04H23.484V171.116H26.34V169.576H27.488V171.116H30.386V172.04H27.488C27.4973 172.441 27.5813 172.824 27.74 173.188C27.8987 173.543 28.118 173.869 28.398 174.168C28.678 174.467 29.0093 174.733 29.392 174.966C29.784 175.19 30.2087 175.372 30.666 175.512L30.134 176.394C29.378 176.17 28.7247 175.829 28.174 175.372C27.6327 174.915 27.2173 174.373 26.928 173.748C26.6573 174.42 26.242 174.994 25.682 175.47C25.1313 175.937 24.478 176.291 23.722 176.534L23.19 175.638ZM27.488 178.396C28.076 178.359 28.6687 178.317 29.266 178.27C29.8633 178.223 30.442 178.153 31.002 178.06L31.1 178.914C30.4 179.045 29.686 179.147 28.958 179.222C28.23 179.297 27.516 179.353 26.816 179.39C26.116 179.418 25.4393 179.437 24.786 179.446C24.1327 179.455 23.526 179.46 22.966 179.46L22.812 178.494C23.344 178.494 23.904 178.494 24.492 178.494C25.08 178.485 25.696 178.471 26.34 178.452V176.114H27.488V178.396ZM36.8249 171.676V170.738H45.6309V171.984C45.6309 172.376 45.6262 172.782 45.6169 173.202C45.6169 173.613 45.6029 174.056 45.5749 174.532C45.5469 174.999 45.5002 175.503 45.4349 176.044C45.3696 176.576 45.2762 177.159 45.1549 177.794L44.0069 177.668C44.2496 176.473 44.3896 175.414 44.4269 174.49C44.4642 173.566 44.4829 172.731 44.4829 171.984V171.676H36.8249ZM46.9889 180.272H35.6349V179.334H40.0449V174.84H41.1929V179.334H46.9889V180.272ZM61.5567 174.224H53.2407V173.272H56.8247V171.578H57.9727V173.272H61.5567V174.224ZM57.3987 175.106C57.8467 175.106 58.2573 175.162 58.6307 175.274C59.0133 175.386 59.34 175.545 59.6107 175.75C59.8907 175.946 60.1053 176.189 60.2547 176.478C60.4133 176.758 60.4927 177.066 60.4927 177.402C60.4927 177.738 60.4133 178.051 60.2547 178.34C60.1053 178.62 59.8907 178.863 59.6107 179.068C59.34 179.264 59.0133 179.418 58.6307 179.53C58.2573 179.642 57.8467 179.698 57.3987 179.698C56.9507 179.698 56.54 179.642 56.1667 179.53C55.7933 179.418 55.4667 179.264 55.1867 179.068C54.916 178.863 54.7013 178.62 54.5427 178.34C54.3933 178.051 54.3187 177.738 54.3187 177.402C54.3187 177.066 54.3933 176.758 54.5427 176.478C54.7013 176.189 54.916 175.946 55.1867 175.75C55.4667 175.545 55.7933 175.386 56.1667 175.274C56.54 175.162 56.9507 175.106 57.3987 175.106ZM57.3987 178.732C57.6693 178.732 57.9213 178.699 58.1547 178.634C58.388 178.569 58.5887 178.48 58.7567 178.368C58.934 178.247 59.0693 178.107 59.1627 177.948C59.2653 177.78 59.3167 177.598 59.3167 177.402C59.3167 177.206 59.2653 177.029 59.1627 176.87C59.0693 176.702 58.934 176.562 58.7567 176.45C58.5887 176.329 58.388 176.235 58.1547 176.17C57.9213 176.105 57.6693 176.072 57.3987 176.072C57.128 176.072 56.876 176.105 56.6427 176.17C56.4093 176.235 56.2087 176.329 56.0407 176.45C55.8727 176.562 55.7373 176.702 55.6347 176.87C55.5413 177.029 55.4947 177.206 55.4947 177.402C55.4947 177.598 55.5413 177.78 55.6347 177.948C55.7373 178.107 55.8727 178.247 56.0407 178.368C56.2087 178.48 56.4093 178.569 56.6427 178.634C56.876 178.699 57.128 178.732 57.3987 178.732ZM74.4356 174.224H66.1196V173.272H69.7036V171.578H70.8516V173.272H74.4356V174.224ZM70.2776 175.106C70.7256 175.106 71.1362 175.162 71.5096 175.274C71.8922 175.386 72.2189 175.545 72.4896 175.75C72.7696 175.946 72.9842 176.189 73.1336 176.478C73.2922 176.758 73.3716 177.066 73.3716 177.402C73.3716 177.738 73.2922 178.051 73.1336 178.34C72.9842 178.62 72.7696 178.863 72.4896 179.068C72.2189 179.264 71.8922 179.418 71.5096 179.53C71.1362 179.642 70.7256 179.698 70.2776 179.698C69.8296 179.698 69.4189 179.642 69.0456 179.53C68.6722 179.418 68.3456 179.264 68.0656 179.068C67.7949 178.863 67.5802 178.62 67.4216 178.34C67.2722 178.051 67.1976 177.738 67.1976 177.402C67.1976 177.066 67.2722 176.758 67.4216 176.478C67.5802 176.189 67.7949 175.946 68.0656 175.75C68.3456 175.545 68.6722 175.386 69.0456 175.274C69.4189 175.162 69.8296 175.106 70.2776 175.106ZM70.2776 178.732C70.5482 178.732 70.8002 178.699 71.0336 178.634C71.2669 178.569 71.4676 178.48 71.6356 178.368C71.8129 178.247 71.9482 178.107 72.0416 177.948C72.1442 177.78 72.1956 177.598 72.1956 177.402C72.1956 177.206 72.1442 177.029 72.0416 176.87C71.9482 176.702 71.8129 176.562 71.6356 176.45C71.4676 176.329 71.2669 176.235 71.0336 176.17C70.8002 176.105 70.5482 176.072 70.2776 176.072C70.0069 176.072 69.7549 176.105 69.5216 176.17C69.2882 176.235 69.0876 176.329 68.9196 176.45C68.7516 176.562 68.6162 176.702 68.5136 176.87C68.4202 177.029 68.3736 177.206 68.3736 177.402C68.3736 177.598 68.4202 177.78 68.5136 177.948C68.6162 178.107 68.7516 178.247 68.9196 178.368C69.0876 178.48 69.2882 178.569 69.5216 178.634C69.7549 178.699 70.0069 178.732 70.2776 178.732Z" fill="white"/>
</svg>
