<svg width="320" height="190" viewBox="0 0 320 190" fill="none" xmlns="http://www.w3.org/2000/svg">
<rect width="320" height="190" rx="16" fill="#36312B"/>
<path d="M38.002 36.134H35.914V41.624H33.538V28.97H35.914V34.172H38.002V36.134ZM32.818 38.78C31.978 38.936 31.12 39.062 30.244 39.158C29.38 39.242 28.522 39.308 27.67 39.356C26.83 39.404 26.014 39.434 25.222 39.446C24.43 39.458 23.692 39.464 23.008 39.464L22.72 37.574H24.556C25.192 37.574 25.852 37.562 26.536 37.538V36.26C25.636 36.068 24.916 35.684 24.376 35.108C23.848 34.532 23.584 33.83 23.584 33.002C23.584 32.51 23.686 32.06 23.89 31.652C24.094 31.232 24.376 30.878 24.736 30.59C25.108 30.29 25.546 30.056 26.05 29.888C26.554 29.72 27.106 29.636 27.706 29.636C28.306 29.636 28.858 29.72 29.362 29.888C29.878 30.056 30.316 30.29 30.676 30.59C31.048 30.878 31.336 31.232 31.54 31.652C31.744 32.06 31.846 32.51 31.846 33.002C31.846 33.83 31.582 34.532 31.054 35.108C30.526 35.672 29.812 36.056 28.912 36.26V37.448C29.56 37.412 30.196 37.37 30.82 37.322C31.444 37.274 32.062 37.202 32.674 37.106L32.818 38.78ZM25.798 33.002C25.798 33.506 25.972 33.896 26.32 34.172C26.668 34.448 27.13 34.586 27.706 34.586C28.282 34.586 28.75 34.448 29.11 34.172C29.47 33.896 29.65 33.506 29.65 33.002C29.65 32.498 29.47 32.108 29.11 31.832C28.75 31.556 28.282 31.418 27.706 31.418C27.13 31.418 26.668 31.556 26.32 31.832C25.972 32.108 25.798 32.498 25.798 33.002ZM36.472 43.37V45.26H24.88V40.544H27.256V43.37H36.472ZM53.1926 38.852H50.8166V36.692H47.8646V38.132H40.0346V29.942H42.3926V32.264H45.5426V29.942H47.8646V31.4H50.8166V28.988H53.1926V38.852ZM50.8166 33.29H47.8646V34.802H50.8166V33.29ZM42.3926 34.082V36.224H45.5426V34.082H42.3926ZM53.1926 39.608V45.566H50.8166V41.48H41.9066V39.608H53.1926ZM55.8912 32.57V30.716H59.5632V28.952H61.9572V30.716H65.6652L65.6472 32.57H55.8912ZM71.1372 35.99H68.9412V41.372H66.5652V28.97H68.9412V34.028H71.1372V35.99ZM64.8372 36.35C64.8372 36.83 64.7352 37.268 64.5312 37.664C64.3272 38.048 64.0452 38.384 63.6852 38.672C63.3252 38.948 62.8932 39.164 62.3892 39.32C61.8972 39.476 61.3572 39.554 60.7692 39.554C60.1692 39.554 59.6172 39.476 59.1132 39.32C58.6212 39.164 58.1952 38.948 57.8352 38.672C57.4752 38.384 57.1932 38.048 56.9892 37.664C56.7972 37.268 56.7012 36.83 56.7012 36.35C56.7012 35.882 56.7972 35.456 56.9892 35.072C57.1932 34.676 57.4752 34.34 57.8352 34.064C58.1952 33.776 58.6212 33.554 59.1132 33.398C59.6172 33.242 60.1692 33.164 60.7692 33.164C61.3572 33.164 61.8972 33.242 62.3892 33.398C62.8932 33.554 63.3252 33.776 63.6852 34.064C64.0452 34.34 64.3272 34.676 64.5312 35.072C64.7352 35.456 64.8372 35.882 64.8372 36.35ZM58.9692 36.35C58.9692 36.806 59.1312 37.154 59.4552 37.394C59.7912 37.634 60.2292 37.754 60.7692 37.754C61.3092 37.754 61.7412 37.634 62.0652 37.394C62.4012 37.154 62.5692 36.806 62.5692 36.35C62.5692 35.894 62.4012 35.552 62.0652 35.324C61.7412 35.084 61.3092 34.964 60.7692 34.964C60.2292 34.964 59.7912 35.084 59.4552 35.324C59.1312 35.552 58.9692 35.894 58.9692 36.35ZM69.5352 43.37V45.26H58.2492V40.454H60.6252V43.37H69.5352ZM84.5019 32.84C83.9979 34.076 83.1759 35.09 82.0359 35.882C80.9079 36.674 79.4019 37.268 77.5179 37.664L76.7259 35.756C77.6619 35.576 78.4719 35.342 79.1559 35.054C79.8519 34.766 80.4339 34.442 80.9019 34.082C81.3699 33.71 81.7299 33.308 81.9819 32.876C82.2339 32.432 82.3959 31.97 82.4679 31.49H77.6799V29.6H85.0779C85.0779 30.104 85.0419 30.59 84.9699 31.058H88.0119V28.97H90.3879V37.286H88.0119V36.044H84.3399V34.262H88.0119V32.84H84.5019ZM90.7299 45.386H79.4799V40.706H88.0119V39.77H79.4619V37.898H90.3879V42.47H81.8559V43.514H90.7299V45.386ZM93.8065 32.102V30.32H99.3865V28.898H101.763V30.32H107.307V32.102H93.8065ZM108.081 40.364H93.0685V38.528H99.3865V37.574C97.9705 37.478 96.8905 37.22 96.1465 36.8C95.4025 36.38 95.0305 35.81 95.0305 35.09C95.0305 34.262 95.4925 33.638 96.4165 33.218C97.3525 32.786 98.7385 32.57 100.575 32.57C102.423 32.57 103.809 32.786 104.733 33.218C105.669 33.638 106.137 34.262 106.137 35.09C106.137 35.81 105.759 36.38 105.003 36.8C104.259 37.22 103.179 37.478 101.763 37.574V38.528H108.081V40.364ZM97.4605 35.09C97.4605 35.39 97.7065 35.612 98.1985 35.756C98.6905 35.888 99.4825 35.954 100.575 35.954C101.667 35.954 102.459 35.888 102.951 35.756C103.455 35.612 103.707 35.39 103.707 35.09C103.707 34.778 103.455 34.556 102.951 34.424C102.459 34.292 101.667 34.226 100.575 34.226C99.4825 34.226 98.6905 34.292 98.1985 34.424C97.7065 34.556 97.4605 34.778 97.4605 35.09ZM106.407 43.424V45.26H94.9045V41.156H97.2805V43.424H106.407ZM117.133 34.856C115.165 34.856 113.671 34.622 112.651 34.154C111.643 33.674 111.139 32.966 111.139 32.03C111.139 31.118 111.643 30.422 112.651 29.942C113.671 29.45 115.165 29.204 117.133 29.204C119.113 29.204 120.607 29.45 121.615 29.942C122.635 30.422 123.145 31.118 123.145 32.03C123.145 32.966 122.635 33.674 121.615 34.154C120.607 34.622 119.113 34.856 117.133 34.856ZM117.133 30.95C115.933 30.95 115.045 31.04 114.469 31.22C113.893 31.388 113.605 31.658 113.605 32.03C113.605 32.414 113.893 32.696 114.469 32.876C115.045 33.044 115.933 33.128 117.133 33.128C118.369 33.128 119.269 33.044 119.833 32.876C120.397 32.696 120.679 32.414 120.679 32.03C120.679 31.658 120.397 31.388 119.833 31.22C119.269 31.04 118.369 30.95 117.133 30.95ZM124.621 37.502H109.645V35.648H124.621V37.502ZM123.235 43.64V45.422H111.373V41.066H120.463V40.184H111.355V38.438H122.803V42.704H113.731V43.64H123.235ZM144.16 45.53H141.784V28.97H144.16V45.53ZM135.664 36.71C135.04 36.71 134.458 36.626 133.918 36.458C133.39 36.278 132.934 36.032 132.55 35.72C132.166 35.408 131.86 35.036 131.632 34.604C131.416 34.172 131.308 33.698 131.308 33.182C131.308 32.654 131.416 32.174 131.632 31.742C131.86 31.31 132.166 30.938 132.55 30.626C132.934 30.314 133.39 30.074 133.918 29.906C134.458 29.726 135.04 29.636 135.664 29.636C136.288 29.636 136.864 29.726 137.392 29.906C137.92 30.074 138.376 30.314 138.76 30.626C139.156 30.938 139.462 31.31 139.678 31.742C139.894 32.174 140.002 32.654 140.002 33.182C140.002 33.698 139.894 34.172 139.678 34.604C139.462 35.036 139.156 35.408 138.76 35.72C138.376 36.032 137.92 36.278 137.392 36.458C136.864 36.626 136.288 36.71 135.664 36.71ZM135.664 31.562C135.052 31.562 134.554 31.7 134.17 31.976C133.786 32.24 133.594 32.642 133.594 33.182C133.594 33.686 133.786 34.076 134.17 34.352C134.554 34.628 135.052 34.766 135.664 34.766C136.276 34.766 136.774 34.628 137.158 34.352C137.542 34.076 137.734 33.686 137.734 33.182C137.734 32.642 137.542 32.24 137.158 31.976C136.774 31.7 136.276 31.562 135.664 31.562ZM140.992 38.852C140.308 38.984 139.63 39.098 138.958 39.194C138.286 39.278 137.608 39.35 136.924 39.41V45.044H134.548V39.554C133.828 39.578 133.138 39.596 132.478 39.608C131.818 39.62 131.194 39.626 130.606 39.626L130.336 37.682C131.056 37.682 131.842 37.676 132.694 37.664C133.558 37.652 134.446 37.628 135.358 37.592C136.27 37.556 137.194 37.502 138.13 37.43C139.066 37.358 139.972 37.256 140.848 37.124L140.992 38.852ZM146.84 32.57V30.716H150.512V28.952H152.906V30.716H156.614L156.596 32.57H146.84ZM162.086 35.99H159.89V41.372H157.514V28.97H159.89V34.028H162.086V35.99ZM155.786 36.35C155.786 36.83 155.684 37.268 155.48 37.664C155.276 38.048 154.994 38.384 154.634 38.672C154.274 38.948 153.842 39.164 153.338 39.32C152.846 39.476 152.306 39.554 151.718 39.554C151.118 39.554 150.566 39.476 150.062 39.32C149.57 39.164 149.144 38.948 148.784 38.672C148.424 38.384 148.142 38.048 147.938 37.664C147.746 37.268 147.65 36.83 147.65 36.35C147.65 35.882 147.746 35.456 147.938 35.072C148.142 34.676 148.424 34.34 148.784 34.064C149.144 33.776 149.57 33.554 150.062 33.398C150.566 33.242 151.118 33.164 151.718 33.164C152.306 33.164 152.846 33.242 153.338 33.398C153.842 33.554 154.274 33.776 154.634 34.064C154.994 34.34 155.276 34.676 155.48 35.072C155.684 35.456 155.786 35.882 155.786 36.35ZM149.918 36.35C149.918 36.806 150.08 37.154 150.404 37.394C150.74 37.634 151.178 37.754 151.718 37.754C152.258 37.754 152.69 37.634 153.014 37.394C153.35 37.154 153.518 36.806 153.518 36.35C153.518 35.894 153.35 35.552 153.014 35.324C152.69 35.084 152.258 34.964 151.718 34.964C151.178 34.964 150.74 35.084 150.404 35.324C150.08 35.552 149.918 35.894 149.918 36.35ZM160.484 43.37V45.26H149.198V40.454H151.574V43.37H160.484ZM178.853 37.268V28.97H181.247V37.268H178.853ZM176.567 33.236C176.567 33.788 176.453 34.298 176.225 34.766C176.009 35.234 175.703 35.636 175.307 35.972C174.911 36.308 174.443 36.572 173.903 36.764C173.375 36.944 172.793 37.034 172.157 37.034C171.533 37.034 170.945 36.944 170.393 36.764C169.853 36.572 169.385 36.308 168.989 35.972C168.593 35.636 168.281 35.234 168.053 34.766C167.825 34.298 167.711 33.788 167.711 33.236C167.711 32.684 167.825 32.18 168.053 31.724C168.281 31.256 168.593 30.854 168.989 30.518C169.385 30.182 169.853 29.924 170.393 29.744C170.945 29.552 171.533 29.456 172.157 29.456C172.793 29.456 173.375 29.552 173.903 29.744C174.443 29.924 174.911 30.182 175.307 30.518C175.703 30.854 176.009 31.256 176.225 31.724C176.453 32.18 176.567 32.684 176.567 33.236ZM170.015 33.236C170.015 33.848 170.219 34.316 170.627 34.64C171.035 34.952 171.545 35.108 172.157 35.108C172.769 35.108 173.273 34.952 173.669 34.64C174.065 34.316 174.263 33.848 174.263 33.236C174.263 32.648 174.065 32.192 173.669 31.868C173.273 31.532 172.769 31.364 172.157 31.364C171.545 31.364 171.035 31.532 170.627 31.868C170.219 32.192 170.015 32.648 170.015 33.236ZM181.661 45.368H170.213V40.778H178.889V39.77H170.195V37.952H181.247V42.47H172.571V43.514H181.661V45.368ZM195.52 28.97H197.896V38.834H195.52V34.892H193.036V32.966H195.52V28.97ZM192.874 38.384C191.974 38.084 191.212 37.658 190.588 37.106C189.964 36.542 189.472 35.894 189.112 35.162C188.752 36.002 188.242 36.746 187.582 37.394C186.934 38.03 186.124 38.51 185.152 38.834L183.946 36.962C184.606 36.734 185.176 36.44 185.656 36.08C186.136 35.708 186.532 35.3 186.844 34.856C187.168 34.4 187.408 33.92 187.564 33.416C187.732 32.9 187.828 32.384 187.852 31.868H184.594V29.96H193.504V31.868H190.282C190.294 32.336 190.378 32.804 190.534 33.272C190.69 33.74 190.918 34.184 191.218 34.604C191.53 35.012 191.92 35.384 192.388 35.72C192.856 36.056 193.402 36.326 194.026 36.53L192.874 38.384ZM192.298 39.194C193.174 39.194 193.96 39.266 194.656 39.41C195.364 39.554 195.958 39.764 196.438 40.04C196.93 40.304 197.308 40.634 197.572 41.03C197.836 41.426 197.968 41.876 197.968 42.38C197.968 42.884 197.836 43.334 197.572 43.73C197.308 44.126 196.93 44.456 196.438 44.72C195.958 44.996 195.364 45.206 194.656 45.35C193.96 45.494 193.174 45.566 192.298 45.566C191.422 45.566 190.63 45.494 189.922 45.35C189.214 45.206 188.614 44.996 188.122 44.72C187.642 44.456 187.27 44.126 187.006 43.73C186.742 43.334 186.61 42.884 186.61 42.38C186.61 41.876 186.742 41.426 187.006 41.03C187.27 40.634 187.642 40.304 188.122 40.04C188.614 39.764 189.214 39.554 189.922 39.41C190.63 39.266 191.422 39.194 192.298 39.194ZM192.298 43.766C194.494 43.766 195.592 43.304 195.592 42.38C195.592 41.456 194.494 40.994 192.298 40.994C190.09 40.994 188.986 41.456 188.986 42.38C188.986 43.304 190.09 43.766 192.298 43.766ZM210.98 35.27C211.172 34.514 211.292 33.848 211.34 33.272C211.388 32.696 211.412 32.132 211.412 31.58H202.304V29.708H213.788V31.076C213.788 31.736 213.764 32.426 213.716 33.146C213.68 33.854 213.548 34.64 213.32 35.504L210.98 35.27ZM215.552 38.258H200.63V36.386H206.156V33.488H208.532V36.386H215.552V38.258ZM207.992 39.302C208.892 39.302 209.702 39.374 210.422 39.518C211.142 39.662 211.76 39.872 212.276 40.148C212.792 40.412 213.188 40.736 213.464 41.12C213.74 41.504 213.878 41.942 213.878 42.434C213.878 42.914 213.74 43.346 213.464 43.73C213.188 44.114 212.792 44.438 212.276 44.702C211.76 44.978 211.142 45.188 210.422 45.332C209.702 45.476 208.892 45.548 207.992 45.548C207.104 45.548 206.294 45.476 205.562 45.332C204.842 45.188 204.224 44.978 203.708 44.702C203.204 44.438 202.814 44.114 202.538 43.73C202.262 43.346 202.124 42.914 202.124 42.434C202.124 41.942 202.262 41.504 202.538 41.12C202.814 40.736 203.204 40.412 203.708 40.148C204.224 39.872 204.842 39.662 205.562 39.518C206.294 39.374 207.104 39.302 207.992 39.302ZM207.992 43.766C209.12 43.766 209.99 43.658 210.602 43.442C211.214 43.214 211.52 42.878 211.52 42.434C211.52 41.978 211.214 41.642 210.602 41.426C209.99 41.198 209.12 41.084 207.992 41.084C206.864 41.084 205.994 41.198 205.382 41.426C204.782 41.642 204.482 41.978 204.482 42.434C204.482 42.878 204.782 43.214 205.382 43.442C205.994 43.658 206.864 43.766 207.992 43.766ZM224.623 36.944C223.747 36.944 222.937 36.86 222.193 36.692C221.461 36.512 220.831 36.26 220.303 35.936C219.775 35.612 219.361 35.222 219.061 34.766C218.773 34.31 218.629 33.8 218.629 33.236C218.629 32.672 218.773 32.162 219.061 31.706C219.361 31.25 219.775 30.86 220.303 30.536C220.831 30.212 221.461 29.966 222.193 29.798C222.937 29.618 223.747 29.528 224.623 29.528C225.511 29.528 226.321 29.618 227.053 29.798C227.785 29.966 228.415 30.212 228.943 30.536C229.471 30.86 229.879 31.25 230.167 31.706C230.467 32.162 230.617 32.672 230.617 33.236C230.617 33.8 230.467 34.31 230.167 34.766C229.879 35.222 229.471 35.612 228.943 35.936C228.415 36.26 227.785 36.512 227.053 36.692C226.321 36.86 225.511 36.944 224.623 36.944ZM224.623 31.418C223.531 31.418 222.661 31.574 222.013 31.886C221.377 32.198 221.059 32.648 221.059 33.236C221.059 33.848 221.377 34.304 222.013 34.604C222.661 34.904 223.531 35.054 224.623 35.054C225.715 35.054 226.579 34.904 227.215 34.604C227.851 34.304 228.169 33.848 228.169 33.236C228.169 32.648 227.851 32.198 227.215 31.886C226.579 31.574 225.715 31.418 224.623 31.418ZM228.691 40.112V45.53H226.279V40.112H222.949V45.53H220.555V40.112H217.153V38.186H232.165V40.112H228.691ZM251.92 37.988H249.67V34.352H248.374V37.88H246.16V29.294H248.374V32.426H249.67V28.988H251.92V37.988ZM245.422 33.704C245.422 34.268 245.326 34.79 245.134 35.27C244.954 35.738 244.696 36.146 244.36 36.494C244.024 36.83 243.622 37.094 243.154 37.286C242.698 37.478 242.188 37.574 241.624 37.574C241.072 37.574 240.562 37.478 240.094 37.286C239.638 37.094 239.242 36.83 238.906 36.494C238.57 36.146 238.306 35.738 238.114 35.27C237.934 34.79 237.844 34.268 237.844 33.704C237.844 33.14 237.934 32.624 238.114 32.156C238.306 31.688 238.57 31.286 238.906 30.95C239.242 30.602 239.638 30.338 240.094 30.158C240.562 29.966 241.072 29.87 241.624 29.87C242.188 29.87 242.698 29.966 243.154 30.158C243.622 30.338 244.024 30.602 244.36 30.95C244.696 31.286 244.954 31.688 245.134 32.156C245.326 32.624 245.422 33.14 245.422 33.704ZM239.986 33.704C239.986 34.328 240.136 34.808 240.436 35.144C240.748 35.48 241.144 35.648 241.624 35.648C242.128 35.648 242.53 35.48 242.83 35.144C243.142 34.808 243.298 34.328 243.298 33.704C243.298 33.092 243.142 32.624 242.83 32.3C242.53 31.964 242.128 31.796 241.624 31.796C241.144 31.796 240.748 31.964 240.436 32.3C240.136 32.624 239.986 33.092 239.986 33.704ZM251.92 38.672V45.35H240.652V38.672H243.01V40.166H249.58V38.672H251.92ZM243.01 42.002V43.46H249.58V42.002H243.01ZM256.04 40.184L255.662 32.822L255.572 30.32H258.236L258.146 32.822L257.768 40.184H256.04ZM255.608 44.252V41.696H258.236V44.252H255.608Z" fill="white"/>
<path d="M40.3039 75.9718L36.7882 79.0054L37.8593 83.5421C37.9184 83.7884 37.9032 84.0466 37.8156 84.2843C37.728 84.5219 37.5719 84.7282 37.3671 84.8772C37.1623 85.0262 36.9179 85.1111 36.6648 85.1213C36.4118 85.1314 36.1614 85.0663 35.9453 84.9343L32 82.5061L28.0523 84.9343C27.8362 85.0656 27.5861 85.13 27.3335 85.1195C27.0809 85.109 26.837 85.0239 26.6326 84.8751C26.4282 84.7262 26.2724 84.5202 26.1849 84.283C26.0973 84.0458 26.0819 83.788 26.1406 83.5421L27.2156 79.0054L23.7 75.9718C23.5088 75.8065 23.3705 75.5887 23.3024 75.3453C23.2344 75.102 23.2395 74.844 23.3172 74.6035C23.3948 74.3631 23.5416 74.1509 23.7392 73.9933C23.9368 73.8358 24.1764 73.74 24.4281 73.7179L29.0375 73.346L30.8156 69.0429C30.9118 68.8083 31.0756 68.6077 31.2862 68.4666C31.4967 68.3254 31.7445 68.25 31.998 68.25C32.2515 68.25 32.4993 68.3254 32.7098 68.4666C32.9204 68.6077 33.0842 68.8083 33.1804 69.0429L34.9578 73.346L39.5671 73.7179C39.8193 73.7392 40.0596 73.8345 40.2579 73.9918C40.4562 74.1491 40.6037 74.3614 40.6819 74.6021C40.76 74.8429 40.7654 75.1013 40.6973 75.3451C40.6292 75.5889 40.4907 75.8071 40.2992 75.9725L40.3039 75.9718Z" fill="#FE8207"/>
<path d="M60.3039 75.9718L56.7882 79.0054L57.8593 83.5421C57.9184 83.7884 57.9032 84.0466 57.8156 84.2843C57.728 84.5219 57.5719 84.7282 57.3671 84.8772C57.1623 85.0262 56.9179 85.1111 56.6648 85.1213C56.4118 85.1314 56.1614 85.0663 55.9453 84.9343L52 82.5061L48.0523 84.9343C47.8362 85.0656 47.5861 85.13 47.3335 85.1195C47.0809 85.109 46.837 85.0239 46.6326 84.8751C46.4282 84.7262 46.2724 84.5202 46.1849 84.283C46.0973 84.0458 46.0819 83.788 46.1406 83.5421L47.2156 79.0054L43.7 75.9718C43.5088 75.8065 43.3705 75.5887 43.3024 75.3453C43.2344 75.102 43.2395 74.844 43.3172 74.6035C43.3948 74.3631 43.5416 74.1509 43.7392 73.9933C43.9368 73.8358 44.1764 73.74 44.4281 73.7179L49.0375 73.346L50.8156 69.0429C50.9118 68.8083 51.0756 68.6077 51.2862 68.4666C51.4967 68.3254 51.7445 68.25 51.998 68.25C52.2515 68.25 52.4993 68.3254 52.7098 68.4666C52.9204 68.6077 53.0842 68.8083 53.1804 69.0429L54.9578 73.346L59.5671 73.7179C59.8193 73.7392 60.0596 73.8345 60.2579 73.9918C60.4562 74.1491 60.6037 74.3614 60.6819 74.6021C60.76 74.8429 60.7654 75.1013 60.6973 75.3451C60.6292 75.5889 60.4907 75.8071 60.2992 75.9725L60.3039 75.9718Z" fill="#FE8207"/>
<path d="M80.3039 75.9718L76.7882 79.0054L77.8593 83.5421C77.9184 83.7884 77.9032 84.0466 77.8156 84.2843C77.728 84.5219 77.5719 84.7282 77.3671 84.8772C77.1623 85.0262 76.9179 85.1111 76.6648 85.1213C76.4118 85.1314 76.1614 85.0663 75.9453 84.9343L72 82.5061L68.0523 84.9343C67.8362 85.0656 67.5861 85.13 67.3335 85.1195C67.0809 85.109 66.837 85.0239 66.6326 84.8751C66.4282 84.7262 66.2724 84.5202 66.1849 84.283C66.0973 84.0458 66.0819 83.788 66.1406 83.5421L67.2156 79.0054L63.7 75.9718C63.5088 75.8065 63.3705 75.5887 63.3024 75.3453C63.2344 75.102 63.2395 74.844 63.3172 74.6035C63.3948 74.3631 63.5416 74.1509 63.7392 73.9933C63.9368 73.8358 64.1764 73.74 64.4281 73.7179L69.0375 73.346L70.8156 69.0429C70.9118 68.8083 71.0756 68.6077 71.2862 68.4666C71.4967 68.3254 71.7445 68.25 71.998 68.25C72.2515 68.25 72.4993 68.3254 72.7098 68.4666C72.9204 68.6077 73.0842 68.8083 73.1804 69.0429L74.9578 73.346L79.5671 73.7179C79.8193 73.7392 80.0596 73.8345 80.2579 73.9918C80.4562 74.1491 80.6037 74.3614 80.6819 74.6021C80.76 74.8429 80.7654 75.1013 80.6973 75.3451C80.6292 75.5889 80.4907 75.8071 80.2992 75.9725L80.3039 75.9718Z" fill="#FE8207"/>
<path d="M100.304 75.9718L96.7882 79.0054L97.8593 83.5421C97.9184 83.7884 97.9032 84.0466 97.8156 84.2843C97.728 84.5219 97.5719 84.7282 97.3671 84.8772C97.1623 85.0262 96.9179 85.1111 96.6648 85.1213C96.4118 85.1314 96.1614 85.0663 95.9453 84.9343L92 82.5061L88.0523 84.9343C87.8362 85.0656 87.5861 85.13 87.3335 85.1195C87.0809 85.109 86.837 85.0239 86.6326 84.8751C86.4282 84.7262 86.2724 84.5202 86.1849 84.283C86.0973 84.0458 86.0819 83.788 86.1406 83.5421L87.2156 79.0054L83.7 75.9718C83.5088 75.8065 83.3705 75.5887 83.3024 75.3453C83.2344 75.102 83.2395 74.844 83.3172 74.6035C83.3948 74.3631 83.5416 74.1509 83.7392 73.9933C83.9368 73.8358 84.1764 73.74 84.4281 73.7179L89.0375 73.346L90.8156 69.0429C90.9118 68.8083 91.0756 68.6077 91.2862 68.4666C91.4967 68.3254 91.7445 68.25 91.998 68.25C92.2515 68.25 92.4993 68.3254 92.7098 68.4666C92.9204 68.6077 93.0842 68.8083 93.1804 69.0429L94.9578 73.346L99.5671 73.7179C99.8193 73.7392 100.06 73.8345 100.258 73.9918C100.456 74.1491 100.604 74.3614 100.682 74.6021C100.76 74.8429 100.765 75.1013 100.697 75.3451C100.629 75.5889 100.491 75.8071 100.299 75.9725L100.304 75.9718Z" fill="#FE8207"/>
<path d="M120.304 75.9718L116.788 79.0054L117.859 83.5421C117.918 83.7884 117.903 84.0466 117.816 84.2843C117.728 84.5219 117.572 84.7282 117.367 84.8772C117.162 85.0262 116.918 85.1111 116.665 85.1213C116.412 85.1314 116.161 85.0663 115.945 84.9343L112 82.5061L108.052 84.9343C107.836 85.0656 107.586 85.13 107.333 85.1195C107.081 85.109 106.837 85.0239 106.633 84.8751C106.428 84.7262 106.272 84.5202 106.185 84.283C106.097 84.0458 106.082 83.788 106.141 83.5421L107.216 79.0054L103.7 75.9718C103.509 75.8065 103.371 75.5887 103.302 75.3453C103.234 75.102 103.239 74.844 103.317 74.6035C103.395 74.3631 103.542 74.1509 103.739 73.9933C103.937 73.8358 104.176 73.74 104.428 73.7179L109.037 73.346L110.816 69.0429C110.912 68.8083 111.076 68.6077 111.286 68.4666C111.497 68.3254 111.744 68.25 111.998 68.25C112.251 68.25 112.499 68.3254 112.71 68.4666C112.92 68.6077 113.084 68.8083 113.18 69.0429L114.958 73.346L119.567 73.7179C119.819 73.7392 120.06 73.8345 120.258 73.9918C120.456 74.1491 120.604 74.3614 120.682 74.6021C120.76 74.8429 120.765 75.1013 120.697 75.3451C120.629 75.5889 120.491 75.8071 120.299 75.9725L120.304 75.9718Z" fill="#FE8207"/>
<path d="M33.074 119.036H31.926V112.456H29.028V111.518H31.926V106.492H33.074V119.036ZM29.07 107.78C29.07 108.695 28.9813 109.586 28.804 110.454C28.6267 111.313 28.3187 112.134 27.88 112.918C27.4507 113.693 26.872 114.425 26.144 115.116C25.416 115.797 24.4967 116.418 23.386 116.978L22.742 116.068C23.89 115.508 24.8187 114.873 25.528 114.164C26.2373 113.455 26.788 112.68 27.18 111.84L22.994 112.232L22.784 111.238L27.53 110.93C27.6513 110.575 27.74 110.216 27.796 109.852C27.8613 109.488 27.908 109.11 27.936 108.718H23.428V107.78H29.07ZM36.6709 107.752V106.87H45.8829V107.752H43.9929V110.146H45.8409V111.028H36.7129V110.146H38.5749V107.752H36.6709ZM39.7229 107.752V110.146H42.8449V107.752H39.7229ZM46.9749 112.988H35.6069V112.078H46.9749V112.988ZM45.8969 118.028V118.896H37.0209V116.026H44.3849V114.948H36.9789V114.094H45.5189V116.852H38.1409V118.028H45.8969ZM60.7867 112.918V106.478H61.9347V112.918H60.7867ZM58.4067 109.726C58.4067 110.137 58.3227 110.515 58.1547 110.86C57.996 111.196 57.772 111.485 57.4827 111.728C57.1933 111.971 56.848 112.162 56.4467 112.302C56.0547 112.433 55.6253 112.498 55.1587 112.498C54.692 112.498 54.258 112.433 53.8567 112.302C53.4647 112.162 53.124 111.971 52.8347 111.728C52.5547 111.485 52.3307 111.196 52.1627 110.86C52.004 110.515 51.9247 110.137 51.9247 109.726C51.9247 109.306 52.004 108.928 52.1627 108.592C52.3307 108.247 52.5547 107.953 52.8347 107.71C53.124 107.458 53.4647 107.267 53.8567 107.136C54.258 106.996 54.692 106.926 55.1587 106.926C55.6253 106.926 56.0547 106.996 56.4467 107.136C56.848 107.267 57.1933 107.458 57.4827 107.71C57.772 107.953 57.996 108.247 58.1547 108.592C58.3227 108.928 58.4067 109.306 58.4067 109.726ZM53.0307 109.726C53.0307 109.987 53.082 110.235 53.1847 110.468C53.2967 110.692 53.446 110.888 53.6327 111.056C53.8287 111.215 54.0527 111.341 54.3047 111.434C54.566 111.527 54.8507 111.574 55.1587 111.574C55.4667 111.574 55.7513 111.527 56.0127 111.434C56.274 111.341 56.498 111.215 56.6847 111.056C56.8713 110.888 57.016 110.692 57.1187 110.468C57.2307 110.235 57.2867 109.987 57.2867 109.726C57.2867 109.455 57.2307 109.208 57.1187 108.984C57.016 108.751 56.8713 108.555 56.6847 108.396C56.498 108.228 56.274 108.097 56.0127 108.004C55.7513 107.911 55.4667 107.864 55.1587 107.864C54.8507 107.864 54.566 107.911 54.3047 108.004C54.0527 108.097 53.8287 108.228 53.6327 108.396C53.446 108.555 53.2967 108.751 53.1847 108.984C53.082 109.208 53.0307 109.455 53.0307 109.726ZM62.3547 118.868H53.8287V115.718H60.8007V114.444H53.8007V113.534H61.9347V116.572H54.9627V117.958H62.3547V118.868ZM73.6936 106.492H74.8556V113.968H73.6936V110.678H71.2156V109.74H73.6936V106.492ZM71.3416 113.492C70.6416 113.24 70.0302 112.867 69.5076 112.372C68.9849 111.877 68.5882 111.308 68.3176 110.664C68.0469 111.392 67.6362 112.036 67.0856 112.596C66.5349 113.156 65.8909 113.576 65.1536 113.856L64.5516 112.946C65.0182 112.778 65.4429 112.549 65.8256 112.26C66.2176 111.971 66.5536 111.644 66.8336 111.28C67.1136 110.907 67.3282 110.505 67.4776 110.076C67.6362 109.647 67.7156 109.208 67.7156 108.76V108.326H64.9156V107.402H71.6216V108.326H68.8636V108.76C68.8636 109.161 68.9382 109.558 69.0876 109.95C69.2369 110.342 69.4422 110.711 69.7036 111.056C69.9742 111.392 70.2962 111.695 70.6696 111.966C71.0429 112.227 71.4582 112.437 71.9156 112.596L71.3416 113.492ZM70.7116 114.36C71.3556 114.36 71.9342 114.411 72.4476 114.514C72.9609 114.617 73.3996 114.771 73.7636 114.976C74.1276 115.172 74.4029 115.415 74.5896 115.704C74.7856 115.993 74.8836 116.325 74.8836 116.698C74.8836 117.071 74.7856 117.403 74.5896 117.692C74.4029 117.981 74.1276 118.224 73.7636 118.42C73.3996 118.625 72.9609 118.779 72.4476 118.882C71.9342 118.985 71.3556 119.036 70.7116 119.036C70.0676 119.036 69.4842 118.985 68.9616 118.882C68.4482 118.779 68.0096 118.625 67.6456 118.42C67.2909 118.224 67.0156 117.981 66.8196 117.692C66.6236 117.403 66.5256 117.071 66.5256 116.698C66.5256 116.325 66.6236 115.993 66.8196 115.704C67.0156 115.415 67.2909 115.172 67.6456 114.976C68.0096 114.771 68.4482 114.617 68.9616 114.514C69.4842 114.411 70.0676 114.36 70.7116 114.36ZM70.7116 118.14C71.6729 118.14 72.4196 118.014 72.9516 117.762C73.4836 117.51 73.7496 117.155 73.7496 116.698C73.7496 116.241 73.4836 115.886 72.9516 115.634C72.4196 115.373 71.6729 115.242 70.7116 115.242C69.7502 115.242 69.0036 115.373 68.4716 115.634C67.9396 115.886 67.6736 116.241 67.6736 116.698C67.6736 117.155 67.9396 117.51 68.4716 117.762C69.0036 118.014 69.7502 118.14 70.7116 118.14ZM78.7465 108.046V107.122H87.3005V108.186C87.3005 108.69 87.2865 109.208 87.2585 109.74C87.2305 110.272 87.1278 110.86 86.9505 111.504L85.8305 111.378C85.9985 110.734 86.0965 110.165 86.1245 109.67C86.1525 109.166 86.1665 108.671 86.1665 108.186V108.046H78.7465ZM88.7145 113.268H77.4165V112.33H82.0505V109.922H83.1985V112.33H88.7145V113.268ZM83.0165 114.416C83.6885 114.416 84.2905 114.467 84.8225 114.57C85.3638 114.673 85.8258 114.827 86.2085 115.032C86.5912 115.228 86.8852 115.471 87.0905 115.76C87.2958 116.04 87.3985 116.362 87.3985 116.726C87.3985 117.081 87.2958 117.403 87.0905 117.692C86.8852 117.972 86.5912 118.21 86.2085 118.406C85.8258 118.602 85.3638 118.751 84.8225 118.854C84.2905 118.966 83.6885 119.022 83.0165 119.022C82.3445 119.022 81.7378 118.966 81.1965 118.854C80.6645 118.751 80.2072 118.602 79.8245 118.406C79.4512 118.21 79.1618 117.972 78.9565 117.692C78.7512 117.403 78.6485 117.081 78.6485 116.726C78.6485 116.362 78.7512 116.04 78.9565 115.76C79.1618 115.471 79.4512 115.228 79.8245 115.032C80.2072 114.827 80.6645 114.673 81.1965 114.57C81.7378 114.467 82.3445 114.416 83.0165 114.416ZM83.0165 118.126C84.0058 118.126 84.7898 118.005 85.3685 117.762C85.9565 117.519 86.2505 117.174 86.2505 116.726C86.2505 116.278 85.9565 115.928 85.3685 115.676C84.7898 115.424 84.0058 115.298 83.0165 115.298C82.0365 115.298 81.2525 115.424 80.6645 115.676C80.0858 115.928 79.7965 116.278 79.7965 116.726C79.7965 117.165 80.0858 117.51 80.6645 117.762C81.2525 118.005 82.0365 118.126 83.0165 118.126ZM95.9234 112.456C95.2701 112.456 94.6727 112.395 94.1314 112.274C93.5994 112.143 93.1374 111.961 92.7454 111.728C92.3627 111.485 92.0641 111.196 91.8494 110.86C91.6441 110.515 91.5414 110.132 91.5414 109.712C91.5414 109.292 91.6441 108.914 91.8494 108.578C92.0641 108.242 92.3627 107.957 92.7454 107.724C93.1374 107.481 93.5994 107.299 94.1314 107.178C94.6727 107.047 95.2701 106.982 95.9234 106.982C96.5767 106.982 97.1741 107.047 97.7154 107.178C98.2567 107.299 98.7187 107.481 99.1014 107.724C99.4841 107.957 99.7827 108.242 99.9974 108.578C100.212 108.914 100.319 109.292 100.319 109.712C100.319 110.132 100.212 110.515 99.9974 110.86C99.7827 111.196 99.4841 111.485 99.1014 111.728C98.7187 111.961 98.2567 112.143 97.7154 112.274C97.1741 112.395 96.5767 112.456 95.9234 112.456ZM95.9234 107.906C95.4474 107.906 95.0134 107.948 94.6214 108.032C94.2294 108.116 93.8887 108.237 93.5994 108.396C93.3194 108.555 93.1001 108.746 92.9414 108.97C92.7921 109.185 92.7174 109.432 92.7174 109.712C92.7174 109.992 92.7921 110.244 92.9414 110.468C93.1001 110.692 93.3194 110.883 93.5994 111.042C93.8887 111.201 94.2294 111.322 94.6214 111.406C95.0134 111.49 95.4474 111.532 95.9234 111.532C96.3994 111.532 96.8334 111.49 97.2254 111.406C97.6267 111.322 97.9674 111.201 98.2474 111.042C98.5367 110.883 98.7561 110.692 98.9054 110.468C99.0641 110.244 99.1434 109.992 99.1434 109.712C99.1434 109.432 99.0641 109.185 98.9054 108.97C98.7561 108.746 98.5367 108.555 98.2474 108.396C97.9674 108.237 97.6267 108.116 97.2254 108.032C96.8334 107.948 96.3994 107.906 95.9234 107.906ZM98.6674 114.57V119.036H97.5054V114.57H94.3554V119.036H93.1934V114.57H90.2674V113.632H101.635V114.57H98.6674ZM113.744 113.338H112.638V110.314H111.042V113.24H109.95V106.73H111.042V109.362H112.638V106.492H113.744V113.338ZM108.984 110.006C108.984 110.426 108.91 110.813 108.76 111.168C108.62 111.513 108.424 111.812 108.172 112.064C107.92 112.316 107.617 112.512 107.262 112.652C106.917 112.792 106.539 112.862 106.128 112.862C105.708 112.862 105.321 112.792 104.966 112.652C104.621 112.512 104.322 112.316 104.07 112.064C103.818 111.812 103.622 111.513 103.482 111.168C103.342 110.813 103.272 110.426 103.272 110.006C103.272 109.586 103.342 109.203 103.482 108.858C103.622 108.513 103.818 108.214 104.07 107.962C104.322 107.71 104.621 107.519 104.966 107.388C105.321 107.248 105.708 107.178 106.128 107.178C106.539 107.178 106.917 107.248 107.262 107.388C107.617 107.519 107.92 107.71 108.172 107.962C108.424 108.214 108.62 108.513 108.76 108.858C108.91 109.203 108.984 109.586 108.984 110.006ZM104.308 110.006C104.308 110.286 104.355 110.543 104.448 110.776C104.542 111.009 104.668 111.215 104.826 111.392C104.985 111.56 105.176 111.691 105.4 111.784C105.624 111.877 105.867 111.924 106.128 111.924C106.39 111.924 106.628 111.877 106.842 111.784C107.066 111.691 107.258 111.56 107.416 111.392C107.584 111.215 107.71 111.009 107.794 110.776C107.888 110.543 107.934 110.286 107.934 110.006C107.934 109.726 107.888 109.469 107.794 109.236C107.71 109.003 107.584 108.802 107.416 108.634C107.258 108.466 107.066 108.335 106.842 108.242C106.628 108.149 106.39 108.102 106.128 108.102C105.867 108.102 105.624 108.149 105.4 108.242C105.176 108.335 104.985 108.466 104.826 108.634C104.668 108.802 104.542 109.003 104.448 109.236C104.355 109.469 104.308 109.726 104.308 110.006ZM113.744 113.884V118.868H105.498V113.884H106.646V115.396H112.61V113.884H113.744ZM106.646 116.306V117.93H112.61V116.306H106.646ZM121.695 107.262C122.349 107.262 122.951 107.346 123.501 107.514C124.061 107.682 124.542 107.92 124.943 108.228C125.354 108.527 125.676 108.891 125.909 109.32C126.143 109.74 126.259 110.211 126.259 110.734C126.259 111.257 126.143 111.733 125.909 112.162C125.676 112.591 125.354 112.96 124.943 113.268C124.542 113.567 124.061 113.8 123.501 113.968C122.951 114.127 122.349 114.206 121.695 114.206C121.042 114.206 120.435 114.127 119.875 113.968C119.325 113.8 118.844 113.567 118.433 113.268C118.032 112.96 117.715 112.591 117.481 112.162C117.248 111.733 117.131 111.257 117.131 110.734C117.131 110.211 117.248 109.74 117.481 109.32C117.715 108.891 118.032 108.527 118.433 108.228C118.844 107.92 119.325 107.682 119.875 107.514C120.435 107.346 121.042 107.262 121.695 107.262ZM121.695 108.2C121.201 108.2 120.739 108.261 120.309 108.382C119.889 108.503 119.525 108.676 119.217 108.9C118.909 109.124 118.667 109.39 118.489 109.698C118.312 110.006 118.223 110.351 118.223 110.734C118.223 111.117 118.312 111.467 118.489 111.784C118.667 112.092 118.909 112.358 119.217 112.582C119.525 112.797 119.889 112.965 120.309 113.086C120.739 113.207 121.201 113.268 121.695 113.268C122.19 113.268 122.647 113.207 123.067 113.086C123.497 112.965 123.865 112.797 124.173 112.582C124.481 112.358 124.724 112.092 124.901 111.784C125.079 111.467 125.167 111.117 125.167 110.734C125.167 110.351 125.079 110.006 124.901 109.698C124.724 109.39 124.481 109.124 124.173 108.9C123.865 108.676 123.497 108.503 123.067 108.382C122.647 108.261 122.19 108.2 121.695 108.2ZM127.421 117.37H116.011V116.418H127.421V117.37ZM140.3 117.482H128.89V116.544H134V114.178H130.318V110.3H137.766V108.34H130.29V107.402H138.886V111.224H131.452V113.254H139.18V114.178H135.162V116.544H140.3V117.482ZM155.26 119.064H154.112V111.574H150.262V110.622H154.112V106.478H155.26V119.064ZM146.748 115.06C147.681 115.051 148.582 115.009 149.45 114.934C150.327 114.859 151.233 114.729 152.166 114.542L152.32 115.522C151.321 115.709 150.365 115.839 149.45 115.914C148.535 115.989 147.579 116.026 146.58 116.026H145.6V107.878H146.748V115.06ZM159.235 112.064V107.178H167.719V112.064H159.235ZM160.355 108.102V111.154H166.585V108.102H160.355ZM164.023 114.71V119.022H162.875V114.71H157.779V113.772H169.175V114.71H164.023ZM185.409 110.16H183.547V112.946H182.399V106.492H183.547V109.208H185.409V110.16ZM180.607 112.736C179.879 112.521 179.244 112.195 178.703 111.756C178.171 111.308 177.765 110.79 177.485 110.202C177.214 110.874 176.799 111.457 176.239 111.952C175.679 112.447 175.016 112.815 174.251 113.058L173.691 112.162C174.167 112.022 174.601 111.826 174.993 111.574C175.385 111.322 175.721 111.037 176.001 110.72C176.281 110.393 176.495 110.039 176.645 109.656C176.803 109.264 176.883 108.867 176.883 108.466V108.116H174.083V107.178H180.803V108.116H178.045V108.452C178.045 108.825 178.119 109.189 178.269 109.544C178.418 109.889 178.628 110.211 178.899 110.51C179.169 110.799 179.491 111.061 179.865 111.294C180.247 111.518 180.667 111.695 181.125 111.826L180.607 112.736ZM184.009 118.028V118.91H175.609V115.718H182.413V114.43H175.567V113.548H183.547V116.572H176.729V118.028H184.009ZM197.293 113.786C196.677 113.515 196.164 113.137 195.753 112.652C195.352 112.167 195.044 111.625 194.829 111.028C194.624 111.644 194.321 112.209 193.919 112.722C193.518 113.235 192.995 113.637 192.351 113.926C191.707 113.627 191.18 113.212 190.769 112.68C190.368 112.148 190.069 111.574 189.873 110.958C189.659 111.555 189.341 112.106 188.921 112.61C188.511 113.105 188.007 113.497 187.409 113.786L186.793 112.904C187.195 112.727 187.549 112.493 187.857 112.204C188.175 111.915 188.441 111.597 188.655 111.252C188.87 110.907 189.033 110.547 189.145 110.174C189.257 109.801 189.313 109.441 189.313 109.096V107.5H190.447V109.096C190.447 109.385 190.489 109.698 190.573 110.034C190.657 110.361 190.779 110.687 190.937 111.014C191.096 111.331 191.292 111.639 191.525 111.938C191.768 112.227 192.048 112.484 192.365 112.708C192.683 112.493 192.958 112.241 193.191 111.952C193.425 111.663 193.616 111.359 193.765 111.042C193.924 110.715 194.041 110.389 194.115 110.062C194.199 109.726 194.241 109.404 194.241 109.096V107.5H195.403V109.096C195.403 109.479 195.455 109.861 195.557 110.244C195.669 110.617 195.828 110.972 196.033 111.308C196.248 111.644 196.514 111.952 196.831 112.232C197.149 112.503 197.513 112.727 197.923 112.904L197.293 113.786ZM198.063 117.37H186.681V116.418H198.063V117.37ZM200.764 108.676V107.738H209.57V108.984C209.57 109.376 209.566 109.782 209.556 110.202C209.556 110.613 209.542 111.056 209.514 111.532C209.486 111.999 209.44 112.503 209.374 113.044C209.309 113.576 209.216 114.159 209.094 114.794L207.946 114.668C208.189 113.473 208.329 112.414 208.366 111.49C208.404 110.566 208.422 109.731 208.422 108.984V108.676H200.764ZM210.928 117.272H199.574V116.334H203.984V111.84H205.132V116.334H210.928V117.272ZM224.726 113.66V106.492H225.874V113.66H224.726ZM219.126 113.072C218.65 113.072 218.211 113.002 217.81 112.862C217.418 112.722 217.077 112.521 216.788 112.26C216.499 111.999 216.27 111.691 216.102 111.336C215.943 110.972 215.864 110.575 215.864 110.146C215.864 109.707 215.943 109.311 216.102 108.956C216.27 108.601 216.499 108.293 216.788 108.032C217.077 107.771 217.418 107.57 217.81 107.43C218.211 107.29 218.65 107.22 219.126 107.22C219.602 107.22 220.041 107.29 220.442 107.43C220.843 107.57 221.189 107.771 221.478 108.032C221.777 108.293 222.005 108.601 222.164 108.956C222.332 109.311 222.416 109.707 222.416 110.146C222.416 110.575 222.332 110.972 222.164 111.336C222.005 111.691 221.777 111.999 221.478 112.26C221.189 112.521 220.843 112.722 220.442 112.862C220.041 113.002 219.602 113.072 219.126 113.072ZM219.126 108.172C218.818 108.172 218.529 108.223 218.258 108.326C217.997 108.419 217.773 108.555 217.586 108.732C217.399 108.9 217.25 109.105 217.138 109.348C217.035 109.591 216.984 109.857 216.984 110.146C216.984 110.435 217.035 110.701 217.138 110.944C217.25 111.187 217.399 111.397 217.586 111.574C217.773 111.742 217.997 111.877 218.258 111.98C218.529 112.073 218.818 112.12 219.126 112.12C219.434 112.12 219.719 112.073 219.98 111.98C220.251 111.877 220.484 111.742 220.68 111.574C220.876 111.397 221.025 111.187 221.128 110.944C221.24 110.701 221.296 110.435 221.296 110.146C221.296 109.857 221.24 109.591 221.128 109.348C221.025 109.105 220.876 108.9 220.68 108.732C220.484 108.555 220.251 108.419 219.98 108.326C219.719 108.223 219.434 108.172 219.126 108.172ZM224.474 114.878C224.474 115.205 224.53 115.527 224.642 115.844C224.754 116.161 224.917 116.46 225.132 116.74C225.347 117.011 225.608 117.258 225.916 117.482C226.233 117.697 226.593 117.869 226.994 118L226.42 118.868C225.804 118.644 225.281 118.327 224.852 117.916C224.432 117.505 224.115 117.034 223.9 116.502C223.704 117.015 223.415 117.496 223.032 117.944C222.649 118.383 222.164 118.728 221.576 118.98C220.96 118.737 220.461 118.406 220.078 117.986C219.705 117.557 219.425 117.076 219.238 116.544C219.014 117.048 218.692 117.505 218.272 117.916C217.852 118.327 217.348 118.644 216.76 118.868L216.186 118C216.578 117.86 216.928 117.678 217.236 117.454C217.553 117.221 217.819 116.964 218.034 116.684C218.258 116.404 218.426 116.11 218.538 115.802C218.65 115.494 218.706 115.186 218.706 114.878V114.206H219.812V114.878C219.812 115.438 219.952 115.989 220.232 116.53C220.521 117.071 220.96 117.515 221.548 117.86C221.847 117.673 222.108 117.459 222.332 117.216C222.565 116.973 222.757 116.721 222.906 116.46C223.055 116.189 223.167 115.919 223.242 115.648C223.317 115.377 223.354 115.121 223.354 114.878V114.206H224.474V114.878ZM238.795 119.064H237.647V112.204H234.917C234.889 112.82 234.791 113.375 234.623 113.87C234.464 114.365 234.25 114.785 233.979 115.13C233.708 115.475 233.386 115.741 233.013 115.928C232.649 116.115 232.248 116.208 231.809 116.208C231.352 116.208 230.932 116.105 230.549 115.9C230.166 115.695 229.835 115.401 229.555 115.018C229.275 114.635 229.056 114.178 228.897 113.646C228.748 113.105 228.673 112.498 228.673 111.826C228.673 111.154 228.748 110.552 228.897 110.02C229.056 109.479 229.275 109.017 229.555 108.634C229.835 108.251 230.166 107.957 230.549 107.752C230.932 107.547 231.352 107.444 231.809 107.444C232.229 107.444 232.616 107.533 232.971 107.71C233.335 107.887 233.652 108.144 233.923 108.48C234.203 108.807 234.427 109.208 234.595 109.684C234.763 110.151 234.87 110.678 234.917 111.266H237.647V106.478H238.795V119.064ZM231.809 115.186C232.108 115.186 232.378 115.107 232.621 114.948C232.873 114.789 233.088 114.565 233.265 114.276C233.452 113.977 233.592 113.623 233.685 113.212C233.788 112.801 233.839 112.339 233.839 111.826C233.839 111.322 233.788 110.865 233.685 110.454C233.592 110.034 233.452 109.679 233.265 109.39C233.088 109.101 232.873 108.877 232.621 108.718C232.378 108.559 232.108 108.48 231.809 108.48C231.51 108.48 231.235 108.559 230.983 108.718C230.731 108.877 230.512 109.101 230.325 109.39C230.148 109.679 230.008 110.034 229.905 110.454C229.812 110.865 229.765 111.322 229.765 111.826C229.765 112.339 229.812 112.801 229.905 113.212C230.008 113.623 230.148 113.977 230.325 114.276C230.512 114.565 230.731 114.789 230.983 114.948C231.235 115.107 231.51 115.186 231.809 115.186ZM252.724 117.426H241.314V116.474H244.114V113.086C243.582 112.815 243.167 112.461 242.868 112.022C242.579 111.574 242.434 111.065 242.434 110.496C242.434 110.011 242.546 109.572 242.77 109.18C242.994 108.779 243.307 108.438 243.708 108.158C244.119 107.878 244.604 107.663 245.164 107.514C245.724 107.355 246.335 107.276 246.998 107.276C247.67 107.276 248.281 107.355 248.832 107.514C249.392 107.663 249.873 107.878 250.274 108.158C250.685 108.438 251.002 108.779 251.226 109.18C251.45 109.572 251.562 110.011 251.562 110.496C251.562 111.065 251.417 111.569 251.128 112.008C250.848 112.447 250.442 112.801 249.91 113.072V116.474H252.724V117.426ZM246.998 108.172C246.494 108.172 246.027 108.228 245.598 108.34C245.178 108.452 244.814 108.611 244.506 108.816C244.207 109.012 243.969 109.255 243.792 109.544C243.624 109.824 243.54 110.141 243.54 110.496C243.54 110.841 243.624 111.159 243.792 111.448C243.969 111.737 244.207 111.985 244.506 112.19C244.814 112.386 245.178 112.54 245.598 112.652C246.027 112.764 246.494 112.82 246.998 112.82C247.502 112.82 247.964 112.764 248.384 112.652C248.813 112.54 249.182 112.386 249.49 112.19C249.798 111.985 250.036 111.737 250.204 111.448C250.381 111.159 250.47 110.841 250.47 110.496C250.47 110.141 250.381 109.824 250.204 109.544C250.036 109.255 249.798 109.012 249.49 108.816C249.182 108.611 248.813 108.452 248.384 108.34C247.964 108.228 247.502 108.172 246.998 108.172ZM248.762 116.474V113.52C248.137 113.651 247.549 113.716 246.998 113.716C246.69 113.716 246.391 113.702 246.102 113.674C245.813 113.637 245.533 113.585 245.262 113.52V116.474H248.762ZM258.729 113.982C258.421 113.982 258.141 113.912 257.889 113.772C257.646 113.632 257.418 113.483 257.203 113.324C256.988 113.156 256.778 113.002 256.573 112.862C256.377 112.722 256.167 112.652 255.943 112.652C255.719 112.652 255.509 112.727 255.313 112.876C255.117 113.025 254.926 113.268 254.739 113.604L254.025 113.1C254.314 112.596 254.627 112.237 254.963 112.022C255.299 111.807 255.64 111.7 255.985 111.7C256.293 111.7 256.568 111.77 256.811 111.91C257.054 112.041 257.282 112.19 257.497 112.358C257.712 112.526 257.917 112.68 258.113 112.82C258.318 112.951 258.533 113.016 258.757 113.016C258.981 113.016 259.191 112.941 259.387 112.792C259.583 112.643 259.77 112.4 259.947 112.064L260.675 112.582C260.386 113.086 260.073 113.445 259.737 113.66C259.401 113.875 259.065 113.982 258.729 113.982ZM28.832 130.194C28.44 131.183 27.782 132.014 26.858 132.686C25.9433 133.349 24.7767 133.843 23.358 134.17L22.938 133.232C24.506 132.877 25.71 132.345 26.55 131.636C27.39 130.917 27.8613 130.049 27.964 129.032H23.596V128.094H29.21C29.21 128.505 29.168 128.906 29.084 129.298H31.926V127.478H33.088V133.89H31.926V132.588H28.65V131.692H31.926V130.194H28.832ZM33.508 139.91H25.024V136.676H31.94V135.388H24.996V134.464H33.088V137.544H26.158V139H33.508V139.91ZM36.2089 129.522V128.64H40.7309V127.338H41.8789V128.64H46.3029V129.522H36.2089ZM46.9609 135.808H35.6209V134.898H40.7309V133.89C39.6016 133.843 38.7382 133.661 38.1409 133.344C37.5436 133.027 37.2449 132.574 37.2449 131.986C37.2449 131.37 37.5902 130.899 38.2809 130.572C38.9716 130.245 39.9796 130.082 41.3049 130.082C42.6116 130.082 43.6102 130.245 44.3009 130.572C45.0009 130.899 45.3509 131.37 45.3509 131.986C45.3509 132.574 45.0476 133.027 44.4409 133.344C43.8342 133.661 42.9802 133.843 41.8789 133.89V134.898H46.9609V135.808ZM38.4069 131.986C38.4069 132.331 38.6542 132.597 39.1489 132.784C39.6529 132.961 40.3716 133.05 41.3049 133.05C42.2382 133.05 42.9522 132.961 43.4469 132.784C43.9416 132.597 44.1889 132.331 44.1889 131.986C44.1889 131.641 43.9416 131.379 43.4469 131.202C42.9522 131.015 42.2382 130.922 41.3049 130.922C40.3716 130.922 39.6529 131.015 39.1489 131.202C38.6542 131.379 38.4069 131.641 38.4069 131.986ZM45.7149 138.846V139.756H37.0769V136.634H38.2249V138.846H45.7149ZM49.1858 132.112C49.7458 132.037 50.2825 131.907 50.7958 131.72C51.3091 131.533 51.7618 131.309 52.1538 131.048C52.5458 130.777 52.8585 130.474 53.0918 130.138C53.3251 129.793 53.4418 129.429 53.4418 129.046V129.032H49.5358V128.108H58.8318V129.032H54.9258V129.046C54.9258 129.429 55.0425 129.793 55.2758 130.138C55.5091 130.474 55.8218 130.777 56.2138 131.048C56.6058 131.319 57.0585 131.547 57.5718 131.734C58.0851 131.911 58.6171 132.037 59.1678 132.112L58.7478 133.036C58.2345 132.961 57.7398 132.845 57.2638 132.686C56.7878 132.518 56.3491 132.317 55.9478 132.084C55.5465 131.841 55.1918 131.571 54.8838 131.272C54.5851 130.964 54.3518 130.628 54.1838 130.264C54.0158 130.628 53.7778 130.964 53.4698 131.272C53.1618 131.571 52.8071 131.841 52.4058 132.084C52.0045 132.317 51.5658 132.518 51.0898 132.686C50.6138 132.845 50.1238 132.961 49.6198 133.036L49.1858 132.112ZM59.8678 134.87H54.8418V137.418H53.6938V134.87H48.4718V133.946H59.8678V134.87ZM58.6078 138.818V139.756H49.9278V136.2H51.0758V138.818H58.6078ZM71.6547 140.05H70.5067V127.478H71.6547V140.05ZM63.2267 131.86H66.8667V128.542H68.0007V137.012H62.0927V128.542H63.2267V131.86ZM66.8667 136.074V132.77H63.2267V136.074H66.8667ZM74.9016 131.692C75.4523 131.627 75.9796 131.515 76.4836 131.356C76.997 131.197 77.4496 131.001 77.8416 130.768C78.2336 130.525 78.551 130.255 78.7936 129.956C79.0363 129.648 79.1716 129.321 79.1996 128.976H75.3076V128.052H84.5896V128.976H80.6836C80.7116 129.321 80.847 129.648 81.0896 129.956C81.3323 130.255 81.6496 130.525 82.0416 130.768C82.4336 131.001 82.8816 131.197 83.3856 131.356C83.899 131.515 84.431 131.627 84.9816 131.692L84.5756 132.602C84.0623 132.537 83.563 132.434 83.0776 132.294C82.6016 132.145 82.1583 131.963 81.7476 131.748C81.3463 131.533 80.987 131.281 80.6696 130.992C80.3616 130.703 80.119 130.385 79.9416 130.04C79.7736 130.385 79.531 130.703 79.2136 130.992C78.9056 131.281 78.5463 131.533 78.1356 131.748C77.7343 131.963 77.291 132.145 76.8056 132.294C76.3203 132.434 75.821 132.537 75.3076 132.602L74.9016 131.692ZM80.5156 135.626C81.7196 135.682 82.639 135.897 83.2736 136.27C83.9083 136.643 84.2256 137.157 84.2256 137.81C84.2256 138.529 83.8476 139.075 83.0916 139.448C82.3356 139.831 81.2856 140.022 79.9416 140.022C78.5976 140.022 77.543 139.831 76.7776 139.448C76.0123 139.075 75.6296 138.529 75.6296 137.81C75.6296 137.157 75.947 136.643 76.5816 136.27C77.2256 135.897 78.1496 135.682 79.3536 135.626V134.282H74.2576V133.358H85.6116V134.282H80.5156V135.626ZM83.0636 137.81C83.0636 137.39 82.7883 137.068 82.2376 136.844C81.687 136.611 80.917 136.494 79.9276 136.494C78.9383 136.494 78.1683 136.611 77.6176 136.844C77.067 137.068 76.7916 137.39 76.7916 137.81C76.7916 138.23 77.067 138.557 77.6176 138.79C78.1683 139.023 78.9383 139.14 79.9276 139.14C80.917 139.14 81.687 139.023 82.2376 138.79C82.7883 138.557 83.0636 138.23 83.0636 137.81ZM97.4125 140.064H96.2645V127.478H97.4125V140.064ZM90.7905 128.444C91.2572 128.444 91.6865 128.547 92.0785 128.752C92.4705 128.957 92.8065 129.251 93.0865 129.634C93.3665 130.017 93.5859 130.479 93.7445 131.02C93.9032 131.552 93.9825 132.154 93.9825 132.826C93.9825 133.498 93.9032 134.105 93.7445 134.646C93.5859 135.178 93.3665 135.635 93.0865 136.018C92.8065 136.401 92.4705 136.695 92.0785 136.9C91.6865 137.105 91.2572 137.208 90.7905 137.208C90.3239 137.208 89.8945 137.105 89.5025 136.9C89.1105 136.695 88.7745 136.401 88.4945 136.018C88.2145 135.635 87.9952 135.178 87.8365 134.646C87.6779 134.105 87.5985 133.498 87.5985 132.826C87.5985 132.154 87.6779 131.552 87.8365 131.02C87.9952 130.479 88.2145 130.017 88.4945 129.634C88.7745 129.251 89.1105 128.957 89.5025 128.752C89.8945 128.547 90.3239 128.444 90.7905 128.444ZM90.7905 129.48C90.4825 129.48 90.1979 129.559 89.9365 129.718C89.6845 129.877 89.4652 130.101 89.2785 130.39C89.0919 130.679 88.9472 131.034 88.8445 131.454C88.7419 131.865 88.6905 132.322 88.6905 132.826C88.6905 133.339 88.7419 133.801 88.8445 134.212C88.9472 134.623 89.0919 134.977 89.2785 135.276C89.4652 135.565 89.6845 135.789 89.9365 135.948C90.1979 136.107 90.4825 136.186 90.7905 136.186C91.0985 136.186 91.3785 136.107 91.6305 135.948C91.8825 135.789 92.1019 135.565 92.2885 135.276C92.4752 134.977 92.6199 134.623 92.7225 134.212C92.8252 133.801 92.8765 133.339 92.8765 132.826C92.8765 132.322 92.8252 131.865 92.7225 131.454C92.6199 131.034 92.4752 130.679 92.2885 130.39C92.1019 130.101 91.8825 129.877 91.6305 129.718C91.3785 129.559 91.0985 129.48 90.7905 129.48ZM109.689 133.428V140.05H108.541V127.464H109.689V132.462H111.747V133.428H109.689ZM101.653 136.06C102.223 136.06 102.755 136.055 103.249 136.046C103.753 136.037 104.234 136.018 104.691 135.99C105.158 135.953 105.615 135.906 106.063 135.85C106.511 135.785 106.969 135.705 107.435 135.612L107.561 136.564C107.067 136.648 106.586 136.718 106.119 136.774C105.653 136.83 105.177 136.877 104.691 136.914C104.215 136.951 103.716 136.979 103.193 136.998C102.68 137.007 102.125 137.012 101.527 137.012H100.533V132.21H105.041V129.578H100.491V128.64H106.175V133.148H101.653V136.06ZM125.181 133.918V127.478H126.329V133.918H125.181ZM122.801 130.726C122.801 131.137 122.717 131.515 122.549 131.86C122.391 132.196 122.167 132.485 121.877 132.728C121.588 132.971 121.243 133.162 120.841 133.302C120.449 133.433 120.02 133.498 119.553 133.498C119.087 133.498 118.653 133.433 118.251 133.302C117.859 133.162 117.519 132.971 117.229 132.728C116.949 132.485 116.725 132.196 116.557 131.86C116.399 131.515 116.319 131.137 116.319 130.726C116.319 130.306 116.399 129.928 116.557 129.592C116.725 129.247 116.949 128.953 117.229 128.71C117.519 128.458 117.859 128.267 118.251 128.136C118.653 127.996 119.087 127.926 119.553 127.926C120.02 127.926 120.449 127.996 120.841 128.136C121.243 128.267 121.588 128.458 121.877 128.71C122.167 128.953 122.391 129.247 122.549 129.592C122.717 129.928 122.801 130.306 122.801 130.726ZM117.425 130.726C117.425 130.987 117.477 131.235 117.579 131.468C117.691 131.692 117.841 131.888 118.027 132.056C118.223 132.215 118.447 132.341 118.699 132.434C118.961 132.527 119.245 132.574 119.553 132.574C119.861 132.574 120.146 132.527 120.407 132.434C120.669 132.341 120.893 132.215 121.079 132.056C121.266 131.888 121.411 131.692 121.513 131.468C121.625 131.235 121.681 130.987 121.681 130.726C121.681 130.455 121.625 130.208 121.513 129.984C121.411 129.751 121.266 129.555 121.079 129.396C120.893 129.228 120.669 129.097 120.407 129.004C120.146 128.911 119.861 128.864 119.553 128.864C119.245 128.864 118.961 128.911 118.699 129.004C118.447 129.097 118.223 129.228 118.027 129.396C117.841 129.555 117.691 129.751 117.579 129.984C117.477 130.208 117.425 130.455 117.425 130.726ZM126.749 139.868H118.223V136.718H125.195V135.444H118.195V134.534H126.329V137.572H119.357V138.958H126.749V139.868ZM138.088 127.492H139.25V134.968H138.088V131.678H135.61V130.74H138.088V127.492ZM135.736 134.492C135.036 134.24 134.425 133.867 133.902 133.372C133.379 132.877 132.983 132.308 132.712 131.664C132.441 132.392 132.031 133.036 131.48 133.596C130.929 134.156 130.285 134.576 129.548 134.856L128.946 133.946C129.413 133.778 129.837 133.549 130.22 133.26C130.612 132.971 130.948 132.644 131.228 132.28C131.508 131.907 131.723 131.505 131.872 131.076C132.031 130.647 132.11 130.208 132.11 129.76V129.326H129.31V128.402H136.016V129.326H133.258V129.76C133.258 130.161 133.333 130.558 133.482 130.95C133.631 131.342 133.837 131.711 134.098 132.056C134.369 132.392 134.691 132.695 135.064 132.966C135.437 133.227 135.853 133.437 136.31 133.596L135.736 134.492ZM135.106 135.36C135.75 135.36 136.329 135.411 136.842 135.514C137.355 135.617 137.794 135.771 138.158 135.976C138.522 136.172 138.797 136.415 138.984 136.704C139.18 136.993 139.278 137.325 139.278 137.698C139.278 138.071 139.18 138.403 138.984 138.692C138.797 138.981 138.522 139.224 138.158 139.42C137.794 139.625 137.355 139.779 136.842 139.882C136.329 139.985 135.75 140.036 135.106 140.036C134.462 140.036 133.879 139.985 133.356 139.882C132.843 139.779 132.404 139.625 132.04 139.42C131.685 139.224 131.41 138.981 131.214 138.692C131.018 138.403 130.92 138.071 130.92 137.698C130.92 137.325 131.018 136.993 131.214 136.704C131.41 136.415 131.685 136.172 132.04 135.976C132.404 135.771 132.843 135.617 133.356 135.514C133.879 135.411 134.462 135.36 135.106 135.36ZM135.106 139.14C136.067 139.14 136.814 139.014 137.346 138.762C137.878 138.51 138.144 138.155 138.144 137.698C138.144 137.241 137.878 136.886 137.346 136.634C136.814 136.373 136.067 136.242 135.106 136.242C134.145 136.242 133.398 136.373 132.866 136.634C132.334 136.886 132.068 137.241 132.068 137.698C132.068 138.155 132.334 138.51 132.866 138.762C133.398 139.014 134.145 139.14 135.106 139.14ZM143.141 129.046V128.122H151.695V129.186C151.695 129.69 151.681 130.208 151.653 130.74C151.625 131.272 151.522 131.86 151.345 132.504L150.225 132.378C150.393 131.734 150.491 131.165 150.519 130.67C150.547 130.166 150.561 129.671 150.561 129.186V129.046H143.141ZM153.109 134.268H141.811V133.33H146.445V130.922H147.593V133.33H153.109V134.268ZM147.411 135.416C148.083 135.416 148.685 135.467 149.217 135.57C149.758 135.673 150.22 135.827 150.603 136.032C150.986 136.228 151.28 136.471 151.485 136.76C151.69 137.04 151.793 137.362 151.793 137.726C151.793 138.081 151.69 138.403 151.485 138.692C151.28 138.972 150.986 139.21 150.603 139.406C150.22 139.602 149.758 139.751 149.217 139.854C148.685 139.966 148.083 140.022 147.411 140.022C146.739 140.022 146.132 139.966 145.591 139.854C145.059 139.751 144.602 139.602 144.219 139.406C143.846 139.21 143.556 138.972 143.351 138.692C143.146 138.403 143.043 138.081 143.043 137.726C143.043 137.362 143.146 137.04 143.351 136.76C143.556 136.471 143.846 136.228 144.219 136.032C144.602 135.827 145.059 135.673 145.591 135.57C146.132 135.467 146.739 135.416 147.411 135.416ZM147.411 139.126C148.4 139.126 149.184 139.005 149.763 138.762C150.351 138.519 150.645 138.174 150.645 137.726C150.645 137.278 150.351 136.928 149.763 136.676C149.184 136.424 148.4 136.298 147.411 136.298C146.431 136.298 145.647 136.424 145.059 136.676C144.48 136.928 144.191 137.278 144.191 137.726C144.191 138.165 144.48 138.51 145.059 138.762C145.647 139.005 146.431 139.126 147.411 139.126ZM160.318 133.456C159.665 133.456 159.067 133.395 158.526 133.274C157.994 133.143 157.532 132.961 157.14 132.728C156.757 132.485 156.459 132.196 156.244 131.86C156.039 131.515 155.936 131.132 155.936 130.712C155.936 130.292 156.039 129.914 156.244 129.578C156.459 129.242 156.757 128.957 157.14 128.724C157.532 128.481 157.994 128.299 158.526 128.178C159.067 128.047 159.665 127.982 160.318 127.982C160.971 127.982 161.569 128.047 162.11 128.178C162.651 128.299 163.113 128.481 163.496 128.724C163.879 128.957 164.177 129.242 164.392 129.578C164.607 129.914 164.714 130.292 164.714 130.712C164.714 131.132 164.607 131.515 164.392 131.86C164.177 132.196 163.879 132.485 163.496 132.728C163.113 132.961 162.651 133.143 162.11 133.274C161.569 133.395 160.971 133.456 160.318 133.456ZM160.318 128.906C159.842 128.906 159.408 128.948 159.016 129.032C158.624 129.116 158.283 129.237 157.994 129.396C157.714 129.555 157.495 129.746 157.336 129.97C157.187 130.185 157.112 130.432 157.112 130.712C157.112 130.992 157.187 131.244 157.336 131.468C157.495 131.692 157.714 131.883 157.994 132.042C158.283 132.201 158.624 132.322 159.016 132.406C159.408 132.49 159.842 132.532 160.318 132.532C160.794 132.532 161.228 132.49 161.62 132.406C162.021 132.322 162.362 132.201 162.642 132.042C162.931 131.883 163.151 131.692 163.3 131.468C163.459 131.244 163.538 130.992 163.538 130.712C163.538 130.432 163.459 130.185 163.3 129.97C163.151 129.746 162.931 129.555 162.642 129.396C162.362 129.237 162.021 129.116 161.62 129.032C161.228 128.948 160.794 128.906 160.318 128.906ZM163.062 135.57V140.036H161.9V135.57H158.75V140.036H157.588V135.57H154.662V134.632H166.03V135.57H163.062ZM178.937 138.454H167.527V137.502H172.637V134.282H168.983V128.486H177.495V129.424H170.131V133.358H177.621V134.282H173.799V137.502H178.937V138.454ZM190.635 133.204V132.266H192.735V130.796H190.635V129.872H192.735V127.492H193.897V136.816H192.735V133.204H190.635ZM190.999 134.506C190.401 134.599 189.781 134.674 189.137 134.73C188.493 134.786 187.853 134.828 187.219 134.856C186.584 134.884 185.968 134.903 185.371 134.912C184.773 134.921 184.223 134.926 183.719 134.926L183.593 133.974H184.769C184.899 133.974 185.035 133.969 185.175 133.96V129.424H183.929V128.5H190.537V129.424H189.291V133.806C189.571 133.787 189.846 133.769 190.117 133.75C190.397 133.722 190.667 133.689 190.929 133.652L190.999 134.506ZM186.281 133.946C186.589 133.937 186.901 133.927 187.219 133.918C187.536 133.909 187.853 133.895 188.171 133.876V129.424H186.281V133.946ZM194.219 139.756H185.847V136.06H186.995V138.818H194.219V139.756ZM206.104 133.61V140.036H204.956V127.492H206.104V132.644H208.162V133.61H206.104ZM203.766 129.494V130.418H196.36V129.494H199.524V127.632H200.672V129.494H203.766ZM200.112 131.454C200.56 131.454 200.97 131.529 201.344 131.678C201.717 131.818 202.039 132.019 202.31 132.28C202.59 132.532 202.804 132.835 202.954 133.19C203.103 133.545 203.178 133.932 203.178 134.352C203.178 134.781 203.103 135.173 202.954 135.528C202.804 135.883 202.59 136.186 202.31 136.438C202.039 136.69 201.717 136.886 201.344 137.026C200.97 137.166 200.56 137.236 200.112 137.236C199.673 137.236 199.267 137.166 198.894 137.026C198.52 136.886 198.198 136.69 197.928 136.438C197.657 136.186 197.447 135.883 197.298 135.528C197.148 135.173 197.074 134.781 197.074 134.352C197.074 133.932 197.148 133.545 197.298 133.19C197.447 132.835 197.657 132.532 197.928 132.28C198.198 132.019 198.52 131.818 198.894 131.678C199.267 131.529 199.673 131.454 200.112 131.454ZM200.112 136.284C200.401 136.284 200.667 136.237 200.91 136.144C201.152 136.041 201.358 135.906 201.526 135.738C201.703 135.57 201.838 135.369 201.932 135.136C202.034 134.893 202.086 134.632 202.086 134.352C202.086 134.072 202.034 133.815 201.932 133.582C201.838 133.339 201.703 133.134 201.526 132.966C201.358 132.789 201.152 132.653 200.91 132.56C200.667 132.457 200.401 132.406 200.112 132.406C199.832 132.406 199.57 132.457 199.328 132.56C199.085 132.653 198.875 132.789 198.698 132.966C198.53 133.134 198.394 133.339 198.292 133.582C198.198 133.815 198.152 134.072 198.152 134.352C198.152 134.632 198.198 134.893 198.292 135.136C198.394 135.369 198.53 135.57 198.698 135.738C198.875 135.906 199.085 136.041 199.328 136.144C199.57 136.237 199.832 136.284 200.112 136.284ZM219.976 140.036H218.884V127.478H219.976V140.036ZM217.358 127.814V139.406H216.266V133.54H213.69C213.298 134.268 212.804 134.949 212.206 135.584C211.609 136.219 210.872 136.802 209.994 137.334L209.322 136.508C210.676 135.696 211.693 134.744 212.374 133.652C213.065 132.551 213.462 131.337 213.564 130.012H209.854V129.074H214.698C214.698 129.69 214.652 130.297 214.558 130.894C214.465 131.482 214.311 132.056 214.096 132.616H216.266V127.814H217.358ZM225.36 129.508V128.626H228.482V127.352H229.63V128.626H232.766V129.508H225.36ZM236.924 131.412H235.062V134.38H233.914V127.436H235.062V130.46H236.924V131.412ZM232.066 132.126C232.066 132.77 231.796 133.274 231.254 133.638C230.713 134.002 229.98 134.184 229.056 134.184C228.608 134.184 228.198 134.137 227.824 134.044C227.46 133.951 227.148 133.815 226.886 133.638C226.625 133.461 226.42 133.246 226.27 132.994C226.13 132.733 226.06 132.443 226.06 132.126C226.06 131.799 226.13 131.51 226.27 131.258C226.42 131.006 226.625 130.791 226.886 130.614C227.148 130.437 227.46 130.301 227.824 130.208C228.198 130.115 228.608 130.068 229.056 130.068C229.98 130.068 230.713 130.25 231.254 130.614C231.796 130.978 232.066 131.482 232.066 132.126ZM227.152 132.126C227.152 132.518 227.32 132.817 227.656 133.022C228.002 133.227 228.468 133.33 229.056 133.33C229.644 133.33 230.111 133.227 230.456 133.022C230.802 132.817 230.974 132.518 230.974 132.126C230.974 131.734 230.802 131.435 230.456 131.23C230.111 131.025 229.644 130.922 229.056 130.922C228.468 130.922 228.002 131.025 227.656 131.23C227.32 131.435 227.152 131.734 227.152 132.126ZM235.524 139.014V139.896H227.124V136.97H233.928V135.878H227.082V135.024H235.062V137.81H228.244V139.014H235.524ZM251.66 133.19C251.175 133.106 250.694 132.98 250.218 132.812C249.751 132.635 249.313 132.42 248.902 132.168C248.501 131.916 248.137 131.631 247.81 131.314C247.483 130.987 247.217 130.633 247.012 130.25C246.816 130.633 246.555 130.987 246.228 131.314C245.901 131.631 245.533 131.916 245.122 132.168C244.721 132.42 244.282 132.635 243.806 132.812C243.339 132.98 242.863 133.106 242.378 133.19L241.916 132.266C242.495 132.182 243.05 132.033 243.582 131.818C244.123 131.594 244.604 131.323 245.024 131.006C245.444 130.679 245.78 130.315 246.032 129.914C246.284 129.503 246.41 129.074 246.41 128.626V127.926H247.614V128.626C247.614 129.065 247.74 129.485 247.992 129.886C248.253 130.287 248.594 130.651 249.014 130.978C249.443 131.305 249.929 131.58 250.47 131.804C251.011 132.028 251.567 132.182 252.136 132.266L251.66 133.19ZM247.558 135.5V140.05H246.41V135.5H241.342V134.548H252.682L252.696 135.5H247.558ZM266.494 134.66V127.492H267.642V134.66H266.494ZM260.894 134.072C260.418 134.072 259.979 134.002 259.578 133.862C259.186 133.722 258.845 133.521 258.556 133.26C258.266 132.999 258.038 132.691 257.87 132.336C257.711 131.972 257.632 131.575 257.632 131.146C257.632 130.707 257.711 130.311 257.87 129.956C258.038 129.601 258.266 129.293 258.556 129.032C258.845 128.771 259.186 128.57 259.578 128.43C259.979 128.29 260.418 128.22 260.894 128.22C261.37 128.22 261.808 128.29 262.21 128.43C262.611 128.57 262.956 128.771 263.246 129.032C263.544 129.293 263.773 129.601 263.932 129.956C264.1 130.311 264.184 130.707 264.184 131.146C264.184 131.575 264.1 131.972 263.932 132.336C263.773 132.691 263.544 132.999 263.246 133.26C262.956 133.521 262.611 133.722 262.21 133.862C261.808 134.002 261.37 134.072 260.894 134.072ZM260.894 129.172C260.586 129.172 260.296 129.223 260.026 129.326C259.764 129.419 259.54 129.555 259.354 129.732C259.167 129.9 259.018 130.105 258.906 130.348C258.803 130.591 258.752 130.857 258.752 131.146C258.752 131.435 258.803 131.701 258.906 131.944C259.018 132.187 259.167 132.397 259.354 132.574C259.54 132.742 259.764 132.877 260.026 132.98C260.296 133.073 260.586 133.12 260.894 133.12C261.202 133.12 261.486 133.073 261.748 132.98C262.018 132.877 262.252 132.742 262.448 132.574C262.644 132.397 262.793 132.187 262.896 131.944C263.008 131.701 263.064 131.435 263.064 131.146C263.064 130.857 263.008 130.591 262.896 130.348C262.793 130.105 262.644 129.9 262.448 129.732C262.252 129.555 262.018 129.419 261.748 129.326C261.486 129.223 261.202 129.172 260.894 129.172ZM266.242 135.878C266.242 136.205 266.298 136.527 266.41 136.844C266.522 137.161 266.685 137.46 266.9 137.74C267.114 138.011 267.376 138.258 267.684 138.482C268.001 138.697 268.36 138.869 268.762 139L268.188 139.868C267.572 139.644 267.049 139.327 266.62 138.916C266.2 138.505 265.882 138.034 265.668 137.502C265.472 138.015 265.182 138.496 264.8 138.944C264.417 139.383 263.932 139.728 263.344 139.98C262.728 139.737 262.228 139.406 261.846 138.986C261.472 138.557 261.192 138.076 261.006 137.544C260.782 138.048 260.46 138.505 260.04 138.916C259.62 139.327 259.116 139.644 258.528 139.868L257.954 139C258.346 138.86 258.696 138.678 259.004 138.454C259.321 138.221 259.587 137.964 259.802 137.684C260.026 137.404 260.194 137.11 260.306 136.802C260.418 136.494 260.474 136.186 260.474 135.878V135.206H261.58V135.878C261.58 136.438 261.72 136.989 262 137.53C262.289 138.071 262.728 138.515 263.316 138.86C263.614 138.673 263.876 138.459 264.1 138.216C264.333 137.973 264.524 137.721 264.674 137.46C264.823 137.189 264.935 136.919 265.01 136.648C265.084 136.377 265.122 136.121 265.122 135.878V135.206H266.242V135.878ZM280.563 140.064H279.415V133.204H276.685C276.657 133.82 276.559 134.375 276.391 134.87C276.232 135.365 276.017 135.785 275.747 136.13C275.476 136.475 275.154 136.741 274.781 136.928C274.417 137.115 274.015 137.208 273.577 137.208C273.119 137.208 272.699 137.105 272.317 136.9C271.934 136.695 271.603 136.401 271.323 136.018C271.043 135.635 270.823 135.178 270.665 134.646C270.515 134.105 270.441 133.498 270.441 132.826C270.441 132.154 270.515 131.552 270.665 131.02C270.823 130.479 271.043 130.017 271.323 129.634C271.603 129.251 271.934 128.957 272.317 128.752C272.699 128.547 273.119 128.444 273.577 128.444C273.997 128.444 274.384 128.533 274.739 128.71C275.103 128.887 275.42 129.144 275.691 129.48C275.971 129.807 276.195 130.208 276.363 130.684C276.531 131.151 276.638 131.678 276.685 132.266H279.415V127.478H280.563V140.064ZM273.577 136.186C273.875 136.186 274.146 136.107 274.389 135.948C274.641 135.789 274.855 135.565 275.033 135.276C275.219 134.977 275.359 134.623 275.453 134.212C275.555 133.801 275.607 133.339 275.607 132.826C275.607 132.322 275.555 131.865 275.453 131.454C275.359 131.034 275.219 130.679 275.033 130.39C274.855 130.101 274.641 129.877 274.389 129.718C274.146 129.559 273.875 129.48 273.577 129.48C273.278 129.48 273.003 129.559 272.751 129.718C272.499 129.877 272.279 130.101 272.093 130.39C271.915 130.679 271.775 131.034 271.673 131.454C271.579 131.865 271.533 132.322 271.533 132.826C271.533 133.339 271.579 133.801 271.673 134.212C271.775 134.623 271.915 134.977 272.093 135.276C272.279 135.565 272.499 135.789 272.751 135.948C273.003 136.107 273.278 136.186 273.577 136.186ZM33.088 161.064H31.94V153.98H28.342V153.028H31.94V148.478H33.088V161.064ZM24.52 156.99C25.08 156.99 25.5933 156.985 26.06 156.976C26.536 156.967 26.9887 156.948 27.418 156.92C27.8473 156.883 28.2627 156.841 28.664 156.794C29.0747 156.738 29.49 156.668 29.91 156.584L30.05 157.536C29.5927 157.62 29.1493 157.69 28.72 157.746C28.2907 157.802 27.852 157.844 27.404 157.872C26.956 157.9 26.48 157.923 25.976 157.942C25.4813 157.951 24.9353 157.956 24.338 157.956H23.372V149.668H29.084V150.62H24.52V156.99ZM45.9669 161.064H44.8189V153.98H41.2209V153.028H44.8189V148.478H45.9669V161.064ZM37.3989 156.99C37.9589 156.99 38.4722 156.985 38.9389 156.976C39.4149 156.967 39.8676 156.948 40.2969 156.92C40.7262 156.883 41.1416 156.841 41.5429 156.794C41.9536 156.738 42.3689 156.668 42.7889 156.584L42.9289 157.536C42.4716 157.62 42.0282 157.69 41.5989 157.746C41.1696 157.802 40.7309 157.844 40.2829 157.872C39.8349 157.9 39.3589 157.923 38.8549 157.942C38.3602 157.951 37.8142 157.956 37.2169 157.956H36.2509V149.668H41.9629V150.62H37.3989V156.99ZM54.1698 153.588C53.4978 153.588 52.8865 153.537 52.3358 153.434C51.7945 153.322 51.3325 153.163 50.9498 152.958C50.5671 152.753 50.2731 152.501 50.0678 152.202C49.8625 151.903 49.7598 151.563 49.7598 151.18C49.7598 150.797 49.8625 150.461 50.0678 150.172C50.2731 149.873 50.5671 149.621 50.9498 149.416C51.3325 149.201 51.7945 149.043 52.3358 148.94C52.8865 148.828 53.4978 148.772 54.1698 148.772C54.8511 148.772 55.4625 148.828 56.0038 148.94C56.5451 149.043 57.0071 149.201 57.3898 149.416C57.7725 149.621 58.0665 149.873 58.2718 150.172C58.4771 150.461 58.5798 150.797 58.5798 151.18C58.5798 151.563 58.4771 151.903 58.2718 152.202C58.0665 152.501 57.7725 152.753 57.3898 152.958C57.0071 153.163 56.5451 153.322 56.0038 153.434C55.4625 153.537 54.8511 153.588 54.1698 153.588ZM54.1698 149.682C53.1525 149.682 52.3591 149.813 51.7898 150.074C51.2205 150.335 50.9358 150.704 50.9358 151.18C50.9358 151.665 51.2205 152.039 51.7898 152.3C52.3591 152.561 53.1525 152.692 54.1698 152.692C55.1871 152.692 55.9805 152.561 56.5498 152.3C57.1191 152.039 57.4038 151.665 57.4038 151.18C57.4038 150.704 57.1191 150.335 56.5498 150.074C55.9805 149.813 55.1871 149.682 54.1698 149.682ZM54.7438 157.004H58.4538V161.05H57.3058V157.928H49.7598V157.004H53.5958V155.52H48.4998V154.582H59.8538V155.52H54.7438V157.004ZM65.1116 152.104C65.6622 152.057 66.1896 151.969 66.6936 151.838C67.1976 151.698 67.6456 151.53 68.0376 151.334C68.4296 151.129 68.7516 150.895 69.0036 150.634C69.2556 150.363 69.4002 150.074 69.4376 149.766H65.5596V148.87H74.8276V149.766H70.9496C70.9869 150.074 71.1269 150.363 71.3696 150.634C71.6216 150.895 71.9436 151.129 72.3356 151.334C72.7276 151.539 73.1756 151.707 73.6796 151.838C74.1836 151.969 74.7109 152.057 75.2616 152.104L74.8976 152.972C74.3656 152.925 73.8522 152.841 73.3576 152.72C72.8722 152.589 72.4196 152.426 71.9996 152.23C71.5889 152.034 71.2249 151.805 70.9076 151.544C70.5996 151.273 70.3616 150.979 70.1936 150.662C70.0256 150.979 69.7829 151.273 69.4656 151.544C69.1576 151.805 68.7936 152.034 68.3736 152.23C67.9629 152.426 67.5102 152.589 67.0156 152.72C66.5302 152.841 66.0216 152.925 65.4896 152.972L65.1116 152.104ZM75.8776 154.61H64.5096V153.686H69.6056V152.202H70.7536V153.686H75.8776V154.61ZM74.8136 156.29V157.172H65.5596V156.29H69.6196V155.114H70.7676V156.29H74.8136ZM70.1796 157.788C71.4302 157.788 72.3729 157.928 73.0076 158.208C73.6422 158.488 73.9596 158.908 73.9596 159.468C73.9596 160.009 73.6422 160.415 73.0076 160.686C72.3729 160.966 71.4302 161.106 70.1796 161.106C68.9289 161.106 67.9862 160.966 67.3516 160.686C66.7262 160.415 66.4136 160.009 66.4136 159.468C66.4136 158.908 66.7262 158.488 67.3516 158.208C67.9862 157.928 68.9289 157.788 70.1796 157.788ZM70.1796 160.322C71.0289 160.322 71.6729 160.247 72.1116 160.098C72.5596 159.958 72.7836 159.748 72.7836 159.468C72.7836 159.169 72.5596 158.95 72.1116 158.81C71.6729 158.67 71.0289 158.6 70.1796 158.6C69.3302 158.6 68.6862 158.67 68.2476 158.81C67.8089 158.95 67.5896 159.169 67.5896 159.468C67.5896 159.748 67.8089 159.958 68.2476 160.098C68.6862 160.247 69.3302 160.322 70.1796 160.322ZM87.6785 153.322C87.1932 153.247 86.7172 153.131 86.2505 152.972C85.7838 152.813 85.3452 152.622 84.9345 152.398C84.5332 152.165 84.1692 151.899 83.8425 151.6C83.5252 151.301 83.2685 150.979 83.0725 150.634C82.8765 150.979 82.6152 151.301 82.2885 151.6C81.9712 151.899 81.6072 152.165 81.1965 152.398C80.7952 152.622 80.3612 152.813 79.8945 152.972C79.4278 153.131 78.9472 153.247 78.4525 153.322L78.0325 152.398C78.5925 152.333 79.1385 152.202 79.6705 152.006C80.2118 151.81 80.6878 151.572 81.0985 151.292C81.5185 151.003 81.8545 150.681 82.1065 150.326C82.3585 149.962 82.4845 149.579 82.4845 149.178V148.618H83.6605V149.178C83.6605 149.561 83.7865 149.934 84.0385 150.298C84.2905 150.653 84.6218 150.975 85.0325 151.264C85.4525 151.553 85.9285 151.801 86.4605 152.006C86.9925 152.202 87.5385 152.333 88.0985 152.398L87.6785 153.322ZM88.7425 155.128H77.3745V154.204H88.7425V155.128ZM87.2585 155.996V160.868H78.8165V155.996H79.9505V157.466H86.1245V155.996H87.2585ZM79.9505 158.348V159.944H86.1245V158.348H79.9505ZM100.557 161.022H99.4094V148.478H100.557V161.022ZM92.1994 156.808C93.1607 156.808 94.1267 156.766 95.0974 156.682C96.0681 156.589 97.0761 156.435 98.1214 156.22L98.2474 157.2C97.1461 157.424 96.0961 157.578 95.0974 157.662C94.0987 157.746 93.0954 157.788 92.0874 157.788H91.0514V149.696H92.1994V156.808ZM112.806 154.386V161.064H111.658V148.478H112.806V153.434H114.878V154.386H112.806ZM104.826 156.948C105.386 156.948 105.909 156.943 106.394 156.934C106.889 156.915 107.36 156.892 107.808 156.864C108.266 156.836 108.714 156.794 109.152 156.738C109.591 156.682 110.034 156.612 110.482 156.528L110.608 157.48C110.132 157.573 109.666 157.653 109.208 157.718C108.751 157.774 108.284 157.821 107.808 157.858C107.332 157.886 106.838 157.905 106.324 157.914C105.811 157.923 105.26 157.928 104.672 157.928H103.678V149.682H109.516V150.634H104.826V156.948ZM117.145 158.88V160.196H115.871V158.88H117.145Z" fill="white"/>
</svg>
