<svg width="320" height="190" viewBox="0 0 320 190" fill="none" xmlns="http://www.w3.org/2000/svg">
<rect width="320" height="190" rx="16" fill="#36312B"/>
<path d="M36.634 37.88H34.258V34.55H31.63C31.522 34.994 31.336 35.402 31.072 35.774C30.82 36.146 30.502 36.464 30.118 36.728C29.746 36.992 29.32 37.202 28.84 37.358C28.372 37.502 27.874 37.574 27.346 37.574C26.722 37.574 26.146 37.478 25.618 37.286C25.09 37.082 24.628 36.806 24.232 36.458C23.848 36.11 23.542 35.696 23.314 35.216C23.098 34.724 22.99 34.19 22.99 33.614C22.99 33.038 23.098 32.51 23.314 32.03C23.542 31.538 23.848 31.118 24.232 30.77C24.628 30.422 25.09 30.152 25.618 29.96C26.146 29.756 26.722 29.654 27.346 29.654C27.874 29.654 28.372 29.726 28.84 29.87C29.308 30.014 29.722 30.218 30.082 30.482C30.454 30.734 30.772 31.046 31.036 31.418C31.3 31.778 31.492 32.18 31.612 32.624H34.258V28.97H36.634V37.88ZM27.346 35.594C27.958 35.594 28.462 35.42 28.858 35.072C29.254 34.724 29.452 34.238 29.452 33.614C29.452 32.99 29.254 32.504 28.858 32.156C28.462 31.808 27.958 31.634 27.346 31.634C26.734 31.634 26.23 31.808 25.834 32.156C25.45 32.504 25.258 32.99 25.258 33.614C25.258 34.238 25.45 34.724 25.834 35.072C26.23 35.42 26.734 35.594 27.346 35.594ZM36.634 38.6V45.35H25.654V38.6H28.012V40.184H34.276V38.6H36.634ZM28.012 41.984V43.478H34.276V41.984H28.012ZM53.5706 45.53H51.3206V28.952H53.5706V45.53ZM50.0966 29.276V44.81H47.8826V36.944H45.0026V35.018H47.8826V29.276H50.0966ZM42.1586 39.914C43.0226 39.89 43.8086 39.848 44.5166 39.788C45.2246 39.728 45.9446 39.626 46.6766 39.482L46.8746 41.426C46.4066 41.522 45.9506 41.6 45.5066 41.66C45.0626 41.708 44.6006 41.75 44.1206 41.786C43.6526 41.81 43.1606 41.828 42.6446 41.84C42.1286 41.852 41.5646 41.858 40.9526 41.858H39.8186V30.842H46.1366V32.732H42.1586V39.914ZM69.6252 45.584H67.2492V28.952H69.6252V45.584ZM60.7152 30.122C61.3392 30.122 61.9152 30.26 62.4432 30.536C62.9832 30.812 63.4452 31.208 63.8292 31.724C64.2132 32.228 64.5132 32.846 64.7292 33.578C64.9572 34.298 65.0712 35.114 65.0712 36.026C65.0712 36.938 64.9572 37.76 64.7292 38.492C64.5132 39.224 64.2132 39.848 63.8292 40.364C63.4452 40.88 62.9832 41.276 62.4432 41.552C61.9152 41.828 61.3392 41.966 60.7152 41.966C60.0912 41.966 59.5092 41.828 58.9692 41.552C58.4412 41.276 57.9852 40.88 57.6012 40.364C57.2172 39.848 56.9112 39.224 56.6832 38.492C56.4672 37.76 56.3592 36.938 56.3592 36.026C56.3592 35.114 56.4672 34.298 56.6832 33.578C56.9112 32.846 57.2172 32.228 57.6012 31.724C57.9852 31.208 58.4412 30.812 58.9692 30.536C59.5092 30.26 60.0912 30.122 60.7152 30.122ZM60.7152 32.264C60.1032 32.264 59.6052 32.582 59.2212 33.218C58.8372 33.854 58.6452 34.79 58.6452 36.026C58.6452 37.262 58.8372 38.204 59.2212 38.852C59.6052 39.488 60.1032 39.806 60.7152 39.806C61.3272 39.806 61.8252 39.488 62.2092 38.852C62.5932 38.204 62.7852 37.262 62.7852 36.026C62.7852 34.79 62.5932 33.854 62.2092 33.218C61.8252 32.582 61.3272 32.264 60.7152 32.264ZM74.2138 39.392V30.176H85.7338V32.084H76.6258V33.83H85.3558V35.666H76.6258V37.52H85.8598V39.392H74.2138ZM87.4618 43.64H72.4498V41.714H87.4618V43.64ZM101.986 37.25V45.512H99.6104V28.952H101.986V35.288H104.308V37.25H101.986ZM97.5764 30.662C97.5764 31.91 97.4504 33.11 97.1984 34.262C96.9464 35.402 96.5264 36.482 95.9384 37.502C95.3624 38.51 94.6004 39.452 93.6524 40.328C92.7164 41.204 91.5584 41.99 90.1784 42.686L88.8464 40.868C90.7784 39.872 92.2604 38.708 93.2924 37.376C94.3364 36.032 94.9664 34.436 95.1824 32.588H89.7644V30.662H97.5764ZM123.451 45.53H121.057V28.952H123.451V45.53ZM118.519 30.68C118.519 31.94 118.399 33.146 118.159 34.298C117.919 35.45 117.505 36.536 116.917 37.556C116.341 38.564 115.567 39.506 114.595 40.382C113.623 41.246 112.399 42.032 110.923 42.74L109.681 40.868C110.737 40.364 111.649 39.824 112.417 39.248C113.185 38.66 113.827 38.024 114.343 37.34C114.859 36.656 115.255 35.918 115.531 35.126C115.819 34.334 116.005 33.482 116.089 32.57H110.563V30.68H118.519ZM140.424 45.548H138.174V37.25H136.68V44.774H134.466V29.276H136.68V35.342H138.174V28.952H140.424V45.548ZM129.012 39.86C129.804 39.836 130.56 39.8 131.28 39.752C132 39.692 132.756 39.59 133.548 39.446L133.728 41.372C132.72 41.564 131.748 41.69 130.812 41.75C129.876 41.798 128.88 41.822 127.824 41.822H126.672V30.878H132.81V32.804H129.012V39.86ZM156.586 45.584H154.21V28.97H156.586V45.584ZM149.386 40.292C150.07 40.256 150.73 40.214 151.366 40.166C152.014 40.118 152.662 40.064 153.31 40.004L153.454 41.732C152.566 41.876 151.672 41.99 150.772 42.074C149.872 42.146 148.984 42.206 148.108 42.254C147.232 42.29 146.374 42.314 145.534 42.326C144.694 42.326 143.89 42.326 143.122 42.326L142.834 40.382H144.868C145.564 40.382 146.278 40.37 147.01 40.346V37.592H143.896V30.446H152.446V32.336H146.272V35.684H152.554V37.592H149.386V40.292ZM161.175 35.342V29.564H163.551V33.452H172.677V35.342H161.175ZM174.333 38.942H159.321V37.034H174.333V38.942ZM172.767 43.298V45.206H161.013V40.256H163.407V43.298H172.767ZM194.088 37.988H191.838V34.352H190.542V37.88H188.328V29.294H190.542V32.426H191.838V28.988H194.088V37.988ZM187.59 33.704C187.59 34.268 187.494 34.79 187.302 35.27C187.122 35.738 186.864 36.146 186.528 36.494C186.192 36.83 185.79 37.094 185.322 37.286C184.866 37.478 184.356 37.574 183.792 37.574C183.24 37.574 182.73 37.478 182.262 37.286C181.806 37.094 181.41 36.83 181.074 36.494C180.738 36.146 180.474 35.738 180.282 35.27C180.102 34.79 180.012 34.268 180.012 33.704C180.012 33.14 180.102 32.624 180.282 32.156C180.474 31.688 180.738 31.286 181.074 30.95C181.41 30.602 181.806 30.338 182.262 30.158C182.73 29.966 183.24 29.87 183.792 29.87C184.356 29.87 184.866 29.966 185.322 30.158C185.79 30.338 186.192 30.602 186.528 30.95C186.864 31.286 187.122 31.688 187.302 32.156C187.494 32.624 187.59 33.14 187.59 33.704ZM182.154 33.704C182.154 34.328 182.304 34.808 182.604 35.144C182.916 35.48 183.312 35.648 183.792 35.648C184.296 35.648 184.698 35.48 184.998 35.144C185.31 34.808 185.466 34.328 185.466 33.704C185.466 33.092 185.31 32.624 184.998 32.3C184.698 31.964 184.296 31.796 183.792 31.796C183.312 31.796 182.916 31.964 182.604 32.3C182.304 32.624 182.154 33.092 182.154 33.704ZM194.088 38.672V45.35H182.82V38.672H185.178V40.166H191.748V38.672H194.088ZM185.178 42.002V43.46H191.748V42.002H185.178ZM198.208 40.184L197.83 32.822L197.74 30.32H200.404L200.314 32.822L199.936 40.184H198.208ZM197.776 44.252V41.696H200.404V44.252H197.776Z" fill="white"/>
<path d="M40.3039 75.9718L36.7882 79.0054L37.8593 83.5421C37.9184 83.7884 37.9032 84.0466 37.8156 84.2843C37.728 84.5219 37.5719 84.7282 37.3671 84.8772C37.1623 85.0262 36.9179 85.1111 36.6648 85.1213C36.4118 85.1314 36.1614 85.0663 35.9453 84.9343L32 82.5061L28.0523 84.9343C27.8362 85.0656 27.5861 85.13 27.3335 85.1195C27.0809 85.109 26.837 85.0239 26.6326 84.8751C26.4282 84.7262 26.2724 84.5202 26.1849 84.283C26.0973 84.0458 26.0819 83.788 26.1406 83.5421L27.2156 79.0054L23.7 75.9718C23.5088 75.8065 23.3705 75.5887 23.3024 75.3453C23.2344 75.102 23.2395 74.844 23.3172 74.6035C23.3948 74.3631 23.5416 74.1509 23.7392 73.9933C23.9368 73.8358 24.1764 73.74 24.4281 73.7179L29.0375 73.346L30.8156 69.0429C30.9118 68.8083 31.0756 68.6077 31.2862 68.4666C31.4967 68.3254 31.7445 68.25 31.998 68.25C32.2515 68.25 32.4993 68.3254 32.7098 68.4666C32.9204 68.6077 33.0842 68.8083 33.1804 69.0429L34.9578 73.346L39.5671 73.7179C39.8193 73.7392 40.0596 73.8345 40.2579 73.9918C40.4562 74.1491 40.6037 74.3614 40.6819 74.6021C40.76 74.8429 40.7654 75.1013 40.6973 75.3451C40.6292 75.5889 40.4907 75.8071 40.2992 75.9725L40.3039 75.9718Z" fill="#FE8207"/>
<path d="M60.3039 75.9718L56.7882 79.0054L57.8593 83.5421C57.9184 83.7884 57.9032 84.0466 57.8156 84.2843C57.728 84.5219 57.5719 84.7282 57.3671 84.8772C57.1623 85.0262 56.9179 85.1111 56.6648 85.1213C56.4118 85.1314 56.1614 85.0663 55.9453 84.9343L52 82.5061L48.0523 84.9343C47.8362 85.0656 47.5861 85.13 47.3335 85.1195C47.0809 85.109 46.837 85.0239 46.6326 84.8751C46.4282 84.7262 46.2724 84.5202 46.1849 84.283C46.0973 84.0458 46.0819 83.788 46.1406 83.5421L47.2156 79.0054L43.7 75.9718C43.5088 75.8065 43.3705 75.5887 43.3024 75.3453C43.2344 75.102 43.2395 74.844 43.3172 74.6035C43.3948 74.3631 43.5416 74.1509 43.7392 73.9933C43.9368 73.8358 44.1764 73.74 44.4281 73.7179L49.0375 73.346L50.8156 69.0429C50.9118 68.8083 51.0756 68.6077 51.2862 68.4666C51.4967 68.3254 51.7445 68.25 51.998 68.25C52.2515 68.25 52.4993 68.3254 52.7098 68.4666C52.9204 68.6077 53.0842 68.8083 53.1804 69.0429L54.9578 73.346L59.5671 73.7179C59.8193 73.7392 60.0596 73.8345 60.2579 73.9918C60.4562 74.1491 60.6037 74.3614 60.6819 74.6021C60.76 74.8429 60.7654 75.1013 60.6973 75.3451C60.6292 75.5889 60.4907 75.8071 60.2992 75.9725L60.3039 75.9718Z" fill="#FE8207"/>
<path d="M80.3039 75.9718L76.7882 79.0054L77.8593 83.5421C77.9184 83.7884 77.9032 84.0466 77.8156 84.2843C77.728 84.5219 77.5719 84.7282 77.3671 84.8772C77.1623 85.0262 76.9179 85.1111 76.6648 85.1213C76.4118 85.1314 76.1614 85.0663 75.9453 84.9343L72 82.5061L68.0523 84.9343C67.8362 85.0656 67.5861 85.13 67.3335 85.1195C67.0809 85.109 66.837 85.0239 66.6326 84.8751C66.4282 84.7262 66.2724 84.5202 66.1849 84.283C66.0973 84.0458 66.0819 83.788 66.1406 83.5421L67.2156 79.0054L63.7 75.9718C63.5088 75.8065 63.3705 75.5887 63.3024 75.3453C63.2344 75.102 63.2395 74.844 63.3172 74.6035C63.3948 74.3631 63.5416 74.1509 63.7392 73.9933C63.9368 73.8358 64.1764 73.74 64.4281 73.7179L69.0375 73.346L70.8156 69.0429C70.9118 68.8083 71.0756 68.6077 71.2862 68.4666C71.4967 68.3254 71.7445 68.25 71.998 68.25C72.2515 68.25 72.4993 68.3254 72.7098 68.4666C72.9204 68.6077 73.0842 68.8083 73.1804 69.0429L74.9578 73.346L79.5671 73.7179C79.8193 73.7392 80.0596 73.8345 80.2579 73.9918C80.4562 74.1491 80.6037 74.3614 80.6819 74.6021C80.76 74.8429 80.7654 75.1013 80.6973 75.3451C80.6292 75.5889 80.4907 75.8071 80.2992 75.9725L80.3039 75.9718Z" fill="#FE8207"/>
<path d="M100.304 75.9718L96.7882 79.0054L97.8593 83.5421C97.9184 83.7884 97.9032 84.0466 97.8156 84.2843C97.728 84.5219 97.5719 84.7282 97.3671 84.8772C97.1623 85.0262 96.9179 85.1111 96.6648 85.1213C96.4118 85.1314 96.1614 85.0663 95.9453 84.9343L92 82.5061L88.0523 84.9343C87.8362 85.0656 87.5861 85.13 87.3335 85.1195C87.0809 85.109 86.837 85.0239 86.6326 84.8751C86.4282 84.7262 86.2724 84.5202 86.1849 84.283C86.0973 84.0458 86.0819 83.788 86.1406 83.5421L87.2156 79.0054L83.7 75.9718C83.5088 75.8065 83.3705 75.5887 83.3024 75.3453C83.2344 75.102 83.2395 74.844 83.3172 74.6035C83.3948 74.3631 83.5416 74.1509 83.7392 73.9933C83.9368 73.8358 84.1764 73.74 84.4281 73.7179L89.0375 73.346L90.8156 69.0429C90.9118 68.8083 91.0756 68.6077 91.2862 68.4666C91.4967 68.3254 91.7445 68.25 91.998 68.25C92.2515 68.25 92.4993 68.3254 92.7098 68.4666C92.9204 68.6077 93.0842 68.8083 93.1804 69.0429L94.9578 73.346L99.5671 73.7179C99.8193 73.7392 100.06 73.8345 100.258 73.9918C100.456 74.1491 100.604 74.3614 100.682 74.6021C100.76 74.8429 100.765 75.1013 100.697 75.3451C100.629 75.5889 100.491 75.8071 100.299 75.9725L100.304 75.9718Z" fill="#FE8207"/>
<path d="M120.304 75.9718L116.788 79.0054L117.859 83.5421C117.918 83.7884 117.903 84.0466 117.816 84.2843C117.728 84.5219 117.572 84.7282 117.367 84.8772C117.162 85.0262 116.918 85.1111 116.665 85.1213C116.412 85.1314 116.161 85.0663 115.945 84.9343L112 82.5061L108.052 84.9343C107.836 85.0656 107.586 85.13 107.333 85.1195C107.081 85.109 106.837 85.0239 106.633 84.8751C106.428 84.7262 106.272 84.5202 106.185 84.283C106.097 84.0458 106.082 83.788 106.141 83.5421L107.216 79.0054L103.7 75.9718C103.509 75.8065 103.371 75.5887 103.302 75.3453C103.234 75.102 103.239 74.844 103.317 74.6035C103.395 74.3631 103.542 74.1509 103.739 73.9933C103.937 73.8358 104.176 73.74 104.428 73.7179L109.037 73.346L110.816 69.0429C110.912 68.8083 111.076 68.6077 111.286 68.4666C111.497 68.3254 111.744 68.25 111.998 68.25C112.251 68.25 112.499 68.3254 112.71 68.4666C112.92 68.6077 113.084 68.8083 113.18 69.0429L114.958 73.346L119.567 73.7179C119.819 73.7392 120.06 73.8345 120.258 73.9918C120.456 74.1491 120.604 74.3614 120.682 74.6021C120.76 74.8429 120.765 75.1013 120.697 75.3451C120.629 75.5889 120.491 75.8071 120.299 75.9725L120.304 75.9718Z" fill="#FE8207"/>
<path d="M33.088 119.064H31.94V111.574H28.09V110.622H31.94V106.478H33.088V119.064ZM24.576 115.06C25.5093 115.051 26.41 115.009 27.278 114.934C28.1553 114.859 29.0607 114.729 29.994 114.542L30.148 115.522C29.1493 115.709 28.1927 115.839 27.278 115.914C26.3633 115.989 25.4067 116.026 24.408 116.026H23.428V107.878H24.576V115.06ZM37.0629 112.064V107.178H45.5469V112.064H37.0629ZM38.1829 108.102V111.154H44.4129V108.102H38.1829ZM41.8509 114.71V119.022H40.7029V114.71H35.6069V113.772H47.0029V114.71H41.8509ZM58.7147 112.204V111.266H60.8147V109.796H58.7147V108.872H60.8147V106.492H61.9767V115.816H60.8147V112.204H58.7147ZM59.0787 113.506C58.4813 113.599 57.8607 113.674 57.2167 113.73C56.5727 113.786 55.9333 113.828 55.2987 113.856C54.664 113.884 54.048 113.903 53.4507 113.912C52.8533 113.921 52.3027 113.926 51.7987 113.926L51.6727 112.974H52.8487C52.9793 112.974 53.1147 112.969 53.2547 112.96V108.424H52.0087V107.5H58.6167V108.424H57.3707V112.806C57.6507 112.787 57.926 112.769 58.1967 112.75C58.4767 112.722 58.7473 112.689 59.0087 112.652L59.0787 113.506ZM54.3607 112.946C54.6687 112.937 54.9813 112.927 55.2987 112.918C55.616 112.909 55.9333 112.895 56.2507 112.876V108.424H54.3607V112.946ZM62.2987 118.756H53.9267V115.06H55.0747V117.818H62.2987V118.756ZM74.8136 119.05H73.6656V106.464H74.8136V119.05ZM66.3856 115.06C67.4122 115.06 68.4109 115.027 69.3816 114.962C70.3616 114.897 71.3976 114.78 72.4896 114.612L72.6016 115.55C72.0322 115.643 71.4816 115.723 70.9496 115.788C70.4269 115.844 69.9089 115.891 69.3956 115.928C68.8822 115.956 68.3689 115.979 67.8556 115.998C67.3422 116.007 66.8149 116.012 66.2736 116.012H65.2376V111.196H69.8576V108.578H65.1956V107.64H71.0196V112.134H66.3856V115.06ZM87.0625 112.61V119.036H85.9145V106.492H87.0625V111.644H89.1205V112.61H87.0625ZM84.7245 108.494V109.418H77.3185V108.494H80.4825V106.632H81.6305V108.494H84.7245ZM81.0705 110.454C81.5185 110.454 81.9292 110.529 82.3025 110.678C82.6758 110.818 82.9978 111.019 83.2685 111.28C83.5485 111.532 83.7632 111.835 83.9125 112.19C84.0618 112.545 84.1365 112.932 84.1365 113.352C84.1365 113.781 84.0618 114.173 83.9125 114.528C83.7632 114.883 83.5485 115.186 83.2685 115.438C82.9978 115.69 82.6758 115.886 82.3025 116.026C81.9292 116.166 81.5185 116.236 81.0705 116.236C80.6318 116.236 80.2258 116.166 79.8525 116.026C79.4792 115.886 79.1572 115.69 78.8865 115.438C78.6158 115.186 78.4058 114.883 78.2565 114.528C78.1072 114.173 78.0325 113.781 78.0325 113.352C78.0325 112.932 78.1072 112.545 78.2565 112.19C78.4058 111.835 78.6158 111.532 78.8865 111.28C79.1572 111.019 79.4792 110.818 79.8525 110.678C80.2258 110.529 80.6318 110.454 81.0705 110.454ZM81.0705 115.284C81.3598 115.284 81.6258 115.237 81.8685 115.144C82.1112 115.041 82.3165 114.906 82.4845 114.738C82.6618 114.57 82.7972 114.369 82.8905 114.136C82.9932 113.893 83.0445 113.632 83.0445 113.352C83.0445 113.072 82.9932 112.815 82.8905 112.582C82.7972 112.339 82.6618 112.134 82.4845 111.966C82.3165 111.789 82.1112 111.653 81.8685 111.56C81.6258 111.457 81.3598 111.406 81.0705 111.406C80.7905 111.406 80.5292 111.457 80.2865 111.56C80.0438 111.653 79.8338 111.789 79.6565 111.966C79.4885 112.134 79.3532 112.339 79.2505 112.582C79.1572 112.815 79.1105 113.072 79.1105 113.352C79.1105 113.632 79.1572 113.893 79.2505 114.136C79.3532 114.369 79.4885 114.57 79.6565 114.738C79.8338 114.906 80.0438 115.041 80.2865 115.144C80.5292 115.237 80.7905 115.284 81.0705 115.284ZM91.4714 108.676V107.738H100.277V108.984C100.277 109.376 100.273 109.782 100.263 110.202C100.263 110.613 100.249 111.056 100.221 111.532C100.193 111.999 100.147 112.503 100.081 113.044C100.016 113.576 99.9227 114.159 99.8014 114.794L98.6534 114.668C98.8961 113.473 99.0361 112.414 99.0734 111.49C99.1107 110.566 99.1294 109.731 99.1294 108.984V108.676H91.4714ZM101.635 117.272H90.2814V116.334H94.6914V111.84H95.8394V116.334H101.635V117.272ZM106.879 110.104C107.43 110.057 107.957 109.969 108.461 109.838C108.965 109.698 109.413 109.53 109.805 109.334C110.197 109.129 110.519 108.895 110.771 108.634C111.023 108.363 111.168 108.074 111.205 107.766H107.327V106.87H116.595V107.766H112.717C112.754 108.074 112.894 108.363 113.137 108.634C113.389 108.895 113.711 109.129 114.103 109.334C114.495 109.539 114.943 109.707 115.447 109.838C115.951 109.969 116.478 110.057 117.029 110.104L116.665 110.972C116.133 110.925 115.62 110.841 115.125 110.72C114.64 110.589 114.187 110.426 113.767 110.23C113.356 110.034 112.992 109.805 112.675 109.544C112.367 109.273 112.129 108.979 111.961 108.662C111.793 108.979 111.55 109.273 111.233 109.544C110.925 109.805 110.561 110.034 110.141 110.23C109.73 110.426 109.278 110.589 108.783 110.72C108.298 110.841 107.789 110.925 107.257 110.972L106.879 110.104ZM117.645 112.61H106.277V111.686H111.373V110.202H112.521V111.686H117.645V112.61ZM116.581 114.29V115.172H107.327V114.29H111.387V113.114H112.535V114.29H116.581ZM111.947 115.788C113.198 115.788 114.14 115.928 114.775 116.208C115.41 116.488 115.727 116.908 115.727 117.468C115.727 118.009 115.41 118.415 114.775 118.686C114.14 118.966 113.198 119.106 111.947 119.106C110.696 119.106 109.754 118.966 109.119 118.686C108.494 118.415 108.181 118.009 108.181 117.468C108.181 116.908 108.494 116.488 109.119 116.208C109.754 115.928 110.696 115.788 111.947 115.788ZM111.947 118.322C112.796 118.322 113.44 118.247 113.879 118.098C114.327 117.958 114.551 117.748 114.551 117.468C114.551 117.169 114.327 116.95 113.879 116.81C113.44 116.67 112.796 116.6 111.947 116.6C111.098 116.6 110.454 116.67 110.015 116.81C109.576 116.95 109.357 117.169 109.357 117.468C109.357 117.748 109.576 117.958 110.015 118.098C110.454 118.247 111.098 118.322 111.947 118.322ZM128.816 112.456V119.036H127.668V106.492H128.816V111.49H130.888V112.456H128.816ZM122.502 107.444C122.969 107.444 123.393 107.547 123.776 107.752C124.159 107.957 124.49 108.251 124.77 108.634C125.05 109.017 125.265 109.479 125.414 110.02C125.573 110.552 125.652 111.154 125.652 111.826C125.652 112.498 125.573 113.105 125.414 113.646C125.265 114.178 125.05 114.635 124.77 115.018C124.49 115.401 124.159 115.695 123.776 115.9C123.393 116.105 122.969 116.208 122.502 116.208C122.035 116.208 121.606 116.105 121.214 115.9C120.831 115.695 120.5 115.401 120.22 115.018C119.94 114.635 119.721 114.178 119.562 113.646C119.413 113.105 119.338 112.498 119.338 111.826C119.338 111.154 119.413 110.552 119.562 110.02C119.721 109.479 119.94 109.017 120.22 108.634C120.5 108.251 120.831 107.957 121.214 107.752C121.606 107.547 122.035 107.444 122.502 107.444ZM122.502 115.186C122.801 115.186 123.076 115.107 123.328 114.948C123.58 114.789 123.795 114.565 123.972 114.276C124.159 113.977 124.303 113.623 124.406 113.212C124.509 112.801 124.56 112.339 124.56 111.826C124.56 111.322 124.509 110.865 124.406 110.454C124.303 110.034 124.159 109.679 123.972 109.39C123.795 109.101 123.58 108.877 123.328 108.718C123.076 108.559 122.801 108.48 122.502 108.48C122.194 108.48 121.914 108.559 121.662 108.718C121.41 108.877 121.191 109.101 121.004 109.39C120.827 109.679 120.687 110.034 120.584 110.454C120.481 110.865 120.43 111.322 120.43 111.826C120.43 112.339 120.481 112.801 120.584 113.212C120.687 113.623 120.827 113.977 121.004 114.276C121.191 114.565 121.41 114.789 121.662 114.948C121.914 115.107 122.194 115.186 122.502 115.186ZM143.431 117.426H132.021V116.474H134.821V113.086C134.289 112.815 133.874 112.461 133.575 112.022C133.286 111.574 133.141 111.065 133.141 110.496C133.141 110.011 133.253 109.572 133.477 109.18C133.701 108.779 134.014 108.438 134.415 108.158C134.826 107.878 135.311 107.663 135.871 107.514C136.431 107.355 137.042 107.276 137.705 107.276C138.377 107.276 138.988 107.355 139.539 107.514C140.099 107.663 140.58 107.878 140.981 108.158C141.392 108.438 141.709 108.779 141.933 109.18C142.157 109.572 142.269 110.011 142.269 110.496C142.269 111.065 142.124 111.569 141.835 112.008C141.555 112.447 141.149 112.801 140.617 113.072V116.474H143.431V117.426ZM137.705 108.172C137.201 108.172 136.734 108.228 136.305 108.34C135.885 108.452 135.521 108.611 135.213 108.816C134.914 109.012 134.676 109.255 134.499 109.544C134.331 109.824 134.247 110.141 134.247 110.496C134.247 110.841 134.331 111.159 134.499 111.448C134.676 111.737 134.914 111.985 135.213 112.19C135.521 112.386 135.885 112.54 136.305 112.652C136.734 112.764 137.201 112.82 137.705 112.82C138.209 112.82 138.671 112.764 139.091 112.652C139.52 112.54 139.889 112.386 140.197 112.19C140.505 111.985 140.743 111.737 140.911 111.448C141.088 111.159 141.177 110.841 141.177 110.496C141.177 110.141 141.088 109.824 140.911 109.544C140.743 109.255 140.505 109.012 140.197 108.816C139.889 108.611 139.52 108.452 139.091 108.34C138.671 108.228 138.209 108.172 137.705 108.172ZM139.469 116.474V113.52C138.844 113.651 138.256 113.716 137.705 113.716C137.397 113.716 137.098 113.702 136.809 113.674C136.52 113.637 136.24 113.585 135.969 113.52V116.474H139.469ZM146.874 107.514L146.664 115.494H145.782L145.572 107.514H146.874ZM145.586 118.182V116.866H146.86V118.182H145.586ZM28.986 134.52V140.036H27.838V134.52H22.728V133.582H25.962C26.2233 132.593 26.3913 131.748 26.466 131.048C26.5407 130.348 26.5827 129.76 26.592 129.284H23.652V128.346H27.712V128.766C27.712 129.158 27.6887 129.765 27.642 130.586C27.5953 131.398 27.432 132.397 27.152 133.582H31.198C31.4033 132.593 31.5293 131.748 31.576 131.048C31.632 130.348 31.6647 129.76 31.674 129.284H28.636V128.346H32.808V128.906C32.808 129.354 32.7893 129.965 32.752 130.74C32.7147 131.515 32.5793 132.462 32.346 133.582H34.082V134.52H28.986ZM36.3069 132.112C36.8669 132.037 37.4036 131.907 37.9169 131.72C38.4302 131.533 38.8829 131.309 39.2749 131.048C39.6669 130.777 39.9796 130.474 40.2129 130.138C40.4462 129.793 40.5629 129.429 40.5629 129.046V129.032H36.6569V128.108H45.9529V129.032H42.0469V129.046C42.0469 129.429 42.1636 129.793 42.3969 130.138C42.6302 130.474 42.9429 130.777 43.3349 131.048C43.7269 131.319 44.1796 131.547 44.6929 131.734C45.2062 131.911 45.7382 132.037 46.2889 132.112L45.8689 133.036C45.3556 132.961 44.8609 132.845 44.3849 132.686C43.9089 132.518 43.4702 132.317 43.0689 132.084C42.6676 131.841 42.3129 131.571 42.0049 131.272C41.7062 130.964 41.4729 130.628 41.3049 130.264C41.1369 130.628 40.8989 130.964 40.5909 131.272C40.2829 131.571 39.9282 131.841 39.5269 132.084C39.1256 132.317 38.6869 132.518 38.2109 132.686C37.7349 132.845 37.2449 132.961 36.7409 133.036L36.3069 132.112ZM46.9889 134.87H41.9629V137.418H40.8149V134.87H35.5929V133.946H46.9889V134.87ZM45.7289 138.818V139.756H37.0489V136.2H38.1969V138.818H45.7289ZM58.7758 140.036H57.6278V127.478H58.7758V140.036ZM56.3118 129.508V130.446H48.7798V129.508H51.9718V127.618H53.1198V129.508H56.3118ZM52.5598 131.454C53.0171 131.454 53.4325 131.524 53.8058 131.664C54.1885 131.804 54.5151 132.005 54.7858 132.266C55.0658 132.518 55.2805 132.821 55.4298 133.176C55.5885 133.531 55.6678 133.918 55.6678 134.338C55.6678 134.767 55.5885 135.159 55.4298 135.514C55.2805 135.869 55.0658 136.177 54.7858 136.438C54.5151 136.69 54.1885 136.886 53.8058 137.026C53.4325 137.166 53.0171 137.236 52.5598 137.236C52.1118 137.236 51.6965 137.166 51.3138 137.026C50.9405 136.886 50.6138 136.69 50.3338 136.438C50.0631 136.177 49.8485 135.869 49.6898 135.514C49.5405 135.159 49.4658 134.767 49.4658 134.338C49.4658 133.918 49.5405 133.531 49.6898 133.176C49.8485 132.821 50.0631 132.518 50.3338 132.266C50.6138 132.005 50.9405 131.804 51.3138 131.664C51.6965 131.524 52.1118 131.454 52.5598 131.454ZM52.5598 136.284C52.8491 136.284 53.1151 136.237 53.3578 136.144C53.6098 136.041 53.8245 135.906 54.0018 135.738C54.1791 135.561 54.3191 135.355 54.4218 135.122C54.5245 134.879 54.5758 134.618 54.5758 134.338C54.5758 134.058 54.5245 133.801 54.4218 133.568C54.3191 133.325 54.1791 133.12 54.0018 132.952C53.8245 132.784 53.6098 132.653 53.3578 132.56C53.1151 132.457 52.8491 132.406 52.5598 132.406C52.2705 132.406 51.9998 132.457 51.7478 132.56C51.5051 132.653 51.2951 132.784 51.1178 132.952C50.9405 133.12 50.8005 133.325 50.6978 133.568C50.6045 133.801 50.5578 134.058 50.5578 134.338C50.5578 134.618 50.6045 134.879 50.6978 135.122C50.8005 135.355 50.9405 135.561 51.1178 135.738C51.2951 135.906 51.5051 136.041 51.7478 136.144C51.9998 136.237 52.2705 136.284 52.5598 136.284ZM74.8556 134.226H73.6936V131.412H71.1456C71.0896 131.785 70.9729 132.126 70.7956 132.434C70.6182 132.733 70.3896 132.989 70.1096 133.204C69.8296 133.419 69.5076 133.587 69.1436 133.708C68.7796 133.82 68.3782 133.876 67.9396 133.876C67.4729 133.876 67.0389 133.806 66.6376 133.666C66.2456 133.526 65.9049 133.33 65.6156 133.078C65.3356 132.817 65.1116 132.509 64.9436 132.154C64.7849 131.79 64.7056 131.393 64.7056 130.964C64.7056 130.535 64.7849 130.143 64.9436 129.788C65.1116 129.433 65.3356 129.13 65.6156 128.878C65.9049 128.617 66.2456 128.416 66.6376 128.276C67.0389 128.136 67.4729 128.066 67.9396 128.066C68.3596 128.066 68.7516 128.127 69.1156 128.248C69.4796 128.36 69.8016 128.523 70.0816 128.738C70.3616 128.943 70.5902 129.195 70.7676 129.494C70.9542 129.783 71.0756 130.11 71.1316 130.474H73.6936V127.492H74.8556V134.226ZM67.9396 132.924C68.2476 132.924 68.5322 132.877 68.7936 132.784C69.0642 132.681 69.2929 132.546 69.4796 132.378C69.6662 132.201 69.8109 131.995 69.9136 131.762C70.0256 131.519 70.0816 131.253 70.0816 130.964C70.0816 130.675 70.0256 130.413 69.9136 130.18C69.8109 129.937 69.6662 129.732 69.4796 129.564C69.2929 129.387 69.0642 129.251 68.7936 129.158C68.5322 129.065 68.2476 129.018 67.9396 129.018C67.6316 129.018 67.3422 129.065 67.0716 129.158C66.8102 129.251 66.5862 129.387 66.3996 129.564C66.2129 129.732 66.0636 129.937 65.9516 130.18C65.8489 130.413 65.7976 130.675 65.7976 130.964C65.7976 131.253 65.8489 131.519 65.9516 131.762C66.0636 131.995 66.2129 132.201 66.3996 132.378C66.5862 132.546 66.8102 132.681 67.0716 132.784C67.3422 132.877 67.6316 132.924 67.9396 132.924ZM74.8556 134.842V139.868H66.8196V134.842H67.9536V136.424H73.7076V134.842H74.8556ZM67.9536 137.32V138.944H73.7076V137.32H67.9536ZM88.0425 140.036H86.9505V127.478H88.0425V140.036ZM85.5085 127.786V139.406H84.4305V133.218H81.7285V132.266H84.4305V127.786H85.5085ZM78.9845 136.06C79.4232 136.06 79.8292 136.055 80.2025 136.046C80.5758 136.037 80.9305 136.023 81.2665 136.004C81.6025 135.976 81.9292 135.939 82.2465 135.892C82.5638 135.845 82.8812 135.785 83.1985 135.71L83.3105 136.648C82.9558 136.723 82.6058 136.783 82.2605 136.83C81.9245 136.877 81.5698 136.914 81.1965 136.942C80.8325 136.97 80.4452 136.989 80.0345 136.998C79.6238 137.007 79.1665 137.012 78.6625 137.012H77.8505V129.018H82.5685V129.942H78.9845V136.06ZM100.543 140.064H99.3954V127.478H100.543V140.064ZM93.9214 128.444C94.3881 128.444 94.8174 128.547 95.2094 128.752C95.6014 128.957 95.9374 129.251 96.2174 129.634C96.4974 130.017 96.7167 130.479 96.8754 131.02C97.0341 131.552 97.1134 132.154 97.1134 132.826C97.1134 133.498 97.0341 134.105 96.8754 134.646C96.7167 135.178 96.4974 135.635 96.2174 136.018C95.9374 136.401 95.6014 136.695 95.2094 136.9C94.8174 137.105 94.3881 137.208 93.9214 137.208C93.4547 137.208 93.0254 137.105 92.6334 136.9C92.2414 136.695 91.9054 136.401 91.6254 136.018C91.3454 135.635 91.1261 135.178 90.9674 134.646C90.8087 134.105 90.7294 133.498 90.7294 132.826C90.7294 132.154 90.8087 131.552 90.9674 131.02C91.1261 130.479 91.3454 130.017 91.6254 129.634C91.9054 129.251 92.2414 128.957 92.6334 128.752C93.0254 128.547 93.4547 128.444 93.9214 128.444ZM93.9214 129.48C93.6134 129.48 93.3287 129.559 93.0674 129.718C92.8154 129.877 92.5961 130.101 92.4094 130.39C92.2227 130.679 92.0781 131.034 91.9754 131.454C91.8727 131.865 91.8214 132.322 91.8214 132.826C91.8214 133.339 91.8727 133.801 91.9754 134.212C92.0781 134.623 92.2227 134.977 92.4094 135.276C92.5961 135.565 92.8154 135.789 93.0674 135.948C93.3287 136.107 93.6134 136.186 93.9214 136.186C94.2294 136.186 94.5094 136.107 94.7614 135.948C95.0134 135.789 95.2327 135.565 95.4194 135.276C95.6061 134.977 95.7507 134.623 95.8534 134.212C95.9561 133.801 96.0074 133.339 96.0074 132.826C96.0074 132.322 95.9561 131.865 95.8534 131.454C95.7507 131.034 95.6061 130.679 95.4194 130.39C95.2327 130.101 95.0134 129.877 94.7614 129.718C94.5094 129.559 94.2294 129.48 93.9214 129.48ZM104.602 135.178V128.57H113.1V129.494H105.764V131.356H112.82V132.266H105.764V134.254H113.226V135.178H104.602ZM114.528 138.412H103.132V137.474H114.528V138.412ZM120.584 133.414V127.982H121.718V129.704H127.948V127.982H129.096V133.414H120.584ZM121.718 130.628V132.476H127.948V130.628H121.718ZM125.386 135.85V140.05H124.238V135.85H119.142V134.926H130.538V135.85H125.386ZM141.779 131.762V135.08H140.631V127.478H141.779V130.81H143.641V131.762H141.779ZM139.287 134.044C138.858 134.119 138.438 134.179 138.027 134.226C137.626 134.273 137.201 134.31 136.753 134.338C136.305 134.366 135.82 134.385 135.297 134.394C134.784 134.403 134.205 134.408 133.561 134.408H132.609V128.332H138.349V129.256H133.757V130.88H138.125V131.79H133.757V133.484C134.364 133.484 134.905 133.479 135.381 133.47C135.866 133.461 136.319 133.447 136.739 133.428C137.168 133.4 137.574 133.363 137.957 133.316C138.349 133.269 138.75 133.209 139.161 133.134L139.287 134.044ZM141.779 135.724V140.05H140.631V136.648H133.617V135.724H141.779ZM146.356 134.436V128.626H154.854V129.578H147.49V133.498H154.98V134.436H146.356ZM156.296 138.342H144.9V137.39H156.296V138.342ZM166.949 134.072V127.492H168.097V134.072H166.949ZM165.535 133.218C165.04 133.302 164.559 133.372 164.093 133.428C163.635 133.475 163.164 133.512 162.679 133.54C162.193 133.559 161.685 133.573 161.153 133.582C160.63 133.591 160.056 133.596 159.431 133.596H158.423V130.334H163.015V128.962H158.395V128.066H164.149V131.188H159.557V132.7C160.145 132.7 160.691 132.695 161.195 132.686C161.708 132.677 162.193 132.663 162.651 132.644C163.117 132.616 163.575 132.579 164.023 132.532C164.48 132.476 164.947 132.406 165.423 132.322L165.535 133.218ZM168.517 139.896H159.991V136.76H166.935V135.542H159.963V134.66H168.097V137.614H161.153V139H168.517V139.896ZM181.34 140.036H180.248V127.478H181.34V140.036ZM178.722 127.814V139.406H177.63V133.54H175.054C174.662 134.268 174.167 134.949 173.57 135.584C172.972 136.219 172.235 136.802 171.358 137.334L170.686 136.508C172.039 135.696 173.056 134.744 173.738 133.652C174.428 132.551 174.825 131.337 174.928 130.012H171.218V129.074H176.062C176.062 129.69 176.015 130.297 175.922 130.894C175.828 131.482 175.674 132.056 175.46 132.616H177.63V127.814H178.722ZM194.947 138.426H183.537V137.474H186.337V134.086C185.805 133.815 185.389 133.461 185.091 133.022C184.801 132.574 184.657 132.065 184.657 131.496C184.657 131.011 184.769 130.572 184.993 130.18C185.217 129.779 185.529 129.438 185.931 129.158C186.341 128.878 186.827 128.663 187.387 128.514C187.947 128.355 188.558 128.276 189.221 128.276C189.893 128.276 190.504 128.355 191.055 128.514C191.615 128.663 192.095 128.878 192.497 129.158C192.907 129.438 193.225 129.779 193.449 130.18C193.673 130.572 193.785 131.011 193.785 131.496C193.785 132.065 193.64 132.569 193.351 133.008C193.071 133.447 192.665 133.801 192.133 134.072V137.474H194.947V138.426ZM189.221 129.172C188.717 129.172 188.25 129.228 187.821 129.34C187.401 129.452 187.037 129.611 186.729 129.816C186.43 130.012 186.192 130.255 186.015 130.544C185.847 130.824 185.763 131.141 185.763 131.496C185.763 131.841 185.847 132.159 186.015 132.448C186.192 132.737 186.43 132.985 186.729 133.19C187.037 133.386 187.401 133.54 187.821 133.652C188.25 133.764 188.717 133.82 189.221 133.82C189.725 133.82 190.187 133.764 190.607 133.652C191.036 133.54 191.405 133.386 191.713 133.19C192.021 132.985 192.259 132.737 192.427 132.448C192.604 132.159 192.693 131.841 192.693 131.496C192.693 131.141 192.604 130.824 192.427 130.544C192.259 130.255 192.021 130.012 191.713 129.816C191.405 129.611 191.036 129.452 190.607 129.34C190.187 129.228 189.725 129.172 189.221 129.172ZM190.985 137.474V134.52C190.359 134.651 189.771 134.716 189.221 134.716C188.913 134.716 188.614 134.702 188.325 134.674C188.035 134.637 187.755 134.585 187.485 134.52V137.474H190.985ZM197.55 137.88V139.196H196.276V137.88H197.55ZM33.088 161.064H31.94V153.574H28.09V152.622H31.94V148.478H33.088V161.064ZM24.576 157.06C25.5093 157.051 26.41 157.009 27.278 156.934C28.1553 156.859 29.0607 156.729 29.994 156.542L30.148 157.522C29.1493 157.709 28.1927 157.839 27.278 157.914C26.3633 157.989 25.4067 158.026 24.408 158.026H23.428V149.878H24.576V157.06ZM37.0629 154.064V149.178H45.5469V154.064H37.0629ZM38.1829 150.102V153.154H44.4129V150.102H38.1829ZM41.8509 156.71V161.022H40.7029V156.71H35.6069V155.772H47.0029V156.71H41.8509ZM58.7147 154.204V153.266H60.8147V151.796H58.7147V150.872H60.8147V148.492H61.9767V157.816H60.8147V154.204H58.7147ZM59.0787 155.506C58.4813 155.599 57.8607 155.674 57.2167 155.73C56.5727 155.786 55.9333 155.828 55.2987 155.856C54.664 155.884 54.048 155.903 53.4507 155.912C52.8533 155.921 52.3027 155.926 51.7987 155.926L51.6727 154.974H52.8487C52.9793 154.974 53.1147 154.969 53.2547 154.96V150.424H52.0087V149.5H58.6167V150.424H57.3707V154.806C57.6507 154.787 57.926 154.769 58.1967 154.75C58.4767 154.722 58.7473 154.689 59.0087 154.652L59.0787 155.506ZM54.3607 154.946C54.6687 154.937 54.9813 154.927 55.2987 154.918C55.616 154.909 55.9333 154.895 56.2507 154.876V150.424H54.3607V154.946ZM62.2987 160.756H53.9267V157.06H55.0747V159.818H62.2987V160.756ZM74.8136 161.05H73.6656V148.464H74.8136V161.05ZM66.3856 157.06C67.4122 157.06 68.4109 157.027 69.3816 156.962C70.3616 156.897 71.3976 156.78 72.4896 156.612L72.6016 157.55C72.0322 157.643 71.4816 157.723 70.9496 157.788C70.4269 157.844 69.9089 157.891 69.3956 157.928C68.8822 157.956 68.3689 157.979 67.8556 157.998C67.3422 158.007 66.8149 158.012 66.2736 158.012H65.2376V153.196H69.8576V150.578H65.1956V149.64H71.0196V154.134H66.3856V157.06ZM87.0625 154.61V161.036H85.9145V148.492H87.0625V153.644H89.1205V154.61H87.0625ZM84.7245 150.494V151.418H77.3185V150.494H80.4825V148.632H81.6305V150.494H84.7245ZM81.0705 152.454C81.5185 152.454 81.9292 152.529 82.3025 152.678C82.6758 152.818 82.9978 153.019 83.2685 153.28C83.5485 153.532 83.7632 153.835 83.9125 154.19C84.0618 154.545 84.1365 154.932 84.1365 155.352C84.1365 155.781 84.0618 156.173 83.9125 156.528C83.7632 156.883 83.5485 157.186 83.2685 157.438C82.9978 157.69 82.6758 157.886 82.3025 158.026C81.9292 158.166 81.5185 158.236 81.0705 158.236C80.6318 158.236 80.2258 158.166 79.8525 158.026C79.4792 157.886 79.1572 157.69 78.8865 157.438C78.6158 157.186 78.4058 156.883 78.2565 156.528C78.1072 156.173 78.0325 155.781 78.0325 155.352C78.0325 154.932 78.1072 154.545 78.2565 154.19C78.4058 153.835 78.6158 153.532 78.8865 153.28C79.1572 153.019 79.4792 152.818 79.8525 152.678C80.2258 152.529 80.6318 152.454 81.0705 152.454ZM81.0705 157.284C81.3598 157.284 81.6258 157.237 81.8685 157.144C82.1112 157.041 82.3165 156.906 82.4845 156.738C82.6618 156.57 82.7972 156.369 82.8905 156.136C82.9932 155.893 83.0445 155.632 83.0445 155.352C83.0445 155.072 82.9932 154.815 82.8905 154.582C82.7972 154.339 82.6618 154.134 82.4845 153.966C82.3165 153.789 82.1112 153.653 81.8685 153.56C81.6258 153.457 81.3598 153.406 81.0705 153.406C80.7905 153.406 80.5292 153.457 80.2865 153.56C80.0438 153.653 79.8338 153.789 79.6565 153.966C79.4885 154.134 79.3532 154.339 79.2505 154.582C79.1572 154.815 79.1105 155.072 79.1105 155.352C79.1105 155.632 79.1572 155.893 79.2505 156.136C79.3532 156.369 79.4885 156.57 79.6565 156.738C79.8338 156.906 80.0438 157.041 80.2865 157.144C80.5292 157.237 80.7905 157.284 81.0705 157.284ZM91.4714 150.676V149.738H100.277V150.984C100.277 151.376 100.273 151.782 100.263 152.202C100.263 152.613 100.249 153.056 100.221 153.532C100.193 153.999 100.147 154.503 100.081 155.044C100.016 155.576 99.9227 156.159 99.8014 156.794L98.6534 156.668C98.8961 155.473 99.0361 154.414 99.0734 153.49C99.1107 152.566 99.1294 151.731 99.1294 150.984V150.676H91.4714ZM101.635 159.272H90.2814V158.334H94.6914V153.84H95.8394V158.334H101.635V159.272ZM106.879 152.104C107.43 152.057 107.957 151.969 108.461 151.838C108.965 151.698 109.413 151.53 109.805 151.334C110.197 151.129 110.519 150.895 110.771 150.634C111.023 150.363 111.168 150.074 111.205 149.766H107.327V148.87H116.595V149.766H112.717C112.754 150.074 112.894 150.363 113.137 150.634C113.389 150.895 113.711 151.129 114.103 151.334C114.495 151.539 114.943 151.707 115.447 151.838C115.951 151.969 116.478 152.057 117.029 152.104L116.665 152.972C116.133 152.925 115.62 152.841 115.125 152.72C114.64 152.589 114.187 152.426 113.767 152.23C113.356 152.034 112.992 151.805 112.675 151.544C112.367 151.273 112.129 150.979 111.961 150.662C111.793 150.979 111.55 151.273 111.233 151.544C110.925 151.805 110.561 152.034 110.141 152.23C109.73 152.426 109.278 152.589 108.783 152.72C108.298 152.841 107.789 152.925 107.257 152.972L106.879 152.104ZM117.645 154.61H106.277V153.686H111.373V152.202H112.521V153.686H117.645V154.61ZM116.581 156.29V157.172H107.327V156.29H111.387V155.114H112.535V156.29H116.581ZM111.947 157.788C113.198 157.788 114.14 157.928 114.775 158.208C115.41 158.488 115.727 158.908 115.727 159.468C115.727 160.009 115.41 160.415 114.775 160.686C114.14 160.966 113.198 161.106 111.947 161.106C110.696 161.106 109.754 160.966 109.119 160.686C108.494 160.415 108.181 160.009 108.181 159.468C108.181 158.908 108.494 158.488 109.119 158.208C109.754 157.928 110.696 157.788 111.947 157.788ZM111.947 160.322C112.796 160.322 113.44 160.247 113.879 160.098C114.327 159.958 114.551 159.748 114.551 159.468C114.551 159.169 114.327 158.95 113.879 158.81C113.44 158.67 112.796 158.6 111.947 158.6C111.098 158.6 110.454 158.67 110.015 158.81C109.576 158.95 109.357 159.169 109.357 159.468C109.357 159.748 109.576 159.958 110.015 160.098C110.454 160.247 111.098 160.322 111.947 160.322ZM129.446 153.322C128.961 153.247 128.485 153.131 128.018 152.972C127.551 152.813 127.113 152.622 126.702 152.398C126.301 152.165 125.937 151.899 125.61 151.6C125.293 151.301 125.036 150.979 124.84 150.634C124.644 150.979 124.383 151.301 124.056 151.6C123.739 151.899 123.375 152.165 122.964 152.398C122.563 152.622 122.129 152.813 121.662 152.972C121.195 153.131 120.715 153.247 120.22 153.322L119.8 152.398C120.36 152.333 120.906 152.202 121.438 152.006C121.979 151.81 122.455 151.572 122.866 151.292C123.286 151.003 123.622 150.681 123.874 150.326C124.126 149.962 124.252 149.579 124.252 149.178V148.618H125.428V149.178C125.428 149.561 125.554 149.934 125.806 150.298C126.058 150.653 126.389 150.975 126.8 151.264C127.22 151.553 127.696 151.801 128.228 152.006C128.76 152.202 129.306 152.333 129.866 152.398L129.446 153.322ZM130.51 155.128H119.142V154.204H130.51V155.128ZM129.026 155.996V160.868H120.584V155.996H121.718V157.466H127.892V155.996H129.026ZM121.718 158.348V159.944H127.892V158.348H121.718ZM142.325 161.022H141.177V148.478H142.325V161.022ZM133.967 156.808C134.928 156.808 135.894 156.766 136.865 156.682C137.836 156.589 138.844 156.435 139.889 156.22L140.015 157.2C138.914 157.424 137.864 157.578 136.865 157.662C135.866 157.746 134.863 157.788 133.855 157.788H132.819V149.696H133.967V156.808ZM154.574 154.386V161.064H153.426V148.478H154.574V153.434H156.646V154.386H154.574ZM146.594 156.948C147.154 156.948 147.677 156.943 148.162 156.934C148.657 156.915 149.128 156.892 149.576 156.864C150.033 156.836 150.481 156.794 150.92 156.738C151.359 156.682 151.802 156.612 152.25 156.528L152.376 157.48C151.9 157.573 151.433 157.653 150.976 157.718C150.519 157.774 150.052 157.821 149.576 157.858C149.1 157.886 148.605 157.905 148.092 157.914C147.579 157.923 147.028 157.928 146.44 157.928H145.446V149.682H151.284V150.634H146.594V156.948ZM159.753 149.514L159.543 157.494H158.661L158.451 149.514H159.753ZM158.465 160.182V158.866H159.739V160.182H158.465Z" fill="white"/>
</svg>
