<svg width="320" height="211" viewBox="0 0 320 211" fill="none" xmlns="http://www.w3.org/2000/svg">
<rect width="320" height="211" rx="16" fill="#36312B"/>
<path d="M36.544 38.96H34.15V28.97H36.544V38.96ZM31.9 38.402C30.964 38.114 30.184 37.694 29.56 37.142C28.936 36.578 28.432 35.918 28.048 35.162C27.676 35.99 27.16 36.71 26.5 37.322C25.84 37.934 25.024 38.396 24.052 38.708L22.846 36.854C23.518 36.638 24.1 36.35 24.592 35.99C25.084 35.63 25.492 35.228 25.816 34.784C26.14 34.34 26.38 33.866 26.536 33.362C26.704 32.858 26.794 32.348 26.806 31.832H23.476V29.96H32.494V31.832H29.218C29.23 32.312 29.314 32.792 29.47 33.272C29.638 33.752 29.878 34.202 30.19 34.622C30.502 35.03 30.898 35.408 31.378 35.756C31.87 36.092 32.446 36.368 33.106 36.584L31.9 38.402ZM36.544 39.698V45.566H34.15V41.588H25.258V39.698H36.544ZM54.5426 35.972H52.5626V41.372H50.1866V28.952H52.5626V34.01H54.5426V35.972ZM45.8666 35.81C45.9986 35.018 46.0886 34.322 46.1366 33.722C46.1846 33.122 46.2146 32.57 46.2266 32.066H40.0526V30.176H48.5666V31.202C48.5666 31.778 48.5486 32.474 48.5126 33.29C48.4886 34.094 48.3806 35.024 48.1886 36.08L45.8666 35.81ZM49.4306 38.438C48.5786 38.594 47.7026 38.72 46.8026 38.816C45.9146 38.912 45.0326 38.984 44.1566 39.032C43.2806 39.08 42.4286 39.116 41.6006 39.14C40.7846 39.152 40.0226 39.158 39.3146 39.158L39.0986 37.268H40.5566C41.0606 37.268 41.5826 37.262 42.1226 37.25V34.028H44.4446V37.16C45.2726 37.124 46.0886 37.076 46.8926 37.016C47.6966 36.944 48.4946 36.854 49.2866 36.746L49.4306 38.438ZM53.0846 43.37V45.26H41.5106V40.274H43.8866V43.37H53.0846ZM69.7512 38.834H67.3752V34.838H64.9272V32.93H67.3752V28.988H69.7512V38.834ZM64.7292 38.384C63.8172 38.084 63.0492 37.658 62.4252 37.106C61.8012 36.542 61.3152 35.882 60.9672 35.126C60.5952 35.954 60.0852 36.68 59.4372 37.304C58.7892 37.928 57.9792 38.396 57.0072 38.708L55.8012 36.836C56.4732 36.608 57.0492 36.314 57.5292 35.954C58.0212 35.594 58.4232 35.192 58.7352 34.748C59.0592 34.292 59.2992 33.812 59.4552 33.308C59.6112 32.804 59.6952 32.294 59.7072 31.778H56.4492V29.888H65.3592V31.778H62.1372C62.1492 32.246 62.2272 32.72 62.3712 33.2C62.5272 33.668 62.7552 34.118 63.0552 34.55C63.3672 34.97 63.7572 35.354 64.2252 35.702C64.6932 36.038 65.2452 36.314 65.8812 36.53L64.7292 38.384ZM69.7512 39.572V45.566H67.3752V41.462H58.4472V39.572H69.7512ZM83.8258 40.886V28.988H86.2198V40.886H83.8258ZM81.7018 34.244C81.7018 34.844 81.5878 35.402 81.3598 35.918C81.1318 36.434 80.8138 36.878 80.4058 37.25C79.9978 37.622 79.5178 37.916 78.9658 38.132C78.4258 38.336 77.8378 38.438 77.2018 38.438C76.5658 38.438 75.9718 38.336 75.4198 38.132C74.8678 37.916 74.3878 37.622 73.9798 37.25C73.5838 36.878 73.2658 36.434 73.0258 35.918C72.7978 35.402 72.6838 34.844 72.6838 34.244C72.6838 33.632 72.7978 33.068 73.0258 32.552C73.2658 32.036 73.5838 31.592 73.9798 31.22C74.3878 30.848 74.8678 30.56 75.4198 30.356C75.9718 30.14 76.5658 30.032 77.2018 30.032C77.8378 30.032 78.4258 30.14 78.9658 30.356C79.5178 30.56 79.9978 30.848 80.4058 31.22C80.8138 31.592 81.1318 32.036 81.3598 32.552C81.5878 33.068 81.7018 33.632 81.7018 34.244ZM75.0058 34.244C75.0058 34.928 75.2158 35.456 75.6358 35.828C76.0678 36.2 76.5898 36.386 77.2018 36.386C77.8258 36.386 78.3418 36.2 78.7498 35.828C79.1698 35.456 79.3798 34.928 79.3798 34.244C79.3798 33.56 79.1698 33.032 78.7498 32.66C78.3418 32.276 77.8258 32.084 77.2018 32.084C76.5898 32.084 76.0678 32.276 75.6358 32.66C75.2158 33.032 75.0058 33.56 75.0058 34.244ZM86.6338 45.26H75.1858V39.716H77.5618V43.37H86.6338V45.26ZM106.947 45.548H104.571V37.25H101.475V35.324H104.571V28.97H106.947V45.548ZM101.511 30.554C101.511 31.826 101.409 33.05 101.205 34.226C101.013 35.39 100.647 36.5 100.107 37.556C99.5665 38.6 98.8225 39.584 97.8745 40.508C96.9385 41.42 95.7265 42.266 94.2385 43.046L92.9425 41.246C94.2505 40.562 95.3125 39.836 96.1285 39.068C96.9445 38.3 97.5925 37.46 98.0725 36.548L93.3385 36.98L93.0325 34.982L98.7925 34.658C98.8765 34.31 98.9485 33.956 99.0085 33.596C99.0685 33.224 99.1165 32.84 99.1525 32.444H93.9145V30.554H101.511ZM110.959 31.184V29.42H123.289V31.184H121.183V33.308H123.163V35.072H111.067V33.308H113.065V31.184H110.959ZM115.423 31.184V33.308H118.825V31.184H115.423ZM124.621 37.79H109.645V35.918H124.621V37.79ZM123.235 43.712V45.422H111.373V41.228H120.463V40.418H111.355V38.708H122.803V42.812H113.731V43.712H123.235ZM138.526 37.394V29.276H140.74V32.39H142.162V28.988H144.412V37.502H142.162V34.28H140.74V37.394H138.526ZM137.572 29.888C137.572 31.928 137.074 33.65 136.078 35.054C135.094 36.446 133.498 37.55 131.29 38.366L130.246 36.71C131.122 36.41 131.866 36.074 132.478 35.702C133.09 35.318 133.6 34.898 134.008 34.442L130.66 34.802L130.354 32.966L134.998 32.714C135.058 32.558 135.106 32.402 135.142 32.246C135.178 32.09 135.208 31.928 135.232 31.76H131.056V29.888H137.572ZM144.934 45.368H133.18V40.85H142.072V39.914H133.144V38.114H144.412V42.524H135.52V43.568H144.934V45.368ZM158.216 41.192V28.97H160.592V41.192H158.216ZM157.118 38.564C156.542 38.672 155.966 38.762 155.39 38.834C154.814 38.906 154.208 38.96 153.572 38.996C152.948 39.032 152.27 39.062 151.538 39.086C150.818 39.098 150.02 39.104 149.144 39.104H147.686V33.596H152.96V31.958H147.668V30.05H155.3V35.36H150.026V37.196C150.758 37.196 151.43 37.19 152.042 37.178C152.654 37.154 153.23 37.124 153.77 37.088C154.322 37.04 154.85 36.986 155.354 36.926C155.858 36.854 156.368 36.77 156.884 36.674L157.118 38.564ZM161.006 45.26H149.504V40.166H151.88V43.37H161.006V45.26ZM177.313 45.602H174.937V36.602H170.887V34.694H174.937V28.97H177.313V45.602ZM166.549 39.644C167.725 39.644 168.781 39.608 169.717 39.536C170.653 39.464 171.589 39.344 172.525 39.176L172.759 41.102C172.195 41.21 171.643 41.3 171.103 41.372C170.563 41.432 170.005 41.48 169.429 41.516C168.853 41.54 168.247 41.558 167.611 41.57C166.975 41.582 166.279 41.588 165.523 41.588H164.173V30.446H171.679V32.336H166.549V39.644ZM182.892 41.714L181.56 45.476H179.526L180.264 41.714H182.892ZM202.182 45.584H199.806V28.952H202.182V45.584ZM194.874 32.66C194.874 33.428 194.958 34.184 195.126 34.928C195.294 35.672 195.546 36.368 195.882 37.016C196.218 37.664 196.644 38.246 197.16 38.762C197.688 39.266 198.3 39.668 198.996 39.968L197.646 41.894C196.674 41.462 195.87 40.856 195.234 40.076C194.598 39.284 194.094 38.378 193.722 37.358C193.35 38.486 192.834 39.476 192.174 40.328C191.514 41.168 190.674 41.822 189.654 42.29L188.232 40.328C188.952 40.016 189.582 39.596 190.122 39.068C190.662 38.528 191.106 37.922 191.454 37.25C191.802 36.566 192.06 35.834 192.228 35.054C192.408 34.262 192.498 33.464 192.498 32.66V30.248H194.874V32.66ZM206.554 32.39V30.5H218.164V32.462C218.164 33.038 218.158 33.62 218.146 34.208C218.146 34.796 218.128 35.414 218.092 36.062C218.056 36.698 217.996 37.376 217.912 38.096C217.828 38.816 217.708 39.602 217.552 40.454L215.194 40.238C215.338 39.446 215.446 38.702 215.518 38.006C215.602 37.31 215.662 36.644 215.698 36.008C215.746 35.372 215.77 34.766 215.77 34.19C215.782 33.602 215.788 33.026 215.788 32.462V32.39H206.554ZM220 43.388H205.006V41.444H220V43.388ZM229.035 33.164V31.274H233.049V28.952H235.425V37.34H233.049V33.164H229.035ZM231.411 36.35C230.067 36.602 228.771 36.77 227.523 36.854C226.287 36.938 225.069 36.98 223.869 36.98H222.465V29.636H224.823V35.018C225.843 34.994 226.863 34.94 227.883 34.856C228.903 34.772 229.977 34.634 231.105 34.442L231.411 36.35ZM235.839 45.35H224.517V40.742H233.049V39.824H224.499V37.97H235.425V42.488H226.893V43.496H235.839V45.35ZM249.5 39.032V28.97H251.894V39.032H249.5ZM248.402 37.88C247.79 37.988 247.184 38.078 246.584 38.15C245.984 38.21 245.366 38.258 244.73 38.294C244.094 38.318 243.422 38.336 242.714 38.348C242.018 38.36 241.256 38.366 240.428 38.366H238.97V33.236H244.244V31.832H238.952V29.942H246.584V35H241.31V36.458C241.994 36.458 242.63 36.452 243.218 36.44C243.818 36.428 244.388 36.404 244.928 36.368C245.48 36.332 246.014 36.284 246.53 36.224C247.058 36.164 247.592 36.086 248.132 35.99L248.402 37.88ZM246.314 39.338C247.202 39.338 247.994 39.41 248.69 39.554C249.398 39.686 249.992 39.89 250.472 40.166C250.964 40.43 251.342 40.754 251.606 41.138C251.87 41.522 252.002 41.96 252.002 42.452C252.002 42.944 251.87 43.382 251.606 43.766C251.342 44.15 250.964 44.474 250.472 44.738C249.992 45.014 249.398 45.218 248.69 45.35C247.994 45.494 247.202 45.566 246.314 45.566C245.438 45.566 244.646 45.494 243.938 45.35C243.242 45.218 242.648 45.014 242.156 44.738C241.676 44.474 241.304 44.15 241.04 43.766C240.776 43.382 240.644 42.944 240.644 42.452C240.644 41.96 240.776 41.522 241.04 41.138C241.304 40.754 241.676 40.43 242.156 40.166C242.648 39.89 243.242 39.686 243.938 39.554C244.646 39.41 245.438 39.338 246.314 39.338ZM246.314 43.73C248.522 43.73 249.626 43.304 249.626 42.452C249.626 41.612 248.522 41.192 246.314 41.192C244.118 41.192 243.02 41.612 243.02 42.452C243.02 43.304 244.118 43.73 246.314 43.73ZM256.374 40.184L255.996 32.822L255.906 30.32H258.57L258.48 32.822L258.102 40.184H256.374ZM255.942 44.252V41.696H258.57V44.252H255.942Z" fill="white"/>
<path d="M40.3039 75.9718L36.7882 79.0054L37.8593 83.5421C37.9184 83.7884 37.9032 84.0466 37.8156 84.2843C37.728 84.5219 37.5719 84.7282 37.3671 84.8772C37.1623 85.0262 36.9179 85.1111 36.6648 85.1213C36.4118 85.1314 36.1614 85.0663 35.9453 84.9343L32 82.5061L28.0523 84.9343C27.8362 85.0656 27.5861 85.13 27.3335 85.1195C27.0809 85.109 26.837 85.0239 26.6326 84.8751C26.4282 84.7262 26.2724 84.5202 26.1849 84.283C26.0973 84.0458 26.0819 83.788 26.1406 83.5421L27.2156 79.0054L23.7 75.9718C23.5088 75.8065 23.3705 75.5887 23.3024 75.3453C23.2344 75.102 23.2395 74.844 23.3172 74.6035C23.3948 74.3631 23.5416 74.1509 23.7392 73.9933C23.9368 73.8358 24.1764 73.74 24.4281 73.7179L29.0375 73.346L30.8156 69.0429C30.9118 68.8083 31.0756 68.6077 31.2862 68.4666C31.4967 68.3254 31.7445 68.25 31.998 68.25C32.2515 68.25 32.4993 68.3254 32.7098 68.4666C32.9204 68.6077 33.0842 68.8083 33.1804 69.0429L34.9578 73.346L39.5671 73.7179C39.8193 73.7392 40.0596 73.8345 40.2579 73.9918C40.4562 74.1491 40.6037 74.3614 40.6819 74.6021C40.76 74.8429 40.7654 75.1013 40.6973 75.3451C40.6292 75.5889 40.4907 75.8071 40.2992 75.9725L40.3039 75.9718Z" fill="#FE8207"/>
<path d="M60.3039 75.9718L56.7882 79.0054L57.8593 83.5421C57.9184 83.7884 57.9032 84.0466 57.8156 84.2843C57.728 84.5219 57.5719 84.7282 57.3671 84.8772C57.1623 85.0262 56.9179 85.1111 56.6648 85.1213C56.4118 85.1314 56.1614 85.0663 55.9453 84.9343L52 82.5061L48.0523 84.9343C47.8362 85.0656 47.5861 85.13 47.3335 85.1195C47.0809 85.109 46.837 85.0239 46.6326 84.8751C46.4282 84.7262 46.2724 84.5202 46.1849 84.283C46.0973 84.0458 46.0819 83.788 46.1406 83.5421L47.2156 79.0054L43.7 75.9718C43.5088 75.8065 43.3705 75.5887 43.3024 75.3453C43.2344 75.102 43.2395 74.844 43.3172 74.6035C43.3948 74.3631 43.5416 74.1509 43.7392 73.9933C43.9368 73.8358 44.1764 73.74 44.4281 73.7179L49.0375 73.346L50.8156 69.0429C50.9118 68.8083 51.0756 68.6077 51.2862 68.4666C51.4967 68.3254 51.7445 68.25 51.998 68.25C52.2515 68.25 52.4993 68.3254 52.7098 68.4666C52.9204 68.6077 53.0842 68.8083 53.1804 69.0429L54.9578 73.346L59.5671 73.7179C59.8193 73.7392 60.0596 73.8345 60.2579 73.9918C60.4562 74.1491 60.6037 74.3614 60.6819 74.6021C60.76 74.8429 60.7654 75.1013 60.6973 75.3451C60.6292 75.5889 60.4907 75.8071 60.2992 75.9725L60.3039 75.9718Z" fill="#FE8207"/>
<path d="M80.3039 75.9718L76.7882 79.0054L77.8593 83.5421C77.9184 83.7884 77.9032 84.0466 77.8156 84.2843C77.728 84.5219 77.5719 84.7282 77.3671 84.8772C77.1623 85.0262 76.9179 85.1111 76.6648 85.1213C76.4118 85.1314 76.1614 85.0663 75.9453 84.9343L72 82.5061L68.0523 84.9343C67.8362 85.0656 67.5861 85.13 67.3335 85.1195C67.0809 85.109 66.837 85.0239 66.6326 84.8751C66.4282 84.7262 66.2724 84.5202 66.1849 84.283C66.0973 84.0458 66.0819 83.788 66.1406 83.5421L67.2156 79.0054L63.7 75.9718C63.5088 75.8065 63.3705 75.5887 63.3024 75.3453C63.2344 75.102 63.2395 74.844 63.3172 74.6035C63.3948 74.3631 63.5416 74.1509 63.7392 73.9933C63.9368 73.8358 64.1764 73.74 64.4281 73.7179L69.0375 73.346L70.8156 69.0429C70.9118 68.8083 71.0756 68.6077 71.2862 68.4666C71.4967 68.3254 71.7445 68.25 71.998 68.25C72.2515 68.25 72.4993 68.3254 72.7098 68.4666C72.9204 68.6077 73.0842 68.8083 73.1804 69.0429L74.9578 73.346L79.5671 73.7179C79.8193 73.7392 80.0596 73.8345 80.2579 73.9918C80.4562 74.1491 80.6037 74.3614 80.6819 74.6021C80.76 74.8429 80.7654 75.1013 80.6973 75.3451C80.6292 75.5889 80.4907 75.8071 80.2992 75.9725L80.3039 75.9718Z" fill="#FE8207"/>
<path d="M100.304 75.9718L96.7882 79.0054L97.8593 83.5421C97.9184 83.7884 97.9032 84.0466 97.8156 84.2843C97.728 84.5219 97.5719 84.7282 97.3671 84.8772C97.1623 85.0262 96.9179 85.1111 96.6648 85.1213C96.4118 85.1314 96.1614 85.0663 95.9453 84.9343L92 82.5061L88.0523 84.9343C87.8362 85.0656 87.5861 85.13 87.3335 85.1195C87.0809 85.109 86.837 85.0239 86.6326 84.8751C86.4282 84.7262 86.2724 84.5202 86.1849 84.283C86.0973 84.0458 86.0819 83.788 86.1406 83.5421L87.2156 79.0054L83.7 75.9718C83.5088 75.8065 83.3705 75.5887 83.3024 75.3453C83.2344 75.102 83.2395 74.844 83.3172 74.6035C83.3948 74.3631 83.5416 74.1509 83.7392 73.9933C83.9368 73.8358 84.1764 73.74 84.4281 73.7179L89.0375 73.346L90.8156 69.0429C90.9118 68.8083 91.0756 68.6077 91.2862 68.4666C91.4967 68.3254 91.7445 68.25 91.998 68.25C92.2515 68.25 92.4993 68.3254 92.7098 68.4666C92.9204 68.6077 93.0842 68.8083 93.1804 69.0429L94.9578 73.346L99.5671 73.7179C99.8193 73.7392 100.06 73.8345 100.258 73.9918C100.456 74.1491 100.604 74.3614 100.682 74.6021C100.76 74.8429 100.765 75.1013 100.697 75.3451C100.629 75.5889 100.491 75.8071 100.299 75.9725L100.304 75.9718Z" fill="#FE8207"/>
<path d="M120.304 75.9718L116.788 79.0054L117.859 83.5421C117.918 83.7884 117.903 84.0466 117.816 84.2843C117.728 84.5219 117.572 84.7282 117.367 84.8772C117.162 85.0262 116.918 85.1111 116.665 85.1213C116.412 85.1314 116.161 85.0663 115.945 84.9343L112 82.5061L108.052 84.9343C107.836 85.0656 107.586 85.13 107.333 85.1195C107.081 85.109 106.837 85.0239 106.633 84.8751C106.428 84.7262 106.272 84.5202 106.185 84.283C106.097 84.0458 106.082 83.788 106.141 83.5421L107.216 79.0054L103.7 75.9718C103.509 75.8065 103.371 75.5887 103.302 75.3453C103.234 75.102 103.239 74.844 103.317 74.6035C103.395 74.3631 103.542 74.1509 103.739 73.9933C103.937 73.8358 104.176 73.74 104.428 73.7179L109.037 73.346L110.816 69.0429C110.912 68.8083 111.076 68.6077 111.286 68.4666C111.497 68.3254 111.744 68.25 111.998 68.25C112.251 68.25 112.499 68.3254 112.71 68.4666C112.92 68.6077 113.084 68.8083 113.18 69.0429L114.958 73.346L119.567 73.7179C119.819 73.7392 120.06 73.8345 120.258 73.9918C120.456 74.1491 120.604 74.3614 120.682 74.6021C120.76 74.8429 120.765 75.1013 120.697 75.3451C120.629 75.5889 120.491 75.8071 120.299 75.9725L120.304 75.9718Z" fill="#FE8207"/>
<path d="M33.074 119.036H31.926V112.456H29.028V111.518H31.926V106.492H33.074V119.036ZM29.07 107.78C29.07 108.695 28.9813 109.586 28.804 110.454C28.6267 111.313 28.3187 112.134 27.88 112.918C27.4507 113.693 26.872 114.425 26.144 115.116C25.416 115.797 24.4967 116.418 23.386 116.978L22.742 116.068C23.89 115.508 24.8187 114.873 25.528 114.164C26.2373 113.455 26.788 112.68 27.18 111.84L22.994 112.232L22.784 111.238L27.53 110.93C27.6513 110.575 27.74 110.216 27.796 109.852C27.8613 109.488 27.908 109.11 27.936 108.718H23.428V107.78H29.07ZM36.6709 107.752V106.87H45.8829V107.752H43.9929V110.146H45.8409V111.028H36.7129V110.146H38.5749V107.752H36.6709ZM39.7229 107.752V110.146H42.8449V107.752H39.7229ZM46.9749 112.988H35.6069V112.078H46.9749V112.988ZM45.8969 118.028V118.896H37.0209V116.026H44.3849V114.948H36.9789V114.094H45.5189V116.852H38.1409V118.028H45.8969ZM58.8038 119.036H57.6418V106.478H58.8038V119.036ZM52.3778 107.836C52.3778 108.583 52.3265 109.325 52.2238 110.062C52.1305 110.799 51.9671 111.523 51.7338 112.232C51.5005 112.941 51.1925 113.627 50.8098 114.29C50.4365 114.953 49.9698 115.583 49.4098 116.18L48.4998 115.508C49.4238 114.547 50.0958 113.506 50.5158 112.386C50.9451 111.257 51.1971 110.057 51.2718 108.788H48.9478V107.836H52.3778ZM55.8638 107.836C55.8638 108.583 55.8265 109.357 55.7518 110.16C55.6771 110.953 55.5371 111.747 55.3318 112.54C55.1358 113.333 54.8605 114.113 54.5058 114.878C54.1511 115.634 53.6938 116.353 53.1338 117.034L52.1818 116.404C52.6578 115.844 53.0545 115.256 53.3718 114.64C53.6891 114.024 53.9458 113.394 54.1418 112.75C54.3471 112.097 54.4965 111.439 54.5898 110.776C54.6925 110.104 54.7578 109.441 54.7858 108.788H52.7838V107.836H55.8638ZM71.6827 119.05H70.5347V106.464H71.6827V119.05ZM63.2547 115.06C64.2814 115.06 65.2801 115.027 66.2507 114.962C67.2307 114.897 68.2667 114.78 69.3587 114.612L69.4707 115.55C68.9014 115.643 68.3507 115.723 67.8187 115.788C67.2961 115.844 66.7781 115.891 66.2647 115.928C65.7514 115.956 65.2381 115.979 64.7247 115.998C64.2114 116.007 63.6841 116.012 63.1427 116.012H62.1067V111.196H66.7267V108.578H62.0647V107.64H67.8887V112.134H63.2547V115.06ZM87.0485 112.526V119.036H85.9005V106.492H87.0485V111.574H89.1205V112.526H87.0485ZM81.6025 109.824C81.6025 110.375 81.6865 110.925 81.8545 111.476C82.0225 112.017 82.2512 112.526 82.5405 113.002C82.8298 113.478 83.1658 113.907 83.5485 114.29C83.9405 114.673 84.3558 114.976 84.7945 115.2L84.0805 116.11C83.7445 115.933 83.4225 115.713 83.1145 115.452C82.8065 115.181 82.5218 114.878 82.2605 114.542C82.0085 114.206 81.7752 113.842 81.5605 113.45C81.3552 113.049 81.1825 112.633 81.0425 112.204C80.7718 113.137 80.3612 113.968 79.8105 114.696C79.2598 115.415 78.6298 115.97 77.9205 116.362L77.2345 115.438C77.6825 115.205 78.1025 114.887 78.4945 114.486C78.8958 114.085 79.2412 113.637 79.5305 113.142C79.8198 112.638 80.0485 112.101 80.2165 111.532C80.3845 110.963 80.4685 110.393 80.4685 109.824V107.57H81.6025V109.824ZM101.621 113.618H90.2534V112.694H93.0674V110.93C92.0407 110.519 91.5274 109.889 91.5274 109.04C91.5274 108.676 91.6301 108.349 91.8354 108.06C92.0407 107.771 92.3347 107.528 92.7174 107.332C93.1001 107.127 93.5621 106.973 94.1034 106.87C94.6447 106.758 95.2561 106.702 95.9374 106.702C96.6187 106.702 97.2301 106.758 97.7714 106.87C98.3221 106.973 98.7841 107.127 99.1574 107.332C99.5401 107.528 99.8341 107.771 100.039 108.06C100.245 108.349 100.347 108.676 100.347 109.04C100.347 109.46 100.212 109.829 99.9414 110.146C99.6801 110.463 99.3067 110.72 98.8214 110.916V112.694H101.621V113.618ZM92.7034 109.04C92.7034 109.488 92.9881 109.843 93.5574 110.104C94.1267 110.356 94.9201 110.482 95.9374 110.482C96.9547 110.482 97.7481 110.356 98.3174 110.104C98.8867 109.843 99.1714 109.488 99.1714 109.04C99.1714 108.583 98.8867 108.228 98.3174 107.976C97.7481 107.724 96.9547 107.598 95.9374 107.598C94.9201 107.598 94.1267 107.724 93.5574 107.976C92.9881 108.228 92.7034 108.583 92.7034 109.04ZM97.6874 112.694V111.224C97.4447 111.271 97.1741 111.308 96.8754 111.336C96.5861 111.355 96.2734 111.364 95.9374 111.364C95.6201 111.364 95.3167 111.355 95.0274 111.336C94.7381 111.308 94.4627 111.271 94.2014 111.224V112.694H97.6874ZM95.9374 114.556C97.2907 114.556 98.3454 114.752 99.1014 115.144C99.8574 115.527 100.235 116.077 100.235 116.796C100.235 117.515 99.8574 118.065 99.1014 118.448C98.3454 118.831 97.2907 119.022 95.9374 119.022C94.5934 119.022 93.5387 118.831 92.7734 118.448C92.0174 118.065 91.6394 117.515 91.6394 116.796C91.6394 116.077 92.0174 115.527 92.7734 115.144C93.5387 114.752 94.5934 114.556 95.9374 114.556ZM95.9374 118.14C96.9267 118.14 97.6967 118.023 98.2474 117.79C98.7981 117.557 99.0734 117.225 99.0734 116.796C99.0734 116.367 98.7981 116.035 98.2474 115.802C97.6967 115.569 96.9267 115.452 95.9374 115.452C94.9481 115.452 94.1781 115.569 93.6274 115.802C93.0767 116.035 92.8014 116.367 92.8014 116.796C92.8014 117.225 93.0767 117.557 93.6274 117.79C94.1781 118.023 94.9481 118.14 95.9374 118.14ZM103.188 108.508V107.626H106.31V106.352H107.458V107.626H110.594V108.508H103.188ZM114.752 110.412H112.89V113.38H111.742V106.436H112.89V109.46H114.752V110.412ZM109.894 111.126C109.894 111.77 109.624 112.274 109.082 112.638C108.541 113.002 107.808 113.184 106.884 113.184C106.436 113.184 106.026 113.137 105.652 113.044C105.288 112.951 104.976 112.815 104.714 112.638C104.453 112.461 104.248 112.246 104.098 111.994C103.958 111.733 103.888 111.443 103.888 111.126C103.888 110.799 103.958 110.51 104.098 110.258C104.248 110.006 104.453 109.791 104.714 109.614C104.976 109.437 105.288 109.301 105.652 109.208C106.026 109.115 106.436 109.068 106.884 109.068C107.808 109.068 108.541 109.25 109.082 109.614C109.624 109.978 109.894 110.482 109.894 111.126ZM104.98 111.126C104.98 111.518 105.148 111.817 105.484 112.022C105.83 112.227 106.296 112.33 106.884 112.33C107.472 112.33 107.939 112.227 108.284 112.022C108.63 111.817 108.802 111.518 108.802 111.126C108.802 110.734 108.63 110.435 108.284 110.23C107.939 110.025 107.472 109.922 106.884 109.922C106.296 109.922 105.83 110.025 105.484 110.23C105.148 110.435 104.98 110.734 104.98 111.126ZM113.352 118.014V118.896H104.952V115.97H111.756V114.878H104.91V114.024H112.89V116.81H106.072V118.014H113.352ZM129.488 112.19C129.003 112.106 128.522 111.98 128.046 111.812C127.579 111.635 127.141 111.42 126.73 111.168C126.329 110.916 125.965 110.631 125.638 110.314C125.311 109.987 125.045 109.633 124.84 109.25C124.644 109.633 124.383 109.987 124.056 110.314C123.729 110.631 123.361 110.916 122.95 111.168C122.549 111.42 122.11 111.635 121.634 111.812C121.167 111.98 120.691 112.106 120.206 112.19L119.744 111.266C120.323 111.182 120.878 111.033 121.41 110.818C121.951 110.594 122.432 110.323 122.852 110.006C123.272 109.679 123.608 109.315 123.86 108.914C124.112 108.503 124.238 108.074 124.238 107.626V106.926H125.442V107.626C125.442 108.065 125.568 108.485 125.82 108.886C126.081 109.287 126.422 109.651 126.842 109.978C127.271 110.305 127.757 110.58 128.298 110.804C128.839 111.028 129.395 111.182 129.964 111.266L129.488 112.19ZM125.386 114.5V119.05H124.238V114.5H119.17V113.548H130.51L130.524 114.5H125.386ZM144.322 113.66V106.492H145.47V113.66H144.322ZM138.722 113.072C138.246 113.072 137.807 113.002 137.406 112.862C137.014 112.722 136.673 112.521 136.384 112.26C136.094 111.999 135.866 111.691 135.698 111.336C135.539 110.972 135.46 110.575 135.46 110.146C135.46 109.707 135.539 109.311 135.698 108.956C135.866 108.601 136.094 108.293 136.384 108.032C136.673 107.771 137.014 107.57 137.406 107.43C137.807 107.29 138.246 107.22 138.722 107.22C139.198 107.22 139.636 107.29 140.038 107.43C140.439 107.57 140.784 107.771 141.074 108.032C141.372 108.293 141.601 108.601 141.76 108.956C141.928 109.311 142.012 109.707 142.012 110.146C142.012 110.575 141.928 110.972 141.76 111.336C141.601 111.691 141.372 111.999 141.074 112.26C140.784 112.521 140.439 112.722 140.038 112.862C139.636 113.002 139.198 113.072 138.722 113.072ZM138.722 108.172C138.414 108.172 138.124 108.223 137.854 108.326C137.592 108.419 137.368 108.555 137.182 108.732C136.995 108.9 136.846 109.105 136.734 109.348C136.631 109.591 136.58 109.857 136.58 110.146C136.58 110.435 136.631 110.701 136.734 110.944C136.846 111.187 136.995 111.397 137.182 111.574C137.368 111.742 137.592 111.877 137.854 111.98C138.124 112.073 138.414 112.12 138.722 112.12C139.03 112.12 139.314 112.073 139.576 111.98C139.846 111.877 140.08 111.742 140.276 111.574C140.472 111.397 140.621 111.187 140.724 110.944C140.836 110.701 140.892 110.435 140.892 110.146C140.892 109.857 140.836 109.591 140.724 109.348C140.621 109.105 140.472 108.9 140.276 108.732C140.08 108.555 139.846 108.419 139.576 108.326C139.314 108.223 139.03 108.172 138.722 108.172ZM144.07 114.878C144.07 115.205 144.126 115.527 144.238 115.844C144.35 116.161 144.513 116.46 144.728 116.74C144.942 117.011 145.204 117.258 145.512 117.482C145.829 117.697 146.188 117.869 146.59 118L146.016 118.868C145.4 118.644 144.877 118.327 144.448 117.916C144.028 117.505 143.71 117.034 143.496 116.502C143.3 117.015 143.01 117.496 142.628 117.944C142.245 118.383 141.76 118.728 141.172 118.98C140.556 118.737 140.056 118.406 139.674 117.986C139.3 117.557 139.02 117.076 138.834 116.544C138.61 117.048 138.288 117.505 137.868 117.916C137.448 118.327 136.944 118.644 136.356 118.868L135.782 118C136.174 117.86 136.524 117.678 136.832 117.454C137.149 117.221 137.415 116.964 137.63 116.684C137.854 116.404 138.022 116.11 138.134 115.802C138.246 115.494 138.302 115.186 138.302 114.878V114.206H139.408V114.878C139.408 115.438 139.548 115.989 139.828 116.53C140.117 117.071 140.556 117.515 141.144 117.86C141.442 117.673 141.704 117.459 141.928 117.216C142.161 116.973 142.352 116.721 142.502 116.46C142.651 116.189 142.763 115.919 142.838 115.648C142.912 115.377 142.95 115.121 142.95 114.878V114.206H144.07V114.878ZM149.571 111.196V106.94H150.719V110.258H158.111V111.196H149.571ZM159.413 113.8H148.031V112.876H159.413V113.8ZM158.181 117.79V118.728H149.487V115.06H150.635V117.79H158.181ZM170.803 112.988V106.716H171.895V109.362H173.547V106.492H174.653V113.086H173.547V110.3H171.895V112.988H170.803ZM169.641 107.192C169.641 108.676 169.244 109.959 168.451 111.042C167.667 112.115 166.43 112.974 164.741 113.618L164.223 112.778C165.1 112.47 165.823 112.101 166.393 111.672C166.971 111.243 167.433 110.762 167.779 110.23L164.349 110.58L164.167 109.656L168.199 109.39C168.348 108.989 168.446 108.564 168.493 108.116H164.755V107.192H169.641ZM175.129 118.868H166.393V115.76H173.519V114.57H166.365V113.674H174.653V116.614H167.527V117.972H175.129V118.868ZM186.075 115.732V106.492H187.223V115.732H186.075ZM184.689 113.534C184.185 113.618 183.695 113.688 183.219 113.744C182.753 113.8 182.277 113.842 181.791 113.87C181.306 113.898 180.802 113.921 180.279 113.94C179.757 113.949 179.197 113.954 178.599 113.954H177.591V110.132H182.127V108.298H177.549V107.374H183.261V111H178.711V113.016C179.29 113.016 179.827 113.011 180.321 113.002C180.825 112.983 181.311 112.96 181.777 112.932C182.244 112.904 182.706 112.862 183.163 112.806C183.621 112.75 184.092 112.68 184.577 112.596L184.689 113.534ZM187.573 118.756H179.033V115.018H180.181V117.818H187.573V118.756ZM200.158 119.064H199.01V111.98H195.412V111.028H199.01V106.478H200.158V119.064ZM191.59 114.99C192.15 114.99 192.664 114.985 193.13 114.976C193.606 114.967 194.059 114.948 194.488 114.92C194.918 114.883 195.333 114.841 195.734 114.794C196.145 114.738 196.56 114.668 196.98 114.584L197.12 115.536C196.663 115.62 196.22 115.69 195.79 115.746C195.361 115.802 194.922 115.844 194.474 115.872C194.026 115.9 193.55 115.923 193.046 115.942C192.552 115.951 192.006 115.956 191.408 115.956H190.442V107.668H196.154V108.62H191.59V114.99ZM204.119 107.654V106.842H212.617V109.46H205.281V110.538H212.841V111.364H204.147V108.676H211.483V107.654H204.119ZM214.073 113.184H202.691V112.316H214.073V113.184ZM213.051 118.042V118.868H204.077V116.082H211.525V115.032H204.049V114.206H212.659V116.88H205.211V118.042H213.051ZM225.505 113.38C224.777 113.165 224.152 112.839 223.629 112.4C223.106 111.961 222.705 111.448 222.425 110.86C222.154 111.513 221.744 112.078 221.193 112.554C220.642 113.03 219.998 113.389 219.261 113.632L218.701 112.722C219.168 112.582 219.592 112.391 219.975 112.148C220.358 111.905 220.684 111.625 220.955 111.308C221.235 110.991 221.45 110.645 221.599 110.272C221.758 109.889 221.837 109.493 221.837 109.082V108.872H219.051V107.948H221.837V106.422H222.985V107.948H225.757V108.872H222.985V109.082C222.985 109.455 223.055 109.819 223.195 110.174C223.344 110.529 223.554 110.855 223.825 111.154C224.096 111.453 224.418 111.719 224.791 111.952C225.174 112.185 225.594 112.367 226.051 112.498L225.505 113.38ZM230.307 110.538H228.445V113.772H227.297V106.492H228.445V109.586H230.307V110.538ZM225.141 115.368C225.197 115.695 225.342 116.007 225.575 116.306C225.808 116.595 226.102 116.861 226.457 117.104C226.821 117.347 227.232 117.557 227.689 117.734C228.156 117.902 228.641 118.028 229.145 118.112L228.711 118.994C228.254 118.919 227.81 118.807 227.381 118.658C226.961 118.509 226.569 118.327 226.205 118.112C225.841 117.907 225.514 117.669 225.225 117.398C224.945 117.127 224.716 116.838 224.539 116.53C224.362 116.847 224.128 117.141 223.839 117.412C223.559 117.673 223.237 117.907 222.873 118.112C222.518 118.327 222.126 118.504 221.697 118.644C221.277 118.793 220.834 118.905 220.367 118.98L219.961 118.098C220.465 118.023 220.946 117.902 221.403 117.734C221.87 117.566 222.28 117.361 222.635 117.118C222.999 116.875 223.293 116.605 223.517 116.306C223.75 116.007 223.89 115.695 223.937 115.368H220.437V114.458H228.655V115.368H225.141ZM241.24 112.386V119.064H240.092V106.478H241.24V111.434H243.312V112.386H241.24ZM233.26 114.948C233.82 114.948 234.343 114.943 234.828 114.934C235.323 114.915 235.794 114.892 236.242 114.864C236.699 114.836 237.147 114.794 237.586 114.738C238.025 114.682 238.468 114.612 238.916 114.528L239.042 115.48C238.566 115.573 238.099 115.653 237.642 115.718C237.185 115.774 236.718 115.821 236.242 115.858C235.766 115.886 235.271 115.905 234.758 115.914C234.245 115.923 233.694 115.928 233.106 115.928H232.112V107.682H237.95V108.634H233.26V114.948ZM254.119 112.526V119.036H252.971V106.478H254.119V111.574H256.135V112.526H254.119ZM250.871 107.822C250.871 108.718 250.763 109.586 250.549 110.426C250.334 111.266 249.998 112.064 249.541 112.82C249.083 113.576 248.495 114.281 247.777 114.934C247.058 115.578 246.19 116.152 245.173 116.656L244.543 115.76C246.176 114.939 247.417 113.949 248.267 112.792C249.116 111.625 249.606 110.286 249.737 108.774H245.131V107.822H250.871ZM33.018 140.064H31.87V127.478H33.018V140.064ZM27.194 130.824C27.194 131.393 27.2827 131.963 27.46 132.532C27.6373 133.092 27.8753 133.615 28.174 134.1C28.482 134.585 28.8413 135.019 29.252 135.402C29.6627 135.775 30.0967 136.065 30.554 136.27L29.868 137.194C29.14 136.839 28.4913 136.317 27.922 135.626C27.362 134.926 26.9327 134.123 26.634 133.218C26.3447 134.179 25.9153 135.024 25.346 135.752C24.7767 136.48 24.1233 137.04 23.386 137.432L22.686 136.494C23.1433 136.27 23.5773 135.962 23.988 135.57C24.3987 135.178 24.758 134.73 25.066 134.226C25.374 133.722 25.6167 133.181 25.794 132.602C25.9713 132.014 26.06 131.421 26.06 130.824V128.57H27.194V130.824ZM36.8529 129.746V128.808H44.9309V128.822H45.4629V130.068C45.4629 130.469 45.4582 130.885 45.4489 131.314C45.4489 131.743 45.4302 132.21 45.3929 132.714C45.3649 133.209 45.3182 133.741 45.2529 134.31C45.1876 134.879 45.0942 135.505 44.9729 136.186L43.8249 136.06C44.0769 134.781 44.2216 133.657 44.2589 132.686C44.3056 131.715 44.3289 130.843 44.3289 130.068V129.746H36.8529ZM46.9889 138.202H35.6349V137.25H46.9889V138.202ZM54.1278 130.502V129.578H57.6838V127.478H58.8458V133.974H57.6838V130.502H54.1278ZM55.9198 132.952C55.4251 133.045 54.9445 133.125 54.4778 133.19C54.0205 133.255 53.5585 133.307 53.0918 133.344C52.6345 133.381 52.1678 133.409 51.6918 133.428C51.2158 133.437 50.7165 133.442 50.1938 133.442H49.2278V128.08H50.3758V132.476C51.3371 132.476 52.2471 132.443 53.1058 132.378C53.9645 132.313 54.8511 132.187 55.7658 132L55.9198 132.952ZM59.2938 139.868H50.7818V136.704H57.6978V135.486H50.7538V134.562H58.8458V137.586H51.9158V138.944H59.2938V139.868ZM70.5347 135.206V127.478H71.6827V135.206H70.5347ZM69.1347 134.03C68.6214 134.114 68.1221 134.184 67.6367 134.24C67.1607 134.287 66.6754 134.329 66.1807 134.366C65.6954 134.394 65.1961 134.413 64.6827 134.422C64.1694 134.431 63.6234 134.436 63.0447 134.436H62.0367V130.852H66.5727V129.2H61.9947V128.262H67.7067V131.734H63.1567V133.498C63.7167 133.498 64.2441 133.493 64.7387 133.484C65.2334 133.475 65.7141 133.456 66.1807 133.428C66.6474 133.4 67.1094 133.363 67.5667 133.316C68.0334 133.26 68.5141 133.19 69.0087 133.106L69.1347 134.03ZM67.5247 135.472C68.1781 135.472 68.7661 135.523 69.2887 135.626C69.8114 135.729 70.2547 135.878 70.6187 136.074C70.9827 136.261 71.2627 136.494 71.4587 136.774C71.6547 137.054 71.7527 137.376 71.7527 137.74C71.7527 138.104 71.6547 138.431 71.4587 138.72C71.2627 139 70.9827 139.233 70.6187 139.42C70.2547 139.616 69.8114 139.765 69.2887 139.868C68.7661 139.971 68.1781 140.022 67.5247 140.022C66.8714 140.022 66.2834 139.971 65.7607 139.868C65.2474 139.765 64.8087 139.616 64.4447 139.42C64.0807 139.233 63.8007 139 63.6047 138.72C63.4181 138.431 63.3247 138.104 63.3247 137.74C63.3247 137.012 63.6934 136.452 64.4307 136.06C65.1774 135.668 66.2087 135.472 67.5247 135.472ZM67.5247 139.112C68.5141 139.112 69.2747 138.995 69.8067 138.762C70.3387 138.529 70.6047 138.188 70.6047 137.74C70.6047 137.311 70.3387 136.979 69.8067 136.746C69.2747 136.503 68.5141 136.382 67.5247 136.382C66.5634 136.382 65.8121 136.503 65.2707 136.746C64.7387 136.979 64.4727 137.311 64.4727 137.74C64.4727 138.188 64.7387 138.529 65.2707 138.762C65.8121 138.995 66.5634 139.112 67.5247 139.112ZM79.9276 132.042C78.5463 132.042 77.4636 131.86 76.6796 131.496C75.905 131.123 75.5176 130.581 75.5176 129.872C75.5176 129.163 75.905 128.621 76.6796 128.248C77.4636 127.875 78.5463 127.688 79.9276 127.688C81.309 127.688 82.387 127.875 83.1616 128.248C83.9456 128.621 84.3376 129.163 84.3376 129.872C84.3376 130.581 83.9456 131.123 83.1616 131.496C82.387 131.86 81.309 132.042 79.9276 132.042ZM79.9276 128.556C78.8823 128.556 78.0796 128.673 77.5196 128.906C76.969 129.13 76.6936 129.452 76.6936 129.872C76.6936 130.292 76.969 130.619 77.5196 130.852C78.0796 131.076 78.8823 131.188 79.9276 131.188C80.973 131.188 81.771 131.076 82.3216 130.852C82.8816 130.619 83.1616 130.292 83.1616 129.872C83.1616 129.452 82.8816 129.13 82.3216 128.906C81.771 128.673 80.973 128.556 79.9276 128.556ZM85.6116 133.82H74.2436V132.896H85.6116V133.82ZM84.5336 139V139.896H75.6576V136.886H83.0216V135.766H75.6156V134.898H84.1556V137.726H76.7776V139H84.5336ZM99.9274 133.526V140.036H98.7794V127.492H99.9274V132.574H101.999V133.526H99.9274ZM94.4814 130.824C94.4814 131.375 94.5654 131.925 94.7334 132.476C94.9014 133.017 95.1301 133.526 95.4194 134.002C95.7087 134.478 96.0447 134.907 96.4274 135.29C96.8194 135.673 97.2347 135.976 97.6734 136.2L96.9594 137.11C96.6234 136.933 96.3014 136.713 95.9934 136.452C95.6854 136.181 95.4007 135.878 95.1394 135.542C94.8874 135.206 94.6541 134.842 94.4394 134.45C94.2341 134.049 94.0614 133.633 93.9214 133.204C93.6507 134.137 93.2401 134.968 92.6894 135.696C92.1387 136.415 91.5087 136.97 90.7994 137.362L90.1134 136.438C90.5614 136.205 90.9814 135.887 91.3734 135.486C91.7747 135.085 92.1201 134.637 92.4094 134.142C92.6987 133.638 92.9274 133.101 93.0954 132.532C93.2634 131.963 93.3474 131.393 93.3474 130.824V128.57H94.4814V130.824ZM114.5 134.618H103.132V133.694H105.946V131.93C104.92 131.519 104.406 130.889 104.406 130.04C104.406 129.676 104.509 129.349 104.714 129.06C104.92 128.771 105.214 128.528 105.596 128.332C105.979 128.127 106.441 127.973 106.982 127.87C107.524 127.758 108.135 127.702 108.816 127.702C109.498 127.702 110.109 127.758 110.65 127.87C111.201 127.973 111.663 128.127 112.036 128.332C112.419 128.528 112.713 128.771 112.918 129.06C113.124 129.349 113.226 129.676 113.226 130.04C113.226 130.46 113.091 130.829 112.82 131.146C112.559 131.463 112.186 131.72 111.7 131.916V133.694H114.5V134.618ZM105.582 130.04C105.582 130.488 105.867 130.843 106.436 131.104C107.006 131.356 107.799 131.482 108.816 131.482C109.834 131.482 110.627 131.356 111.196 131.104C111.766 130.843 112.05 130.488 112.05 130.04C112.05 129.583 111.766 129.228 111.196 128.976C110.627 128.724 109.834 128.598 108.816 128.598C107.799 128.598 107.006 128.724 106.436 128.976C105.867 129.228 105.582 129.583 105.582 130.04ZM110.566 133.694V132.224C110.324 132.271 110.053 132.308 109.754 132.336C109.465 132.355 109.152 132.364 108.816 132.364C108.499 132.364 108.196 132.355 107.906 132.336C107.617 132.308 107.342 132.271 107.08 132.224V133.694H110.566ZM108.816 135.556C110.17 135.556 111.224 135.752 111.98 136.144C112.736 136.527 113.114 137.077 113.114 137.796C113.114 138.515 112.736 139.065 111.98 139.448C111.224 139.831 110.17 140.022 108.816 140.022C107.472 140.022 106.418 139.831 105.652 139.448C104.896 139.065 104.518 138.515 104.518 137.796C104.518 137.077 104.896 136.527 105.652 136.144C106.418 135.752 107.472 135.556 108.816 135.556ZM108.816 139.14C109.806 139.14 110.576 139.023 111.126 138.79C111.677 138.557 111.952 138.225 111.952 137.796C111.952 137.367 111.677 137.035 111.126 136.802C110.576 136.569 109.806 136.452 108.816 136.452C107.827 136.452 107.057 136.569 106.506 136.802C105.956 137.035 105.68 137.367 105.68 137.796C105.68 138.225 105.956 138.557 106.506 138.79C107.057 139.023 107.827 139.14 108.816 139.14ZM126.665 140.022H125.559V133.708H123.949V139.42H122.871V127.758H123.949V132.77H125.559V127.464H126.665V140.022ZM122.241 129.62V130.558H116.011V129.62H118.559V127.842H119.693V129.62H122.241ZM119.133 131.398C119.525 131.398 119.885 131.468 120.211 131.608C120.538 131.748 120.818 131.944 121.051 132.196C121.294 132.448 121.481 132.751 121.611 133.106C121.751 133.451 121.821 133.834 121.821 134.254C121.821 134.683 121.751 135.075 121.611 135.43C121.481 135.775 121.294 136.074 121.051 136.326C120.818 136.578 120.538 136.774 120.211 136.914C119.885 137.054 119.525 137.124 119.133 137.124C118.741 137.124 118.382 137.054 118.055 136.914C117.729 136.774 117.444 136.578 117.201 136.326C116.968 136.074 116.781 135.775 116.641 135.43C116.511 135.075 116.445 134.683 116.445 134.254C116.445 133.834 116.511 133.451 116.641 133.106C116.781 132.751 116.968 132.448 117.201 132.196C117.444 131.944 117.729 131.748 118.055 131.608C118.382 131.468 118.741 131.398 119.133 131.398ZM119.133 136.172C119.376 136.172 119.6 136.125 119.805 136.032C120.011 135.939 120.183 135.808 120.323 135.64C120.473 135.463 120.589 135.257 120.673 135.024C120.757 134.791 120.799 134.534 120.799 134.254C120.799 133.983 120.757 133.731 120.673 133.498C120.589 133.265 120.473 133.064 120.323 132.896C120.183 132.728 120.011 132.597 119.805 132.504C119.6 132.411 119.376 132.364 119.133 132.364C118.629 132.364 118.223 132.541 117.915 132.896C117.617 133.241 117.467 133.694 117.467 134.254C117.467 134.534 117.509 134.791 117.593 135.024C117.677 135.257 117.789 135.463 117.929 135.64C118.079 135.808 118.256 135.939 118.461 136.032C118.667 136.125 118.891 136.172 119.133 136.172ZM140.286 138.426H128.904V137.488H134V134.786H130.248V128.374H131.382V130.614H137.794V128.374H138.914V134.786H135.162V137.488H140.286V138.426ZM137.794 133.862V131.552H131.382V133.862H137.794ZM152.073 140.022H150.925V127.478H152.073V140.022ZM143.715 135.808C144.676 135.808 145.642 135.766 146.613 135.682C147.584 135.589 148.592 135.435 149.637 135.22L149.763 136.2C148.662 136.424 147.612 136.578 146.613 136.662C145.614 136.746 144.611 136.788 143.603 136.788H142.567V128.696H143.715V135.808ZM167.453 133.456V140.036H166.305V127.492H167.453V132.49H169.525V133.456H167.453ZM161.139 128.444C161.605 128.444 162.03 128.547 162.413 128.752C162.795 128.957 163.127 129.251 163.407 129.634C163.687 130.017 163.901 130.479 164.051 131.02C164.209 131.552 164.289 132.154 164.289 132.826C164.289 133.498 164.209 134.105 164.051 134.646C163.901 135.178 163.687 135.635 163.407 136.018C163.127 136.401 162.795 136.695 162.413 136.9C162.03 137.105 161.605 137.208 161.139 137.208C160.672 137.208 160.243 137.105 159.851 136.9C159.468 136.695 159.137 136.401 158.857 136.018C158.577 135.635 158.357 135.178 158.199 134.646C158.049 134.105 157.975 133.498 157.975 132.826C157.975 132.154 158.049 131.552 158.199 131.02C158.357 130.479 158.577 130.017 158.857 129.634C159.137 129.251 159.468 128.957 159.851 128.752C160.243 128.547 160.672 128.444 161.139 128.444ZM161.139 136.186C161.437 136.186 161.713 136.107 161.965 135.948C162.217 135.789 162.431 135.565 162.609 135.276C162.795 134.977 162.94 134.623 163.043 134.212C163.145 133.801 163.197 133.339 163.197 132.826C163.197 132.322 163.145 131.865 163.043 131.454C162.94 131.034 162.795 130.679 162.609 130.39C162.431 130.101 162.217 129.877 161.965 129.718C161.713 129.559 161.437 129.48 161.139 129.48C160.831 129.48 160.551 129.559 160.299 129.718C160.047 129.877 159.827 130.101 159.641 130.39C159.463 130.679 159.323 131.034 159.221 131.454C159.118 131.865 159.067 132.322 159.067 132.826C159.067 133.339 159.118 133.801 159.221 134.212C159.323 134.623 159.463 134.977 159.641 135.276C159.827 135.565 160.047 135.789 160.299 135.948C160.551 136.107 160.831 136.186 161.139 136.186ZM171.358 132.672C171.908 132.588 172.44 132.443 172.954 132.238C173.476 132.023 173.943 131.767 174.354 131.468C174.764 131.16 175.091 130.819 175.334 130.446C175.586 130.063 175.712 129.667 175.712 129.256V129.186H171.75V128.262H180.92V129.186H176.986V129.256C176.986 129.667 177.107 130.063 177.35 130.446C177.602 130.819 177.933 131.16 178.344 131.468C178.754 131.767 179.221 132.023 179.744 132.238C180.276 132.443 180.817 132.588 181.368 132.672L180.92 133.582C180.434 133.498 179.958 133.372 179.492 133.204C179.025 133.036 178.591 132.831 178.19 132.588C177.788 132.336 177.429 132.056 177.112 131.748C176.794 131.431 176.542 131.085 176.356 130.712C176.16 131.085 175.903 131.431 175.586 131.748C175.268 132.056 174.909 132.336 174.508 132.588C174.116 132.831 173.686 133.036 173.22 133.204C172.762 133.372 172.286 133.498 171.792 133.582L171.358 132.672ZM176.902 135.57V140.036H175.754V135.57H170.686V134.632H182.026L182.04 135.57H176.902ZM196.985 135.08H195.837V127.478H196.985V135.08ZM193.793 134.52C193.065 134.268 192.426 133.899 191.875 133.414C191.334 132.919 190.919 132.336 190.629 131.664C190.359 132.392 189.948 133.022 189.397 133.554C188.856 134.086 188.207 134.487 187.451 134.758L186.849 133.862C187.325 133.694 187.759 133.47 188.151 133.19C188.543 132.91 188.875 132.593 189.145 132.238C189.425 131.874 189.64 131.487 189.789 131.076C189.948 130.656 190.027 130.227 190.027 129.788V129.284H187.157V128.36H194.045V129.284H191.203V129.788C191.203 130.208 191.278 130.614 191.427 131.006C191.586 131.398 191.805 131.762 192.085 132.098C192.365 132.434 192.697 132.733 193.079 132.994C193.471 133.255 193.896 133.461 194.353 133.61L193.793 134.52ZM196.985 135.738V140.036H195.837V136.662H188.585V135.738H196.985ZM211.138 132.518H209.332V136.942H208.184V127.478H209.332V131.566H211.138V132.518ZM205.02 132.714C205.17 131.986 205.263 131.351 205.3 130.81C205.338 130.269 205.356 129.797 205.356 129.396H200.232V128.458H206.476V129.116C206.476 129.536 206.462 130.049 206.434 130.656C206.406 131.263 206.313 131.991 206.154 132.84L205.02 132.714ZM207.428 134.436C206.775 134.548 206.103 134.637 205.412 134.702C204.731 134.767 204.05 134.819 203.368 134.856C202.687 134.893 202.024 134.917 201.38 134.926C200.746 134.935 200.148 134.94 199.588 134.94L199.476 134.002C199.878 134.002 200.302 134.002 200.75 134.002C201.198 133.993 201.66 133.983 202.136 133.974V131.258H203.27V133.932C203.97 133.904 204.661 133.867 205.342 133.82C206.033 133.764 206.7 133.689 207.344 133.596L207.428 134.436ZM209.738 138.818V139.756H201.394V136.074H202.542V138.818H209.738ZM222.771 134.996H221.623V131.692H219.173V130.754H221.623V127.478H222.771V134.996ZM219.271 134.506C218.571 134.254 217.96 133.881 217.437 133.386C216.915 132.891 216.513 132.317 216.233 131.664C215.963 132.392 215.552 133.031 215.001 133.582C214.46 134.123 213.821 134.529 213.083 134.8L212.481 133.89C212.948 133.722 213.373 133.498 213.755 133.218C214.147 132.938 214.483 132.616 214.763 132.252C215.043 131.888 215.258 131.496 215.407 131.076C215.566 130.656 215.645 130.222 215.645 129.774V129.27H212.845V128.332H219.551V129.27H216.793V129.774C216.793 130.175 216.868 130.572 217.017 130.964C217.167 131.356 217.372 131.725 217.633 132.07C217.904 132.406 218.226 132.709 218.599 132.98C218.973 133.241 219.388 133.451 219.845 133.61L219.271 134.506ZM222.771 135.682V140.05H221.623V136.606H214.385V135.682H222.771ZM235.594 140.064H234.446V127.478H235.594V140.064ZM228.972 128.444C229.439 128.444 229.868 128.547 230.26 128.752C230.652 128.957 230.988 129.251 231.268 129.634C231.548 130.017 231.768 130.479 231.926 131.02C232.085 131.552 232.164 132.154 232.164 132.826C232.164 133.498 232.085 134.105 231.926 134.646C231.768 135.178 231.548 135.635 231.268 136.018C230.988 136.401 230.652 136.695 230.26 136.9C229.868 137.105 229.439 137.208 228.972 137.208C228.506 137.208 228.076 137.105 227.684 136.9C227.292 136.695 226.956 136.401 226.676 136.018C226.396 135.635 226.177 135.178 226.018 134.646C225.86 134.105 225.78 133.498 225.78 132.826C225.78 132.154 225.86 131.552 226.018 131.02C226.177 130.479 226.396 130.017 226.676 129.634C226.956 129.251 227.292 128.957 227.684 128.752C228.076 128.547 228.506 128.444 228.972 128.444ZM228.972 129.48C228.664 129.48 228.38 129.559 228.118 129.718C227.866 129.877 227.647 130.101 227.46 130.39C227.274 130.679 227.129 131.034 227.026 131.454C226.924 131.865 226.872 132.322 226.872 132.826C226.872 133.339 226.924 133.801 227.026 134.212C227.129 134.623 227.274 134.977 227.46 135.276C227.647 135.565 227.866 135.789 228.118 135.948C228.38 136.107 228.664 136.186 228.972 136.186C229.28 136.186 229.56 136.107 229.812 135.948C230.064 135.789 230.284 135.565 230.47 135.276C230.657 134.977 230.802 134.623 230.904 134.212C231.007 133.801 231.058 133.339 231.058 132.826C231.058 132.322 231.007 131.865 230.904 131.454C230.802 131.034 230.657 130.679 230.47 130.39C230.284 130.101 230.064 129.877 229.812 129.718C229.56 129.559 229.28 129.48 228.972 129.48ZM239.401 129.676V128.738H248.207V129.984C248.207 130.376 248.202 130.782 248.193 131.202C248.193 131.613 248.179 132.056 248.151 132.532C248.123 132.999 248.076 133.503 248.011 134.044C247.946 134.576 247.852 135.159 247.731 135.794L246.583 135.668C246.826 134.473 246.966 133.414 247.003 132.49C247.04 131.566 247.059 130.731 247.059 129.984V129.676H239.401ZM249.565 138.272H238.211V137.334H242.621V132.84H243.769V137.334H249.565V138.272ZM31.912 155.002V148.478H33.06V155.002H31.912ZM30.708 154.092C30.0827 154.185 29.434 154.265 28.762 154.33C28.0993 154.386 27.4367 154.433 26.774 154.47C26.1207 154.507 25.4767 154.535 24.842 154.554C24.2167 154.563 23.6287 154.568 23.078 154.568L22.966 153.616H24.142C24.2727 153.616 24.4033 153.611 24.534 153.602V150.228H23.302V149.318H30.036V150.228H28.804V153.434C29.1213 153.415 29.434 153.392 29.742 153.364C30.05 153.327 30.3533 153.289 30.652 153.252L30.708 154.092ZM25.654 153.574C26.326 153.565 27.0073 153.537 27.698 153.49V150.228H25.654V153.574ZM33.536 160.896H24.898V157.76H31.926V156.5H24.856V155.604H33.06V158.614H26.032V159.986H33.536V160.896ZM47.0169 159.426H35.6069V158.474H38.4069V155.086C37.8749 154.815 37.4596 154.461 37.1609 154.022C36.8716 153.574 36.7269 153.065 36.7269 152.496C36.7269 152.011 36.8389 151.572 37.0629 151.18C37.2869 150.779 37.5996 150.438 38.0009 150.158C38.4116 149.878 38.8969 149.663 39.4569 149.514C40.0169 149.355 40.6282 149.276 41.2909 149.276C41.9629 149.276 42.5742 149.355 43.1249 149.514C43.6849 149.663 44.1656 149.878 44.5669 150.158C44.9776 150.438 45.2949 150.779 45.5189 151.18C45.7429 151.572 45.8549 152.011 45.8549 152.496C45.8549 153.065 45.7102 153.569 45.4209 154.008C45.1409 154.447 44.7349 154.801 44.2029 155.072V158.474H47.0169V159.426ZM41.2909 150.172C40.7869 150.172 40.3202 150.228 39.8909 150.34C39.4709 150.452 39.1069 150.611 38.7989 150.816C38.5002 151.012 38.2622 151.255 38.0849 151.544C37.9169 151.824 37.8329 152.141 37.8329 152.496C37.8329 152.841 37.9169 153.159 38.0849 153.448C38.2622 153.737 38.5002 153.985 38.7989 154.19C39.1069 154.386 39.4709 154.54 39.8909 154.652C40.3202 154.764 40.7869 154.82 41.2909 154.82C41.7949 154.82 42.2569 154.764 42.6769 154.652C43.1062 154.54 43.4749 154.386 43.7829 154.19C44.0909 153.985 44.3289 153.737 44.4969 153.448C44.6742 153.159 44.7629 152.841 44.7629 152.496C44.7629 152.141 44.6742 151.824 44.4969 151.544C44.3289 151.255 44.0909 151.012 43.7829 150.816C43.4749 150.611 43.1062 150.452 42.6769 150.34C42.2569 150.228 41.7949 150.172 41.2909 150.172ZM43.0549 158.474V155.52C42.4296 155.651 41.8416 155.716 41.2909 155.716C40.9829 155.716 40.6842 155.702 40.3949 155.674C40.1056 155.637 39.8256 155.585 39.5549 155.52V158.474H43.0549ZM48.5418 150.942V150.018H51.6638V148.492H52.8118V150.018H55.9478V150.942H48.5418ZM60.1058 153.588H58.2438V157.9H57.0958V148.492H58.2438V152.622H60.1058V153.588ZM55.2478 153.966C55.2478 154.321 55.1731 154.643 55.0238 154.932C54.8838 155.221 54.6785 155.469 54.4078 155.674C54.1465 155.87 53.8291 156.024 53.4558 156.136C53.0918 156.248 52.6858 156.304 52.2378 156.304C51.7898 156.304 51.3838 156.248 51.0198 156.136C50.6558 156.024 50.3385 155.87 50.0678 155.674C49.8065 155.469 49.6011 155.221 49.4518 154.932C49.3118 154.643 49.2418 154.321 49.2418 153.966C49.2418 153.611 49.3118 153.294 49.4518 153.014C49.6011 152.725 49.8065 152.482 50.0678 152.286C50.3385 152.081 50.6558 151.922 51.0198 151.81C51.3838 151.698 51.7898 151.642 52.2378 151.642C52.6858 151.642 53.0918 151.698 53.4558 151.81C53.8291 151.922 54.1465 152.081 54.4078 152.286C54.6785 152.482 54.8838 152.725 55.0238 153.014C55.1731 153.294 55.2478 153.611 55.2478 153.966ZM50.3338 153.966C50.3338 154.414 50.5018 154.769 50.8378 155.03C51.1831 155.282 51.6498 155.408 52.2378 155.408C52.8071 155.408 53.2691 155.282 53.6238 155.03C53.9785 154.769 54.1558 154.414 54.1558 153.966C54.1558 153.518 53.9785 153.168 53.6238 152.916C53.2691 152.664 52.8071 152.538 52.2378 152.538C51.6498 152.538 51.1831 152.664 50.8378 152.916C50.5018 153.168 50.3338 153.518 50.3338 153.966ZM58.8038 159.818V160.756H50.4318V157.158H51.5798V159.818H58.8038ZM74.8136 161.036H73.6656V148.478H74.8136V161.036ZM71.1316 149.836C71.1316 150.741 71.0242 151.619 70.8096 152.468C70.5949 153.308 70.2496 154.106 69.7736 154.862C69.3069 155.609 68.7049 156.309 67.9676 156.962C67.2302 157.606 66.3389 158.185 65.2936 158.698L64.6776 157.76C66.3669 156.957 67.6409 155.963 68.4996 154.778C69.3582 153.593 69.8482 152.253 69.9696 150.76H65.2516V149.836H71.1316ZM78.9285 152.902V148.744H80.0765V151.978H87.4545V152.902H78.9285ZM88.7565 155.296H77.4025V154.358H88.7565V155.296ZM83.0585 156.416C83.7305 156.416 84.3278 156.467 84.8505 156.57C85.3825 156.673 85.8352 156.822 86.2085 157.018C86.5818 157.214 86.8665 157.457 87.0625 157.746C87.2585 158.026 87.3565 158.348 87.3565 158.712C87.3565 159.076 87.2585 159.403 87.0625 159.692C86.8665 159.972 86.5818 160.205 86.2085 160.392C85.8352 160.588 85.3825 160.737 84.8505 160.84C84.3278 160.943 83.7305 160.994 83.0585 160.994C82.3865 160.994 81.7845 160.943 81.2525 160.84C80.7298 160.737 80.2818 160.588 79.9085 160.392C79.5352 160.205 79.2505 159.972 79.0545 159.692C78.8585 159.403 78.7605 159.076 78.7605 158.712C78.7605 158.348 78.8585 158.026 79.0545 157.746C79.2505 157.457 79.5352 157.214 79.9085 157.018C80.2818 156.822 80.7298 156.673 81.2525 156.57C81.7845 156.467 82.3865 156.416 83.0585 156.416ZM83.0585 160.098C84.0478 160.098 84.8178 159.981 85.3685 159.748C85.9192 159.505 86.1945 159.16 86.1945 158.712C86.1945 158.264 85.9192 157.919 85.3685 157.676C84.8178 157.433 84.0478 157.312 83.0585 157.312C82.0692 157.312 81.2992 157.433 80.7485 157.676C80.1978 157.919 79.9225 158.264 79.9225 158.712C79.9225 159.16 80.1978 159.505 80.7485 159.748C81.2992 159.981 82.0692 160.098 83.0585 160.098ZM101.873 153.266H100.011V157.662H98.8634V148.464H100.011V152.3H101.873V153.266ZM90.7854 155.408V149.598H96.5534V155.408H90.7854ZM91.9054 150.522V154.498H95.4334V150.522H91.9054ZM100.571 159.818V160.756H92.1994V156.808H93.3474V159.818H100.571ZM115.433 155.66V148.492H116.581V155.66H115.433ZM109.833 155.072C109.357 155.072 108.918 155.002 108.517 154.862C108.125 154.722 107.784 154.521 107.495 154.26C107.206 153.999 106.977 153.691 106.809 153.336C106.65 152.972 106.571 152.575 106.571 152.146C106.571 151.707 106.65 151.311 106.809 150.956C106.977 150.601 107.206 150.293 107.495 150.032C107.784 149.771 108.125 149.57 108.517 149.43C108.918 149.29 109.357 149.22 109.833 149.22C110.309 149.22 110.748 149.29 111.149 149.43C111.55 149.57 111.896 149.771 112.185 150.032C112.484 150.293 112.712 150.601 112.871 150.956C113.039 151.311 113.123 151.707 113.123 152.146C113.123 152.575 113.039 152.972 112.871 153.336C112.712 153.691 112.484 153.999 112.185 154.26C111.896 154.521 111.55 154.722 111.149 154.862C110.748 155.002 110.309 155.072 109.833 155.072ZM109.833 150.172C109.525 150.172 109.236 150.223 108.965 150.326C108.704 150.419 108.48 150.555 108.293 150.732C108.106 150.9 107.957 151.105 107.845 151.348C107.742 151.591 107.691 151.857 107.691 152.146C107.691 152.435 107.742 152.701 107.845 152.944C107.957 153.187 108.106 153.397 108.293 153.574C108.48 153.742 108.704 153.877 108.965 153.98C109.236 154.073 109.525 154.12 109.833 154.12C110.141 154.12 110.426 154.073 110.687 153.98C110.958 153.877 111.191 153.742 111.387 153.574C111.583 153.397 111.732 153.187 111.835 152.944C111.947 152.701 112.003 152.435 112.003 152.146C112.003 151.857 111.947 151.591 111.835 151.348C111.732 151.105 111.583 150.9 111.387 150.732C111.191 150.555 110.958 150.419 110.687 150.326C110.426 150.223 110.141 150.172 109.833 150.172ZM115.181 156.878C115.181 157.205 115.237 157.527 115.349 157.844C115.461 158.161 115.624 158.46 115.839 158.74C116.054 159.011 116.315 159.258 116.623 159.482C116.94 159.697 117.3 159.869 117.701 160L117.127 160.868C116.511 160.644 115.988 160.327 115.559 159.916C115.139 159.505 114.822 159.034 114.607 158.502C114.411 159.015 114.122 159.496 113.739 159.944C113.356 160.383 112.871 160.728 112.283 160.98C111.667 160.737 111.168 160.406 110.785 159.986C110.412 159.557 110.132 159.076 109.945 158.544C109.721 159.048 109.399 159.505 108.979 159.916C108.559 160.327 108.055 160.644 107.467 160.868L106.893 160C107.285 159.86 107.635 159.678 107.943 159.454C108.26 159.221 108.526 158.964 108.741 158.684C108.965 158.404 109.133 158.11 109.245 157.802C109.357 157.494 109.413 157.186 109.413 156.878V156.206H110.519V156.878C110.519 157.438 110.659 157.989 110.939 158.53C111.228 159.071 111.667 159.515 112.255 159.86C112.554 159.673 112.815 159.459 113.039 159.216C113.272 158.973 113.464 158.721 113.613 158.46C113.762 158.189 113.874 157.919 113.949 157.648C114.024 157.377 114.061 157.121 114.061 156.878V156.206H115.181V156.878ZM129.502 161.064H128.354V154.204H125.624C125.596 154.82 125.498 155.375 125.33 155.87C125.171 156.365 124.957 156.785 124.686 157.13C124.415 157.475 124.093 157.741 123.72 157.928C123.356 158.115 122.955 158.208 122.516 158.208C122.059 158.208 121.639 158.105 121.256 157.9C120.873 157.695 120.542 157.401 120.262 157.018C119.982 156.635 119.763 156.178 119.604 155.646C119.455 155.105 119.38 154.498 119.38 153.826C119.38 153.154 119.455 152.552 119.604 152.02C119.763 151.479 119.982 151.017 120.262 150.634C120.542 150.251 120.873 149.957 121.256 149.752C121.639 149.547 122.059 149.444 122.516 149.444C122.936 149.444 123.323 149.533 123.678 149.71C124.042 149.887 124.359 150.144 124.63 150.48C124.91 150.807 125.134 151.208 125.302 151.684C125.47 152.151 125.577 152.678 125.624 153.266H128.354V148.478H129.502V161.064ZM122.516 157.186C122.815 157.186 123.085 157.107 123.328 156.948C123.58 156.789 123.795 156.565 123.972 156.276C124.159 155.977 124.299 155.623 124.392 155.212C124.495 154.801 124.546 154.339 124.546 153.826C124.546 153.322 124.495 152.865 124.392 152.454C124.299 152.034 124.159 151.679 123.972 151.39C123.795 151.101 123.58 150.877 123.328 150.718C123.085 150.559 122.815 150.48 122.516 150.48C122.217 150.48 121.942 150.559 121.69 150.718C121.438 150.877 121.219 151.101 121.032 151.39C120.855 151.679 120.715 152.034 120.612 152.454C120.519 152.865 120.472 153.322 120.472 153.826C120.472 154.339 120.519 154.801 120.612 155.212C120.715 155.623 120.855 155.977 121.032 156.276C121.219 156.565 121.438 156.789 121.69 156.948C121.942 157.107 122.217 157.186 122.516 157.186ZM142.381 161.05H141.233V153.672H138.321V152.734H141.233V148.478H142.381V161.05ZM136.431 151.81C136.431 152.379 136.515 152.944 136.683 153.504C136.851 154.055 137.08 154.573 137.369 155.058C137.668 155.543 138.013 155.977 138.405 156.36C138.797 156.733 139.222 157.027 139.679 157.242L139.007 158.152C138.662 157.975 138.326 157.751 137.999 157.48C137.682 157.2 137.388 156.892 137.117 156.556C136.846 156.211 136.604 155.837 136.389 155.436C136.174 155.035 135.997 154.615 135.857 154.176C135.717 154.643 135.54 155.091 135.325 155.52C135.12 155.94 134.882 156.332 134.611 156.696C134.35 157.06 134.06 157.387 133.743 157.676C133.426 157.956 133.09 158.189 132.735 158.376L132.035 157.466C132.492 157.242 132.917 156.929 133.309 156.528C133.701 156.127 134.042 155.674 134.331 155.17C134.63 154.666 134.863 154.125 135.031 153.546C135.199 152.967 135.283 152.389 135.283 151.81V149.556H136.431V151.81ZM157.705 154.526V161.036H156.557V148.492H157.705V153.574H159.777V154.526H157.705ZM152.259 151.824C152.259 152.375 152.343 152.925 152.511 153.476C152.679 154.017 152.907 154.526 153.197 155.002C153.486 155.478 153.822 155.907 154.205 156.29C154.597 156.673 155.012 156.976 155.451 157.2L154.737 158.11C154.401 157.933 154.079 157.713 153.771 157.452C153.463 157.181 153.178 156.878 152.917 156.542C152.665 156.206 152.431 155.842 152.217 155.45C152.011 155.049 151.839 154.633 151.699 154.204C151.428 155.137 151.017 155.968 150.467 156.696C149.916 157.415 149.286 157.97 148.577 158.362L147.891 157.438C148.339 157.205 148.759 156.887 149.151 156.486C149.552 156.085 149.897 155.637 150.187 155.142C150.476 154.638 150.705 154.101 150.873 153.532C151.041 152.963 151.125 152.393 151.125 151.824V149.57H152.259V151.824ZM172.278 155.618H160.91V154.694H163.724V152.93C162.697 152.519 162.184 151.889 162.184 151.04C162.184 150.676 162.286 150.349 162.492 150.06C162.697 149.771 162.991 149.528 163.374 149.332C163.756 149.127 164.218 148.973 164.76 148.87C165.301 148.758 165.912 148.702 166.594 148.702C167.275 148.702 167.886 148.758 168.428 148.87C168.978 148.973 169.44 149.127 169.814 149.332C170.196 149.528 170.49 149.771 170.696 150.06C170.901 150.349 171.004 150.676 171.004 151.04C171.004 151.46 170.868 151.829 170.598 152.146C170.336 152.463 169.963 152.72 169.478 152.916V154.694H172.278V155.618ZM163.36 151.04C163.36 151.488 163.644 151.843 164.214 152.104C164.783 152.356 165.576 152.482 166.594 152.482C167.611 152.482 168.404 152.356 168.974 152.104C169.543 151.843 169.828 151.488 169.828 151.04C169.828 150.583 169.543 150.228 168.974 149.976C168.404 149.724 167.611 149.598 166.594 149.598C165.576 149.598 164.783 149.724 164.214 149.976C163.644 150.228 163.36 150.583 163.36 151.04ZM168.344 154.694V153.224C168.101 153.271 167.83 153.308 167.532 153.336C167.242 153.355 166.93 153.364 166.594 153.364C166.276 153.364 165.973 153.355 165.684 153.336C165.394 153.308 165.119 153.271 164.858 153.224V154.694H168.344ZM166.594 156.556C167.947 156.556 169.002 156.752 169.758 157.144C170.514 157.527 170.892 158.077 170.892 158.796C170.892 159.515 170.514 160.065 169.758 160.448C169.002 160.831 167.947 161.022 166.594 161.022C165.25 161.022 164.195 160.831 163.43 160.448C162.674 160.065 162.296 159.515 162.296 158.796C162.296 158.077 162.674 157.527 163.43 157.144C164.195 156.752 165.25 156.556 166.594 156.556ZM166.594 160.14C167.583 160.14 168.353 160.023 168.904 159.79C169.454 159.557 169.73 159.225 169.73 158.796C169.73 158.367 169.454 158.035 168.904 157.802C168.353 157.569 167.583 157.452 166.594 157.452C165.604 157.452 164.834 157.569 164.284 157.802C163.733 158.035 163.458 158.367 163.458 158.796C163.458 159.225 163.733 159.557 164.284 159.79C164.834 160.023 165.604 160.14 166.594 160.14ZM183.477 154.61V161.036H182.329V148.492H183.477V153.644H185.535V154.61H183.477ZM181.139 150.494V151.418H173.733V150.494H176.897V148.632H178.045V150.494H181.139ZM177.485 152.454C177.933 152.454 178.343 152.529 178.717 152.678C179.09 152.818 179.412 153.019 179.683 153.28C179.963 153.532 180.177 153.835 180.327 154.19C180.476 154.545 180.551 154.932 180.551 155.352C180.551 155.781 180.476 156.173 180.327 156.528C180.177 156.883 179.963 157.186 179.683 157.438C179.412 157.69 179.09 157.886 178.717 158.026C178.343 158.166 177.933 158.236 177.485 158.236C177.046 158.236 176.64 158.166 176.267 158.026C175.893 157.886 175.571 157.69 175.301 157.438C175.03 157.186 174.82 156.883 174.671 156.528C174.521 156.173 174.447 155.781 174.447 155.352C174.447 154.932 174.521 154.545 174.671 154.19C174.82 153.835 175.03 153.532 175.301 153.28C175.571 153.019 175.893 152.818 176.267 152.678C176.64 152.529 177.046 152.454 177.485 152.454ZM177.485 157.284C177.774 157.284 178.04 157.237 178.283 157.144C178.525 157.041 178.731 156.906 178.899 156.738C179.076 156.57 179.211 156.369 179.305 156.136C179.407 155.893 179.459 155.632 179.459 155.352C179.459 155.072 179.407 154.815 179.305 154.582C179.211 154.339 179.076 154.134 178.899 153.966C178.731 153.789 178.525 153.653 178.283 153.56C178.04 153.457 177.774 153.406 177.485 153.406C177.205 153.406 176.943 153.457 176.701 153.56C176.458 153.653 176.248 153.789 176.071 153.966C175.903 154.134 175.767 154.339 175.665 154.582C175.571 154.815 175.525 155.072 175.525 155.352C175.525 155.632 175.571 155.893 175.665 156.136C175.767 156.369 175.903 156.57 176.071 156.738C176.248 156.906 176.458 157.041 176.701 157.144C176.943 157.237 177.205 157.284 177.485 157.284ZM196.985 161.036H195.837V148.478H196.985V161.036ZM193.303 149.836C193.303 150.741 193.196 151.619 192.981 152.468C192.767 153.308 192.421 154.106 191.945 154.862C191.479 155.609 190.877 156.309 190.139 156.962C189.402 157.606 188.511 158.185 187.465 158.698L186.849 157.76C188.539 156.957 189.813 155.963 190.671 154.778C191.53 153.593 192.02 152.253 192.141 150.76H187.423V149.836H193.303ZM209.775 154.204V153.266H211.875V151.796H209.775V150.872H211.875V148.492H213.037V157.816H211.875V154.204H209.775ZM210.139 155.506C209.542 155.599 208.921 155.674 208.277 155.73C207.633 155.786 206.994 155.828 206.359 155.856C205.725 155.884 205.109 155.903 204.511 155.912C203.914 155.921 203.363 155.926 202.859 155.926L202.733 154.974H203.909C204.04 154.974 204.175 154.969 204.315 154.96V150.424H203.069V149.5H209.677V150.424H208.431V154.806C208.711 154.787 208.987 154.769 209.257 154.75C209.537 154.722 209.808 154.689 210.069 154.652L210.139 155.506ZM205.421 154.946C205.729 154.937 206.042 154.927 206.359 154.918C206.677 154.909 206.994 154.895 207.311 154.876V150.424H205.421V154.946ZM213.359 160.756H204.987V157.06H206.135V159.818H213.359V160.756ZM225.874 161.05H224.726V148.464H225.874V161.05ZM217.446 157.06C218.473 157.06 219.471 157.027 220.442 156.962C221.422 156.897 222.458 156.78 223.55 156.612L223.662 157.55C223.093 157.643 222.542 157.723 222.01 157.788C221.487 157.844 220.969 157.891 220.456 157.928C219.943 157.956 219.429 157.979 218.916 157.998C218.403 158.007 217.875 158.012 217.334 158.012H216.298V153.196H220.918V150.578H216.256V149.64H222.08V154.134H217.446V157.06ZM228.491 150.69V149.766H231.613V148.352H232.761V149.766H235.897V150.69H228.491ZM238.193 152.636V155.772H237.045V148.478H238.193V151.67H240.055V152.636H238.193ZM235.197 153.476C235.197 153.812 235.122 154.115 234.973 154.386C234.833 154.657 234.628 154.89 234.357 155.086C234.096 155.273 233.778 155.417 233.405 155.52C233.041 155.623 232.635 155.674 232.187 155.674C231.739 155.674 231.328 155.623 230.955 155.52C230.591 155.417 230.278 155.273 230.017 155.086C229.756 154.89 229.55 154.657 229.401 154.386C229.261 154.115 229.191 153.812 229.191 153.476C229.191 153.14 229.261 152.841 229.401 152.58C229.55 152.309 229.756 152.081 230.017 151.894C230.278 151.698 230.591 151.549 230.955 151.446C231.328 151.343 231.739 151.292 232.187 151.292C232.635 151.292 233.041 151.343 233.405 151.446C233.778 151.549 234.096 151.698 234.357 151.894C234.628 152.081 234.833 152.309 234.973 152.58C235.122 152.841 235.197 153.14 235.197 153.476ZM230.283 153.476C230.283 153.896 230.451 154.223 230.787 154.456C231.132 154.689 231.599 154.806 232.187 154.806C232.775 154.806 233.242 154.689 233.587 154.456C233.932 154.223 234.105 153.896 234.105 153.476C234.105 153.056 233.932 152.729 233.587 152.496C233.242 152.263 232.775 152.146 232.187 152.146C231.599 152.146 231.132 152.263 230.787 152.496C230.451 152.729 230.283 153.056 230.283 153.476ZM238.193 156.332V160.868H230.297V156.332H231.431V157.662H237.059V156.332H238.193ZM231.431 158.558V159.944H237.059V158.558H231.431ZM251.618 161.022H250.47V148.478H251.618V161.022ZM243.26 156.808C244.221 156.808 245.187 156.766 246.158 156.682C247.129 156.589 248.137 156.435 249.182 156.22L249.308 157.2C248.207 157.424 247.157 157.578 246.158 157.662C245.159 157.746 244.156 157.788 243.148 157.788H242.112V149.696H243.26V156.808ZM263.867 154.386V161.064H262.719V148.478H263.867V153.434H265.939V154.386H263.867ZM255.887 156.948C256.447 156.948 256.97 156.943 257.455 156.934C257.95 156.915 258.421 156.892 258.869 156.864C259.326 156.836 259.774 156.794 260.213 156.738C260.652 156.682 261.095 156.612 261.543 156.528L261.669 157.48C261.193 157.573 260.726 157.653 260.269 157.718C259.812 157.774 259.345 157.821 258.869 157.858C258.393 157.886 257.898 157.905 257.385 157.914C256.872 157.923 256.321 157.928 255.733 157.928H254.739V149.682H260.577V150.634H255.887V156.948ZM269.046 149.514L268.836 157.494H267.954L267.744 149.514H269.046ZM267.758 160.182V158.866H269.032V160.182H267.758ZM27.04 181.182C26.5173 181.182 26.032 181.107 25.584 180.958C25.136 180.809 24.744 180.561 24.408 180.216C24.0813 179.861 23.8247 179.404 23.638 178.844C23.4513 178.275 23.358 177.579 23.358 176.758V170.738H24.66V176.8C24.66 177.416 24.7207 177.934 24.842 178.354C24.9633 178.765 25.1313 179.096 25.346 179.348C25.5607 179.6 25.8127 179.782 26.102 179.894C26.3913 179.997 26.704 180.048 27.04 180.048C27.3853 180.048 27.7073 179.997 28.006 179.894C28.3047 179.782 28.5613 179.6 28.776 179.348C29 179.096 29.1727 178.765 29.294 178.354C29.4247 177.934 29.49 177.416 29.49 176.8V170.738H30.736V176.758C30.736 177.579 30.6427 178.275 30.456 178.844C30.2693 179.404 30.008 179.861 29.672 180.216C29.3453 180.561 28.9533 180.809 28.496 180.958C28.048 181.107 27.5627 181.182 27.04 181.182ZM34.7918 170.738V181H33.4898V170.738H34.7918ZM48.3294 180.454H36.9194V179.502H42.0294V176.282H38.3754V170.486H46.8874V171.424H39.5234V175.358H47.0134V176.282H43.1914V179.502H48.3294V180.454ZM63.2472 177.08H62.0992V169.478H63.2472V177.08ZM60.0552 176.52C59.3272 176.268 58.6878 175.899 58.1372 175.414C57.5958 174.919 57.1805 174.336 56.8912 173.664C56.6205 174.392 56.2098 175.022 55.6592 175.554C55.1178 176.086 54.4692 176.487 53.7132 176.758L53.1112 175.862C53.5872 175.694 54.0212 175.47 54.4132 175.19C54.8052 174.91 55.1365 174.593 55.4072 174.238C55.6872 173.874 55.9018 173.487 56.0512 173.076C56.2098 172.656 56.2892 172.227 56.2892 171.788V171.284H53.4192V170.36H60.3072V171.284H57.4652V171.788C57.4652 172.208 57.5398 172.614 57.6892 173.006C57.8478 173.398 58.0672 173.762 58.3472 174.098C58.6272 174.434 58.9585 174.733 59.3412 174.994C59.7332 175.255 60.1578 175.461 60.6152 175.61L60.0552 176.52ZM63.2472 177.738V182.036H62.0992V178.662H54.8472V177.738H63.2472ZM77.4001 174.518H75.5941V178.942H74.4461V169.478H75.5941V173.566H77.4001V174.518ZM71.2821 174.714C71.4314 173.986 71.5247 173.351 71.5621 172.81C71.5994 172.269 71.6181 171.797 71.6181 171.396H66.4941V170.458H72.7381V171.116C72.7381 171.536 72.7241 172.049 72.6961 172.656C72.6681 173.263 72.5747 173.991 72.4161 174.84L71.2821 174.714ZM73.6901 176.436C73.0367 176.548 72.3647 176.637 71.6741 176.702C70.9927 176.767 70.3114 176.819 69.6301 176.856C68.9487 176.893 68.2861 176.917 67.6421 176.926C67.0074 176.935 66.4101 176.94 65.8501 176.94L65.7381 176.002C66.1394 176.002 66.5641 176.002 67.0121 176.002C67.4601 175.993 67.9221 175.983 68.3981 175.974V173.258H69.5321V175.932C70.2321 175.904 70.9227 175.867 71.6041 175.82C72.2947 175.764 72.9621 175.689 73.6061 175.596L73.6901 176.436ZM76.0001 180.818V181.756H67.6561V178.074H68.8041V180.818H76.0001ZM89.033 176.996H87.885V173.692H85.435V172.754H87.885V169.478H89.033V176.996ZM85.533 176.506C84.833 176.254 84.2217 175.881 83.699 175.386C83.1763 174.891 82.775 174.317 82.495 173.664C82.2243 174.392 81.8137 175.031 81.263 175.582C80.7217 176.123 80.0823 176.529 79.345 176.8L78.743 175.89C79.2097 175.722 79.6343 175.498 80.017 175.218C80.409 174.938 80.745 174.616 81.025 174.252C81.305 173.888 81.5197 173.496 81.669 173.076C81.8277 172.656 81.907 172.222 81.907 171.774V171.27H79.107V170.332H85.813V171.27H83.055V171.774C83.055 172.175 83.1297 172.572 83.279 172.964C83.4283 173.356 83.6337 173.725 83.895 174.07C84.1657 174.406 84.4877 174.709 84.861 174.98C85.2343 175.241 85.6497 175.451 86.107 175.61L85.533 176.506ZM89.033 177.682V182.05H87.885V178.606H80.647V177.682H89.033ZM101.856 182.064H100.708V169.478H101.856V182.064ZM95.2339 170.444C95.7006 170.444 96.1299 170.547 96.5219 170.752C96.9139 170.957 97.2499 171.251 97.5299 171.634C97.8099 172.017 98.0292 172.479 98.1879 173.02C98.3466 173.552 98.4259 174.154 98.4259 174.826C98.4259 175.498 98.3466 176.105 98.1879 176.646C98.0292 177.178 97.8099 177.635 97.5299 178.018C97.2499 178.401 96.9139 178.695 96.5219 178.9C96.1299 179.105 95.7006 179.208 95.2339 179.208C94.7672 179.208 94.3379 179.105 93.9459 178.9C93.5539 178.695 93.2179 178.401 92.9379 178.018C92.6579 177.635 92.4386 177.178 92.2799 176.646C92.1212 176.105 92.0419 175.498 92.0419 174.826C92.0419 174.154 92.1212 173.552 92.2799 173.02C92.4386 172.479 92.6579 172.017 92.9379 171.634C93.2179 171.251 93.5539 170.957 93.9459 170.752C94.3379 170.547 94.7672 170.444 95.2339 170.444ZM95.2339 171.48C94.9259 171.48 94.6412 171.559 94.3799 171.718C94.1279 171.877 93.9086 172.101 93.7219 172.39C93.5352 172.679 93.3906 173.034 93.2879 173.454C93.1852 173.865 93.1339 174.322 93.1339 174.826C93.1339 175.339 93.1852 175.801 93.2879 176.212C93.3906 176.623 93.5352 176.977 93.7219 177.276C93.9086 177.565 94.1279 177.789 94.3799 177.948C94.6412 178.107 94.9259 178.186 95.2339 178.186C95.5419 178.186 95.8219 178.107 96.0739 177.948C96.3259 177.789 96.5452 177.565 96.7319 177.276C96.9186 176.977 97.0632 176.623 97.1659 176.212C97.2686 175.801 97.3199 175.339 97.3199 174.826C97.3199 174.322 97.2686 173.865 97.1659 173.454C97.0632 173.034 96.9186 172.679 96.7319 172.39C96.5452 172.101 96.3259 171.877 96.0739 171.718C95.8219 171.559 95.5419 171.48 95.2339 171.48ZM115.127 182.036H114.035V169.478H115.127V182.036ZM112.635 169.758V181.42H111.543V175.302H109.961C109.933 175.918 109.849 176.473 109.709 176.968C109.578 177.453 109.396 177.869 109.163 178.214C108.939 178.559 108.668 178.825 108.351 179.012C108.033 179.189 107.683 179.278 107.301 179.278C106.89 179.278 106.517 179.175 106.181 178.97C105.854 178.765 105.574 178.475 105.341 178.102C105.107 177.719 104.925 177.257 104.795 176.716C104.673 176.175 104.613 175.563 104.613 174.882C104.613 174.21 104.673 173.608 104.795 173.076C104.925 172.535 105.107 172.077 105.341 171.704C105.574 171.321 105.854 171.032 106.181 170.836C106.517 170.631 106.89 170.528 107.301 170.528C107.683 170.528 108.029 170.617 108.337 170.794C108.645 170.971 108.911 171.228 109.135 171.564C109.368 171.891 109.555 172.292 109.695 172.768C109.835 173.244 109.923 173.776 109.961 174.364H111.543V169.758H112.635ZM107.301 178.214C107.805 178.214 108.201 177.92 108.491 177.332C108.78 176.744 108.925 175.927 108.925 174.882C108.925 174.378 108.883 173.925 108.799 173.524C108.724 173.113 108.617 172.768 108.477 172.488C108.337 172.199 108.164 171.979 107.959 171.83C107.763 171.671 107.543 171.592 107.301 171.592C106.797 171.592 106.395 171.891 106.097 172.488C105.807 173.076 105.663 173.874 105.663 174.882C105.663 175.927 105.807 176.744 106.097 177.332C106.395 177.92 106.797 178.214 107.301 178.214ZM128.734 180.426H117.324V179.474H120.124V176.086C119.592 175.815 119.176 175.461 118.878 175.022C118.588 174.574 118.444 174.065 118.444 173.496C118.444 173.011 118.556 172.572 118.78 172.18C119.004 171.779 119.316 171.438 119.718 171.158C120.128 170.878 120.614 170.663 121.174 170.514C121.734 170.355 122.345 170.276 123.008 170.276C123.68 170.276 124.291 170.355 124.842 170.514C125.402 170.663 125.882 170.878 126.284 171.158C126.694 171.438 127.012 171.779 127.236 172.18C127.46 172.572 127.572 173.011 127.572 173.496C127.572 174.065 127.427 174.569 127.138 175.008C126.858 175.447 126.452 175.801 125.92 176.072V179.474H128.734V180.426ZM123.008 171.172C122.504 171.172 122.037 171.228 121.608 171.34C121.188 171.452 120.824 171.611 120.516 171.816C120.217 172.012 119.979 172.255 119.802 172.544C119.634 172.824 119.55 173.141 119.55 173.496C119.55 173.841 119.634 174.159 119.802 174.448C119.979 174.737 120.217 174.985 120.516 175.19C120.824 175.386 121.188 175.54 121.608 175.652C122.037 175.764 122.504 175.82 123.008 175.82C123.512 175.82 123.974 175.764 124.394 175.652C124.823 175.54 125.192 175.386 125.5 175.19C125.808 174.985 126.046 174.737 126.214 174.448C126.391 174.159 126.48 173.841 126.48 173.496C126.48 173.141 126.391 172.824 126.214 172.544C126.046 172.255 125.808 172.012 125.5 171.816C125.192 171.611 124.823 171.452 124.394 171.34C123.974 171.228 123.512 171.172 123.008 171.172ZM124.772 179.474V176.52C124.146 176.651 123.558 176.716 123.008 176.716C122.7 176.716 122.401 176.702 122.112 176.674C121.822 176.637 121.542 176.585 121.272 176.52V179.474H124.772Z" fill="white"/>
</svg>
