<svg width="141" height="28" viewBox="0 0 141 28" fill="none" xmlns="http://www.w3.org/2000/svg">
<path fill-rule="evenodd" clip-rule="evenodd" d="M15.8027 1.82911C16.7273 0.907784 17.981 0.390626 19.2876 0.390625C22.008 0.390626 24.2174 2.58851 24.2174 5.30486C24.2174 6.60898 23.6974 7.85919 22.7726 8.7806L21.5402 10.0086H22.7359C25.4542 10.0086 27.6672 12.1948 27.6862 14.909C27.6955 16.2305 27.1727 17.5001 26.2355 18.4338L19.2542 25.3897C18.321 26.3195 17.0532 26.8374 15.7345 26.8281C13.0413 26.8092 10.8587 24.6379 10.8397 21.9487C10.8303 20.6325 11.351 19.3681 12.2843 18.4382L13.5166 17.2103H10.0764C7.85811 17.2103 6.05566 15.4179 6.05566 13.2018C6.05566 12.1379 6.47987 11.118 7.23418 10.3664L15.8027 1.82911ZM15.4084 17.2103L13.2267 19.3841C12.5467 20.0617 12.1681 20.9821 12.1749 21.9392C12.1887 23.8938 13.7763 25.4791 15.7439 25.4929C16.7068 25.4997 17.6317 25.1215 18.3118 24.4438L25.2931 17.4879C25.977 16.8065 26.3578 15.8809 26.351 14.9183C26.3372 12.9424 24.725 11.3438 22.7359 11.3438L14.7292 11.3438C14.2827 11.3438 13.9249 11.7038 13.9249 12.1428C13.9249 12.5818 14.2827 12.9419 14.7292 12.9419H20.3276C21.5069 12.9419 22.4672 13.8951 22.4672 15.0761C22.4672 16.2571 21.5069 17.2103 20.3276 17.2103H15.4084ZM19.6484 10.0086L21.8302 7.83473C22.504 7.16335 22.8821 6.25328 22.8821 5.30486C22.8821 3.33052 21.2751 1.72586 19.2876 1.72586C18.3335 1.72586 17.419 2.10352 16.7451 2.77498L8.1766 11.3123C7.67324 11.8138 7.39089 12.4936 7.39089 13.2018C7.39089 14.6759 8.59095 15.8751 10.0764 15.8751H20.3276C20.7741 15.8751 21.1319 15.5151 21.1319 15.0761C21.1319 14.6371 20.7741 14.2771 20.3276 14.2771H14.7292C13.5499 14.2771 12.5896 13.3238 12.5896 12.1428C12.5896 10.9618 13.5499 10.0086 14.7292 10.0086H19.6484Z" fill="url(#paint0_linear_2744_53878)"/>
<path d="M36.133 20.9796C35.2147 20.5871 34.4887 20.022 33.955 19.2842C33.4212 18.5464 33.1465 17.6752 33.1308 16.6705H36.6628C36.7099 17.3455 36.9493 17.8792 37.381 18.2717C37.8127 18.6641 38.4053 18.8604 39.1588 18.8604C39.9123 18.8604 40.5323 18.6759 40.9719 18.307C41.4114 17.9381 41.6312 17.4554 41.6312 16.8589C41.6312 16.3722 41.4821 15.972 41.1838 15.658C40.8856 15.344 40.5127 15.0968 40.0653 14.9163C39.618 14.7358 39.0018 14.5356 38.2169 14.3158C37.1495 14.0019 36.2822 13.6918 35.615 13.3857C34.9478 13.0796 34.3749 12.6165 33.8961 11.9965C33.4173 11.3764 33.1779 10.5484 33.1779 9.5123C33.1779 8.53904 33.4212 7.69136 33.9079 6.96926C34.3945 6.24716 35.0774 5.69381 35.9564 5.30921C36.8355 4.92462 37.8402 4.73232 38.9704 4.73232C40.6658 4.73232 42.0433 5.14439 43.1029 5.96852C44.1625 6.79266 44.7472 7.94252 44.8571 9.41812H41.2309C41.1995 8.85299 40.9601 8.38599 40.5127 8.01709C40.0653 7.64819 39.4727 7.46374 38.7349 7.46374C38.0913 7.46374 37.5772 7.62856 37.1926 7.95822C36.808 8.28787 36.6157 8.76666 36.6157 9.39457C36.6157 9.83411 36.7609 10.1991 37.0514 10.4895C37.3418 10.7799 37.7028 11.0154 38.1345 11.1959C38.5662 11.3764 39.1745 11.5844 39.9594 11.8199C41.0268 12.1338 41.8981 12.4478 42.5731 12.7618C43.2481 13.0757 43.8289 13.5466 44.3155 14.1746C44.8022 14.8025 45.0455 15.6266 45.0455 16.647C45.0455 17.526 44.8179 18.3423 44.3626 19.0958C43.9074 19.8493 43.2402 20.4498 42.3611 20.8971C41.4821 21.3445 40.4382 21.5682 39.2294 21.5682C38.0835 21.5682 37.0514 21.372 36.133 20.9796Z" fill="url(#paint1_linear_2744_53878)"/>
<path d="M47.1769 6.2511C46.7923 5.8822 46.6 5.42304 46.6 4.87361C46.6 4.32419 46.7923 3.86503 47.1769 3.49613C47.5615 3.12723 48.0442 2.94278 48.625 2.94278C49.2058 2.94278 49.6885 3.12723 50.0731 3.49613C50.4577 3.86503 50.65 4.32419 50.65 4.87361C50.65 5.42304 50.4577 5.8822 50.0731 6.2511C49.6885 6.62 49.2058 6.80444 48.625 6.80444C48.0442 6.80444 47.5615 6.62 47.1769 6.2511ZM50.2497 8.35853V21.4034H46.9532V8.35853H50.2497Z" fill="url(#paint2_linear_2744_53878)"/>
<path d="M60.2334 8.72353C60.9712 9.10813 61.552 9.60654 61.9758 10.2188V8.35856H65.2959V21.4976C65.2959 22.7064 65.0526 23.7856 64.566 24.7353C64.0793 25.685 63.3494 26.4385 62.3761 26.9958C61.4029 27.5531 60.2255 27.8317 58.8441 27.8317C56.9918 27.8317 55.473 27.4 54.2878 26.5366C53.1026 25.6733 52.4316 24.4959 52.2746 23.0046H55.5476C55.7203 23.6011 56.0931 24.076 56.666 24.4292C57.239 24.7824 57.9336 24.959 58.7499 24.959C59.7075 24.959 60.4845 24.6725 61.0811 24.0995C61.6776 23.5266 61.9758 22.6593 61.9758 21.4976V19.4726C61.552 20.0848 60.9673 20.595 60.2216 21.0032C59.476 21.4113 58.6244 21.6154 57.6668 21.6154C56.5679 21.6154 55.5633 21.3328 54.6528 20.7677C53.7423 20.2026 53.0242 19.4059 52.4983 18.3777C51.9724 17.3495 51.7095 16.1682 51.7095 14.8339C51.7095 13.4996 51.9724 12.3458 52.4983 11.3254C53.0242 10.3051 53.7384 9.5202 54.641 8.97077C55.5437 8.42135 56.5522 8.14664 57.6668 8.14664C58.64 8.14664 59.4956 8.33894 60.2334 8.72353ZM61.5049 12.8207C61.1909 12.2477 60.7671 11.8082 60.2334 11.502C59.6996 11.1959 59.1267 11.0429 58.5145 11.0429C57.9023 11.0429 57.3371 11.192 56.8191 11.4903C56.3011 11.7885 55.8812 12.2241 55.5594 12.7971C55.2375 13.3701 55.0766 14.049 55.0766 14.8339C55.0766 15.6188 55.2375 16.3056 55.5594 16.8942C55.8812 17.4829 56.305 17.9342 56.8309 18.2482C57.3568 18.5621 57.9179 18.7191 58.5145 18.7191C59.111 18.7191 59.6996 18.5661 60.2334 18.26C60.7671 17.9538 61.1909 17.5143 61.5049 16.9413C61.8189 16.3684 61.9758 15.6816 61.9758 14.881C61.9758 14.0804 61.8189 13.3936 61.5049 12.8207Z" fill="url(#paint3_linear_2744_53878)"/>
<path d="M78.5766 9.64185C79.5341 10.623 80.0129 11.9926 80.0129 13.7508V21.4034H76.7164V14.1981C76.7164 13.1621 76.4573 12.3654 75.9393 11.8082C75.4213 11.2509 74.7149 10.9722 73.8201 10.9722C72.9253 10.9722 72.1915 11.2509 71.6656 11.8082C71.1397 12.3654 70.8768 13.1621 70.8768 14.1981V21.4034H67.5802V8.35856H70.8768V9.98328C71.3163 9.41816 71.8775 8.9747 72.5604 8.65289C73.2432 8.33109 73.9928 8.17018 74.8091 8.17018C76.3632 8.17018 77.619 8.66074 78.5766 9.64185Z" fill="url(#paint4_linear_2744_53878)"/>
<path d="M82.1435 11.3254C82.6693 10.3051 83.3836 9.5202 84.2862 8.97077C85.1888 8.42135 86.1974 8.14664 87.312 8.14664C88.2852 8.14664 89.1368 8.34286 89.8668 8.73531C90.5967 9.12775 91.1815 9.62223 91.621 10.2188V8.35856H94.9411V21.4034H91.621V19.4962C91.1972 20.1084 90.6124 20.6146 89.8668 21.0149C89.1211 21.4152 88.2617 21.6154 87.2884 21.6154C86.1896 21.6154 85.1888 21.3328 84.2862 20.7677C83.3836 20.2026 82.6693 19.4059 82.1435 18.3777C81.6176 17.3495 81.3546 16.1682 81.3546 14.8339C81.3546 13.4996 81.6176 12.3458 82.1435 11.3254ZM91.1501 12.8207C90.8361 12.2477 90.4123 11.8082 89.8786 11.502C89.3448 11.1959 88.7719 11.0429 88.1596 11.0429C87.5474 11.0429 86.9823 11.192 86.4643 11.4903C85.9463 11.7885 85.5263 12.2241 85.2045 12.7971C84.8827 13.3701 84.7218 14.049 84.7218 14.8339C84.7218 15.6188 84.8827 16.3056 85.2045 16.8942C85.5263 17.4829 85.9502 17.9342 86.4761 18.2482C87.0019 18.5621 87.5631 18.7191 88.1596 18.7191C88.7562 18.7191 89.3448 18.5661 89.8786 18.26C90.4123 17.9538 90.8361 17.5143 91.1501 16.9413C91.464 16.3684 91.621 15.6816 91.621 14.881C91.621 14.0804 91.464 13.3936 91.1501 12.8207Z" fill="url(#paint5_linear_2744_53878)"/>
<path d="M100.522 3.97881V21.4034H97.2254V3.97881H100.522Z" fill="url(#paint6_linear_2744_53878)"/>
<path d="M103.053 6.2511C102.668 5.8822 102.476 5.42304 102.476 4.87361C102.476 4.32419 102.668 3.86503 103.053 3.49613C103.438 3.12723 103.92 2.94278 104.501 2.94278C105.082 2.94278 105.565 3.12723 105.949 3.49613C106.334 3.86503 106.526 4.32419 106.526 4.87361C106.526 5.42304 106.334 5.8822 105.949 6.2511C105.565 6.62 105.082 6.80444 104.501 6.80444C103.92 6.80444 103.438 6.62 103.053 6.2511ZM106.126 8.35853V21.4034H102.829V8.35853H106.126Z" fill="url(#paint7_linear_2744_53878)"/>
<path d="M119.43 9.64185C120.387 10.623 120.866 11.9926 120.866 13.7508V21.4034H117.569V14.1981C117.569 13.1621 117.31 12.3654 116.792 11.8082C116.274 11.2509 115.568 10.9722 114.673 10.9722C113.778 10.9722 113.045 11.2509 112.519 11.8082C111.993 12.3654 111.73 13.1621 111.73 14.1981V21.4034H108.433V8.35856H111.73V9.98328C112.169 9.41816 112.731 8.9747 113.413 8.65289C114.096 8.33109 114.846 8.17018 115.662 8.17018C117.216 8.17018 118.472 8.66074 119.43 9.64185Z" fill="url(#paint8_linear_2744_53878)"/>
<path d="M130.732 8.72353C131.47 9.10813 132.051 9.60654 132.475 10.2188V8.35856H135.795V21.4976C135.795 22.7064 135.552 23.7856 135.065 24.7353C134.578 25.685 133.848 26.4385 132.875 26.9958C131.902 27.5531 130.725 27.8317 129.343 27.8317C127.491 27.8317 125.972 27.4 124.787 26.5366C123.602 25.6733 122.931 24.4959 122.774 23.0046H126.047C126.219 23.6011 126.592 24.076 127.165 24.4292C127.738 24.7824 128.433 24.959 129.249 24.959C130.207 24.959 130.984 24.6725 131.58 24.0995C132.177 23.5266 132.475 22.6593 132.475 21.4976V19.4726C132.051 20.0848 131.466 20.595 130.721 21.0032C129.975 21.4113 129.123 21.6154 128.166 21.6154C127.067 21.6154 126.062 21.3328 125.152 20.7677C124.241 20.2026 123.523 19.4059 122.997 18.3777C122.471 17.3495 122.208 16.1682 122.208 14.8339C122.208 13.4996 122.471 12.3458 122.997 11.3254C123.523 10.3051 124.237 9.5202 125.14 8.97077C126.043 8.42135 127.051 8.14664 128.166 8.14664C129.139 8.14664 129.995 8.33894 130.732 8.72353ZM132.004 12.8207C131.69 12.2477 131.266 11.8082 130.732 11.502C130.199 11.1959 129.626 11.0429 129.013 11.0429C128.401 11.0429 127.836 11.192 127.318 11.4903C126.8 11.7885 126.38 12.2241 126.058 12.7971C125.737 13.3701 125.576 14.049 125.576 14.8339C125.576 15.6188 125.737 16.3056 126.058 16.8942C126.38 17.4829 126.804 17.9342 127.33 18.2482C127.856 18.5621 128.417 18.7191 129.013 18.7191C129.61 18.7191 130.199 18.5661 130.732 18.26C131.266 17.9538 131.69 17.5143 132.004 16.9413C132.318 16.3684 132.475 15.6816 132.475 14.881C132.475 14.0804 132.318 13.3936 132.004 12.8207Z" fill="url(#paint9_linear_2744_53878)"/>
<defs>
<linearGradient id="paint0_linear_2744_53878" x1="6.0521" y1="0.390624" x2="5.50858" y2="28.4854" gradientUnits="userSpaceOnUse">
<stop stop-color="#FF7F62"/>
<stop offset="1" stop-color="#FF4C24"/>
</linearGradient>
<linearGradient id="paint1_linear_2744_53878" x1="6.0521" y1="0.390624" x2="5.50858" y2="28.4854" gradientUnits="userSpaceOnUse">
<stop stop-color="#FF7F62"/>
<stop offset="1" stop-color="#FF4C24"/>
</linearGradient>
<linearGradient id="paint2_linear_2744_53878" x1="6.0521" y1="0.390624" x2="5.50858" y2="28.4854" gradientUnits="userSpaceOnUse">
<stop stop-color="#FF7F62"/>
<stop offset="1" stop-color="#FF4C24"/>
</linearGradient>
<linearGradient id="paint3_linear_2744_53878" x1="6.0521" y1="0.390624" x2="5.50858" y2="28.4854" gradientUnits="userSpaceOnUse">
<stop stop-color="#FF7F62"/>
<stop offset="1" stop-color="#FF4C24"/>
</linearGradient>
<linearGradient id="paint4_linear_2744_53878" x1="6.0521" y1="0.390624" x2="5.50858" y2="28.4854" gradientUnits="userSpaceOnUse">
<stop stop-color="#FF7F62"/>
<stop offset="1" stop-color="#FF4C24"/>
</linearGradient>
<linearGradient id="paint5_linear_2744_53878" x1="6.0521" y1="0.390624" x2="5.50858" y2="28.4854" gradientUnits="userSpaceOnUse">
<stop stop-color="#FF7F62"/>
<stop offset="1" stop-color="#FF4C24"/>
</linearGradient>
<linearGradient id="paint6_linear_2744_53878" x1="6.0521" y1="0.390624" x2="5.50858" y2="28.4854" gradientUnits="userSpaceOnUse">
<stop stop-color="#FF7F62"/>
<stop offset="1" stop-color="#FF4C24"/>
</linearGradient>
<linearGradient id="paint7_linear_2744_53878" x1="6.0521" y1="0.390624" x2="5.50858" y2="28.4854" gradientUnits="userSpaceOnUse">
<stop stop-color="#FF7F62"/>
<stop offset="1" stop-color="#FF4C24"/>
</linearGradient>
<linearGradient id="paint8_linear_2744_53878" x1="6.0521" y1="0.390624" x2="5.50858" y2="28.4854" gradientUnits="userSpaceOnUse">
<stop stop-color="#FF7F62"/>
<stop offset="1" stop-color="#FF4C24"/>
</linearGradient>
<linearGradient id="paint9_linear_2744_53878" x1="6.0521" y1="0.390624" x2="5.50858" y2="28.4854" gradientUnits="userSpaceOnUse">
<stop stop-color="#FF7F62"/>
<stop offset="1" stop-color="#FF4C24"/>
</linearGradient>
</defs>
</svg>
