<svg width="180" height="112" viewBox="0 0 180 112" fill="none" xmlns="http://www.w3.org/2000/svg">
<path d="M120.221 99.76C119.341 99.76 118.901 99.44 118.901 98.8C118.901 98.48 119.021 98.16 119.261 97.84L141.461 67.36C138.501 68.56 135.301 69.16 131.861 69.16C126.501 69.16 121.741 67.96 117.581 65.56C113.421 63.08 110.141 59.64 107.741 55.24C105.421 50.76 104.261 45.68 104.261 40C104.261 34.08 105.581 28.88 108.221 24.4C110.941 19.84 114.701 16.32 119.501 13.84C124.381 11.28 129.981 10 136.301 10C142.541 10 148.101 11.32 152.981 13.96C157.861 16.6 161.621 20.28 164.261 25C166.981 29.64 168.341 34.92 168.341 40.84C168.341 46.28 167.181 51.76 164.861 57.28C162.541 62.72 158.381 69.56 152.381 77.8L137.141 98.8C136.661 99.44 136.021 99.76 135.221 99.76H120.221ZM136.421 55.12C140.901 55.12 144.541 53.8 147.341 51.16C150.141 48.44 151.541 44.88 151.541 40.48C151.541 36.08 150.141 32.56 147.341 29.92C144.541 27.2 140.901 25.84 136.421 25.84C131.941 25.84 128.301 27.2 125.501 29.92C122.701 32.56 121.301 36.08 121.301 40.48C121.301 44.88 122.701 48.44 125.501 51.16C128.301 53.8 131.941 55.12 136.421 55.12Z" fill="url(#paint0_linear_2705_22052)"/>
<path d="M98.3267 102.163C95.5267 102.163 93.2067 101.283 91.3667 99.5231C89.5267 97.6831 88.6067 95.4031 88.6067 92.6831C88.6067 89.9631 89.5267 87.7231 91.3667 85.9631C93.2067 84.1231 95.5267 83.2031 98.3267 83.2031C101.127 83.2031 103.447 84.1231 105.287 85.9631C107.127 87.7231 108.047 89.9631 108.047 92.6831C108.047 95.4031 107.127 97.6831 105.287 99.5231C103.447 101.283 101.127 102.163 98.3267 102.163Z" fill="url(#paint1_linear_2705_22052)"/>
<path d="M56.88 99.7636C55.84 99.7636 55.32 99.2436 55.32 98.2036V82.7236H13.56C12.52 82.7236 12 82.2036 12 81.1636V77.2036C12 76.4036 12.2 75.7636 12.6 75.2836L59.04 12.6436C59.52 12.0036 60.16 11.6836 60.96 11.6836H69.96C71 11.6836 71.52 12.2036 71.52 13.2436V67.4836H82.92C83.96 67.4836 84.48 68.0036 84.48 69.0436V81.1636C84.48 82.2036 83.96 82.7236 82.92 82.7236H71.52V98.2036C71.52 99.2436 71 99.7636 69.96 99.7636H56.88ZM55.32 39.7636L35.28 67.4836H55.32V39.7636Z" fill="url(#paint2_linear_2705_22052)"/>
<defs>
<linearGradient id="paint0_linear_2705_22052" x1="8.41833" y1="1.0625" x2="179.328" y2="96.4762" gradientUnits="userSpaceOnUse">
<stop stop-color="#FF8367"/>
<stop offset="1" stop-color="#FE8207"/>
</linearGradient>
<linearGradient id="paint1_linear_2705_22052" x1="8.41834" y1="1.06249" x2="179.328" y2="96.4762" gradientUnits="userSpaceOnUse">
<stop stop-color="#FF8367"/>
<stop offset="1" stop-color="#FE8207"/>
</linearGradient>
<linearGradient id="paint2_linear_2705_22052" x1="8.41833" y1="1.06251" x2="179.328" y2="96.4762" gradientUnits="userSpaceOnUse">
<stop stop-color="#FF8367"/>
<stop offset="1" stop-color="#FE8207"/>
</linearGradient>
</defs>
</svg>
