<svg width="16" height="17" viewBox="0 0 16 17" fill="none" xmlns="http://www.w3.org/2000/svg">
<g clip-path="url(#clip0_2712_33749)">
<path d="M14.5281 13.215C14.2862 13.774 13.9998 14.2885 13.6679 14.7616C13.2156 15.4065 12.8452 15.8529 12.5598 16.1008C12.1173 16.5077 11.6433 16.7161 11.1357 16.7279C10.7712 16.7279 10.3317 16.6242 9.82014 16.4139C9.30687 16.2045 8.83518 16.1008 8.40389 16.1008C7.95156 16.1008 7.46644 16.2045 6.94754 16.4139C6.42785 16.6242 6.0092 16.7339 5.68911 16.7447C5.20231 16.7655 4.71709 16.5512 4.23276 16.1008C3.92364 15.8312 3.53698 15.369 3.07379 14.7142C2.57681 14.0149 2.16823 13.2041 1.84815 12.2797C1.50534 11.2812 1.3335 10.3143 1.3335 9.37823C1.3335 8.30597 1.56519 7.38116 2.02928 6.60617C2.39401 5.98367 2.87922 5.49262 3.48651 5.13214C4.0938 4.77165 4.74998 4.58796 5.45662 4.5762C5.84328 4.5762 6.35032 4.6958 6.98043 4.93086C7.60875 5.1667 8.0122 5.2863 8.18908 5.2863C8.32132 5.2863 8.76951 5.14646 9.52928 4.86765C10.2478 4.60909 10.8542 4.50203 11.351 4.5442C12.6971 4.65284 13.7084 5.18349 14.381 6.13951C13.1771 6.86897 12.5815 7.89067 12.5934 9.20135C12.6042 10.2223 12.9746 11.0718 13.7025 11.7464C14.0323 12.0594 14.4007 12.3014 14.8106 12.4732C14.7217 12.731 14.6279 12.9779 14.5281 13.215ZM11.4408 1.06618C11.4408 1.86637 11.1485 2.6135 10.5658 3.30503C9.86261 4.12713 9.01207 4.60218 8.08972 4.52722C8.07797 4.43122 8.07116 4.33019 8.07116 4.22402C8.07116 3.45584 8.40557 2.63374 8.99942 1.96157C9.29591 1.62123 9.67298 1.33825 10.1303 1.1125C10.5865 0.89013 11.0181 0.767153 11.424 0.746094C11.4359 0.853066 11.4408 0.960044 11.4408 1.06617V1.06618Z" fill="white"/>
</g>
<defs>
<clipPath id="clip0_2712_33749">
<rect width="16" height="16" fill="white" transform="translate(0 0.746094)"/>
</clipPath>
</defs>
</svg>
