<svg width="27" height="27" viewBox="0 0 27 27" fill="none" xmlns="http://www.w3.org/2000/svg">
<path fill-rule="evenodd" clip-rule="evenodd" d="M6.86247 3.54687C6.86247 2.64941 7.59 1.92188 8.48747 1.92188C9.38493 1.92188 10.1125 2.64941 10.1125 3.54688V4.08854H16.6125V3.54687C16.6125 2.64941 17.34 1.92188 18.2375 1.92188C19.1349 1.92188 19.8625 2.64941 19.8625 3.54688V4.08854H23.1125C24.3091 4.08854 25.2791 5.05859 25.2791 6.25521V23.5885C25.2791 24.7852 24.3091 25.7552 23.1125 25.7552H3.61247C2.41585 25.7552 1.4458 24.7852 1.4458 23.5885V6.25521C1.4458 5.05859 2.41585 4.08854 3.61247 4.08854H6.86247V3.54687ZM16.3416 11.1289C16.3416 10.2314 17.0691 9.50391 17.9666 9.50391C18.864 9.50391 19.5916 10.2314 19.5916 11.1289V12.2122C19.5916 13.1097 18.864 13.8372 17.9666 13.8372C17.0691 13.8372 16.3416 13.1097 16.3416 12.2122V11.1289ZM17.9665 16.0026C17.069 16.0026 16.3415 16.7301 16.3415 17.6276V18.7109C16.3415 19.6084 17.069 20.3359 17.9665 20.3359C18.8639 20.3359 19.5915 19.6084 19.5915 18.7109V17.6276C19.5915 16.7301 18.8639 16.0026 17.9665 16.0026ZM6.86222 17.6263C6.86222 16.7288 7.58976 16.0013 8.48722 16.0013C9.38469 16.0013 10.1122 16.7288 10.1122 17.6263V18.7096C10.1122 19.6071 9.38469 20.3346 8.48722 20.3346C7.58976 20.3346 6.86222 19.6071 6.86222 18.7096V17.6263ZM8.48714 9.5C7.58968 9.5 6.86214 10.2275 6.86214 11.125V12.2083C6.86214 13.1058 7.58968 13.8333 8.48714 13.8333C9.3846 13.8333 10.1121 13.1058 10.1121 12.2083V11.125C10.1121 10.2275 9.3846 9.5 8.48714 9.5Z" fill="#FF6B00"/>
</svg>
