<svg width="24" height="24" viewBox="0 0 24 24" fill="none" xmlns="http://www.w3.org/2000/svg">
<g clip-path="url(#clip0_2702_87357)">
<path d="M17.5359 15.6683C20.379 14.1072 22.5344 12.9176 22.7202 12.8252C23.3145 12.5091 23.9283 11.6726 22.7202 11.0228C22.3302 10.8185 20.2302 9.66595 17.5359 8.17969L13.8008 11.9517L17.5359 15.6683Z" fill="#FFD900"/>
<path d="M13.803 11.9512L1.91016 23.9374C2.18929 23.9744 2.50448 23.9004 2.87604 23.6962C3.65615 23.2691 11.9258 18.753 17.5381 15.6687L13.803 11.9512Z" fill="#F43249"/>
<path d="M13.802 11.9513L17.5371 8.19771C17.5371 8.19771 3.71148 0.652706 2.875 0.207197C2.55981 0.0204893 2.20673 -0.0349683 1.89062 0.0204893L13.802 11.9513Z" fill="#00EE76"/>
<path d="M13.8033 11.9523L1.89194 0.0214844C1.40854 0.133324 1 0.560347 1 1.4338V22.5262C1 23.3257 1.31611 23.9015 1.91043 23.957L13.8033 11.9523Z" fill="#00D3FF"/>
</g>
<defs>
<clipPath id="clip0_2702_87357">
<rect width="22.4234" height="24" fill="white" transform="translate(1)"/>
</clipPath>
</defs>
</svg>
