<svg width="24" height="25" viewBox="0 0 24 25" fill="none" xmlns="http://www.w3.org/2000/svg">
<path fill-rule="evenodd" clip-rule="evenodd" d="M1 7.88672C1 4.57301 3.68629 1.88672 7 1.88672H17C20.3137 1.88672 23 4.57301 23 7.88672V17.8867C23 21.2004 20.3137 23.8867 17 23.8867H7C3.68629 23.8867 1 21.2004 1 17.8867V7.88672ZM14 6.88672C14 5.78215 14.8954 4.88672 16 4.88672H18C19.1046 4.88672 20 5.78215 20 6.88672V8.88672C20 9.99129 19.1046 10.8867 18 10.8867H16C14.8954 10.8867 14 9.99129 14 8.88672V6.88672ZM6 10.8867C4.89543 10.8867 4 11.7821 4 12.8867V18.8867C4 19.9913 4.89543 20.8867 6 20.8867H12C13.1046 20.8867 14 19.9913 14 18.8867V12.8867C14 11.7821 13.1046 10.8867 12 10.8867H6Z" fill="#FF9900"/>
</svg>
