<svg width="189" height="38" viewBox="0 0 189 38" fill="none" xmlns="http://www.w3.org/2000/svg">
<path d="M34.5426 16.9341L27.9078 22.6592L29.9292 31.2211C30.0408 31.6859 30.012 32.1733 29.8467 32.6218C29.6813 33.0702 29.3868 33.4596 29.0003 33.7408C28.6137 34.0219 28.1525 34.1822 27.6749 34.2014C27.1973 34.2206 26.7248 34.0978 26.3169 33.8485L18.8712 29.266L11.421 33.8485C11.0133 34.0963 10.5413 34.218 10.0645 34.1981C9.58773 34.1782 9.12749 34.0177 8.74176 33.7368C8.35602 33.4559 8.06202 33.0671 7.89678 32.6195C7.73154 32.1718 7.70245 31.6853 7.81317 31.2211L9.84195 22.6592L3.20714 16.9341C2.84635 16.6223 2.58542 16.2111 2.45693 15.7519C2.32845 15.2926 2.33811 14.8057 2.4847 14.352C2.63129 13.8982 2.90832 13.4977 3.28119 13.2004C3.65407 12.9031 4.10625 12.7223 4.58128 12.6805L13.2803 11.9787L16.636 3.85764C16.8176 3.41505 17.1268 3.03647 17.5241 2.77003C17.9215 2.50359 18.3891 2.36133 18.8675 2.36133C19.3459 2.36133 19.8135 2.50359 20.2109 2.77003C20.6082 3.03647 20.9174 3.41505 21.099 3.85764L24.4533 11.9787L33.1523 12.6805C33.6282 12.7207 34.0818 12.9005 34.456 13.1974C34.8302 13.4943 35.1085 13.895 35.256 14.3493C35.4035 14.8036 35.4137 15.2914 35.2852 15.7514C35.1567 16.2115 34.8953 16.6234 34.5338 16.9356L34.5426 16.9341Z" fill="#FE8207"/>
<path d="M72.2887 16.9341L65.6539 22.6592L67.6753 31.2211C67.7868 31.6859 67.7581 32.1733 67.5928 32.6218C67.4274 33.0702 67.1329 33.4596 66.7464 33.7408C66.3598 34.0219 65.8986 34.1822 65.421 34.2014C64.9434 34.2206 64.4709 34.0978 64.063 33.8485L56.6173 29.266L49.1671 33.8485C48.7594 34.0963 48.2874 34.218 47.8106 34.1981C47.3338 34.1782 46.8736 34.0177 46.4878 33.7368C46.1021 33.4559 45.8081 33.0671 45.6429 32.6195C45.4776 32.1718 45.4485 31.6853 45.5593 31.2211L47.588 22.6592L40.9532 16.9341C40.5924 16.6223 40.3315 16.2111 40.203 15.7519C40.0745 15.2926 40.0842 14.8057 40.2308 14.352C40.3774 13.8982 40.6544 13.4977 41.0273 13.2004C41.4002 12.9031 41.8523 12.7223 42.3274 12.6805L51.0264 11.9787L54.3821 3.85764C54.5637 3.41505 54.8729 3.03647 55.2702 2.77003C55.6676 2.50359 56.1352 2.36133 56.6136 2.36133C57.092 2.36133 57.5596 2.50359 57.957 2.77003C58.3543 3.03647 58.6635 3.41505 58.8451 3.85764L62.1994 11.9787L70.8984 12.6805C71.3743 12.7207 71.8278 12.9005 72.2021 13.1974C72.5763 13.4943 72.8546 13.895 73.0021 14.3493C73.1496 14.8036 73.1598 15.2914 73.0313 15.7514C72.9028 16.2115 72.6414 16.6234 72.2799 16.9356L72.2887 16.9341Z" fill="#FE8207"/>
<path d="M110.031 16.9341L103.396 22.6592L105.418 31.2211C105.529 31.6859 105.5 32.1733 105.335 32.6218C105.17 33.0702 104.875 33.4596 104.489 33.7408C104.102 34.0219 103.641 34.1822 103.163 34.2014C102.686 34.2206 102.213 34.0978 101.805 33.8485L94.3595 29.266L86.9093 33.8485C86.5015 34.0963 86.0295 34.218 85.5528 34.1981C85.076 34.1782 84.6158 34.0177 84.23 33.7368C83.8443 33.4559 83.5503 33.0671 83.3851 32.6195C83.2198 32.1718 83.1907 31.6853 83.3015 31.2211L85.3302 22.6592L78.6954 16.9341C78.3346 16.6223 78.0737 16.2111 77.9452 15.7519C77.8167 15.2926 77.8264 14.8057 77.973 14.352C78.1196 13.8982 78.3966 13.4977 78.7695 13.2004C79.1423 12.9031 79.5945 12.7223 80.0696 12.6805L88.7685 11.9787L92.1243 3.85764C92.3059 3.41505 92.6151 3.03647 93.0124 2.77003C93.4098 2.50359 93.8774 2.36133 94.3558 2.36133C94.8342 2.36133 95.3018 2.50359 95.6992 2.77003C96.0965 3.03647 96.4057 3.41505 96.5873 3.85764L99.9416 11.9787L108.641 12.6805C109.117 12.7207 109.57 12.9005 109.944 13.1974C110.318 13.4943 110.597 13.895 110.744 14.3493C110.892 14.8036 110.902 15.2914 110.773 15.7514C110.645 16.2115 110.384 16.6234 110.022 16.9356L110.031 16.9341Z" fill="#FE8207"/>
<path d="M147.777 16.9341L141.142 22.6592L143.164 31.2211C143.275 31.6859 143.246 32.1733 143.081 32.6218C142.916 33.0702 142.621 33.4596 142.235 33.7408C141.848 34.0219 141.387 34.1822 140.909 34.2014C140.432 34.2206 139.959 34.0978 139.551 33.8485L132.106 29.266L124.655 33.8485C124.248 34.0963 123.776 34.218 123.299 34.1981C122.822 34.1782 122.362 34.0177 121.976 33.7368C121.59 33.4559 121.296 33.0671 121.131 32.6195C120.966 32.1718 120.937 31.6853 121.048 31.2211L123.076 22.6592L116.442 16.9341C116.081 16.6223 115.82 16.2111 115.691 15.7519C115.563 15.2926 115.572 14.8057 115.719 14.352C115.866 13.8982 116.143 13.4977 116.516 13.2004C116.888 12.9031 117.341 12.7223 117.816 12.6805L126.515 11.9787L129.87 3.85764C130.052 3.41505 130.361 3.03647 130.759 2.77003C131.156 2.50359 131.623 2.36133 132.102 2.36133C132.58 2.36133 133.048 2.50359 133.445 2.77003C133.843 3.03647 134.152 3.41505 134.333 3.85764L137.688 11.9787L146.387 12.6805C146.863 12.7207 147.316 12.9005 147.69 13.1974C148.065 13.4943 148.343 13.895 148.49 14.3493C148.638 14.8036 148.648 15.2914 148.52 15.7514C148.391 16.2115 148.13 16.6234 147.768 16.9356L147.777 16.9341Z" fill="#FE8207"/>
<path d="M185.523 16.9341L178.888 22.6592L180.91 31.2211C181.021 31.6859 180.993 32.1733 180.827 32.6218C180.662 33.0702 180.367 33.4596 179.981 33.7408C179.594 34.0219 179.133 34.1822 178.655 34.2014C178.178 34.2206 177.705 34.0978 177.297 33.8485L169.852 29.266L162.402 33.8485C161.994 34.0963 161.522 34.218 161.045 34.1981C160.568 34.1782 160.108 34.0177 159.722 33.7368C159.336 33.4559 159.042 33.0671 158.877 32.6195C158.712 32.1718 158.683 31.6853 158.794 31.2211L160.822 22.6592L154.188 16.9341C153.827 16.6223 153.566 16.2111 153.437 15.7519C153.309 15.2926 153.319 14.8057 153.465 14.352C153.612 13.8982 153.889 13.4977 154.262 13.2004C154.635 12.9031 155.087 12.7223 155.562 12.6805L164.261 11.9787L167.616 3.85764C167.798 3.41505 168.107 3.03647 168.505 2.77003C168.902 2.50359 169.37 2.36133 169.848 2.36133C170.326 2.36133 170.794 2.50359 171.191 2.77003C171.589 3.03647 171.898 3.41505 172.079 3.85764L175.434 11.9787L184.133 12.6805C184.609 12.7207 185.062 12.9005 185.436 13.1974C185.811 13.4943 186.089 13.895 186.236 14.3493C186.384 14.8036 186.394 15.2914 186.266 15.7514C186.137 16.2115 185.876 16.6234 185.514 16.9356L185.523 16.9341Z" fill="#FE8207"/>
<path d="M181.901 18.7572L179.668 13.3984L183.687 13.6266C184.134 13.6266 184.666 13.7495 185.027 14.2916C185.741 15.3635 185.027 16.2267 184.58 16.5244L181.901 18.7572Z" fill="#FCF4E8"/>
</svg>
