<svg width="33" height="32" viewBox="0 0 33 32" fill="none" xmlns="http://www.w3.org/2000/svg">
<g clip-path="url(#clip0_2786_35538)">
<path d="M32.0147 9.59844C32.0147 9.59844 31.7022 7.39219 30.7397 6.42344C29.521 5.14844 28.1585 5.14219 27.5335 5.06719C23.0585 4.74219 16.3397 4.74219 16.3397 4.74219H16.3272C16.3272 4.74219 9.6085 4.74219 5.1335 5.06719C4.5085 5.14219 3.146 5.14844 1.92725 6.42344C0.964746 7.39219 0.658496 9.59844 0.658496 9.59844C0.658496 9.59844 0.333496 12.1922 0.333496 14.7797V17.2047C0.333496 19.7922 0.652246 22.3859 0.652246 22.3859C0.652246 22.3859 0.964746 24.5922 1.921 25.5609C3.13975 26.8359 4.73975 26.7922 5.45225 26.9297C8.01475 27.1734 16.3335 27.2484 16.3335 27.2484C16.3335 27.2484 23.0585 27.2359 27.5335 26.9172C28.1585 26.8422 29.521 26.8359 30.7397 25.5609C31.7022 24.5922 32.0147 22.3859 32.0147 22.3859C32.0147 22.3859 32.3335 19.7984 32.3335 17.2047V14.7797C32.3335 12.1922 32.0147 9.59844 32.0147 9.59844ZM13.0272 20.1484V11.1547L21.671 15.6672L13.0272 20.1484Z" fill="white"/>
</g>
<defs>
<clipPath id="clip0_2786_35538">
<rect width="32" height="32" fill="white" transform="translate(0.333496)"/>
</clipPath>
</defs>
</svg>
